<svg width="114" height="19" viewBox="0 0 114 19" fill="none" xmlns="http://www.w3.org/2000/svg">
<path d="M30.7804 15L30.7684 8.88L27.7324 13.98H27.1804L24.1444 8.916V15H22.9924V6.6H23.9764L27.4804 12.504L30.9364 6.6H31.9204L31.9324 15H30.7804ZM36.6014 8.58C37.4814 8.58 38.1534 8.796 38.6174 9.228C39.0894 9.66 39.3254 10.304 39.3254 11.16V15H38.2334V14.16C38.0414 14.456 37.7654 14.684 37.4054 14.844C37.0534 14.996 36.6334 15.072 36.1454 15.072C35.4334 15.072 34.8614 14.9 34.4294 14.556C34.0054 14.212 33.7934 13.76 33.7934 13.2C33.7934 12.64 33.9974 12.192 34.4054 11.856C34.8134 11.512 35.4614 11.34 36.3494 11.34H38.1734V11.112C38.1734 10.616 38.0294 10.236 37.7414 9.972C37.4534 9.708 37.0294 9.576 36.4694 9.576C36.0934 9.576 35.7254 9.64 35.3654 9.768C35.0054 9.888 34.7014 10.052 34.4534 10.26L33.9734 9.396C34.3014 9.132 34.6934 8.932 35.1494 8.796C35.6054 8.652 36.0894 8.58 36.6014 8.58ZM36.3374 14.184C36.7774 14.184 37.1574 14.088 37.4774 13.896C37.7974 13.696 38.0294 13.416 38.1734 13.056V12.168H36.3974C35.4214 12.168 34.9334 12.496 34.9334 13.152C34.9334 13.472 35.0574 13.724 35.3054 13.908C35.5534 14.092 35.8974 14.184 36.3374 14.184ZM42.5612 9.708C42.7612 9.34 43.0572 9.06 43.4492 8.868C43.8412 8.676 44.3172 8.58 44.8772 8.58V9.696C44.8132 9.688 44.7252 9.684 44.6132 9.684C43.9892 9.684 43.4972 9.872 43.1372 10.248C42.7852 10.616 42.6092 11.144 42.6092 11.832V15H41.4572V8.64H42.5612V9.708ZM48.7691 12.036L47.4491 13.26V15H46.2971V6.096H47.4491V11.808L50.9171 8.64H52.3091L49.6331 11.268L52.5731 15H51.1571L48.7691 12.036ZM59.1701 11.856C59.1701 11.944 59.1621 12.06 59.1461 12.204H53.9861C54.0581 12.764 54.3021 13.216 54.7181 13.56C55.1421 13.896 55.6661 14.064 56.2901 14.064C57.0501 14.064 57.6621 13.808 58.1261 13.296L58.7621 14.04C58.4741 14.376 58.1141 14.632 57.6821 14.808C57.2581 14.984 56.7821 15.072 56.2541 15.072C55.5821 15.072 54.9861 14.936 54.4661 14.664C53.9461 14.384 53.5421 13.996 53.2541 13.5C52.9741 13.004 52.8341 12.444 52.8341 11.82C52.8341 11.204 52.9701 10.648 53.2421 10.152C53.5221 9.656 53.9021 9.272 54.3821 9C54.8701 8.72 55.4181 8.58 56.0261 8.58C56.6341 8.58 57.1741 8.72 57.6461 9C58.1261 9.272 58.4981 9.656 58.7621 10.152C59.0341 10.648 59.1701 11.216 59.1701 11.856ZM56.0261 9.552C55.4741 9.552 55.0101 9.72 54.6341 10.056C54.2661 10.392 54.0501 10.832 53.9861 11.376H58.0661C58.0021 10.84 57.7821 10.404 57.4061 10.068C57.0381 9.724 56.5781 9.552 56.0261 9.552ZM64.3457 14.628C64.1777 14.772 63.9697 14.884 63.7217 14.964C63.4737 15.036 63.2177 15.072 62.9537 15.072C62.3137 15.072 61.8177 14.9 61.4657 14.556C61.1137 14.212 60.9377 13.72 60.9377 13.08V9.588H59.8577V8.64H60.9377V7.248H62.0897V8.64H63.9137V9.588H62.0897V13.032C62.0897 13.376 62.1737 13.64 62.3417 13.824C62.5177 14.008 62.7657 14.1 63.0857 14.1C63.4377 14.1 63.7377 14 63.9857 13.8L64.3457 14.628ZM69.1105 8.58C69.7265 8.58 70.2785 8.716 70.7665 8.988C71.2545 9.26 71.6345 9.64 71.9065 10.128C72.1865 10.616 72.3265 11.18 72.3265 11.82C72.3265 12.46 72.1865 13.028 71.9065 13.524C71.6345 14.012 71.2545 14.392 70.7665 14.664C70.2785 14.936 69.7265 15.072 69.1105 15.072C68.6545 15.072 68.2345 14.984 67.8505 14.808C67.4745 14.632 67.1545 14.376 66.8905 14.04V17.328H65.7385V8.64H66.8425V9.648C67.0985 9.296 67.4225 9.032 67.8145 8.856C68.2065 8.672 68.6385 8.58 69.1105 8.58ZM69.0145 14.064C69.4225 14.064 69.7865 13.972 70.1065 13.788C70.4345 13.596 70.6905 13.332 70.8745 12.996C71.0665 12.652 71.1625 12.26 71.1625 11.82C71.1625 11.38 71.0665 10.992 70.8745 10.656C70.6905 10.312 70.4345 10.048 70.1065 9.864C69.7865 9.68 69.4225 9.588 69.0145 9.588C68.6145 9.588 68.2505 9.684 67.9225 9.876C67.6025 10.06 67.3465 10.32 67.1545 10.656C66.9705 10.992 66.8785 11.38 66.8785 11.82C66.8785 12.26 66.9705 12.652 67.1545 12.996C67.3385 13.332 67.5945 13.596 67.9225 13.788C68.2505 13.972 68.6145 14.064 69.0145 14.064ZM73.9182 6.096H75.0702V15H73.9182V6.096ZM79.5857 8.58C80.4657 8.58 81.1377 8.796 81.6017 9.228C82.0737 9.66 82.3097 10.304 82.3097 11.16V15H81.2177V14.16C81.0257 14.456 80.7497 14.684 80.3897 14.844C80.0377 14.996 79.6177 15.072 79.1297 15.072C78.4177 15.072 77.8457 14.9 77.4137 14.556C76.9897 14.212 76.7777 13.76 76.7777 13.2C76.7777 12.64 76.9817 12.192 77.3897 11.856C77.7977 11.512 78.4457 11.34 79.3337 11.34H81.1577V11.112C81.1577 10.616 81.0137 10.236 80.7257 9.972C80.4377 9.708 80.0137 9.576 79.4537 9.576C79.0777 9.576 78.7097 9.64 78.3497 9.768C77.9897 9.888 77.6857 10.052 77.4377 10.26L76.9577 9.396C77.2857 9.132 77.6777 8.932 78.1337 8.796C78.5897 8.652 79.0737 8.58 79.5857 8.58ZM79.3217 14.184C79.7617 14.184 80.1417 14.088 80.4617 13.896C80.7817 13.696 81.0137 13.416 81.1577 13.056V12.168H79.3817C78.4057 12.168 77.9177 12.496 77.9177 13.152C77.9177 13.472 78.0417 13.724 78.2897 13.908C78.5377 14.092 78.8817 14.184 79.3217 14.184ZM87.2488 15.072C86.6008 15.072 86.0208 14.932 85.5088 14.652C85.0048 14.372 84.6088 13.988 84.3208 13.5C84.0328 13.004 83.8888 12.444 83.8888 11.82C83.8888 11.196 84.0328 10.64 84.3208 10.152C84.6088 9.656 85.0048 9.272 85.5088 9C86.0208 8.72 86.6008 8.58 87.2488 8.58C87.8248 8.58 88.3368 8.696 88.7848 8.928C89.2408 9.16 89.5928 9.496 89.8408 9.936L88.9648 10.5C88.7648 10.196 88.5168 9.968 88.2208 9.816C87.9248 9.664 87.5968 9.588 87.2368 9.588C86.8208 9.588 86.4448 9.68 86.1088 9.864C85.7808 10.048 85.5208 10.312 85.3288 10.656C85.1448 10.992 85.0528 11.38 85.0528 11.82C85.0528 12.268 85.1448 12.664 85.3288 13.008C85.5208 13.344 85.7808 13.604 86.1088 13.788C86.4448 13.972 86.8208 14.064 87.2368 14.064C87.5968 14.064 87.9248 13.988 88.2208 13.836C88.5168 13.684 88.7648 13.456 88.9648 13.152L89.8408 13.704C89.5928 14.144 89.2408 14.484 88.7848 14.724C88.3368 14.956 87.8248 15.072 87.2488 15.072ZM96.9865 11.856C96.9865 11.944 96.9785 12.06 96.9625 12.204H91.8025C91.8745 12.764 92.1185 13.216 92.5345 13.56C92.9585 13.896 93.4825 14.064 94.1065 14.064C94.8665 14.064 95.4785 13.808 95.9425 13.296L96.5785 14.04C96.2905 14.376 95.9305 14.632 95.4985 14.808C95.0745 14.984 94.5985 15.072 94.0705 15.072C93.3985 15.072 92.8025 14.936 92.2825 14.664C91.7625 14.384 91.3585 13.996 91.0705 13.5C90.7905 13.004 90.6505 12.444 90.6505 11.82C90.6505 11.204 90.7865 10.648 91.0585 10.152C91.3385 9.656 91.7185 9.272 92.1985 9C92.6865 8.72 93.2345 8.58 93.8425 8.58C94.4505 8.58 94.9905 8.72 95.4625 9C95.9425 9.272 96.3145 9.656 96.5785 10.152C96.8505 10.648 96.9865 11.216 96.9865 11.856ZM93.8425 9.552C93.2905 9.552 92.8265 9.72 92.4505 10.056C92.0825 10.392 91.8665 10.832 91.8025 11.376H95.8825C95.8185 10.84 95.5985 10.404 95.2225 10.068C94.8545 9.724 94.3945 9.552 93.8425 9.552Z" fill="#3B5998"/>
<path d="M18.002 15.5C18.002 16.881 16.883 18 15.502 18H2.50195C1.12145 18 0.00195312 16.881 0.00195312 15.5V2.5C0.00195312 1.119 1.12145 0 2.50195 0H15.502C16.883 0 18.002 1.119 18.002 2.5V15.5Z" fill="#3B5998" fill-opacity="0.88"/>
<path d="M14.186 9.5H12.502V16H10.002V9.5H8.50195V7.5H10.002V6.295C10.003 4.541 10.7315 3.5 12.798 3.5H14.502V5.5H13.3585C12.554 5.5 12.502 5.8 12.502 6.3615V7.5H14.502L14.186 9.5Z" fill="white"/>
</svg>