<svg width="255" height="212" viewBox="0 0 255 212" fill="none" xmlns="http://www.w3.org/2000/svg">
<path d="M182.173 47.9953H180.361C180.004 47.9953 179.714 48.2855 179.714 48.6435V72.9935C179.714 73.3515 180.004 73.6418 180.361 73.6418H182.173C182.531 73.6418 182.82 73.3515 182.82 72.9935V48.6435C182.82 48.2855 182.531 47.9953 182.173 47.9953Z" fill="black"/>
<path d="M170.374 0H88.4984C82.4145 0 77.4826 4.94123 77.4826 11.0366V200.539C77.4826 206.634 82.4145 211.575 88.4984 211.575H170.374C176.458 211.575 181.39 206.634 181.39 200.539V11.0366C181.39 4.94123 176.458 0 170.374 0Z" fill="black"/>
<path d="M166.928 5.51093H155.008V6.94746C155.008 7.84165 154.833 8.72707 154.491 9.55315C154.149 10.3792 153.648 11.1298 153.017 11.7619C152.386 12.394 151.637 12.8953 150.812 13.2371C149.987 13.579 149.103 13.7547 148.211 13.7542H110.304C109.412 13.7547 108.528 13.579 107.703 13.2371C106.879 12.8953 106.129 12.394 105.498 11.7619C104.867 11.1298 104.366 10.3792 104.024 9.55315C103.683 8.72707 103.507 7.84165 103.507 6.94746V5.51093H92.347C90.1583 5.51093 88.0593 6.38201 86.5117 7.93254C84.964 9.48308 84.0946 11.5861 84.0946 13.7789V197.811C84.0946 200.004 84.964 202.107 86.5117 203.657C88.0593 205.208 90.1583 206.079 92.347 206.079H166.928C169.116 206.079 171.215 205.208 172.763 203.657C174.311 202.107 175.18 200.004 175.18 197.811V13.793C175.182 12.7061 174.97 11.6294 174.556 10.6247C174.142 9.61992 173.534 8.70679 172.768 7.93755C172.002 7.1683 171.091 6.55802 170.089 6.14164C169.087 5.72525 168.013 5.51092 166.928 5.51093Z" fill="white"/>
<path d="M132.83 6.31848H120.507C119.903 6.31848 119.414 6.80893 119.414 7.41393V8.17338C119.414 8.77838 119.903 9.26883 120.507 9.26883H132.83C133.434 9.26883 133.923 8.77838 133.923 8.17338V7.41393C133.923 6.80893 133.434 6.31848 132.83 6.31848Z" fill="#E6E8EC"/>
<path d="M137.79 9.46923C138.714 9.46923 139.463 8.71911 139.463 7.79379C139.463 6.86847 138.714 6.11835 137.79 6.11835C136.867 6.11835 136.118 6.86847 136.118 7.79379C136.118 8.71911 136.867 9.46923 137.79 9.46923Z" fill="#E6E8EC"/>
<path d="M130.071 128.079C140.927 128.079 149.727 119.262 149.727 108.385C149.727 97.5088 140.927 88.6918 130.071 88.6918C119.215 88.6918 110.415 97.5088 110.415 108.385C110.415 119.262 119.215 128.079 130.071 128.079Z" fill="white"/>
<path d="M155.924 105.635C155.924 110.841 154.383 115.93 151.496 120.258C148.609 124.587 144.506 127.96 139.706 129.952C134.905 131.944 129.623 132.465 124.527 131.449C119.431 130.434 114.75 127.927 111.076 124.246C107.402 120.564 104.9 115.874 103.886 110.769C102.873 105.663 103.393 100.37 105.382 95.561C107.37 90.7516 110.738 86.6409 115.058 83.7488C119.378 80.8568 124.458 79.3132 129.654 79.3134C133.104 79.3135 136.52 79.9945 139.707 81.3173C142.895 82.6402 145.791 84.5791 148.23 87.0233C150.67 89.4675 152.605 92.3691 153.925 95.5626C155.245 98.756 155.924 102.179 155.924 105.635ZM126.617 119.568L146.105 100.043C146.263 99.8852 146.388 99.698 146.473 99.4919C146.558 99.2858 146.602 99.0648 146.602 98.8417C146.602 98.6185 146.558 98.3975 146.473 98.1914C146.388 97.9853 146.263 97.7981 146.105 97.6405L143.707 95.2557C143.55 95.0978 143.363 94.9725 143.158 94.887C142.953 94.8015 142.732 94.7575 142.51 94.7575C142.287 94.7575 142.067 94.8015 141.862 94.887C141.656 94.9725 141.47 95.0978 141.313 95.2557L125.418 111.18L117.997 103.727C117.678 103.41 117.247 103.232 116.798 103.232C116.349 103.232 115.918 103.41 115.599 103.727L113.201 106.144C112.884 106.463 112.706 106.895 112.706 107.345C112.706 107.795 112.884 108.227 113.201 108.546L124.22 119.582C124.377 119.74 124.564 119.865 124.77 119.951C124.975 120.036 125.196 120.08 125.419 120.08C125.641 120.08 125.862 120.036 126.068 119.951C126.273 119.865 126.46 119.74 126.618 119.582L126.617 119.568Z" fill="#D80A49"/>
<path d="M80.7359 41.7111H80.4638C80.1065 41.7111 79.8168 42.0013 79.8168 42.3593V48.6526C79.8168 49.0106 80.1065 49.3008 80.4638 49.3008H80.7359C81.0932 49.3008 81.3829 49.0106 81.3829 48.6526V42.3593C81.3829 42.0013 81.0932 41.7111 80.7359 41.7111Z" fill="#3F3D56"/>
<path d="M80.8777 55.6085H80.4071C80.0497 55.6085 79.7601 55.8987 79.7601 56.2567V68.1696C79.7601 68.5276 80.0497 68.8178 80.4071 68.8178H80.8777C81.2351 68.8178 81.5247 68.5276 81.5247 68.1696V56.2567C81.5247 55.8987 81.2351 55.6085 80.8777 55.6085Z" fill="#3F3D56"/>
<path d="M80.821 73.4399H80.4353C80.078 73.4399 79.7883 73.7302 79.7883 74.0882V86.1146C79.7883 86.4726 80.078 86.7628 80.4353 86.7628H80.821C81.1783 86.7628 81.4679 86.4726 81.4679 86.1146V74.0882C81.4679 73.7302 81.1783 73.4399 80.821 73.4399Z" fill="#3F3D56"/>
<path d="M58.9751 108.67C59.02 108.713 59.0777 108.741 59.1396 108.749C59.2015 108.757 59.2643 108.745 59.3186 108.714C59.2026 108.716 59.0869 108.701 58.9751 108.67Z" fill="url(#paint0_linear)"/>
<path d="M71.9609 113.759L71.6218 115.609L71.3602 117.025L70.8844 119.613L66.271 122.849C66.271 122.849 65.8552 122.493 65.1692 121.931C63.2785 120.371 59.3048 117.195 56.3868 115.49C55.6363 115.011 54.8242 114.636 53.9729 114.376L71.9609 113.759Z" fill="#FEB9B9"/>
<path d="M68.5765 115.136C68.5765 115.136 73.9555 116.061 74.2706 113.759C74.5856 111.458 71.5018 110.214 68.8884 110.059C66.275 109.904 50.5897 110.984 50.5897 110.984C50.5897 110.984 47.8229 114.681 57.8153 115.3L68.5765 115.136Z" fill="black"/>
<path d="M80.3398 39.1884H52.2001V72.619H80.3398V39.1884Z" fill="#2F2E41"/>
<path opacity="0.1" d="M80.3398 39.3401H52.2001V72.7708H80.3398V39.3401Z" fill="#57041D"/>
<path d="M19.2204 96.4171C18.757 96.534 18.1648 96.9833 17.5063 97.6326C14.6702 100.446 10.6083 107.047 10.6083 107.047C5.4152 100.85 11.1618 95.9529 13.6113 94.2701C14.2069 93.8628 14.607 93.6386 14.607 93.6386L19.2204 96.4171Z" fill="#FEB9B9"/>
<path d="M71.6521 49.7395C71.6521 49.7395 73.0364 59.4445 77.803 61.7555C82.5695 64.0664 71.6521 68.3853 71.6521 68.3853L56.7377 62.835C56.7377 62.835 65.1955 60.061 63.5031 51.8956L71.6521 49.7395Z" fill="#FEB9B9"/>
<path d="M55.6602 108.127L55.3228 109.971L55.0488 111.391L54.573 113.98L49.9596 117.213C49.9596 117.213 49.5437 116.86 48.8577 116.298C46.9671 114.738 42.9936 111.562 40.0711 109.857C39.3209 109.377 38.5088 109.002 37.6572 108.743L55.6602 108.127Z" fill="#FEB9B9"/>
<path d="M51.6695 110.401C51.6695 110.401 56.497 110.435 56.7875 108.127C57.0779 105.819 54.1566 104.582 51.6695 104.427C49.1824 104.272 34.0711 105.424 34.0711 105.424C34.0711 105.424 31.9273 109.783 41.4324 110.4L51.6695 110.401Z" fill="black"/>
<path d="M85.5171 146.659C85.3061 146.555 85.0948 146.448 84.8868 146.344L84.3195 145.627L76.8797 136.175V136.339C76.8294 137.918 76.2937 150.426 72.1152 151.581C67.6563 152.813 62.2773 153.122 59.8252 144.803C57.3731 136.484 52.8928 118.306 48.2919 117.226L55.1361 111.603C55.1361 111.603 59.6676 116.914 61.5139 121.997C61.4447 121.681 58.3154 107.032 60.8836 104.44H83.3374C83.3374 104.44 86.8038 114.331 89.1795 119.231C91.0292 123.035 93.8054 132.03 95.5929 138.117C97.3624 144.127 91.1451 149.434 85.5171 146.659Z" fill="#5C5C5D"/>
<path opacity="0.1" d="M84.8775 107.202C81.4111 109.257 66.1942 108.42 61.2438 108.086L59.895 107.988C59.75 107.988 59.917 107.906 59.917 107.906L60.0557 106.507L63.7458 97.1115L83.5035 85.6323C83.1032 86.8415 82.971 88.6916 83.0026 90.81C83.0939 97.6168 84.8775 107.202 84.8775 107.202Z" fill="black"/>
<path d="M84.8774 106.738C81.4111 108.793 66.1942 107.956 61.2437 107.622L59.895 107.527L59.6712 107.508L59.917 107.445L61.1333 107.129L63.7455 96.6541L83.5032 85.1779C83.1032 86.3872 82.9707 88.2372 83.0023 90.3557C83.0938 97.1559 84.8774 106.738 84.8774 106.738Z" fill="#EFEFEF"/>
<path opacity="0.1" d="M82.9899 90.3492C78.9721 91.2773 70.1301 94.0007 66.733 100.578C64.4674 104.957 62.5609 106.835 61.2311 107.622L59.8823 107.527C59.8911 107.5 59.8985 107.472 59.9043 107.445L61.1206 107.129L63.7328 96.6538L83.4905 85.1779C83.095 86.3806 82.9583 88.2307 82.9899 90.3492Z" fill="black"/>
<path opacity="0.1" d="M14.607 93.6454L19.2203 96.4174C18.757 96.5343 18.1648 96.9835 17.5063 97.6329C17.1217 96.5088 14.7092 94.9398 13.6113 94.2707C14.2066 93.8696 14.607 93.6454 14.607 93.6454Z" fill="black"/>
<path opacity="0.1" d="M59.0601 107.707C59.0096 107.733 58.952 107.743 58.8956 107.735C58.8391 107.728 58.7865 107.702 58.7451 107.663C58.8474 107.693 58.9535 107.708 59.0601 107.707Z" fill="black"/>
<path d="M69.5001 61.1398C69.5001 61.1398 65.3469 61.6006 62.4259 58.5195C62.4259 58.5195 50.1359 62.0649 45.9737 70.0743C41.8115 78.0838 13.5167 93.8 13.5167 93.8C13.5167 93.8 18.4389 96.572 17.9755 97.9578L36.5831 87.1732C36.5831 87.1732 43.2004 82.3997 45.0377 81.3201C46.875 80.2405 57.0341 73.6168 59.1864 91.6408C61.3387 109.665 59.1864 107.508 59.1864 107.508C59.1864 107.508 62.262 108.588 66.7209 99.9596C71.1797 91.3311 85.0165 89.3296 85.0165 89.3296L85.7853 80.2433C85.7853 80.2433 88.53 74.2195 86.4156 71.7192C85.775 70.9789 85.3489 70.077 85.1835 69.1114C84.8337 66.8036 85.1835 62.9582 90.0802 59.7633C97.6147 54.8318 100.536 50.8287 100.536 50.8287C100.536 50.8287 100.69 47.8991 96.0769 46.5129C91.4638 45.1268 72.7048 37.5784 72.7048 37.5784L72.0745 40.1987L86.8755 50.6646C86.8755 50.6646 79.4956 56.6629 73.6408 56.5177C73.6405 56.5177 74.7277 60.985 69.5001 61.1398Z" fill="#D80A49"/>
<path opacity="0.1" d="M72.3485 53.9636C71.9849 52.7287 71.7007 51.4717 71.4978 50.2003L63.3489 52.3572C63.7081 53.9158 63.6439 55.5424 63.163 57.0677C64.829 57.5131 66.5892 57.4561 68.2231 56.904C69.857 56.3518 71.2921 55.329 72.3485 53.9636Z" fill="black"/>
<path d="M65.58 56.9032C70.4199 56.9032 74.3435 52.9723 74.3435 48.1233C74.3435 43.2742 70.4199 39.3433 65.58 39.3433C60.7401 39.3433 56.8166 43.2742 56.8166 48.1233C56.8166 52.9723 60.7401 56.9032 65.58 56.9032Z" fill="#FEB9B9"/>
<path opacity="0.1" d="M75.1122 118.832C75.1122 118.832 80.1855 128.847 78.6477 131.925L75.1122 118.832Z" fill="black"/>
<path d="M70.2403 27.845C72.6728 28.123 74.9828 29.1678 77.3778 29.7393C77.9763 29.9257 78.6135 29.9496 79.2244 29.8086C80.1539 29.5213 80.9102 28.5459 81.8745 28.5742C82.4678 28.5932 82.993 28.9974 83.4815 29.3854C84.2647 29.9861 85.002 30.6446 85.6872 31.3555C87.3383 33.1519 88.3624 35.5703 89.8686 37.5246C91.3747 39.4788 93.5228 41.7705 95.6624 40.8743C94.2068 46.5571 89.6669 50.112 84.5087 50.4659C82.4511 50.6074 80.3429 50.1786 78.3513 50.7815C77.8553 50.9852 77.3315 51.1129 76.7974 51.1602C75.6504 51.1602 74.7271 50.1058 74.0117 49.0797C72.3352 46.6677 71.0087 43.9305 69.1212 41.73C68.4909 41.0009 67.7631 40.3093 66.8807 40.1769C65.9984 40.0444 65.1887 40.4673 64.4041 40.8746C63.109 41.5472 61.7856 42.2415 60.7804 43.4004C59.7752 44.5592 59.1417 46.27 59.5576 47.8204C59.7814 48.6602 60.2922 49.418 60.3012 50.2955C60.3202 51.6972 59.0849 52.7202 58.8423 54.0839C58.7875 54.6568 58.7675 55.2325 58.7824 55.8078C58.6753 57.676 57.4545 59.2045 56.1831 60.3823C55.6853 60.8369 55.1378 61.3295 54.992 62.0334C54.8942 62.5163 54.992 63.0242 54.929 63.5141C54.7431 64.7265 53.5361 65.3421 52.4679 65.5001C51.2198 65.6852 49.945 65.5338 48.7747 65.0613C50.2684 64.3537 51.1886 62.34 50.8419 60.5372C50.3661 58.0366 47.8579 56.2403 48.0732 53.6959C48.1911 52.9152 48.4247 52.1565 48.7665 51.445C49.3131 50.07 49.7103 48.64 49.9514 47.1798C50.1404 46.0527 50.2319 44.8561 49.8788 43.7797C49.5638 42.8008 48.9052 42.0213 48.3472 41.1939C47.5911 40.0683 46.9941 38.8433 46.5732 37.5537C46.4207 37.1712 46.3626 36.7575 46.4037 36.3476C46.5301 35.8636 46.7992 35.4289 47.1758 35.1004C48.5467 33.6568 50.0119 32.158 51.8491 31.7445C52.7257 31.5986 53.6172 31.5647 54.5023 31.6434C56.0417 31.6918 57.5826 31.6263 59.1124 31.4475C60.3727 31.2992 62.5027 31.3182 63.5712 30.5004C64.5668 29.7362 65.1279 28.7766 66.3535 28.2906C67.5947 27.8296 68.9289 27.6768 70.242 27.8453L70.2403 27.845Z" fill="#57041D"/>
<path d="M233.074 211.05C240.095 211.05 245.787 210.085 245.787 208.896C245.787 207.706 240.095 206.742 233.074 206.742C226.054 206.742 220.362 207.706 220.362 208.896C220.362 210.085 226.054 211.05 233.074 211.05Z" fill="#D80A49"/>
<path d="M238.332 205.374C238.911 204.899 239.334 204.26 239.543 203.54C239.701 202.815 239.391 201.955 238.695 201.674C237.918 201.376 237.085 201.918 236.457 202.463C235.829 203.007 235.104 203.632 234.279 203.514C234.703 203.13 235.022 202.641 235.202 202.097C235.382 201.552 235.418 200.97 235.307 200.407C235.27 200.174 235.171 199.955 235.02 199.774C234.59 199.311 233.805 199.508 233.29 199.875C231.646 201.031 231.188 203.272 231.178 205.282C231.011 204.556 231.153 203.799 231.147 203.064C231.141 202.329 230.941 201.479 230.312 201.091C229.924 200.882 229.488 200.78 229.048 200.793C228.308 200.765 227.486 200.841 226.98 201.382C226.348 202.054 226.518 203.182 227.062 203.916C227.606 204.651 228.438 205.123 229.203 205.633C229.814 205.999 230.336 206.498 230.728 207.093C230.775 207.177 230.813 207.265 230.841 207.356H235.46C236.502 206.828 237.468 206.162 238.331 205.375L238.332 205.374Z" fill="#D80A49"/>
<path d="M60.2383 212C64.8716 212 68.6276 211.364 68.6276 210.579C68.6276 209.794 64.8716 209.157 60.2383 209.157C55.6049 209.157 51.8489 209.794 51.8489 210.579C51.8489 211.364 55.6049 212 60.2383 212Z" fill="#EFEFEF"/>
<path d="M63.708 208.254C64.0903 207.941 64.3688 207.519 64.5069 207.044C64.5678 206.806 64.5455 206.554 64.4438 206.33C64.3421 206.106 64.1671 205.923 63.9478 205.813C63.4345 205.616 62.8858 205.974 62.4708 206.333C62.0557 206.693 61.5777 207.105 61.0333 207.027C61.3135 206.773 61.5233 206.451 61.6421 206.092C61.7609 205.732 61.7848 205.348 61.7113 204.977C61.6869 204.823 61.6213 204.678 61.5215 204.559C61.2389 204.254 60.7202 204.383 60.3803 204.625C59.2954 205.39 58.9929 206.866 58.9866 208.194C58.8762 207.715 58.97 207.215 58.9657 206.731C58.9615 206.246 58.8301 205.686 58.4148 205.429C58.1586 205.291 57.8708 205.223 57.5802 205.232C57.092 205.213 56.5496 205.263 56.2156 205.621C55.7983 206.064 55.911 206.808 56.2698 207.293C56.6287 207.778 57.1773 208.09 57.6825 208.426C58.0863 208.667 58.4307 208.995 58.6903 209.388C58.7215 209.443 58.7467 209.501 58.7654 209.562H61.8136C62.5009 209.213 63.1381 208.772 63.708 208.253V208.254Z" fill="#EFEFEF"/>
<path d="M12.7928 212C17.4262 212 21.1822 211.364 21.1822 210.579C21.1822 209.794 17.4262 209.157 12.7928 209.157C8.15952 209.157 4.40347 209.794 4.40347 210.579C4.40347 211.364 8.15952 212 12.7928 212Z" fill="#EFEFEF"/>
<path d="M16.2626 208.254C16.6449 207.941 16.9235 207.519 17.0616 207.044C17.1224 206.806 17.1001 206.554 16.9984 206.33C16.8968 206.106 16.7218 205.923 16.5024 205.813C15.9891 205.616 15.4404 205.974 15.0254 206.333C14.6104 206.693 14.1323 207.105 13.5879 207.027C13.8681 206.773 14.0779 206.451 14.1967 206.092C14.3156 205.732 14.3394 205.348 14.266 204.977C14.2415 204.823 14.1759 204.678 14.0761 204.559C13.7936 204.254 13.2748 204.383 12.935 204.625C11.8501 205.39 11.5475 206.866 11.5413 208.194C11.4308 207.715 11.5246 207.215 11.5203 206.731C11.5161 206.246 11.3847 205.686 10.9694 205.429C10.7133 205.291 10.4254 205.223 10.1348 205.232C9.64662 205.213 9.10418 205.263 8.77024 205.621C8.35294 206.064 8.46566 206.808 8.82447 207.293C9.18328 207.778 9.73195 208.09 10.2371 208.426C10.6409 208.667 10.9854 208.995 11.2449 209.388C11.2761 209.443 11.3013 209.501 11.32 209.562H14.3682C15.0555 209.213 15.6927 208.772 16.2626 208.253V208.254Z" fill="#EFEFEF"/>
<path d="M255 211.188H0V211.704H255V211.188Z" fill="#1B191B"/>
<path d="M242.553 14.3013C242.553 14.3013 215.933 12.6921 219.069 31.3804C219.069 31.3804 218.437 34.684 221.434 36.1822C221.434 36.1822 221.481 34.7981 224.165 35.2699C225.121 35.4286 226.092 35.4753 227.058 35.4092C228.362 35.3233 229.602 34.8152 230.592 33.9616C230.592 33.9616 238.076 30.8638 240.984 18.6121C240.984 18.6121 243.137 15.9388 243.052 15.2513L238.56 17.1738C238.56 17.1738 240.096 20.4205 238.876 23.1181C238.876 23.1181 238.73 17.2899 237.867 17.4167C237.694 17.4422 235.534 18.541 235.534 18.541C235.534 18.541 238.174 24.1949 236.182 28.3066C236.182 28.3066 236.938 21.3382 234.709 18.9498L231.547 20.7996C231.547 20.7996 234.633 26.6405 232.54 31.4076C232.54 31.4076 233.077 24.0969 230.88 21.2494L228.016 23.4886C228.016 23.4886 230.915 29.2438 229.148 33.1976C229.148 33.1976 228.917 24.6897 227.396 24.0468C227.396 24.0468 224.889 26.2641 224.507 27.1699C224.507 27.1699 226.492 31.3509 225.259 33.5554C225.259 33.5554 224.503 27.8857 223.884 27.854C223.884 27.854 221.386 31.6105 221.127 34.1889C221.127 34.1889 221.234 30.3594 223.28 27.4993C223.28 27.4993 220.864 27.9143 219.454 29.4808C219.454 29.4808 219.843 26.8265 223.896 26.5921C223.896 26.5921 225.96 23.7414 226.51 23.5704C226.51 23.5704 222.483 23.2308 220.039 24.318C220.039 24.318 222.189 21.8126 227.25 22.9528L230.08 20.6374C230.08 20.6374 224.775 19.9119 222.524 20.7135C222.524 20.7135 225.113 18.4963 230.842 20.1117L233.921 18.2682C233.921 18.2682 229.397 17.2924 226.704 17.6347C226.704 17.6347 229.549 16.0985 234.826 17.7646L237.039 16.7739C237.039 16.7739 233.725 16.1214 232.755 16.017C231.784 15.9125 231.734 15.6464 231.734 15.6464C233.833 15.2958 235.988 15.536 237.959 16.3402C237.959 16.3402 242.632 14.596 242.553 14.3013Z" fill="#D80A49"/>
<path d="M206.079 4.40757C206.079 4.40757 194.066 3.68208 195.469 12.1266C195.469 12.1266 195.187 13.6187 196.538 14.2963C196.538 14.2963 196.56 13.6628 197.774 13.8813C198.205 13.9541 198.643 13.9753 199.079 13.9447C199.669 13.9056 200.23 13.6742 200.676 13.2858C200.676 13.2858 204.059 11.8858 205.374 6.34908C205.374 6.34908 206.344 5.14239 206.306 4.83188L204.276 5.69974C204.276 5.69974 204.969 7.16628 204.425 8.38571C204.425 8.38571 204.359 5.75324 203.97 5.81381C203.891 5.81381 202.914 6.32332 202.914 6.32332C202.914 6.32332 204.109 8.87937 203.208 10.7357C203.208 10.7357 203.549 7.58719 202.541 6.50703L201.112 7.35622C201.112 7.35622 202.506 9.99463 201.561 12.1487C201.561 12.1487 201.804 8.84512 200.811 7.55917L199.518 8.57281C199.518 8.57281 200.827 11.1733 200.031 12.9603C200.031 12.9603 199.923 9.11487 199.237 8.8236C199.237 8.8236 198.105 9.82451 197.931 10.2364C197.931 10.2364 198.829 12.1368 198.273 13.1219C198.273 13.1219 197.931 10.5593 197.64 10.546C197.64 10.546 196.512 12.2444 196.395 13.3967C196.451 12.3217 196.787 11.2802 197.369 10.3751C196.717 10.4987 196.116 10.8103 195.639 11.2715C195.639 11.2715 195.816 10.0711 197.647 9.9666C197.647 9.9666 198.595 8.67754 198.829 8.59829C198.829 8.59829 197.008 8.44628 195.905 8.93796C195.905 8.93796 196.875 7.80713 199.161 8.32032L200.426 7.27498C200.426 7.27498 198.027 6.95512 197.01 7.30781C197.01 7.30781 198.18 6.3069 200.769 7.0355L202.16 6.20246C202.16 6.20246 200.115 5.7623 198.898 5.9194C198.898 5.9194 200.184 5.22561 202.568 5.97601L203.564 5.52934C203.564 5.52934 202.067 5.23467 201.626 5.18712C201.185 5.13956 201.164 5.01926 201.164 5.01926C202.113 4.86108 203.088 4.97076 203.978 5.33601C203.978 5.33601 206.116 4.53947 206.079 4.40757Z" fill="#1B191B"/>
<path d="M20.8144 133.324C20.8144 133.324 8.80074 132.599 10.2043 141.043C10.2043 141.043 9.9218 142.535 11.2728 143.213C11.2728 143.213 11.2949 142.579 12.5089 142.798C12.9401 142.87 13.3783 142.892 13.8145 142.861C14.4042 142.822 14.9649 142.591 15.411 142.202C15.411 142.202 18.7937 140.802 20.1089 135.266C20.1089 135.266 21.0794 134.059 21.0412 133.748L19.0116 134.616C19.0116 134.616 19.704 136.083 19.1602 137.302C19.1602 137.302 19.0938 134.67 18.705 134.73C18.6259 134.73 17.6489 135.24 17.6489 135.24C17.6489 135.24 18.844 137.796 17.943 139.652C17.943 139.652 18.2843 136.504 17.276 135.423L15.847 136.273C15.847 136.273 17.2412 138.911 16.2959 141.065C16.2959 141.065 16.5394 137.762 15.5466 136.476L14.2535 137.489C14.2535 137.489 15.5625 140.09 14.7657 141.877C14.7657 141.877 14.6584 138.031 13.9721 137.74C13.9721 137.74 12.8403 138.741 12.6663 139.153C12.6663 139.153 13.5641 141.053 13.0078 142.038C13.0078 142.038 12.6663 139.476 12.3756 139.462C12.3756 139.462 11.2469 141.161 11.1299 142.313C11.1864 141.238 11.5221 140.197 12.1038 139.291C11.4524 139.415 10.8514 139.727 10.3744 140.188C10.3744 140.188 10.5516 138.987 12.3821 138.883C12.3821 138.883 13.3305 137.594 13.5644 137.515C13.5644 137.515 11.7435 137.363 10.64 137.854C10.64 137.854 11.6105 136.724 13.8964 137.237L15.161 136.191C15.161 136.191 12.7623 135.872 11.7452 136.224C11.7452 136.224 12.9149 135.223 15.5043 135.952L16.8954 135.119C16.8954 135.119 14.8499 134.679 13.6328 134.836C13.6328 134.836 14.9194 134.142 17.3034 134.892L18.2993 134.446C18.2993 134.446 16.8019 134.151 16.3612 134.104C15.9204 134.056 15.8995 133.936 15.8995 133.936C16.8486 133.778 17.8229 133.887 18.7132 134.252C18.7132 134.252 20.8514 133.456 20.8144 133.324Z" fill="#1B191B"/>
<defs>
<linearGradient id="paint0_linear" x1="59.1486" y1="108.752" x2="59.1486" y2="108.67" gradientUnits="userSpaceOnUse">
<stop stop-color="#808080" stop-opacity="0.251"/>
<stop offset="0.54" stop-color="#808080" stop-opacity="0.122"/>
<stop offset="1" stop-color="#808080" stop-opacity="0.102"/>
</linearGradient>
</defs>
</svg>
