<svg width="250" height="204" viewBox="0 0 250 204" fill="none" xmlns="http://www.w3.org/2000/svg">
<g clip-path="url(#clip0)">
<path opacity="0.18" d="M103.091 29.534C88.3941 41.8053 76.5506 57.4559 60.9185 68.5584C46.4603 78.788 29.0078 84.9201 16.5669 97.5223C5.94162 108.281 -0.012714 122.807 -0.000867366 137.94C0.0109793 153.073 5.98804 167.589 16.6301 178.331C31.5101 193.348 53.5102 199.008 74.6036 200.121C95.697 201.233 116.847 198.466 137.94 199.6C157.902 200.677 177.751 205.232 197.685 203.725C217.618 202.219 238.726 192.806 246.598 174.41C255.314 154.049 245.326 131.14 238.438 110.096C233.238 94.1845 229.806 77.747 228.204 61.0816C225.814 36.1519 221.414 1.5347 190.094 0.154799C158.984 -1.2603 126.94 9.58881 103.091 29.534Z" fill="#878789"/>
<path d="M186.959 168.094C188.252 168.756 188.442 170.657 187.711 171.903C186.98 173.149 185.602 173.896 184.316 174.508C181.22 175.947 177.971 177.026 174.63 177.726C173.119 178.049 171.116 178.908 171.495 180.415C171.77 181.619 173.323 181.907 174.553 181.929C192.828 182.21 210.899 177.296 229.167 177.704C230.376 177.704 231.718 177.838 232.548 178.725C233.595 179.845 233.314 181.647 232.723 183.062C229.462 190.919 220.071 193.982 211.679 195.34C192.568 198.445 173.07 197.558 153.713 197.34C115.16 196.917 76.5013 199.191 38.089 195.826C37.2755 195.828 36.4775 195.604 35.7836 195.178C35.0989 194.571 34.6778 193.72 34.6098 192.806C33.9561 188.124 37.6954 183.724 42.0954 182.013C46.4954 180.302 51.3804 180.605 56.0897 180.95C76.0445 182.358 96.0835 183.555 116.031 182.048C129.096 181.174 142.018 178.812 154.549 175.008C160.306 173.213 166.132 169.678 172.016 168.601C173.829 168.27 175.671 168.496 177.498 168.404C180.155 168.27 184.485 166.834 186.959 168.094Z" fill="url(#paint0_linear)"/>
<path d="M0 134.456C0.0702879 136.814 1.23004 138.983 2.38979 141.038C7.66841 150.367 13.5726 159.547 21.726 166.475C33.7312 176.648 49.4546 181.027 64.6368 185.139C63.2732 184.477 61.6425 177.472 61.038 175.93C59.8642 172.91 58.7677 169.862 57.6361 166.834C55.8578 162.04 52.1044 158.182 48.4987 154.654C40.2353 146.696 30.2119 140.805 19.2448 137.462C13.0031 135.558 6.52423 134.546 0 134.456Z" fill="#D80A49"/>
<path d="M0 134.456C0.0702879 136.814 1.23004 138.983 2.38979 141.038C7.66841 150.367 13.5726 159.547 21.726 166.475C33.7312 176.648 49.4546 181.027 64.6368 185.139C63.2732 184.477 61.6425 177.472 61.038 175.93C59.8642 172.91 58.7677 169.862 57.6361 166.834C55.8578 162.04 52.1044 158.182 48.4987 154.654C40.2353 146.696 30.2119 140.805 19.2448 137.462C13.0031 135.558 6.52423 134.546 0 134.456Z" fill="url(#paint1_linear)"/>
<path d="M59.4003 139.666C58.1632 130.992 56.891 122.199 53.4047 114.159C49.9185 106.119 43.8807 98.8319 35.6781 95.7482L34.9752 133.027C34.8347 140.201 34.7152 147.516 36.7676 154.394C40.3804 166.447 52.8916 180.591 64.953 184.576C66.7383 178.782 63.7371 170.016 62.8444 164.004L59.4003 139.666Z" fill="#D80A49"/>
<path d="M208.938 128.471C208.875 130.823 207.708 132.998 206.548 135.047C201.283 144.376 195.372 153.563 187.205 160.484C175.2 170.657 159.483 175.043 144.329 179.148C145.686 178.486 147.316 171.481 147.921 169.939C149.095 166.919 150.191 163.877 151.323 160.843C153.101 156.048 156.854 152.197 160.502 148.67C168.75 140.712 178.759 134.821 189.714 131.478C195.947 129.567 202.42 128.555 208.938 128.471Z" fill="#D80A49"/>
<path d="M208.938 128.471C208.875 130.823 207.708 132.998 206.548 135.047C201.283 144.376 195.372 153.563 187.205 160.484C175.2 170.657 159.483 175.043 144.329 179.148C145.686 178.486 147.316 171.481 147.921 169.939C149.095 166.919 150.191 163.877 151.323 160.843C153.101 156.048 156.854 152.197 160.502 148.67C168.75 140.712 178.759 134.821 189.714 131.478C195.947 129.567 202.42 128.555 208.938 128.471Z" fill="url(#paint2_linear)"/>
<path d="M149.538 133.688C150.775 125.015 152.047 116.214 155.533 108.181C159.019 100.148 165.057 92.8194 173.26 89.7639C173.499 102.192 173.733 114.616 173.963 127.035C174.096 134.216 174.223 141.531 172.163 148.41C168.557 160.463 156.039 174.607 143.985 178.584C142.192 172.797 145.194 164.025 146.051 158.013L149.538 133.688Z" fill="#D80A49"/>
<path d="M137.047 12.2783L71.9818 18.692C65.2623 19.3538 59.808 25.0283 59.808 31.3294V177.451C59.808 183.787 65.2623 188.349 71.9818 187.688L137.047 181.274C143.774 180.612 149.228 174.938 149.228 168.644V22.5219C149.228 16.1997 143.774 11.6165 137.047 12.2783ZM143.015 168.953C143.015 172.847 139.655 176.332 135.515 176.74L72.2911 182.971C68.1441 183.379 64.7844 180.556 64.7844 176.634V30.8999C64.7844 27.0066 68.1441 23.5217 72.2911 23.1133L81.7659 22.177V23.0429C81.7659 25.5352 83.9167 27.3445 86.5666 27.0841L121.535 23.6836C122.803 23.5761 123.989 23.0118 124.873 22.0952C125.757 21.1786 126.279 19.9719 126.342 18.699V17.8683L135.48 16.9671C139.62 16.5588 142.98 19.382 142.98 23.3034L143.015 168.953Z" fill="#D80A49"/>
<path d="M140.112 14.9747L75.0393 21.3885C68.3198 22.0502 62.8655 27.7247 62.8655 34.061V180.147C62.8655 186.484 68.3198 191.046 75.0393 190.384L140.112 183.977C146.831 183.316 152.286 177.641 152.286 171.34V25.2184C152.286 18.9032 146.838 14.3481 140.112 14.9747ZM146.079 171.65C146.079 175.543 142.72 179.028 138.573 179.436L75.3135 185.667C71.1665 186.075 67.8067 183.252 67.8067 179.331V33.5964C67.8067 29.7031 71.1665 26.2111 75.3135 25.8027L84.8234 24.9086V25.7675C84.8234 28.2598 86.9742 30.0692 89.6241 29.8087L124.599 26.366C125.864 26.2542 127.045 25.6892 127.927 24.7748C128.809 23.8604 129.332 22.658 129.4 21.3885V20.5366L138.573 19.6284C142.72 19.22 146.079 22.0502 146.079 25.9647V171.65Z" fill="white"/>
<path d="M146.079 25.9435V171.678C146.079 175.571 142.72 179.056 138.573 179.465L75.3135 185.695C71.1665 186.104 67.8067 183.28 67.8067 179.359V33.6245C67.8067 29.7312 71.1665 26.2392 75.3135 25.8309L84.8234 24.9086V25.7675C84.8234 28.2598 86.9742 30.0692 89.6241 29.8087L124.599 26.366C125.864 26.2542 127.045 25.6892 127.927 24.7748C128.809 23.8604 129.332 22.658 129.4 21.3885V20.5366L138.573 19.6284C142.72 19.22 146.079 22.0502 146.079 25.9435Z" stroke="url(#paint3_linear)" stroke-width="0.63" stroke-miterlimit="10"/>
<path d="M146.079 25.9435V171.678C146.079 175.571 142.72 179.056 138.573 179.465L75.3135 185.695C71.1665 186.104 67.8067 183.28 67.8067 179.359V33.6245C67.8067 29.7312 71.1665 26.2392 75.3135 25.8309L84.8234 24.9086V25.7675C84.8234 28.2598 86.9742 30.0692 89.6241 29.8087L124.599 26.366C125.864 26.2542 127.045 25.6892 127.927 24.7748C128.809 23.8604 129.332 22.658 129.4 21.3885V20.5366L138.573 19.6284C142.72 19.22 146.079 22.0502 146.079 25.9435Z" fill="#D80A49"/>
<path d="M124.487 164.222L92.7168 167.271C92.269 167.308 91.8184 167.251 91.3936 167.105C90.9687 166.959 90.5788 166.725 90.2485 166.42C89.9182 166.115 89.6546 165.745 89.4746 165.333C89.2945 164.92 89.2018 164.475 89.2024 164.025V156.063C89.2021 155.243 89.5065 154.453 90.0562 153.847C90.6059 153.24 91.3615 152.861 92.1755 152.782L123.932 149.733C124.383 149.69 124.838 149.742 125.268 149.885C125.698 150.029 126.093 150.261 126.428 150.567C126.763 150.872 127.03 151.245 127.213 151.66C127.395 152.076 127.489 152.525 127.488 152.979V160.941C127.486 161.765 127.177 162.557 126.622 163.164C126.067 163.771 125.305 164.149 124.487 164.222Z" fill="url(#paint4_linear)"/>
<path d="M111.877 24.4721L99.858 25.6549V24.6552L111.877 23.4724V24.4721Z" fill="url(#paint5_linear)"/>
<path d="M115.648 24.5357C116.288 24.1609 116.537 23.3944 116.204 22.8238C115.871 22.2531 115.082 22.0944 114.442 22.4692C113.802 22.844 113.553 23.6104 113.886 24.181C114.219 24.7517 115.008 24.9105 115.648 24.5357Z" fill="url(#paint6_linear)"/>
<path d="M83.5794 136.223L129.414 131.823C130.96 131.683 132.396 130.966 133.438 129.814C134.479 128.663 135.05 127.16 135.037 125.606V73.8106C135.03 72.8691 134.828 71.9392 134.446 71.0791C134.063 70.2191 133.507 69.4474 132.813 68.8124C132.119 68.1773 131.302 67.6926 130.412 67.3884C129.522 67.0843 128.58 66.9673 127.643 67.0449L81.8081 71.4451C80.2633 71.583 78.827 72.2985 77.7851 73.4492C76.7431 74.5998 76.1719 76.1012 76.1851 77.6546V129.457C76.1925 130.399 76.3939 131.329 76.7765 132.189C77.1592 133.049 77.7149 133.82 78.409 134.455C79.103 135.091 79.9205 135.575 80.8101 135.879C81.6998 136.184 82.6425 136.3 83.5794 136.223Z" fill="#C9D9DF"/>
<path d="M86.2854 136.955L132.12 132.555C133.665 132.417 135.101 131.702 136.143 130.551C137.185 129.4 137.756 127.899 137.743 126.345V74.5428C137.736 73.6013 137.534 72.6714 137.152 71.8114C136.769 70.9513 136.213 70.1796 135.519 69.5446C134.825 68.9095 134.008 68.4248 133.118 68.1206C132.229 67.8165 131.286 67.6996 130.349 67.7771L84.5142 72.1773C82.9688 72.3169 81.5324 73.0339 80.4906 74.1857C79.4488 75.3374 78.8778 76.8397 78.8912 78.3939V130.189C78.8986 131.131 79.1 132.061 79.4826 132.921C79.8653 133.781 80.421 134.553 81.1151 135.188C81.8091 135.823 82.6265 136.307 83.5162 136.612C84.4059 136.916 85.3486 137.033 86.2854 136.955Z" fill="url(#paint7_linear)"/>
<path d="M126.075 163.166L94.3193 166.208C93.8686 166.252 93.4136 166.201 92.9837 166.058C92.5538 165.916 92.1585 165.684 91.8234 165.379C91.4883 165.074 91.2207 164.702 91.038 164.287C90.8554 163.872 90.7616 163.423 90.7628 162.969V155.006C90.7625 154.187 91.0669 153.397 91.6166 152.791C92.1663 152.184 92.9219 151.804 93.7359 151.726L125.492 148.677C125.943 148.634 126.398 148.686 126.828 148.829C127.258 148.973 127.653 149.205 127.988 149.511C128.323 149.816 128.591 150.189 128.773 150.604C128.956 151.02 129.05 151.469 129.049 151.923V159.885C129.049 160.705 128.744 161.495 128.195 162.101C127.645 162.708 126.889 163.087 126.075 163.166Z" fill="white"/>
<path d="M100.195 159.724L101.503 159.597C101.505 159.664 101.522 159.729 101.552 159.789C101.583 159.848 101.626 159.901 101.678 159.942C101.821 160.031 101.99 160.066 102.156 160.04C102.322 160.027 102.482 159.972 102.62 159.878C102.682 159.84 102.733 159.786 102.768 159.722C102.802 159.658 102.819 159.585 102.817 159.512C102.821 159.477 102.821 159.442 102.817 159.407C102.777 159.355 102.727 159.312 102.67 159.28C102.554 159.212 102.428 159.165 102.297 159.139L101.671 158.998C101.427 158.958 101.189 158.88 100.969 158.766C100.797 158.682 100.649 158.556 100.54 158.4C100.38 158.171 100.294 157.898 100.294 157.618C100.29 157.394 100.335 157.171 100.427 156.965C100.518 156.76 100.652 156.577 100.821 156.429C101.193 156.101 101.662 155.905 102.156 155.872C102.62 155.801 103.094 155.912 103.478 156.182C103.648 156.313 103.784 156.483 103.873 156.678C103.963 156.873 104.003 157.087 103.991 157.302L102.698 157.421C102.698 157.105 102.515 156.964 102.142 156.999C101.992 157.002 101.847 157.054 101.728 157.147C101.681 157.184 101.644 157.231 101.618 157.285C101.593 157.338 101.58 157.397 101.58 157.457C101.58 157.64 101.742 157.766 102.072 157.83L102.684 157.963C103.668 158.161 104.16 158.667 104.16 159.372C104.166 159.711 104.054 160.042 103.843 160.308C103.648 160.561 103.392 160.759 103.098 160.885C102.809 161.014 102.5 161.092 102.185 161.118C101.695 161.192 101.195 161.084 100.779 160.815C100.598 160.696 100.45 160.534 100.349 160.343C100.247 160.153 100.194 159.94 100.195 159.724Z" fill="#D80A49"/>
<path d="M108.623 158.674L109.684 159.287C109.438 159.674 109.106 160 108.714 160.237C108.323 160.482 107.88 160.632 107.421 160.674C107.078 160.716 106.729 160.686 106.398 160.584C106.068 160.482 105.762 160.311 105.502 160.083C105.246 159.862 105.041 159.587 104.904 159.278C104.766 158.969 104.699 158.633 104.708 158.294C104.709 157.569 104.994 156.874 105.502 156.358C105.998 155.81 106.684 155.472 107.421 155.415C107.864 155.365 108.311 155.431 108.721 155.605C109.108 155.771 109.443 156.038 109.691 156.379L108.616 157.196C108.492 157.009 108.316 156.862 108.11 156.774C107.89 156.673 107.647 156.634 107.407 156.661C107.023 156.693 106.665 156.872 106.409 157.161C106.146 157.432 105.999 157.796 106.001 158.175C105.994 158.351 106.028 158.527 106.098 158.689C106.169 158.852 106.275 158.996 106.409 159.111C106.543 159.232 106.702 159.322 106.874 159.375C107.046 159.429 107.228 159.444 107.407 159.421C107.657 159.403 107.898 159.323 108.11 159.188C108.318 159.059 108.493 158.883 108.623 158.674Z" fill="#D80A49"/>
<path d="M113.747 159.991L113.297 158.858L111.624 159.012L111.174 160.23L109.769 160.357L111.737 155.049L113.142 154.922L115.096 159.85L113.747 159.991ZM112.447 156.175L111.969 157.907L112.967 157.816L112.447 156.175Z" fill="#D80A49"/>
<path d="M118.386 154.45L119.672 154.331V159.463L118.548 159.562L116.917 156.914V159.731L115.624 159.85V154.718L116.79 154.612L118.386 157.224V154.45Z" fill="#D80A49"/>
<path d="M169.917 81.9815L135.441 66L79 72.8361L80.4339 133.158L85.1291 135.206L136.58 131.074L139.286 125.329L169.404 84.347L169.917 81.9815Z" fill="url(#paint8_linear)"/>
<path d="M167.025 86.6944V81.6395C167.025 81.472 167.069 81.3075 167.153 81.1627C167.237 81.018 167.358 80.8982 167.503 80.8157L170.315 79.2457C170.61 79.0768 171.777 79.7597 171.777 80.0976L170.982 88.7713L169.007 90.299L167.032 89.1374L167.025 86.6944Z" fill="white"/>
<path d="M167.025 86.6944V81.6395C167.025 81.472 167.069 81.3075 167.153 81.1627C167.237 81.018 167.358 80.8982 167.503 80.8157L170.315 79.2457C170.61 79.0768 171.777 79.7597 171.777 80.0976L170.982 88.7713L169.007 90.299L167.032 89.1374L167.025 86.6944Z" fill="url(#paint9_linear)"/>
<path d="M167.855 87.3209V82.259C167.854 82.0924 167.898 81.9288 167.982 81.7851C168.066 81.6414 168.187 81.523 168.332 81.4423L171.144 79.8653C171.212 79.8275 171.289 79.8081 171.366 79.8089C171.444 79.8096 171.52 79.8305 171.587 79.8695C171.655 79.9085 171.711 79.9642 171.75 80.0314C171.789 80.0985 171.811 80.1747 171.812 80.2525V89.4049L169.837 90.9256L167.862 89.771L167.855 87.3209Z" fill="white"/>
<path d="M168.368 87.1098V82.9982L171.566 80.9777V87.7786L170.863 90.0667L169.373 90.5595C169.373 90.5595 168.579 90.2216 168.579 90.116" fill="#D80A49"/>
<path d="M213.071 124.557L212.649 125.127L214.167 103.471L214.469 99.1205L214.617 97.0084L215.411 98.7192C216.901 101.866 219.994 108.449 220.859 110.251C221.85 112.321 214.877 122.065 213.071 124.557Z" fill="white"/>
<path opacity="0.1" d="M213.071 124.557C212.895 124.142 212.83 123.688 212.881 123.241C213.066 122.252 213.491 121.323 214.118 120.537C215.791 118.073 217.885 115.461 218.848 112.603C220.114 108.822 215.967 106.478 214.167 103.45C213.707 102.742 213.433 101.928 213.373 101.085C213.343 100.683 213.431 100.281 213.625 99.9282C213.82 99.5755 214.114 99.2874 214.469 99.0994C214.762 98.9178 215.079 98.7803 215.411 98.691C216.901 101.838 219.994 108.421 220.859 110.223C221.85 112.321 214.877 122.065 213.071 124.557Z" fill="#020202"/>
<path d="M202.774 184.139C202.105 184.446 201.553 184.959 201.199 185.604C201.126 185.747 201.103 185.911 201.136 186.068C201.187 186.185 201.264 186.289 201.36 186.373C201.456 186.457 201.569 186.519 201.691 186.554C203.462 187.258 205.466 187.124 207.314 186.786C209.17 186.331 211.064 186.055 212.972 185.963C213.134 185.989 213.299 185.98 213.457 185.936C213.614 185.892 213.761 185.815 213.886 185.709C214.004 185.533 214.061 185.323 214.048 185.111C214.124 183.449 213.837 181.791 213.204 180.253C213.246 180.352 208.193 180.556 207.757 180.851C206.956 181.408 206.288 182.119 205.43 182.633C204.573 183.147 203.666 183.632 202.774 184.139Z" fill="#282328"/>
<path d="M209.493 147.903C209.459 154.383 209.967 160.854 211.011 167.25C211.18 168.362 211.363 169.467 211.588 170.573C213.246 178.739 213.38 180.816 213.38 180.816H206.717C206.717 180.816 201.797 157.689 199.969 152.423C198.587 148.431 197.508 144.341 196.743 140.187C196.445 138.218 196.688 136.205 197.446 134.364C197.703 133.639 198.07 132.957 198.535 132.344C199.441 131.342 200.574 130.574 201.839 130.105C204.53 128.886 207.44 128.23 210.393 128.176C210.73 128.147 211.068 128.221 211.363 128.387C211.551 128.542 211.701 128.74 211.799 128.964C212.663 130.724 212.501 132.794 212.234 134.737C212.118 135.816 211.882 136.879 211.531 137.906C211.138 138.955 210.519 139.905 210.161 140.968C209.856 141.991 209.676 143.048 209.627 144.115C209.584 145.375 209.521 146.636 209.493 147.903Z" fill="#282328"/>
<path d="M192.793 142.792C192.933 143.633 192.987 144.487 192.954 145.34C192.926 146.869 192.976 148.399 193.102 149.923C193.475 157.182 194.571 164.412 194.578 171.678C194.578 177.873 194.374 184.351 194.374 184.351C194.374 184.351 199.765 186.012 201.009 184.766L203.083 154.845C203.399 152.585 203.884 150.289 204.046 148.015C204.186 146.037 204.229 144.362 204.967 142.461C205.796 140.349 206.977 138.356 207.616 136.16C208.03 134.753 208.208 133.288 208.144 131.823C208.164 131.374 208.041 130.93 207.792 130.555C207.546 130.301 207.246 130.106 206.914 129.985C203.181 128.324 199.308 126.634 195.225 126.669C194.895 126.642 194.565 126.713 194.276 126.873C194 127.101 193.802 127.409 193.706 127.753C192.204 131.724 191.742 136.014 192.364 140.215C192.526 141.123 192.666 141.954 192.793 142.792Z" fill="#473F47"/>
<path d="M172.662 91.7915C172.501 90.8411 172.522 89.8484 172.437 88.8839C172.434 88.5053 172.332 88.1342 172.142 87.8067C172.041 87.6467 171.888 87.5264 171.709 87.4661C171.53 87.4058 171.335 87.4093 171.158 87.4758C170.722 87.6941 170.708 88.2925 170.722 88.7783C170.736 89.2641 170.61 89.8836 170.132 89.9751C169.952 89.9927 169.771 89.9559 169.612 89.8695C169.373 89.7416 169.168 89.5598 169.012 89.3387C168.856 89.1175 168.753 88.863 168.712 88.5952C168.67 88.2784 168.712 87.9475 168.656 87.6307C168.473 86.7155 167.292 86.8704 166.744 87.3491C166.421 87.6616 166.159 88.0317 165.971 88.4403C165.574 89.1321 165.282 89.8797 165.106 90.658C164.523 93.8332 168.347 94.5161 169.963 96.5437C170.196 96.8584 170.454 97.1528 170.736 97.4238C171.011 97.6595 171.342 97.8188 171.698 97.8855C172.053 97.9523 172.42 97.9241 172.761 97.8039C173.1 97.6787 173.4 97.4653 173.629 97.1857C173.859 96.9061 174.011 96.5704 174.068 96.2128C174.258 95.0301 173.4 93.967 172.979 92.8405C172.84 92.5017 172.734 92.1504 172.662 91.7915Z" fill="#FFBBAB"/>
<path d="M200.152 83.5403C200.218 83.6297 200.267 83.7297 200.299 83.836C200.348 84.0515 200.348 84.2752 200.299 84.4908C200.014 85.7638 199.819 87.0553 199.716 88.3559C199.661 88.72 199.731 89.092 199.913 89.4119C200.203 89.7213 200.6 89.9077 201.023 89.9329C201.639 90.0316 202.263 90.074 202.886 90.0596C203.132 90.0596 203.434 90.0596 203.589 90.2638C203.641 90.3564 203.67 90.4603 203.673 90.5665C203.702 91.0516 203.608 91.536 203.399 91.9746C203.271 92.1865 203.208 92.4312 203.216 92.6786C203.266 93.1292 203.919 93.087 204.257 93.1081C205.536 93.1715 206.822 93.1785 208.101 93.1081C208.322 93.1175 208.542 93.0716 208.741 92.9743C209.085 92.7702 209.163 92.3125 209.261 91.9253C209.697 90.13 211.082 88.7361 211.827 87.0464C212.21 86.1462 212.412 85.1788 212.421 84.2C212.429 83.2212 212.244 82.2505 211.876 81.3437C211.522 80.4798 211.017 79.686 210.386 78.9993C209.809 78.3586 208.699 78.2249 207.898 78.0559C206.492 77.7602 204.931 77.6757 203.68 78.429C202.275 79.2739 201.628 81.0058 200.215 81.8154C199.969 81.9562 199.667 82.097 199.583 82.3716C199.561 82.5111 199.573 82.6537 199.618 82.7874C199.664 82.921 199.741 83.0417 199.843 83.139C199.934 83.2798 200.053 83.3995 200.152 83.5403Z" fill="#FFBBAB"/>
<path d="M204.067 77.9362C204.098 78.1543 204.165 78.3659 204.264 78.5628C204.714 79.4991 205.304 79.2668 206.112 79.3865C207.096 79.5625 207.736 80.6678 207.94 81.569C208.115 82.6616 208.08 83.7778 207.834 84.8568C208.051 84.6781 208.318 84.5719 208.598 84.5529C208.877 84.534 209.156 84.6033 209.395 84.7512C209.627 84.9132 209.807 85.1388 209.915 85.4011C210.022 85.6634 210.051 85.9511 209.999 86.2297C209.941 86.5095 209.806 86.7676 209.61 86.9752C209.414 87.1829 209.164 87.3318 208.889 87.4054C208.614 87.4758 208.291 87.4899 208.122 87.7152C208.031 87.8777 207.992 88.0646 208.01 88.2502C208.01 89.4471 208.059 90.7496 208.818 91.6789C209.873 91.5733 210.674 90.7284 211.461 90.0244C212.579 89.0247 213.858 88.208 214.933 87.159C216.073 86.157 216.781 84.7514 216.908 83.2376C216.944 80.8086 214.8 78.9359 214.013 76.6478C213.872 76.1326 213.686 75.6308 213.457 75.1482C213.247 74.8169 212.969 74.5334 212.642 74.3159C212.316 74.0985 211.947 73.9519 211.561 73.8856C211.174 73.8192 210.778 73.8347 210.398 73.9309C210.017 74.0271 209.661 74.202 209.353 74.4442C208.786 74.0708 208.122 73.8718 207.444 73.8718C206.766 73.8718 206.103 74.0708 205.536 74.4442C205.017 74.855 204.61 75.3905 204.353 76.0011C204.096 76.6116 203.998 77.2773 204.067 77.9362Z" fill="black"/>
<path d="M214.357 104.647C214.066 106.916 213.972 109.205 214.076 111.49C214.139 113.722 214.245 115.94 214.336 118.172C213.907 120.094 213.429 122.016 212.93 123.917C212.613 125.469 212.091 126.973 211.377 128.387C211.017 129.067 210.541 129.68 209.971 130.196C209.41 130.69 208.771 131.088 208.08 131.372C206.458 131.974 204.723 132.214 202.998 132.076C201.782 132.028 200.575 131.844 199.4 131.527C197.889 131.149 196.487 130.427 195.302 129.415C194.707 128.882 194.187 128.271 193.756 127.599C192.723 125.941 192.099 124.061 191.935 122.114C191.582 118.919 191.994 115.685 193.137 112.68C193.2 112.504 193.271 112.335 193.341 112.159C193.826 110.92 194.311 109.681 194.81 108.442C194.81 108.442 194.81 108.407 194.81 108.393C194.887 108.195 194.965 108.012 195.035 107.822L195.077 107.717L194.803 107.829L194.515 107.935C194.423 107.972 194.329 108.002 194.234 108.027C194.03 108.104 193.812 108.16 193.608 108.217L192.905 108.393C192.505 108.477 192.097 108.555 191.689 108.604L191.134 108.667C186.024 109.118 180.45 107.048 176.177 104.76C174.782 104.049 173.506 103.125 172.395 102.021C172.164 101.775 171.945 101.516 171.741 101.247C171.23 100.572 170.853 99.8045 170.631 98.9868C170.476 98.4917 170.476 97.9611 170.631 97.466C170.641 97.4463 170.653 97.4275 170.666 97.4097C170.82 97.071 171.034 96.7632 171.299 96.5015C171.948 95.7889 172.636 95.112 173.358 94.4739L173.583 94.2768C173.777 94.1065 174.004 93.9793 174.251 93.9036C174.493 93.8492 174.745 93.8487 174.988 93.9022C175.231 93.9558 175.459 94.062 175.656 94.2134C176.016 94.4648 176.35 94.75 176.655 95.0653C178.606 96.9287 180.92 98.3684 183.453 99.2939C185.986 100.22 188.682 100.611 191.373 100.444C192.85 100.382 194.302 100.033 195.646 99.4162C196.826 98.7757 197.922 97.9905 198.908 97.0788C199.799 96.348 200.648 95.5676 201.452 94.7414C201.663 94.5162 201.881 94.2838 202.071 94.0374C202.26 93.791 202.38 93.6572 202.528 93.4671L202.71 93.2278C202.871 92.9837 203.082 92.7771 203.329 92.6223C203.683 92.4594 204.071 92.3823 204.46 92.397C205.986 92.3337 207.645 92.045 209.149 92.0802H209.31C209.457 92.0858 209.602 92.1023 209.746 92.1295C210.267 92.2115 210.754 92.4383 211.152 92.7842C211.641 93.2554 212.088 93.769 212.487 94.319C213.423 95.346 214.157 96.5401 214.652 97.8392C215.383 99.9935 214.694 102.352 214.357 104.647Z" fill="white"/>
<path d="M216.114 104.415C216.109 106.856 215.923 109.294 215.559 111.709C215.243 113.884 214.856 116.031 214.336 118.172C214.245 115.94 214.139 113.722 214.076 111.49C213.972 109.205 214.066 106.916 214.357 104.647C214.694 102.359 215.383 99.9935 214.673 97.7969C214.179 96.4979 213.444 95.3037 212.508 94.2768C212.109 93.7267 211.662 93.2132 211.173 92.742C212.579 93.8051 213.689 95.7834 214.617 96.9662C216.199 99.043 216.1 101.937 216.114 104.415Z" fill="white"/>
<path opacity="0.1" d="M216.114 104.415C216.109 106.856 215.923 109.294 215.559 111.709C215.243 113.884 214.856 116.031 214.336 118.172C214.245 115.94 214.139 113.722 214.076 111.49C213.972 109.205 214.066 106.916 214.357 104.647C214.694 102.359 215.383 99.9935 214.673 97.7969C214.179 96.4979 213.444 95.3037 212.508 94.2768C212.109 93.7267 211.662 93.2132 211.173 92.742C212.579 93.8051 213.689 95.7834 214.617 96.9662C216.199 99.043 216.1 101.937 216.114 104.415Z" fill="#020202"/>
<path opacity="0.1" d="M214.357 104.647C214.066 106.916 213.972 109.205 214.076 111.49C214.139 113.722 214.245 115.94 214.336 118.172C213.907 120.094 213.429 122.016 212.93 123.917C212.613 125.469 212.091 126.973 211.377 128.387C211.017 129.067 210.541 129.68 209.971 130.196C209.41 130.69 208.771 131.088 208.08 131.372C206.458 131.974 204.723 132.214 202.998 132.076C201.782 132.028 200.575 131.844 199.4 131.527C197.889 131.149 196.487 130.427 195.302 129.415C194.707 128.882 194.187 128.271 193.756 127.599C192.723 125.941 192.099 124.061 191.935 122.114C191.582 118.919 191.994 115.685 193.137 112.68C193.2 112.504 193.271 112.335 193.341 112.159C193.896 110.947 194.386 109.706 194.81 108.442C194.81 108.442 194.81 108.407 194.81 108.393C194.866 108.181 194.915 107.984 194.965 107.78C194.913 107.803 194.859 107.82 194.803 107.829L194.515 107.935C194.423 107.972 194.329 108.002 194.234 108.027C194.03 108.104 193.812 108.16 193.608 108.217L192.905 108.393C192.505 108.477 192.097 108.555 191.689 108.604L191.134 108.667C185.954 109.195 180.64 107.168 176.177 104.76C174.782 104.049 173.506 103.125 172.395 102.021C172.164 101.775 171.945 101.516 171.741 101.247C171.23 100.572 170.853 99.8045 170.631 98.9868C170.476 98.4917 170.476 97.9611 170.631 97.466C170.641 97.4463 170.653 97.4275 170.666 97.4097C170.82 97.071 171.034 96.7632 171.299 96.5015C171.948 95.7889 172.636 95.112 173.358 94.4739L173.583 94.2768C173.777 94.1065 174.004 93.9793 174.251 93.9036C174.493 93.8492 174.745 93.8487 174.988 93.9022C175.231 93.9558 175.459 94.062 175.656 94.2134C176.016 94.4648 176.35 94.75 176.655 95.0653C178.606 96.9287 180.92 98.3684 183.453 99.2939C185.986 100.22 188.682 100.611 191.373 100.444C192.85 100.382 194.302 100.033 195.646 99.4162C196.826 98.7757 197.922 97.9905 198.908 97.0788C199.799 96.348 200.648 95.5676 201.452 94.7414C201.663 94.5162 201.881 94.2838 202.071 94.0374C202.26 93.791 202.38 93.6572 202.528 93.4671L202.71 93.2278C202.871 92.9837 203.082 92.7771 203.329 92.6223C203.683 92.4594 204.071 92.3823 204.46 92.397C205.986 92.3337 207.645 92.045 209.149 92.0802H209.31C209.457 92.0858 209.602 92.1023 209.746 92.1295C210.257 92.2431 210.736 92.4665 211.152 92.7842C211.641 93.2554 212.088 93.769 212.487 94.319C213.423 95.346 214.157 96.5401 214.652 97.8392C215.383 99.9935 214.694 102.352 214.357 104.647Z" fill="#020202"/>
<path d="M190.347 188.075C189.677 188.379 189.125 188.893 188.772 189.539C188.699 189.682 188.676 189.846 188.709 190.004C188.76 190.12 188.836 190.224 188.932 190.307C189.028 190.39 189.142 190.45 189.264 190.483C191.035 191.187 193.039 191.06 194.922 190.722C196.78 190.266 198.677 189.99 200.588 189.898C200.748 189.924 200.912 189.914 201.069 189.87C201.225 189.827 201.37 189.75 201.494 189.645C201.612 189.468 201.669 189.258 201.656 189.046C201.733 187.385 201.445 185.727 200.813 184.189C200.855 184.287 195.801 184.484 195.372 184.787C194.564 185.343 193.896 186.054 193.039 186.568C192.181 187.082 191.239 187.54 190.347 188.075Z" fill="#282328"/>
<path d="M181.884 102.598C178.517 101.395 175.087 100.205 172.402 97.7828C172.092 97.5606 171.878 97.2282 171.805 96.8535C171.829 96.6217 171.904 96.3983 172.026 96.1997C172.147 96.001 172.312 95.8323 172.508 95.706C172.988 95.2205 173.535 94.8056 174.131 94.4739C174.43 94.3077 174.76 94.2061 175.1 94.1758C175.44 94.1455 175.783 94.1871 176.106 94.2979C176.557 94.5252 176.961 94.833 177.301 95.2061C179.774 97.4344 182.815 98.931 186.087 99.5289C189.271 100.233 192.779 100.275 195.836 99.036C197.607 98.332 201.459 93.6643 203.181 94.3472C204.903 95.0301 204.144 98.4728 203.308 99.5429C201.501 101.845 196.926 102.936 194.17 103.457C190.072 104.27 185.83 103.974 181.884 102.598Z" fill="white"/>
<path d="M208.692 94.9879C209.08 94.8051 209.424 94.5407 209.7 94.2126C209.977 93.8846 210.179 93.5006 210.294 93.087C209.37 92.8964 208.422 92.849 207.483 92.9462L204.791 93.08L203.02 93.1715C201.916 93.2348 201.895 93.7206 202.317 94.481C202.513 94.84 203.02 95.1287 203.23 95.5159C203.441 95.9031 203.476 96.3185 203.729 96.6142C204.432 97.459 204.629 96.9803 205.536 96.4311C206.443 95.882 207.659 95.5511 208.692 94.9879Z" fill="white"/>
<path d="M165.043 30.1818L196.637 26.8588L174.047 35.7225L165.043 30.1818Z" fill="#D80A49"/>
<path d="M196.637 26.8588L177.807 45.1073L174.047 35.7225L196.637 26.8588Z" fill="#D80A49"/>
<path d="M196.637 26.8588L177.807 45.1073L174.047 35.7225L196.637 26.8588Z" fill="url(#paint10_linear)"/>
<path d="M170.322 45.7339L174.047 35.7225L196.637 26.8588L170.322 45.7339Z" fill="#D80A49"/>
<path d="M196.637 26.8588L174.047 33.7865L165.043 30.1818L174.047 35.7225L196.637 26.8588Z" fill="url(#paint11_linear)"/>
<path opacity="0.1" d="M105.044 93.2571H100.055V98.5306H105.044V93.2571Z" fill="#D80A49"/>
<path opacity="0.1" d="M105.044 103.527H100.055V108.522H105.044V103.527Z" fill="#D80A49"/>
<path opacity="0.1" d="M105.044 114.073V117.682C103.376 117.581 101.713 117.418 100.055 117.194V114.073H105.044Z" fill="#D80A49"/>
<path opacity="0.1" d="M116.685 91.8694H113.359V95.2H116.685V91.8694Z" fill="#D80A49"/>
<path opacity="0.1" d="M116.685 99.6408H113.359V102.971H116.685V99.6408Z" fill="#D80A49"/>
<path opacity="0.1" d="M128.88 99.6408H125.554V102.971H128.88V99.6408Z" fill="#D80A49"/>
<path opacity="0.1" d="M116.685 107.967H113.359V111.02H116.685V107.967Z" fill="#D80A49"/>
<path opacity="0.1" d="M128.88 107.967H125.554V111.02H128.88V107.967Z" fill="#D80A49"/>
<path opacity="0.1" d="M113.359 117.682V115.739H116.685V117.405L113.359 117.682Z" fill="#D80A49"/>
<path opacity="0.1" d="M58.9936 82.1794C58.9936 82.1794 58.0218 84.9089 60.0286 85.1569C60.1207 85.2033 60.2248 85.2187 60.3261 85.201C60.4273 85.1833 60.5204 85.1334 60.5921 85.0584C60.5921 85.0584 60.4512 85.011 60.5813 84.746C60.6267 84.6512 60.6608 84.5512 60.6828 84.4481C60.7135 84.309 60.6988 84.1634 60.641 84.0335C60.641 84.0335 60.5515 83.1569 59.3863 82.4748C59.3863 82.4748 59.1774 82.1685 59.1046 82.1551L59.1655 82.684C59.1655 82.684 59.5439 82.6244 59.7839 82.8335C59.7839 82.8335 59.187 82.6682 59.1702 82.763C59.1702 82.7824 59.2144 83.0414 59.2144 83.0414C59.2144 83.0414 59.8734 82.9405 60.2339 83.2749C60.2339 83.2749 59.5439 82.9806 59.2311 83.1399L59.3254 83.5265C59.3254 83.5265 60.0167 83.3855 60.4405 83.7502C60.4405 83.7502 59.7087 83.4694 59.3505 83.6104L59.4926 83.9752C59.4926 83.9752 60.1695 83.8536 60.5205 84.1563C60.5205 84.1563 59.643 83.9132 59.5308 84.0566C59.5919 84.1988 59.6701 84.3328 59.7636 84.4554C59.7636 84.4554 60.2507 84.3764 60.4393 84.577C60.4393 84.577 59.8364 84.4809 59.8149 84.5442C59.8149 84.5442 60.1229 84.9211 60.3784 85.0305C60.1389 84.9438 59.9258 84.7951 59.76 84.5989C59.7442 84.7577 59.774 84.9178 59.8459 85.0597C59.8459 85.0597 59.5869 84.9381 59.686 84.5065C59.686 84.5065 59.4568 84.2037 59.4556 84.1417C59.4556 84.1417 59.2992 84.5527 59.3362 84.8408C59.3362 84.8408 59.1452 84.5393 59.415 84.0457L59.2646 83.6809C59.2646 83.6809 59.0258 84.2122 59.0425 84.4724C59.0425 84.4724 58.8945 84.1332 59.2335 83.5861L59.138 83.2068C59.0131 83.4364 58.918 83.6816 58.8551 83.9363C58.8551 83.9363 58.7846 83.5922 59.1153 83.0925L59.0807 82.8323C59.0807 82.8323 58.9124 83.1581 58.873 83.2566C58.8336 83.3551 58.8037 83.3514 58.8037 83.3514C58.832 83.1215 58.9221 82.904 59.064 82.7229C59.064 82.7229 59.027 82.1794 58.9936 82.1794Z" fill="#D80A49"/>
<path d="M130.543 113.681L131.615 114.906L133.315 111.662L133.162 111.298L130.543 113.681Z" fill="#D80A49"/>
<path opacity="0.2" d="M130.543 113.681L131.615 114.906L133.315 111.662L133.162 111.298L130.543 113.681Z" fill="black"/>
<path d="M78.714 95.3751L86.1158 116.016V110.792L88.176 104.944L93.8838 102.432L101.121 105.696L103.71 106.5L103.936 101.738L95.3311 97.5219L91.3254 95.6112L82.1565 94.8165L79.627 94.3673L78.714 95.3751Z" fill="#D80A49"/>
<path d="M82.1248 97.474L88.9249 98.253C88.616 95.5423 90.6319 95.5423 90.6319 95.5423L83.8295 94.3673H80.6541" fill="#D80A49"/>
<path d="M86.2386 119.105H91.0391L104.941 118.646C104.941 118.646 105.241 121.255 108.902 120.641C108.902 120.641 110.918 120.769 111.135 119.691C111.352 118.613 106.544 108.652 106.544 108.652L99.9899 103.836L94.0475 102.416L89.7818 103.651L87.0717 107.894L85.3658 113.702L86.2386 119.105Z" fill="#636780"/>
<path opacity="0.2" d="M86.2386 119.105H91.0391L104.941 118.646C104.941 118.646 105.241 121.255 108.902 120.641C108.902 120.641 110.918 120.769 111.135 119.691C111.352 118.613 106.544 108.652 106.544 108.652L99.9899 103.836L94.0475 102.416L89.7818 103.651L87.0717 107.894L85.3658 113.702L86.2386 119.105Z" fill="black"/>
<path d="M80.6478 80.9923C83.9779 80.9317 92.803 80.6775 97.193 79.6572C97.193 79.6572 104.727 85.3827 106.984 89.7019C106.984 89.7019 95.2407 92.5857 87.1299 92.9763C86.5285 93.0043 85.9321 92.8534 85.4149 92.5425C84.8977 92.2315 84.4824 91.7742 84.2206 91.2272L79.908 82.2109C79.8459 82.0829 79.8169 81.9412 79.8236 81.7989C79.8302 81.6565 79.8724 81.5182 79.9462 81.3967C80.0199 81.2751 80.1229 81.1744 80.2456 81.1037C80.3682 81.033 80.5066 80.9947 80.6478 80.9923Z" fill="#D80A49"/>
<path opacity="0.2" d="M80.6478 80.9923C83.9779 80.9317 92.803 80.6775 97.193 79.6572C97.193 79.6572 104.727 85.3827 106.984 89.7019C106.984 89.7019 95.2407 92.5857 87.1299 92.9763C86.5285 93.0043 85.9321 92.8534 85.4149 92.5425C84.8977 92.2315 84.4824 91.7742 84.2206 91.2272L79.908 82.2109C79.8459 82.0829 79.8169 81.9412 79.8236 81.7989C79.8302 81.6565 79.8724 81.5182 79.9462 81.3967C80.0199 81.2751 80.1229 81.1744 80.2456 81.1037C80.3682 81.033 80.5066 80.9947 80.6478 80.9923Z" fill="white"/>
<path opacity="0.1" d="M84.8466 82.2106C86.2376 82.1861 88.9512 82.1138 91.601 81.9145C93.5524 81.7649 95.5118 82.071 97.3261 82.8087C99.1405 83.5465 100.761 84.6961 102.06 86.1676L102.146 86.2655C102.334 86.4835 102.462 86.7471 102.518 87.0302C102.574 87.3133 102.556 87.6062 102.465 87.8799C102.374 88.1537 102.213 88.3988 101.999 88.5911C101.785 88.7834 101.525 88.9163 101.244 88.9766C98.3206 89.6071 93.3409 90.5699 89.4971 90.7564C89.0645 90.7783 88.635 90.6715 88.2624 90.4493C87.8899 90.227 87.5908 89.8992 87.4025 89.5069L84.3169 83.0766C84.2731 82.9854 84.2529 82.8846 84.258 82.7835C84.2631 82.6823 84.2934 82.5841 84.3462 82.4979C84.399 82.4117 84.4724 82.3401 84.5599 82.2899C84.6473 82.2397 84.7459 82.2124 84.8466 82.2106Z" fill="white"/>
<path d="M134.097 108.281C134.185 108.611 134.389 109.521 134.065 109.767C133.942 109.86 133.835 110.089 133.752 110.362C133.622 110.824 133.528 111.296 133.47 111.772L130.094 115.582L124.385 117.84L110.735 118.792L102.494 105.255L83.98 94.2567L89.0347 93.9738C94.0906 93.6898 108.442 90.4816 108.442 90.4816L124.677 94.1042C127.303 94.6859 129.622 96.2289 131.188 98.4357C133.165 101.229 134.07 104.256 134.07 104.256C134.314 104.552 134.408 105.036 134.422 105.567C134.441 106.432 134.245 107.417 134.138 107.887C134.097 108.063 134.07 108.167 134.07 108.167C134.07 108.167 134.079 108.207 134.097 108.281Z" fill="#D80A49"/>
<path opacity="0.1" d="M84.5781 115.326C84.5781 115.326 83.59 104.705 91.0052 101.823C91.0052 101.823 101.435 97.4012 107.565 109.418L110.679 116.272C110.679 116.272 111.568 117.959 113.991 117.91C113.991 117.91 125.41 117.564 131.436 113.689L133.315 111.499C133.315 111.499 132.376 114.577 131.436 115.272C131.436 115.272 127.729 119.641 114.233 120.437C114.233 120.437 108.714 121.032 107.05 115.769C107.05 115.769 104.792 103.852 93.3235 103.952C93.3235 103.952 86.5854 104.084 86.4202 115.736L84.5781 115.326Z" fill="black"/>
<path d="M84.5781 115.6C84.5781 115.6 83.5901 104.983 91.0044 102.1C91.0044 102.1 101.433 97.6804 107.563 109.694L110.676 116.544C110.676 116.544 111.565 118.232 113.988 118.182C113.988 118.182 125.405 117.836 131.431 113.963L133.315 111.779C133.315 111.779 132.376 114.856 131.436 115.551C131.436 115.551 127.73 119.92 114.236 120.714C114.236 120.714 108.717 121.31 107.053 116.048C107.053 116.048 104.796 104.134 93.3282 104.233C93.3282 104.233 86.5909 104.366 86.4257 116.015L84.5781 115.6Z" fill="#D80A49"/>
<path opacity="0.2" d="M84.5781 115.6C84.5781 115.6 83.5901 104.983 91.0044 102.1C91.0044 102.1 101.433 97.6804 107.563 109.694L110.676 116.544C110.676 116.544 111.565 118.232 113.988 118.182C113.988 118.182 125.405 117.836 131.431 113.963L133.315 111.779C133.315 111.779 132.376 114.856 131.436 115.551C131.436 115.551 127.73 119.92 114.236 120.714C114.236 120.714 108.717 121.31 107.053 116.048C107.053 116.048 104.796 104.134 93.3282 104.233C93.3282 104.233 86.5909 104.366 86.4257 116.015L84.5781 115.6Z" fill="black"/>
<path opacity="0.2" d="M91.7406 104.343L91.64 104.359C91.64 104.348 91.4257 103.114 90.7194 102.133C89.2386 100.078 88.7549 98.6841 88.6999 97.7534C88.6729 97.4308 88.7137 97.1063 88.8196 96.7994C89.0506 96.1715 89.6695 95.7073 90.5099 95.4775L90.6895 95.5066C89.8814 95.7271 89.1332 96.2377 88.9117 96.8331C88.8061 97.1356 88.7653 97.4559 88.792 97.7743C88.8519 98.6853 89.3367 100.052 90.7936 102.078C91.5239 103.076 91.7394 104.33 91.7406 104.343Z" fill="black"/>
<path opacity="0.2" d="M123.84 99.3633C117.409 95.6906 103.796 92.2748 103.659 92.2411L103.684 92.1469C103.821 92.1817 117.449 95.6009 123.891 99.2803L123.84 99.3633Z" fill="black"/>
<path opacity="0.2" d="M132.952 104.914C130.573 100.647 124.17 97.1284 119.216 94.9273C115.865 93.4489 112.428 92.182 108.925 91.1339L108.951 91.0367C112.459 92.0859 115.9 93.3543 119.255 94.8348C124.223 97.0418 130.646 100.572 133.038 104.864L132.952 104.914Z" fill="black"/>
<path opacity="0.1" d="M133.11 103.526C133.617 103.144 132.713 101.088 131.092 98.9332C129.471 96.7788 127.746 95.3422 127.239 95.7243C126.733 96.1065 127.637 98.1628 129.258 100.317C130.879 102.471 132.604 103.908 133.11 103.526Z" fill="black"/>
<path d="M133.111 103.326C133.617 102.944 132.714 100.888 131.092 98.7334C129.471 96.5791 127.746 95.1424 127.24 95.5246C126.734 95.9067 127.637 97.963 129.258 100.117C130.88 102.272 132.604 103.708 133.111 103.326Z" fill="#DCE0ED"/>
<path opacity="0.1" d="M132.732 102.657C133.06 102.409 132.242 100.766 130.903 98.9865C129.564 97.2074 128.212 95.9663 127.884 96.2144C127.555 96.4625 128.374 98.1059 129.712 99.885C131.051 101.664 132.403 102.905 132.732 102.657Z" fill="black"/>
<path d="M132.732 102.558C133.061 102.31 132.242 100.666 130.903 98.8872C129.564 97.1081 128.213 95.867 127.884 96.1151C127.555 96.3632 128.374 98.0065 129.713 99.7856C131.051 101.565 132.403 102.806 132.732 102.558Z" fill="#F0F0F4"/>
<path opacity="0.1" d="M118.005 107.109C118.005 107.109 118.333 104.68 120.271 104.135C120.271 104.135 126.865 102.257 128.3 102.23C128.3 102.23 129.784 101.782 130.765 102.872L131.772 104.21C131.772 104.21 132.473 105.3 130.916 105.498C130.916 105.498 122.947 108.374 119.492 108.673C119.295 108.691 119.1 108.72 118.908 108.761C118.403 108.864 117.343 108.894 118.005 107.109Z" fill="black"/>
<path d="M118.283 106.902C118.283 106.902 118.61 104.574 120.548 104.052C120.548 104.052 127.141 102.253 128.576 102.226C128.576 102.226 130.06 101.796 131.042 102.842L132.049 104.124C132.049 104.124 132.75 105.168 131.192 105.358C131.192 105.358 123.225 108.114 119.77 108.401C119.573 108.418 119.378 108.446 119.185 108.485C118.679 108.584 117.619 108.613 118.283 106.902Z" fill="#F0F0F4"/>
<path opacity="0.1" d="M118.824 106.766C118.824 106.766 119.133 104.641 120.954 104.164C120.954 104.164 127.162 102.516 128.512 102.496C128.512 102.496 129.909 102.104 130.833 103.058L131.78 104.229C131.78 104.229 132.443 105.184 130.974 105.357C130.974 105.357 123.473 107.877 120.221 108.137C120.038 108.152 119.855 108.178 119.675 108.213C119.198 108.297 118.201 108.328 118.824 106.766Z" fill="black"/>
<path d="M119.098 106.555C119.098 106.555 119.399 104.539 121.183 104.08C121.183 104.08 127.261 102.512 128.583 102.493C128.583 102.493 129.951 102.119 130.856 103.027L131.783 104.147C131.783 104.147 132.432 105.054 130.994 105.22C130.994 105.22 123.649 107.617 120.464 107.865C120.285 107.879 120.108 107.904 119.932 107.937C119.463 108.018 118.486 108.043 119.098 106.555Z" fill="#636780"/>
<path d="M119.747 105.192L119.734 105.099C119.822 105.09 128.595 104.065 130.483 102.694L130.543 102.767C128.633 104.151 120.108 105.148 119.747 105.192Z" fill="#F0F0F4"/>
<path d="M119.197 106.58L119.18 106.478C119.276 106.46 128.957 104.593 131.045 103.249L131.098 103.336C128.994 104.691 119.294 106.56 119.197 106.58Z" fill="#F0F0F4"/>
<path d="M118.921 107.69L118.902 107.589C119.018 107.566 130.202 105.369 131.586 104.082L131.652 104.158C130.253 105.465 119.382 107.6 118.921 107.69Z" fill="#F0F0F4"/>
<path opacity="0.1" d="M130.667 107.498C130.667 107.498 126.384 109.247 121.881 110.032C121.483 110.102 121.089 110.189 120.7 110.293C120.243 110.415 119.594 110.553 119.241 110.463C118.661 110.314 118.34 111.006 118.967 111.549L119.007 111.584C119.233 111.779 119.498 111.927 119.784 112.02C120.071 112.113 120.373 112.148 120.674 112.123L121.638 112.044C121.638 112.044 129.459 110.364 131.64 109.055C131.64 109.055 132.636 108.386 132.712 107.633C132.788 106.881 132.879 106.288 132.089 106.733C131.3 107.178 130.667 107.498 130.667 107.498Z" fill="black"/>
<path d="M130.665 107.489C130.506 107.553 126.303 109.254 121.882 110.026C121.484 110.096 121.09 110.183 120.701 110.288C120.245 110.41 119.595 110.548 119.243 110.458C118.657 110.309 118.342 111.002 118.969 111.547L118.987 111.563C119.22 111.765 119.493 111.919 119.788 112.016C120.083 112.112 120.395 112.148 120.705 112.123L121.633 112.047H121.648C121.916 111.989 129.494 110.344 131.637 109.058H131.645C131.712 109.011 132.639 108.362 132.712 107.636C132.788 106.881 132.88 106.287 132.089 106.733C131.338 107.156 130.731 107.469 130.674 107.498L130.665 107.489Z" fill="#F0F0F4"/>
<path opacity="0.1" d="M130.201 108.134C130.201 108.134 126.75 109.542 123.045 110.342C122.677 110.421 122.312 110.514 121.95 110.616C121.587 110.719 121.07 110.842 120.782 110.806C120.29 110.742 120.055 111.223 120.607 111.547L120.624 111.557C121.042 111.802 121.533 111.899 122.015 111.833L122.869 111.72C122.869 111.72 129.333 110.124 131.093 109.118C131.093 109.118 131.898 108.612 131.919 108.103C131.939 107.594 131.99 107.2 131.352 107.539C130.713 107.877 130.201 108.134 130.201 108.134Z" fill="black"/>
<path d="M130.207 107.854C130.134 107.885 126.714 109.272 123.048 110.065C122.679 110.144 122.313 110.236 121.951 110.339C121.588 110.442 121.071 110.565 120.782 110.529C120.289 110.465 120.055 110.946 120.608 111.271C121.037 111.523 121.541 111.623 122.036 111.555L122.867 111.442C123.001 111.409 129.348 109.835 131.094 108.844C131.121 108.826 131.9 108.327 131.919 107.827C131.939 107.327 131.991 106.918 131.352 107.262C130.713 107.607 130.229 107.845 130.2 107.859L130.207 107.854Z" fill="#636780"/>
<path opacity="0.1" d="M116.049 112.189C116.085 111.465 115.681 110.856 115.146 110.83C114.611 110.803 114.148 111.368 114.112 112.092C114.076 112.816 114.48 113.425 115.015 113.451C115.55 113.478 116.013 112.913 116.049 112.189Z" fill="black"/>
<path d="M116.021 112.183C116.057 111.46 115.653 110.852 115.119 110.825C114.584 110.799 114.122 111.363 114.086 112.086C114.05 112.81 114.454 113.417 114.988 113.444C115.523 113.471 115.985 112.906 116.021 112.183Z" fill="#F0F0F4"/>
<path opacity="0.1" d="M120.796 113.284C120.796 113.284 115.721 114.031 114.375 114.104C113.029 114.176 112.826 114.897 112.826 114.897C112.826 114.897 112.502 116.728 114.371 116.198L121.001 115.475C121.001 115.475 121.899 115.5 121.899 114.319V114.054C121.902 113.906 121.917 113.758 121.945 113.613C121.981 113.428 121.883 113.129 120.796 113.284Z" fill="black"/>
<path d="M120.792 113.01C120.792 113.01 115.717 113.825 114.371 113.903C113.025 113.981 112.826 114.77 112.826 114.77C112.826 114.77 112.502 116.767 114.371 116.189L121.002 115.401C121.002 115.401 121.899 115.428 121.899 114.14V113.851C121.902 113.689 121.917 113.528 121.945 113.369C121.982 113.168 121.879 112.841 120.792 113.01Z" fill="#F0F0F4"/>
<path d="M134.234 109.755C134.102 109.85 133.988 110.083 133.899 110.36L132.154 111.55C132.133 111.565 132.108 111.573 132.082 111.575C132.056 111.577 132.03 111.572 132.007 111.56C131.983 111.549 131.964 111.532 131.95 111.51C131.937 111.489 131.929 111.464 131.929 111.439V110.189C131.929 110.01 131.977 109.834 132.069 109.678C132.16 109.522 132.292 109.392 132.451 109.299L134.268 108.245C134.361 108.58 134.583 109.503 134.234 109.755Z" fill="#F0F0F4"/>
<path d="M122.583 113.14L122.508 114.328C122.499 114.447 122.516 114.566 122.56 114.676C122.603 114.787 122.671 114.887 122.759 114.968C122.847 115.05 122.952 115.11 123.067 115.146C123.182 115.182 123.303 115.192 123.423 115.176C126.153 114.747 128.778 113.818 131.162 112.437L131.373 110.009C131.379 109.95 131.369 109.89 131.345 109.835C131.32 109.781 131.282 109.734 131.233 109.699C131.184 109.664 131.127 109.642 131.067 109.635C131.007 109.628 130.946 109.637 130.891 109.661C129.536 110.256 125.903 111.781 123.598 112.073C123.329 112.108 123.082 112.233 122.897 112.428C122.712 112.622 122.601 112.874 122.583 113.14Z" fill="#636780"/>
<path d="M123.337 112.429V114.351C123.337 114.351 129.463 112.954 130.82 112.011V110.188C128.435 111.24 125.92 111.993 123.337 112.429Z" fill="#D80A49"/>
<path d="M134.055 107.967C133.644 107.945 133.315 107.394 133.315 106.719C133.315 106.044 133.658 105.469 134.073 105.469C134.14 105.472 134.205 105.485 134.265 105.508C134.325 105.531 134.378 105.563 134.421 105.603C134.454 106.484 134.196 107.487 134.055 107.967Z" fill="#D80A49"/>
<path d="M134.145 107.967C133.837 107.946 133.592 107.395 133.592 106.72C133.592 106.046 133.848 105.469 134.16 105.469C134.21 105.472 134.259 105.485 134.304 105.509C134.349 105.532 134.389 105.565 134.422 105.605C134.444 106.485 134.251 107.488 134.145 107.967Z" fill="#F0F0F4"/>
<path d="M105.876 116.426C105.876 127.435 101.174 127.673 95.0419 127.673C90.1428 127.673 88.1375 122.638 88.1375 116.426C88.1375 110.213 89.7114 105.192 94.6094 105.192C99.5074 105.192 105.876 110.214 105.876 116.426Z" fill="#636780"/>
<path opacity="0.2" d="M105.876 116.426C105.876 127.435 101.174 127.673 95.0419 127.673C90.1428 127.673 88.1375 122.638 88.1375 116.426C88.1375 110.213 89.7114 105.192 94.6094 105.192C99.5074 105.192 105.876 110.214 105.876 116.426Z" fill="black"/>
<path d="M94.235 127.673C97.6026 127.673 100.333 122.641 100.333 116.433C100.333 110.225 97.6026 105.192 94.235 105.192C90.8675 105.192 88.1375 110.225 88.1375 116.433C88.1375 122.641 90.8675 127.673 94.235 127.673Z" fill="#636780"/>
<path d="M95.3437 116.889C95.3437 120.874 94.5075 124.065 92.7708 124.065C91.0341 124.065 88.969 120.835 88.969 116.845C88.969 112.856 89.6912 109.355 91.4279 109.355C93.1646 109.355 95.3437 112.904 95.3437 116.889Z" fill="#F0F0F4"/>
<path d="M95.3437 116.854C95.3437 117.157 95.3378 117.452 95.3262 117.738C95.3019 118.492 95.2228 119.244 95.0897 119.986C94.817 121.442 94.3233 122.452 93.5886 122.646C93.5036 122.667 93.4165 122.677 93.3291 122.678C92.9766 122.678 92.6065 122.502 92.2518 122.184C91.5533 121.559 90.9161 120.388 90.5865 118.936C90.4657 118.394 90.3924 117.841 90.3675 117.285C90.3599 117.133 90.3555 116.978 90.3555 116.821C90.3463 115.749 90.4225 114.677 90.5832 113.618C90.6721 112.991 90.84 112.379 91.0825 111.797C91.3803 111.136 91.7755 110.743 92.2814 110.743C92.6219 110.743 92.9843 110.924 93.3368 111.246C93.7583 111.631 94.1645 112.217 94.4995 112.937C95.0558 114.162 95.3441 115.5 95.3437 116.854Z" fill="#636780"/>
<path d="M95.3437 117.641C95.3192 118.41 95.2397 119.177 95.1057 119.933C95.0716 119.875 94.1143 118.288 93.3895 119.307C92.8608 120.054 93.3058 121.753 93.5955 122.645C93.51 122.667 93.4224 122.677 93.3345 122.678C92.9798 122.678 92.6074 122.499 92.2505 122.174V122.058C92.2505 122.058 92.6768 120.157 91.5389 118.986C91.5389 118.986 90.9882 118.671 90.5751 118.86C90.4535 118.307 90.3798 117.744 90.3548 117.177C90.4517 117.067 91.117 116.249 90.845 114.715C90.7414 114.135 90.6489 113.721 90.5718 113.439C90.6612 112.8 90.8301 112.176 91.0741 111.583C91.0741 111.583 91.2944 113.281 92.1294 113.381C92.9643 113.481 93.3311 111.087 93.3411 111.02C93.7652 111.414 94.1738 112.011 94.5109 112.745C94.5109 112.745 93.1747 113.541 93.5647 115.655C93.839 117.16 94.8072 117.545 95.3437 117.641Z" fill="#F0F0F4"/>
<path d="M92.2584 118.16C92.6229 118.13 92.8618 117.414 92.792 116.561C92.7223 115.708 92.3703 115.041 92.0059 115.071C91.6415 115.101 91.4026 115.817 91.4723 116.67C91.5421 117.523 91.894 118.19 92.2584 118.16Z" fill="#636780"/>
<path opacity="0.2" d="M108.925 99.2746L108.884 99.3633C108.845 99.3453 105.424 97.9041 92.7376 95.8007C92.1448 95.7027 91.5321 95.6028 90.8994 95.501C90.8409 95.4931 90.7846 95.483 90.7237 95.4741C88.6937 95.1508 86.4523 94.8152 83.98 94.4639L83.9938 94.3673C87.3427 94.8388 90.2664 95.2877 92.8168 95.7143C105.471 97.8154 108.884 99.2578 108.925 99.2746Z" fill="black"/>
<path opacity="0.1" d="M84.8205 91.4317L80.526 82.486C80.4652 82.3592 80.4371 82.219 80.4443 82.0785C80.4514 81.9379 80.4936 81.8014 80.567 81.6814C80.6403 81.5615 80.7425 81.4621 80.8641 81.3922C80.9857 81.3223 81.1228 81.2843 81.2629 81.2816C84.5338 81.2214 93.1307 80.975 97.561 79.9973C97.2824 79.7786 97.1223 79.6572 97.1223 79.6572C92.7473 80.6695 83.9593 80.9217 80.6423 80.9819C80.5023 80.9846 80.3651 81.0227 80.2435 81.0925C80.122 81.1624 80.0198 81.2619 79.9464 81.3818C79.8731 81.5017 79.8309 81.6382 79.8237 81.7788C79.8166 81.9194 79.8447 82.0595 79.9055 82.1863L84.201 91.1286C84.3763 91.4942 84.6217 91.8215 84.9232 92.0915C85.2247 92.3616 85.5764 92.569 85.958 92.702C85.4669 92.3951 85.0725 91.9547 84.8205 91.4317Z" fill="black"/>
<path d="M86.1973 115.739H84.5344V116.294H86.1973V115.739Z" fill="#D80A49"/>
<path opacity="0.2" d="M86.1973 115.739H84.5344V116.294H86.1973V115.739Z" fill="black"/>
<path opacity="0.1" d="M93.0978 123.625C91.3581 123.625 89.2886 120.405 89.2886 116.433C89.2886 113.71 89.6228 111.212 90.4024 109.91C89.4 111.015 88.969 113.8 88.969 116.873C88.969 120.845 91.0384 124.065 92.7782 124.065C93.3663 124.065 93.8508 123.701 94.235 123.067C93.912 123.427 93.5333 123.625 93.0978 123.625Z" fill="black"/>
<path opacity="0.1" d="M114.688 108.053C115.851 106.888 114.953 104.1 112.682 101.825C110.411 99.5506 107.626 98.6512 106.463 99.8163C105.299 100.981 106.197 103.77 108.469 106.044C110.74 108.319 113.524 109.218 114.688 108.053Z" fill="black"/>
<path d="M114.787 107.954C115.951 106.789 115.053 104 112.781 101.726C110.51 99.4513 107.726 98.552 106.562 99.7171C105.399 100.882 106.297 103.671 108.568 105.945C110.839 108.22 113.624 109.119 114.787 107.954Z" fill="#DCE0ED"/>
<path opacity="0.1" d="M114.45 107.244C115.303 106.39 114.432 104.132 112.505 102.202C110.577 100.272 108.323 99.4001 107.47 100.254C106.617 101.108 107.488 103.365 109.416 105.296C111.343 107.226 113.597 108.098 114.45 107.244Z" fill="black"/>
<path d="M114.45 107.143C115.303 106.289 114.432 104.032 112.505 102.102C110.577 100.172 108.324 99.2995 107.471 100.154C106.618 101.008 107.489 103.265 109.416 105.195C111.343 107.125 113.597 107.997 114.45 107.143Z" fill="#F0F0F4"/>
<g opacity="0.1">
<path opacity="0.1" d="M94.3846 94.9076C94.3372 94.9946 93.9969 95.1986 93.5825 95.4234C93.5443 95.1209 93.5165 94.8926 93.5108 94.8219C93.4865 94.5634 94.0374 93.4055 94.0374 93.4055C94.0374 93.4055 95.0918 91.9891 95.0675 91.7758C95.0432 91.5626 95.4749 90.9506 95.4749 90.9506L96.431 89.3986C96.3782 89.5168 96.3594 89.6476 96.3768 89.776C96.3941 89.9044 96.447 90.0254 96.5294 90.1253C96.8176 90.5032 96.5768 91.2589 96.5768 91.2589L96.6359 92.2116V92.3067C96.6023 92.3403 96.4484 92.4875 96.1081 92.7946C95.7944 93.0775 95.85 93.1644 95.8858 93.1876C95.8141 93.3151 95.902 93.3371 95.902 93.3371C95.9298 93.3371 95.9576 93.3348 95.9854 93.3301L95.909 93.4008C95.3256 93.9479 94.4703 94.7535 94.3846 94.9076Z" fill="url(#paint12_linear)"/>
</g>
<path opacity="0.03" d="M82.3171 105.192C82.3171 105.192 80.2359 105.461 79.8226 105.915C79.8226 105.915 81.6501 106.049 81.7252 106.302C81.7252 106.302 80.6809 105.554 80.3902 105.743L82.3171 105.192Z" fill="black"/>
<path opacity="0.3" d="M90.0776 119.646C90.0924 119.737 90.0991 119.827 90.1045 119.905C90.1081 120.005 90.1729 120.1 90.2871 120.175L90.2952 120.18C90.3385 119.996 90.3583 119.81 90.3543 119.624C90.3261 119.649 90.2052 119.651 90.0776 119.646Z" fill="white"/>
</g>
<defs>
<linearGradient id="paint0_linear" x1="160.559" y1="87.7082" x2="104.375" y2="294.189" gradientUnits="userSpaceOnUse">
<stop offset="0.01"/>
<stop offset="0.13" stop-opacity="0.69"/>
<stop offset="0.25" stop-opacity="0.32"/>
<stop offset="1" stop-opacity="0"/>
</linearGradient>
<linearGradient id="paint1_linear" x1="7562.5" y1="10294.9" x2="705.067" y2="17745.2" gradientUnits="userSpaceOnUse">
<stop offset="0.01"/>
<stop offset="0.13" stop-opacity="0.69"/>
<stop offset="0.25" stop-opacity="0.32"/>
<stop offset="1" stop-opacity="0"/>
</linearGradient>
<linearGradient id="paint2_linear" x1="-72771.8" y1="9856.78" x2="-65915" y2="17303.5" gradientUnits="userSpaceOnUse">
<stop offset="0.01"/>
<stop offset="0.13" stop-opacity="0.69"/>
<stop offset="0.25" stop-opacity="0.32"/>
<stop offset="1" stop-opacity="0"/>
</linearGradient>
<linearGradient id="paint3_linear" x1="43.7198" y1="61.3823" x2="162.108" y2="154.911" gradientUnits="userSpaceOnUse">
<stop stop-color="white"/>
<stop offset="1" stop-color="#CBCBCB"/>
</linearGradient>
<linearGradient id="paint4_linear" x1="7211.52" y1="3923.53" x2="6997.95" y2="5480.91" gradientUnits="userSpaceOnUse">
<stop offset="0.01"/>
<stop offset="0.13" stop-opacity="0.69"/>
<stop offset="0.25" stop-opacity="0.32"/>
<stop offset="1" stop-opacity="0"/>
</linearGradient>
<linearGradient id="paint5_linear" x1="862.287" y1="326.136" x2="864.537" y2="350.527" gradientUnits="userSpaceOnUse">
<stop stop-color="white"/>
<stop offset="1" stop-color="#CBCBCB"/>
</linearGradient>
<linearGradient id="paint6_linear" x1="393.277" y1="428.251" x2="396.318" y2="447.534" gradientUnits="userSpaceOnUse">
<stop stop-color="white"/>
<stop offset="1" stop-color="#CBCBCB"/>
</linearGradient>
<linearGradient id="paint7_linear" x1="10585" y1="8889.86" x2="15999.7" y2="10497.3" gradientUnits="userSpaceOnUse">
<stop stop-color="white"/>
<stop offset="1" stop-color="#CBCBCB"/>
</linearGradient>
<linearGradient id="paint8_linear" x1="115.226" y1="13.9272" x2="37.7739" y2="29.1145" gradientUnits="userSpaceOnUse">
<stop offset="0.01" stop-color="white"/>
<stop offset="1" stop-color="white" stop-opacity="0"/>
</linearGradient>
<linearGradient id="paint9_linear" x1="1400.27" y1="1473.27" x2="1454.43" y2="1497.82" gradientUnits="userSpaceOnUse">
<stop stop-color="white"/>
<stop offset="1" stop-color="#CBCBCB"/>
</linearGradient>
<linearGradient id="paint10_linear" x1="5874.09" y1="681.614" x2="6526.49" y2="1557.43" gradientUnits="userSpaceOnUse">
<stop offset="0.01"/>
<stop offset="0.13" stop-opacity="0.69"/>
<stop offset="0.25" stop-opacity="0.32"/>
<stop offset="1" stop-opacity="0"/>
</linearGradient>
<linearGradient id="paint11_linear" x1="8293.66" y1="256.873" x2="8293.66" y2="640.496" gradientUnits="userSpaceOnUse">
<stop offset="0.01"/>
<stop offset="0.13" stop-opacity="0.69"/>
<stop offset="0.25" stop-opacity="0.32"/>
<stop offset="1" stop-opacity="0"/>
</linearGradient>
<linearGradient id="paint12_linear" x1="2104.94" y1="3288.48" x2="2191.27" y2="3288.48" gradientUnits="userSpaceOnUse">
<stop stop-color="#808080" stop-opacity="0.25"/>
<stop offset="0.54" stop-color="#808080" stop-opacity="0.12"/>
<stop offset="1" stop-color="#808080" stop-opacity="0.1"/>
</linearGradient>
<clipPath id="clip0">
<rect width="250" height="204" fill="white"/>
</clipPath>
</defs>
</svg>
