<svg width="209" height="122" viewBox="0 0 209 122" fill="none" xmlns="http://www.w3.org/2000/svg">
<path d="M188.982 121.505C189.796 112.244 192.043 103.187 195.636 94.6962C196.637 92.3333 197.739 90.0224 198.941 87.7635C199.002 87.6453 199.016 87.5071 198.982 87.3778C198.947 87.2486 198.867 87.1385 198.757 87.0708C198.648 87.003 198.517 86.9829 198.394 87.0148C198.27 87.0466 198.164 87.1278 198.096 87.2413C193.722 95.4688 190.658 104.4 189.026 113.677C188.572 116.268 188.231 118.877 188.002 121.505C187.944 122.167 188.924 122.163 188.982 121.505Z" fill="#C2C2C2"/>
<path d="M202 89C205.866 89 209 85.866 209 82C209 78.134 205.866 75 202 75C198.134 75 195 78.134 195 82C195 85.866 198.134 89 202 89Z" fill="#C2C2C2"/>
<path d="M189.625 121.674C190.143 115.589 191.573 109.637 193.859 104.058C194.496 102.505 195.197 100.986 195.962 99.502C196.001 99.4243 196.01 99.3334 195.988 99.2484C195.967 99.1634 195.915 99.091 195.846 99.0465C195.776 99.002 195.693 98.9888 195.614 99.0097C195.536 99.0307 195.468 99.0842 195.424 99.1588C192.641 104.565 190.691 110.434 189.653 116.531C189.364 118.233 189.147 119.948 189.002 121.674C188.965 122.11 189.588 122.107 189.625 121.674H189.625Z" fill="#C2C2C2"/>
<path d="M198 101C200.209 101 202 98.7614 202 96C202 93.2386 200.209 91 198 91C195.791 91 194 93.2386 194 96C194 98.7614 195.791 101 198 101Z" fill="#C2C2C2"/>
<path d="M188.935 121.454C185.238 116.44 182.513 110.933 180.87 105.152C180.414 103.542 180.043 101.917 179.757 100.276C179.741 100.191 179.687 100.116 179.608 100.065C179.528 100.014 179.429 99.9915 179.331 100.003C179.233 100.014 179.144 100.058 179.082 100.126C179.021 100.193 178.992 100.279 179.002 100.364C180.046 106.338 182.212 112.121 185.415 117.484C186.31 118.981 187.283 120.44 188.334 121.861C188.598 122.22 189.198 121.81 188.935 121.454Z" fill="#C2C2C2"/>
<path d="M179.5 100C181.985 100 184 97.9853 184 95.5C184 93.0147 181.985 91 179.5 91C177.015 91 175 93.0147 175 95.5C175 97.9853 177.015 100 179.5 100Z" fill="#C2C2C2"/>
<path d="M163.896 34.4555L164 112.481C164 113.93 163.424 115.319 162.398 116.345C161.372 117.371 159.979 117.949 158.525 117.953L126 118C135.156 100.932 140.341 74.067 140.31 53.3589C140.302 45.1867 139.469 37.0361 137.823 29.0301L158.405 29C159.859 28.9995 161.253 29.5736 162.283 30.5964C163.312 31.6191 163.892 33.007 163.896 34.4555Z" fill="#D80A49"/>
<path d="M116 23L59 22.7829L64.5427 4.87742C64.9852 3.47073 65.8796 2.23843 67.0952 1.36082C68.3108 0.483216 69.7837 0.00635669 71.2985 0H71.3253L103.859 0.124038C105.379 0.136283 106.854 0.621806 108.068 1.50915C109.282 2.39649 110.17 3.63877 110.602 5.05315L116 23Z" fill="#5C5C5D"/>
<path d="M148.5 18C146.776 18 145.123 18.5268 143.904 19.4645C142.685 20.4021 142 21.6739 142 23H155C155 21.6739 154.315 20.4021 153.096 19.4645C151.877 18.5268 150.224 18 148.5 18Z" fill="#D80A49"/>
<path d="M167.6 122H7.4005C5.43844 121.998 3.55736 121.219 2.16997 119.836C0.78259 118.452 0.00220762 116.575 0 114.618V30.3816C0.00220877 28.4245 0.78259 26.5483 2.16997 25.1645C3.55736 23.7806 5.43844 23.0022 7.4005 23H167.6C169.562 23.0022 171.443 23.7806 172.83 25.1645C174.217 26.5483 174.998 28.4245 175 30.3816V114.618C174.998 116.575 174.217 118.452 172.83 119.836C171.443 121.219 169.562 121.998 167.6 122ZM7.4005 23.8684C5.66927 23.8704 4.0095 24.5572 2.78534 25.7782C1.56118 26.9993 0.872606 28.6548 0.870647 30.3816V114.618C0.872606 116.345 1.56118 118.001 2.78534 119.222C4.0095 120.443 5.66927 121.13 7.4005 121.132H167.6C169.331 121.13 170.99 120.443 172.215 119.222C173.439 118.001 174.127 116.345 174.129 114.618V30.3816C174.127 28.6548 173.439 26.9993 172.215 25.7782C170.99 24.5572 169.331 23.8704 167.6 23.8684H7.4005Z" fill="#5C5C5D"/>
<path d="M93.3571 16H79.6429C78.6767 16 77.7501 15.6313 77.067 14.9749C76.3838 14.3185 76 13.4283 76 12.5C76 11.5717 76.3838 10.6815 77.067 10.0251C77.7501 9.36875 78.6767 9 79.6429 9H93.3571C94.3233 9 95.2498 9.36875 95.933 10.0251C96.6162 10.6815 97 11.5717 97 12.5C97 13.4283 96.6162 14.3185 95.933 14.9749C95.2498 15.6313 94.3233 16 93.3571 16Z" fill="white"/>
<path d="M87 106C80.4732 106 74.093 104.065 68.6662 100.439C63.2394 96.8124 59.0097 91.6585 56.512 85.6286C54.0143 79.5986 53.3608 72.9634 54.6341 66.562C55.9074 60.1607 59.0504 54.2806 63.6655 49.6655C68.2806 45.0504 74.1607 41.9074 80.562 40.6341C86.9634 39.3608 93.5986 40.0143 99.6286 42.512C105.659 45.0097 110.812 49.2394 114.438 54.6662C118.065 60.093 120 66.4732 120 73C119.99 81.7491 116.51 90.1371 110.324 96.3236C104.137 102.51 95.7491 105.99 87 106ZM87 40.8684C80.645 40.8684 74.4327 42.7529 69.1487 46.2836C63.8646 49.8142 59.7463 54.8325 57.3143 60.7038C54.8823 66.5751 54.246 73.0357 55.4858 79.2686C56.7256 85.5015 59.7859 91.2268 64.2796 95.7205C68.7732 100.214 74.4985 103.274 80.7314 104.514C86.9644 105.754 93.4249 105.118 99.2962 102.686C105.167 100.254 110.186 96.1354 113.716 90.8513C117.247 85.5673 119.132 79.355 119.132 73C119.122 64.4811 115.734 56.3139 109.71 50.2902C103.686 44.2664 95.5189 40.8781 87 40.8684Z" fill="#5C5C5D"/>
<path d="M87.5 94C83.2477 94 79.0909 92.7097 75.5552 90.2923C72.0196 87.8749 69.2639 84.439 67.6366 80.419C66.0093 76.3991 65.5835 71.9756 66.4131 67.708C67.2427 63.4404 69.2904 59.5204 72.2972 56.4436C75.3041 53.3669 79.135 51.2716 83.3056 50.4227C87.4762 49.5739 91.7991 50.0095 95.7277 51.6747C99.6563 53.3398 103.014 56.1596 105.377 59.7775C107.739 63.3953 109 67.6488 109 72C108.994 77.8327 106.726 83.4247 102.696 87.5491C98.6651 91.6735 93.2002 93.9934 87.5 94ZM87.5 50.88C83.4178 50.88 79.4273 52.1187 76.033 54.4394C72.6388 56.7601 69.9933 60.0586 68.4311 63.9177C66.8689 67.7769 66.4602 72.0234 67.2566 76.1203C68.053 80.2172 70.0188 83.9804 72.9053 86.9341C75.7919 89.8878 79.4696 91.8993 83.4733 92.7142C87.4771 93.5291 91.6271 93.1108 95.3986 91.5123C99.17 89.9138 102.394 87.2068 104.662 83.7336C106.929 80.2605 108.14 76.1771 108.14 72C108.134 66.4006 105.957 61.0323 102.088 57.0729C98.2184 53.1135 92.9722 50.8863 87.5 50.88Z" fill="#5C5C5D"/>
<path d="M86.5 89C95.6127 89 103 81.6127 103 72.5C103 63.3873 95.6127 56 86.5 56C77.3873 56 70 63.3873 70 72.5C70 81.6127 77.3873 89 86.5 89Z" fill="#CCCCCC"/>
<path d="M77.1997 72.5C77.2001 69.9701 78.1918 67.5254 79.9924 65.6155C81.7929 63.7056 84.2814 62.4589 87 62.1046C85.3842 61.8929 83.7379 62.0034 82.1725 62.4288C80.607 62.8541 79.159 63.5843 77.9264 64.5699C76.6938 65.5556 75.7054 66.7737 75.028 68.1418C74.3506 69.51 74 70.9962 74 72.5C74 74.0038 74.3506 75.49 75.028 76.8582C75.7054 78.2263 76.6938 79.4444 77.9264 80.4301C79.159 81.4157 80.607 82.1459 82.1725 82.5712C83.7379 82.9966 85.3842 83.1071 87 82.8954C84.2814 82.5411 81.7929 81.2944 79.9924 79.3845C78.1918 77.4746 77.2001 75.0299 77.1997 72.5Z" fill="white"/>
<path d="M160 25H137V24.5385C137 21.4783 138.212 18.5434 140.368 16.3795C142.525 14.2157 145.45 13 148.5 13C151.55 13 154.475 14.2157 156.632 16.3795C158.788 18.5434 160 21.4783 160 24.5385V25ZM137.93 24.0769H159.07C158.951 21.3441 157.786 18.7626 155.817 16.8709C153.847 14.9792 151.226 13.9233 148.5 13.9233C145.774 13.9233 143.153 14.9792 141.183 16.8709C139.214 18.7626 138.049 21.3441 137.93 24.0769Z" fill="#5C5C5D"/>
<path d="M11 36C10.2089 36 9.43551 35.7654 8.77772 35.3259C8.11992 34.8864 7.60723 34.2616 7.30448 33.5307C7.00173 32.7998 6.92252 31.9956 7.07686 31.2196C7.2312 30.4437 7.61216 29.731 8.17156 29.1716C8.73097 28.6122 9.44371 28.2312 10.2196 28.0769C10.9956 27.9225 11.7998 28.0017 12.5307 28.3045C13.2616 28.6072 13.8864 29.1199 14.3259 29.7777C14.7654 30.4355 15 31.2089 15 32C14.9988 33.0605 14.577 34.0772 13.8271 34.8271C13.0772 35.577 12.0605 35.9988 11 36ZM11 28.8C10.3671 28.8 9.74841 28.9877 9.22217 29.3393C8.69594 29.6909 8.28579 30.1907 8.04359 30.7754C7.80139 31.3601 7.73801 32.0036 7.86148 32.6243C7.98495 33.245 8.28973 33.8152 8.73726 34.2627C9.18479 34.7103 9.75497 35.0151 10.3757 35.1385C10.9965 35.262 11.6399 35.1986 12.2246 34.9564C12.8093 34.7142 13.3091 34.3041 13.6607 33.7778C14.0123 33.2516 14.2 32.6329 14.2 32C14.199 31.1516 13.8616 30.3382 13.2617 29.7383C12.6618 29.1384 11.8484 28.801 11 28.8Z" fill="#5C5C5D"/>
<path d="M11 34C12.1046 34 13 32.8807 13 31.5C13 30.1193 12.1046 29 11 29C9.89543 29 9 30.1193 9 31.5C9 32.8807 9.89543 34 11 34Z" fill="#D80A49"/>
<path d="M22.5 34C23.8807 34 25 32.8807 25 31.5C25 30.1193 23.8807 29 22.5 29C21.1193 29 20 30.1193 20 31.5C20 32.8807 21.1193 34 22.5 34Z" fill="#CCCCCC"/>
<path d="M33.5 34C34.3284 34 35 32.8807 35 31.5C35 30.1193 34.3284 29 33.5 29C32.6716 29 32 30.1193 32 31.5C32 32.8807 32.6716 34 33.5 34Z" fill="#CCCCCC"/>
<path d="M22.5 36C21.61 36 20.74 35.7654 19.9999 35.3259C19.2599 34.8864 18.6831 34.2616 18.3425 33.5307C18.0019 32.7998 17.9128 31.9956 18.0865 31.2196C18.2601 30.4437 18.6887 29.731 19.318 29.1716C19.9473 28.6122 20.7492 28.2312 21.6221 28.0769C22.495 27.9225 23.3998 28.0017 24.2221 28.3045C25.0443 28.6072 25.7471 29.1199 26.2416 29.7777C26.7361 30.4355 27 31.2089 27 32C26.9987 33.0605 26.5241 34.0772 25.6805 34.8271C24.8369 35.577 23.6931 35.9988 22.5 36ZM22.5 28.8C21.788 28.8 21.092 28.9877 20.4999 29.3393C19.9079 29.6909 19.4465 30.1907 19.174 30.7754C18.9016 31.3601 18.8303 32.0036 18.9692 32.6243C19.1081 33.245 19.451 33.8152 19.9544 34.2627C20.4579 34.7103 21.0993 35.0151 21.7977 35.1385C22.496 35.262 23.2198 35.1986 23.8777 34.9564C24.5355 34.7142 25.0977 34.3041 25.4933 33.7778C25.8889 33.2516 26.1 32.6329 26.1 32C26.0989 31.1516 25.7193 30.3382 25.0444 29.7383C24.3695 29.1384 23.4544 28.801 22.5 28.8Z" fill="#5C5C5D"/>
<path d="M33.5 36C32.61 36 31.74 35.7654 30.9999 35.3259C30.2599 34.8864 29.6831 34.2616 29.3425 33.5307C29.0019 32.7998 28.9128 31.9956 29.0865 31.2196C29.2601 30.4437 29.6887 29.731 30.318 29.1716C30.9473 28.6122 31.7492 28.2312 32.6221 28.0769C33.495 27.9225 34.3998 28.0017 35.2221 28.3045C36.0443 28.6072 36.7471 29.1199 37.2416 29.7777C37.7361 30.4355 38 31.2089 38 32C37.9987 33.0605 37.5241 34.0772 36.6805 34.8271C35.8369 35.577 34.6931 35.9988 33.5 36ZM33.5 28.8C32.788 28.8 32.092 28.9877 31.4999 29.3393C30.9079 29.6909 30.4465 30.1907 30.174 30.7754C29.9016 31.3601 29.8303 32.0036 29.9692 32.6243C30.1081 33.245 30.451 33.8152 30.9544 34.2627C31.4579 34.7103 32.0993 35.0151 32.7977 35.1385C33.496 35.262 34.2198 35.1986 34.8777 34.9564C35.5355 34.7142 36.0977 34.3041 36.4933 33.7778C36.8889 33.2516 37.1 32.6329 37.1 32C37.0989 31.1516 36.7193 30.3382 36.0444 29.7383C35.3695 29.1384 34.4544 28.801 33.5 28.8Z" fill="#5C5C5D"/>
<path d="M57 61H1V62H57V61Z" fill="#5C5C5D"/>
<path d="M174 61H117V62H174V61Z" fill="#5C5C5D"/>
</svg>
