<svg width="217" height="184" viewBox="0 0 217 184" fill="none" xmlns="http://www.w3.org/2000/svg">
<path d="M13.6463 116.848C22.3043 128.392 32.5207 132.687 52.3946 140.732C93.0555 157.187 139.325 160.842 173.335 146.075C198.204 135.284 209.644 119.192 214.812 84.4414C219.075 55.7455 210.183 16.3933 188.129 7.62619C164.569 -1.73837 144.811 31.286 112.025 21.3087C94.4647 15.9675 94.5429 4.79648 76.5247 1.02037C55.9011 -3.294 32.6806 6.49762 18.2862 22.3852C-5.89008 49.0735 -4.68453 92.4147 13.6463 116.848Z" fill="#C2C2C2"/>
<path d="M114.013 110.283L137.272 92.9769L182.656 160.244L154.01 163.694L114.013 110.283Z" fill="#8A062E"/>
<path d="M148.526 63.3427C148.896 64.3583 149.625 65.1801 150.124 66.1258C151.675 69.0542 152.691 72.0995 152.625 75.3928C152.614 75.8733 152.573 76.3649 152.454 76.8231C152.288 77.4616 151.68 77.7768 151.027 77.6604C150.386 77.545 149.852 77.0052 149.919 76.3559C150.395 71.7842 148.549 67.8839 145.843 64.2931C142.57 59.9468 138.602 56.3777 133.524 54.1981C130.534 52.9147 127.429 52.3737 124.053 52.5982C124.944 53.6383 125.743 54.5742 126.545 55.5122C126.766 55.7711 126.994 56.0219 127.201 56.2874C127.726 56.9456 127.702 57.64 127.15 58.1234C126.576 58.6245 125.816 58.5653 125.231 57.9266C124.686 57.3308 124.174 56.7036 123.648 56.088C122.512 54.7619 121.37 53.4363 120.243 52.1041C119.516 51.2447 119.557 50.5633 120.394 49.8645C122.228 48.3335 124.073 46.8111 125.919 45.2937C126.675 44.6717 127.42 44.6851 127.966 45.2984C128.541 45.9432 128.431 46.6675 127.643 47.3257C126.666 48.143 125.683 48.9463 124.7 49.7593C124.886 49.9999 125.078 49.9127 125.239 49.914C131.077 49.8883 136.204 51.9797 140.836 55.5442C141.974 56.4182 143.043 57.3777 144.073 58.3767C144.177 58.4771 144.249 58.6485 144.446 58.5781C144.717 58.8962 144.99 59.2116 145.261 59.5297C145.37 59.8465 145.573 60.0827 145.869 60.243C146.207 60.6382 146.548 61.0356 146.886 61.4308C146.996 61.7476 147.199 61.9837 147.495 62.1441C147.63 62.3032 147.766 62.4622 147.903 62.6185C147.897 62.7566 147.965 62.8385 148.106 62.8547C148.253 63.0273 148.391 63.1836 148.526 63.3427Z" fill="#D80A49"/>
<path d="M78.9179 126.07C79.9543 126.377 80.8191 127.054 81.7937 127.495C84.8116 128.863 87.9135 129.691 91.1965 129.422C91.6755 129.383 92.1637 129.312 92.6138 129.165C93.2408 128.96 93.5182 128.333 93.3619 127.688C93.2075 127.056 92.636 126.556 91.9919 126.662C87.458 127.418 83.4519 125.815 79.702 123.334C75.1632 120.333 71.3575 116.592 68.8708 111.657C67.4065 108.751 66.6762 105.686 66.6933 102.302C67.786 103.127 68.7691 103.868 69.7546 104.611C70.0266 104.816 70.2908 105.027 70.5686 105.218C71.2576 105.701 71.9492 105.635 72.398 105.054C72.8629 104.45 72.7573 103.696 72.0839 103.151C71.4558 102.644 70.7984 102.171 70.1517 101.684C68.7584 100.631 67.3653 99.5728 65.9665 98.5293C65.0642 97.8563 64.3866 97.9394 63.7404 98.8176C62.3247 100.742 60.9183 102.677 59.5169 104.612C58.9424 105.405 59.0015 106.148 59.6471 106.655C60.3259 107.189 61.0421 107.035 61.6507 106.208C62.4067 105.183 63.1481 104.152 63.8994 103.122C64.1509 103.293 64.0757 103.49 64.0868 103.65C64.419 109.478 66.8208 114.468 70.6626 118.873C71.6048 119.955 72.628 120.963 73.6883 121.93C73.7948 122.028 73.9703 122.089 73.9121 122.29C74.2463 122.541 74.5778 122.794 74.9119 123.045C75.2348 123.135 75.483 123.323 75.6612 123.608C76.0763 123.922 76.4939 124.237 76.909 124.551C77.232 124.641 77.4801 124.829 77.6583 125.114C77.8254 125.24 77.9924 125.365 78.1569 125.493C78.2943 125.478 78.3803 125.541 78.405 125.681C78.5863 125.817 78.7508 125.945 78.9179 126.07Z" fill="#D80A49"/>
<rect x="76.365" y="52.4774" width="34.6547" height="54.8057" rx="2.25" transform="rotate(-10.807 76.365 52.4774)" fill="white" stroke="#1B191B" stroke-width="1.5"/>
<path d="M114.757 65.9109C118.136 65.3257 120.884 66.5988 123.464 68.6658C125.979 70.6849 128.246 72.9924 130.904 74.8463C134.754 77.5272 136.957 81.3261 138.079 85.8108C138.682 88.2196 139.369 90.6075 139.205 93.1316C139.068 95.2516 138.453 97.2151 137.483 99.1062C135.947 102.091 133.639 104.375 131.078 106.453C129.597 107.654 128.577 109.15 127.876 110.924C126.948 113.268 125.285 115.019 123.068 116.195C119.376 118.149 115.438 118.903 111.285 118.324C108.356 117.916 105.644 116.866 103.13 115.311C100.696 113.805 98.5167 112.002 96.6273 109.851C96.5449 109.759 96.4964 109.637 96.4316 109.529C96.6559 109.114 97.0939 109.172 97.4522 109.101C104.707 107.647 111.96 106.207 119.219 104.762C119.524 104.701 119.831 104.655 120.126 104.56C121.44 104.13 122.057 103.14 121.785 101.809C121.358 99.7335 121.022 97.6401 120.488 95.5848C120.285 93.9342 119.867 92.3219 119.561 90.6924C119.078 88.2083 118.558 85.7326 118.087 83.2457C118.033 82.9513 116.985 78.2122 117.5 78C118.457 78.668 125.5 83 120.453 84.9078C120.605 85.1179 124.822 83.31 125 83.5C125.359 83.8813 121.682 86.0563 122.154 85.7973C122.621 85.5436 122.759 85.1143 122.662 84.6058C122.613 84.3476 120.141 86.2175 120 86C118.662 83.909 119.334 80.0212 117.301 78.5821C116.579 78.0731 115.832 78.1961 115.074 78.4858C113.617 79.0389 112.253 79.787 110.872 80.4906C108.951 81.4692 107.026 82.4387 104.845 82.6791C102.895 82.8908 101.055 82.6505 99.6645 81.0522C98.0327 79.1712 98.4376 76.3864 100.608 75.1845C102.649 74.0509 104.675 72.9187 106.47 71.4055C107.776 70.3045 108.987 69.0946 110.309 68.0111C111.337 67.1679 112.455 66.4769 113.71 66.0213C114.046 65.8997 114.386 65.7379 114.757 65.9109Z" fill="#FDD7AD"/>
<path d="M84.4843 91.8055C85.008 92.4108 85.6509 92.9144 86.0045 93.664C86.64 95.0116 86.5562 96.3622 85.9806 97.7103C85.8861 97.9264 85.7516 98.1272 85.7415 98.3719C85.3771 99.0514 84.757 99.4423 84.1735 99.8472C84.8285 100.021 85.6037 100.032 86.1681 100.591C86.9033 101.351 87.5857 102.15 87.9896 103.156C88.6736 104.238 88.3575 106.273 87.3961 106.995C86.2882 108.495 84.8487 109.259 82.9904 108.975C81.1154 108.686 79.936 107.56 79.3626 105.743C78.7924 103.928 79.777 101.575 81.5355 100.608C81.6703 100.536 81.8125 100.474 82.2099 100.285C79.7397 100.093 78.1239 98.9897 77.644 96.7503C77.1697 94.5364 78.0627 92.7899 80.1916 91.5846C79.1535 91.4729 78.2563 91.4815 77.4191 91.0858C75.6054 90.2292 74.626 88.7728 74.474 86.8032C74.3179 84.8048 75.1511 83.214 76.8288 82.0993C77.1365 81.8952 77.469 81.7356 77.7868 81.5548C77.9122 81.4671 78.0533 81.4281 78.1938 81.4005C78.2888 81.4215 78.1712 81.489 78.2363 81.4091C78.2738 81.3614 78.2364 81.3392 78.1864 81.3899C78.0163 81.4449 77.8879 81.3218 77.7405 81.3078C76.0367 80.9403 74.7704 80.061 74.1551 78.3329C73.5494 76.6394 74.0618 74.6611 75.4981 73.3993C76.8882 72.178 78.9928 71.95 80.5202 72.8557C80.6542 72.9344 80.7895 73.0097 80.9248 73.0851C82.5558 74.2676 83.42 76.4411 82.3774 78.6662C82.2559 78.9225 82.2051 79.2137 82.1223 79.4887C81.7394 80.266 80.9861 80.6057 80.2452 81.0822C81.1656 81.2418 81.9931 81.4939 82.6299 82.1427C83.0817 82.736 83.6832 83.1886 84.0316 83.8819C84.7346 85.2826 84.8803 86.702 84.2865 88.1868C84.1622 88.5003 84.0778 88.8291 83.9721 89.1536C83.5421 90.1031 82.7541 90.6625 82.022 91.0763C82.8255 91.0629 83.7429 91.1009 84.4843 91.8055Z" fill="#FDD7AD"/>
<path d="M86.6844 107.99C87.3827 106.925 88.294 105.761 88.1058 104.446C88.0752 104.232 88.2413 104.024 88.4574 104.032C88.9102 104.049 89.0963 103.989 89.7313 103.859C99.3066 101.893 108.881 99.9314 118.456 97.966C119.844 97.6811 120.428 97.0866 120.687 95.7071C120.936 95.8759 120.928 96.1548 120.978 96.4099C121.329 98.2093 121.683 100.01 122.025 101.81C122.373 103.636 121.591 104.818 119.771 105.192C112.238 106.741 104.704 108.283 97.1708 109.832C96.8923 109.891 96.6173 109.971 96.3416 110.043C94.4276 110.423 92.5129 110.795 90.6009 111.18C88.3159 111.642 87.2939 110.963 86.844 108.678C86.8001 108.444 86.7376 108.219 86.6844 107.99Z" fill="#1B191B"/>
<path d="M103.516 46.6257C103.502 47.349 103.738 48.0322 103.857 48.7348C104.187 50.6856 103.314 52.0545 101.377 52.4423C96.3792 53.4404 91.3744 54.4155 86.3681 55.3738C84.3148 55.7689 83.0197 54.8515 82.618 52.7836C82.4819 52.0826 82.3808 51.3751 82.2615 50.6725C89.0739 49.3403 95.885 48.0116 102.7 46.6843C102.971 46.6321 103.238 46.5175 103.516 46.6257Z" fill="#1B191B"/>
</svg>
