<svg width="149" height="48" viewBox="0 0 149 48" fill="none" xmlns="http://www.w3.org/2000/svg">
<g filter="url(#filter0_d)">
<path d="M6.82199 21.7088V16.4006C6.82199 15.7826 7.06747 15.19 7.50443 14.753C7.94138 14.3161 8.53401 14.0706 9.15196 14.0706H43.396L63.7785 0.482283C63.8788 0.425506 63.9832 0.376248 64.0907 0.334914C64.1663 0.293908 64.244 0.257249 64.3237 0.225115C64.5638 0.13969 64.8163 0.0943301 65.0711 0.0908511H90.2114C92.8966 0.0856239 95.5412 0.746095 97.9086 2.01317C100.276 3.28025 102.293 5.11442 103.778 7.35159L106.263 11.0877L124.913 4.87135C125.151 4.7917 125.4 4.75099 125.65 4.75077H141.96C142.357 4.75074 142.748 4.85224 143.095 5.04563C143.441 5.23903 143.733 5.51789 143.942 5.85575C144.151 6.19361 144.27 6.57924 144.288 6.97603C144.306 7.37281 144.222 7.76757 144.044 8.12281L141.07 14.0706H141.96C142.578 14.0706 143.17 14.3161 143.607 14.753C144.044 15.19 144.29 15.7826 144.29 16.4006V28.0504C144.288 29.9036 143.551 31.6803 142.24 32.9907C140.93 34.3011 139.153 35.0382 137.3 35.0403H117.364C116.556 36.4558 115.389 37.6326 113.98 38.4511C112.57 39.2696 110.97 39.7007 109.34 39.7007C107.71 39.7007 106.11 39.2696 104.701 38.4511C103.291 37.6326 102.124 36.4558 101.316 35.0403H35.8152C35.0077 36.4558 33.8401 37.6326 32.4309 38.4511C31.0217 39.2696 29.421 39.7007 27.7914 39.7007C26.1617 39.7007 24.561 39.2696 23.1518 38.4511C21.7426 37.6326 20.575 36.4558 19.7676 35.0403H9.15196C7.91652 35.0388 6.7321 34.5474 5.85851 33.6738C4.98492 32.8002 4.4935 31.6158 4.49203 30.3804V25.7204C4.49474 24.9062 4.71141 24.107 5.12035 23.4029C5.52928 22.6988 6.1161 22.1146 6.82199 21.7088ZM84.7939 4.75077H67.0448L65.4919 14.0706H91.0068L84.7939 4.75077ZM99.8965 9.93174C98.8532 8.36326 97.4434 7.07278 95.7889 6.17208C94.1345 5.27138 92.2854 4.78762 90.4019 4.76272L96.6074 14.0706H97.3119L101.681 12.6144L99.8965 9.93174ZM118.66 30.3804H137.3C137.918 30.3797 138.51 30.1341 138.947 29.6972C139.384 29.2604 139.629 28.6681 139.63 28.0504V25.7204H117.364C118.203 27.1306 118.651 28.7393 118.66 30.3804ZM109.34 35.0403C110.262 35.0403 111.163 34.767 111.929 34.2549C112.696 33.7429 113.293 33.0151 113.646 32.1636C113.998 31.3121 114.091 30.3752 113.911 29.4712C113.731 28.5673 113.287 27.737 112.635 27.0853C111.984 26.4336 111.153 25.9898 110.249 25.81C109.346 25.6302 108.409 25.7224 107.557 26.0751C106.706 26.4278 105.978 27.0251 105.466 27.7914C104.954 28.5578 104.68 29.4587 104.68 30.3804C104.682 31.6158 105.173 32.8002 106.047 33.6738C106.921 34.5474 108.105 35.0388 109.34 35.0403ZM83.7108 30.3804H100.021C100.03 28.7393 100.477 27.1306 101.317 25.7204H83.7108V30.3804ZM83.7108 21.0605H139.63V18.7305H125.65C125.032 18.7305 124.44 18.4851 124.003 18.0481C123.566 17.6112 123.32 17.0185 123.32 16.4006C123.32 15.7826 123.566 15.19 124.003 14.753C124.44 14.3161 125.032 14.0706 125.65 14.0706H135.86L138.19 9.4107H126.029L98.4286 18.61C98.1907 18.6897 97.9415 18.7304 97.6906 18.7305H83.7108V21.0605ZM55.7512 30.3804H79.0509V25.7204H65.0711V21.0605H79.0509V18.7305H55.7512V30.3804ZM60.7676 14.0706L61.8889 7.34285L51.7967 14.0706H60.7676ZM27.7917 35.0403C28.7133 35.0403 29.6143 34.767 30.3806 34.2549C31.1469 33.7429 31.7442 33.0151 32.0969 32.1636C32.4496 31.3121 32.5419 30.3752 32.3621 29.4712C32.1823 28.5673 31.7384 27.737 31.0867 27.0853C30.435 26.4336 29.6047 25.9898 28.7008 25.81C27.7968 25.6302 26.8599 25.7224 26.0084 26.0751C25.1569 26.4278 24.4291 27.0251 23.9171 27.7914C23.405 28.5578 23.1317 29.4587 23.1317 30.3804C23.1332 31.6158 23.6246 32.8002 24.4982 33.6738C25.3718 34.5474 26.5562 35.0388 27.7917 35.0403ZM27.7917 21.0605C30.2626 21.0631 32.6317 22.0459 34.3789 23.7931C36.1261 25.5404 37.1089 27.9094 37.1115 30.3804H51.0913V18.7305H11.4819V21.0605H27.7917ZM9.15196 30.3804H18.4718C18.4812 28.7393 18.9287 27.1306 19.7681 25.7204H9.15196V30.3804Z" fill="#D80A49"/>
</g>
<defs>
<filter id="filter0_d" x="0.492188" y="0.0908203" width="147.798" height="47.6099" filterUnits="userSpaceOnUse" color-interpolation-filters="sRGB">
<feFlood flood-opacity="0" result="BackgroundImageFix"/>
<feColorMatrix in="SourceAlpha" type="matrix" values="0 0 0 0 0 0 0 0 0 0 0 0 0 0 0 0 0 0 127 0" result="hardAlpha"/>
<feOffset dy="4"/>
<feGaussianBlur stdDeviation="2"/>
<feColorMatrix type="matrix" values="0 0 0 0 0.847059 0 0 0 0 0.0392157 0 0 0 0 0.286275 0 0 0 0.3 0"/>
<feBlend mode="normal" in2="BackgroundImageFix" result="effect1_dropShadow"/>
<feBlend mode="normal" in="SourceGraphic" in2="effect1_dropShadow" result="shape"/>
</filter>
</defs>
</svg>
