<svg width="129" height="58" viewBox="0 0 129 58" fill="none" xmlns="http://www.w3.org/2000/svg">
<g filter="url(#filter0_d)">
<path d="M8.59995 18.6345C14.1488 15.4714 26.5657 13.8523 45.5028 13.8183L60.4074 2.22573C61.6987 1.22168 63.3104 0.668457 64.9459 0.668457H68.6474C69.2381 0.668457 69.7895 0.965334 70.1145 1.45834C70.4397 1.95157 70.4952 2.57509 70.2626 3.11801L65.6774 13.8164H83.7435C84.719 13.8164 85.6729 13.6327 86.5787 13.2705L91.6337 11.2486C93.6973 10.4233 95.9369 10.2328 98.1102 10.6986L118.639 15.0975C121.164 15.6387 122.997 17.9062 122.997 20.4891V28.843H123.119C124.089 28.843 124.876 29.6298 124.876 30.6003C124.876 31.5709 124.089 32.3577 123.119 32.3577H122.931C122.607 34.4546 121.082 36.23 118.999 36.8252L109.765 39.4636C109.096 44.9764 104.391 49.2625 98.7007 49.2625C93.1511 49.2625 88.5369 45.1863 87.6915 39.8709H32.6992C31.8538 45.1861 27.2396 49.2625 21.6901 49.2625C15.98 49.2625 11.2613 44.9466 10.6184 39.406L9.96086 39.1866C6.93747 38.1788 4.90618 35.3607 4.90618 32.1738L4.90571 25.0449C4.90571 22.3899 6.32145 19.9333 8.59995 18.6345ZM65.9825 4.18344H64.9461C64.0883 4.18344 63.2427 4.47353 62.5655 5.00027L51.2297 13.8169H61.8539L65.9825 4.18344ZM98.7007 45.748C102.91 45.748 106.335 42.3232 106.335 38.1137C106.335 33.9042 102.91 30.4794 98.7007 30.4794C94.4912 30.4794 91.0664 33.9042 91.0664 38.1137C91.0664 42.3232 94.4912 45.748 98.7007 45.748ZM21.6898 45.748C25.8993 45.748 29.3241 42.3232 29.3241 38.1137C29.3241 33.9042 25.8993 30.4794 21.6898 30.4794C17.4803 30.4794 14.0555 33.9042 14.0555 38.1137C14.0555 42.3232 17.4803 45.748 21.6898 45.748ZM8.4207 32.1749C8.4207 33.7467 9.36382 35.1475 10.796 35.7483C11.8841 30.7337 16.3542 26.9651 21.6898 26.9651C27.2394 26.9651 31.8536 31.0413 32.699 36.3568H87.6913C88.5367 31.0416 93.1509 26.9651 98.7004 26.9651C104.073 26.9651 108.569 30.7847 109.618 35.8507L118.033 33.4464C118.603 33.2833 119.058 32.8756 119.297 32.3584H113.727C112.756 32.3584 111.97 31.5716 111.97 30.601C111.97 29.6305 112.756 28.8437 113.727 28.8437H119.483V20.4898C119.483 19.5532 118.818 18.731 117.903 18.5349L97.3742 14.1361C95.8861 13.8174 94.3524 13.9474 92.9395 14.5126L87.8844 16.5348C86.5614 17.0638 85.1684 17.3321 83.7437 17.3321H46.1078C22.8621 17.3321 13.8269 19.7011 10.3405 21.6886C9.71085 22.0475 9.20988 22.5801 8.87691 23.209H12.2982C13.2687 23.209 14.0555 23.9959 14.0555 24.9664C14.0555 25.937 13.2687 26.7238 12.2982 26.7238H8.42046L8.4207 32.1749Z" fill="#D80A49"/>
<path d="M36.715 28.8433H40.4711C41.4417 28.8433 42.2285 29.6301 42.2285 30.6006C42.2285 31.5712 41.4417 32.358 40.4711 32.358H36.715C35.7445 32.358 34.9577 31.5712 34.9577 30.6006C34.9577 29.6301 35.7445 28.8433 36.715 28.8433Z" fill="#D80A49"/>
<path d="M47.9857 28.8433H83.6733C84.6438 28.8433 85.4307 29.6301 85.4307 30.6006C85.4307 31.5712 84.6438 32.358 83.6733 32.358H47.9859C47.0153 32.358 46.2285 31.5712 46.2285 30.6006C46.2285 29.6301 47.0151 28.8433 47.9857 28.8433Z" fill="#D80A49"/>
</g>
<defs>
<filter id="filter0_d" x="0.905273" y="0.668457" width="127.97" height="56.5941" filterUnits="userSpaceOnUse" color-interpolation-filters="sRGB">
<feFlood flood-opacity="0" result="BackgroundImageFix"/>
<feColorMatrix in="SourceAlpha" type="matrix" values="0 0 0 0 0 0 0 0 0 0 0 0 0 0 0 0 0 0 127 0" result="hardAlpha"/>
<feOffset dy="4"/>
<feGaussianBlur stdDeviation="2"/>
<feColorMatrix type="matrix" values="0 0 0 0 0.847059 0 0 0 0 0.0392157 0 0 0 0 0.286275 0 0 0 0.3 0"/>
<feBlend mode="normal" in2="BackgroundImageFix" result="effect1_dropShadow"/>
<feBlend mode="normal" in="SourceGraphic" in2="effect1_dropShadow" result="shape"/>
</filter>
</defs>
</svg>
