<svg width="28" height="23" viewBox="0 0 28 23" fill="none" xmlns="http://www.w3.org/2000/svg">
<g filter="url(#filter0_d_2428_2095)">
<path d="M23.9976 14.2807C23.8939 14.5987 23.6985 14.8516 23.4572 15.078C23.2353 15.2876 23.023 15.5092 22.8083 15.7236C22.5382 15.991 22.2198 16.1427 21.829 16.1283C21.6481 16.1211 21.4623 16.1403 21.2838 16.1114C20.6807 16.0175 20.2465 15.4972 20.2393 14.8829C20.2369 14.7215 20.2369 14.5577 20.2393 14.3963C20.2417 14.2976 20.1983 14.2542 20.0994 14.2566C19.9571 14.259 19.8123 14.2662 19.67 14.2542C19.5204 14.2422 19.4505 14.3024 19.4047 14.4421C19.1248 15.2996 18.8354 16.1548 18.5507 17.0099C18.3191 17.7061 17.9187 17.9952 17.1902 17.9952C15.2266 17.9952 13.2606 17.9903 11.2971 18C10.7905 18.0024 10.4094 17.8097 10.1151 17.4074C9.67845 16.8172 9.23218 16.2343 8.79556 15.6441C8.71837 15.5381 8.63394 15.4948 8.50127 15.4996C8.24798 15.5092 7.99469 15.5044 7.74141 15.502C7.0515 15.4948 6.50874 14.9504 6.50392 14.259C6.4991 13.7002 6.4991 13.1413 6.50633 12.5824C6.50874 12.4283 6.45809 12.3753 6.3037 12.3825C6.03112 12.3921 5.75612 12.3946 5.48354 12.3825C5.31468 12.3753 5.27608 12.4427 5.27849 12.5993C5.28332 13.3581 5.28332 14.1193 5.27849 14.8781C5.27608 15.1961 5.03727 15.461 4.74056 15.4996C4.4125 15.5405 4.11579 15.355 4.02895 15.0515C4.00482 14.9769 4 14.895 4 14.8179C4 12.7727 4 10.7276 4 8.68009C4 8.26336 4.24846 7.99357 4.6296 7.99116C5.01797 7.98875 5.27608 8.26336 5.27608 8.68491C5.27849 9.41239 5.28091 10.1399 5.27367 10.8673C5.27126 11.048 5.31468 11.1251 5.51007 11.113C5.77542 11.0962 6.04318 11.1034 6.31094 11.1106C6.45567 11.1155 6.50392 11.0649 6.50151 10.9203C6.49427 10.3687 6.49668 9.81708 6.4991 9.26304C6.50151 8.53315 7.03944 7.99598 7.76553 7.98875C7.90785 7.98875 8.05259 7.98152 8.19491 7.99116C8.33482 7.99839 8.37583 7.94057 8.37342 7.80809C8.36618 7.45158 8.36859 7.09266 8.37342 6.73614C8.38065 6.0448 8.92341 5.5004 9.61332 5.49558C10.583 5.49076 11.5504 5.49076 12.5201 5.49799C12.6865 5.49799 12.7541 5.45945 12.7468 5.28119C12.7324 5.00899 12.7372 4.73679 12.7468 4.46218C12.7517 4.31765 12.6986 4.26947 12.5563 4.27188C11.7892 4.2767 11.0221 4.2767 10.255 4.27188C9.93656 4.26947 9.6688 4.03581 9.6302 3.73711C9.58678 3.40469 9.76288 3.11563 10.0716 3.0265C10.144 3.00482 10.226 3 10.3032 3C12.3536 3.00241 14.4089 3.00241 16.4641 3.00241C16.8718 3.00241 17.1444 3.26497 17.142 3.64557C17.1395 4.01413 16.867 4.27429 16.4738 4.2767C15.726 4.27911 14.9782 4.28151 14.2304 4.27429C14.0687 4.27188 14.0133 4.32246 14.0181 4.48627C14.0302 4.75124 14.0302 5.01863 14.0181 5.28601C14.0084 5.46426 14.0784 5.50522 14.2448 5.50281C14.8431 5.49558 15.4413 5.49799 16.0396 5.5004C16.6233 5.50281 17.0599 5.80873 17.2577 6.36036C17.3591 6.6422 17.4507 6.92644 17.54 7.21069C17.5762 7.32631 17.6365 7.37931 17.7643 7.37449C17.9862 7.36486 18.2058 7.36967 18.4277 7.37449C19.0838 7.38654 19.629 7.92853 19.6411 8.58374C19.6435 8.75236 19.6459 8.92098 19.6411 9.0896C19.6386 9.19318 19.6748 9.24618 19.7882 9.24377C20.343 9.23895 20.2489 9.29676 20.2345 8.82944C20.2176 8.22723 20.4082 7.75268 20.9726 7.48771C21.4117 7.28055 22.4031 7.2685 22.8421 7.79845C23.0447 8.04175 23.2836 8.25613 23.5151 8.47534C23.7371 8.68491 23.9035 8.92821 24 9.21727C23.9976 10.9011 23.9976 12.5897 23.9976 14.2807ZM12.8506 6.77228C11.8495 6.77228 10.8484 6.77469 9.84489 6.76987C9.69292 6.76987 9.64226 6.81564 9.64226 6.9698C9.6495 7.51421 9.64709 8.06102 9.64467 8.60542C9.64226 9.0077 9.38656 9.26063 8.98372 9.26545C8.63876 9.26786 8.29381 9.27027 7.94886 9.26304C7.81136 9.26063 7.76794 9.31122 7.76794 9.44611C7.77035 10.9781 7.77277 12.5126 7.76794 14.0446C7.76794 14.194 7.82584 14.2325 7.96575 14.2301C8.27693 14.2229 8.59052 14.2373 8.9017 14.2253C9.20323 14.2132 9.42034 14.3289 9.59643 14.5722C10.0837 15.237 10.5879 15.8922 11.0776 16.5547C11.1668 16.6775 11.2633 16.7281 11.4177 16.7257C13.2968 16.7209 15.176 16.7209 17.0551 16.7257C17.2288 16.7257 17.3036 16.6679 17.3567 16.5041C17.6871 15.4924 18.0273 14.483 18.365 13.4737C18.4832 13.122 18.681 12.9823 19.0476 12.9799C19.6386 12.9775 20.2321 12.9775 20.8231 12.9799C21.2597 12.9823 21.5057 13.2328 21.5081 13.6737C21.5106 13.9916 21.5081 14.3096 21.5081 14.6276C21.5081 14.8468 21.5419 14.8733 21.759 14.8492C21.8386 14.842 21.8893 14.7986 21.9399 14.748C22.1643 14.524 22.3886 14.2951 22.6178 14.0735C22.6998 13.994 22.7312 13.9097 22.7312 13.7965C22.7287 12.4259 22.7287 11.0552 22.7287 9.68459C22.7287 9.61232 22.736 9.54006 22.6781 9.48224C22.4127 9.21486 22.1474 8.94507 21.8748 8.68491C21.788 8.6006 21.6601 8.61987 21.5588 8.65601C21.4671 8.68973 21.5081 8.79331 21.5057 8.86558C21.5009 9.19559 21.5057 9.52801 21.5033 9.85803C21.4985 10.2483 21.2428 10.5036 20.852 10.506C20.2417 10.5084 19.629 10.5084 19.0187 10.506C18.6207 10.5036 18.3601 10.2434 18.3553 9.84839C18.3529 9.50392 18.3505 9.15946 18.3577 8.81499C18.3601 8.68009 18.3143 8.63192 18.1768 8.63433C17.8463 8.64155 17.5134 8.63673 17.183 8.63673C16.8042 8.63433 16.6089 8.49702 16.4882 8.13569C16.358 7.74787 16.2205 7.36245 16.1023 6.9698C16.054 6.81082 15.9744 6.76023 15.8104 6.76264C14.8286 6.77469 13.8396 6.77228 12.8506 6.77228Z" fill="#D80A49"/>
<path d="M13.1086 12.3828C12.8095 12.3828 12.5104 12.3828 12.2112 12.3828C11.6323 12.3804 11.3501 11.966 11.5672 11.424C11.9097 10.5617 12.2571 9.70171 12.602 8.83933C12.6599 8.6948 12.7154 8.55027 12.7781 8.40574C12.9301 8.05405 13.2871 7.89988 13.6272 8.03477C13.9529 8.16485 14.1121 8.52377 13.9746 8.87547C13.7141 9.54754 13.4415 10.2148 13.1737 10.882C13.0845 11.1061 13.0845 11.1085 13.3329 11.1085C13.9577 11.1085 14.5801 11.1061 15.2048 11.1085C15.7331 11.1109 16.0298 11.53 15.8369 12.0214C15.4364 13.0428 15.0239 14.0593 14.6114 15.0759C14.4643 15.4372 14.1121 15.5914 13.7696 15.4589C13.4343 15.3312 13.275 14.9675 13.415 14.6061C13.6779 13.9293 13.9529 13.2572 14.2231 12.5803C14.3027 12.3828 14.3003 12.3828 14.0831 12.3828C13.7575 12.3828 13.4318 12.3828 13.1086 12.3828Z" fill="#D80A49"/>
</g>
<defs>
<filter id="filter0_d_2428_2095" x="0" y="0" width="28" height="23" filterUnits="userSpaceOnUse" color-interpolation-filters="sRGB">
<feFlood flood-opacity="0" result="BackgroundImageFix"/>
<feColorMatrix in="SourceAlpha" type="matrix" values="0 0 0 0 0 0 0 0 0 0 0 0 0 0 0 0 0 0 127 0" result="hardAlpha"/>
<feOffset dy="1"/>
<feGaussianBlur stdDeviation="2"/>
<feComposite in2="hardAlpha" operator="out"/>
<feColorMatrix type="matrix" values="0 0 0 0 0.533333 0 0 0 0 0.0117647 0 0 0 0 0.0117647 0 0 0 0.5 0"/>
<feBlend mode="normal" in2="BackgroundImageFix" result="effect1_dropShadow_2428_2095"/>
<feBlend mode="normal" in="SourceGraphic" in2="effect1_dropShadow_2428_2095" result="shape"/>
</filter>
</defs>
</svg>
