<svg width="22" height="23" viewBox="0 0 22 23" fill="none" xmlns="http://www.w3.org/2000/svg">
<path d="M21.6263 2.98938L22 2.70913L21.0658 1.63482L20.7389 1.91507C20.1783 2.41332 19.7813 2.78699 19.5478 3.03609C19.3142 3.28519 19.0729 3.61216 18.8238 4.01698C18.5747 4.42181 18.3878 4.85775 18.2633 5.32484C17.9516 6.44586 17.8271 7.89384 17.8896 9.66879C17.9208 11.1946 18.092 12.3468 18.4034 13.1253L18.5435 13.4989C19.1975 15.1182 19.5244 16.5506 19.5244 17.7962C19.5244 20.0694 18.6058 21.2059 16.7686 21.2059C15.1182 21.2059 14.2307 20.1161 14.1062 17.9363C14.075 17.3135 14.2463 16.1769 14.62 14.5265C14.9626 13.0941 15.165 11.9887 15.2272 11.2102C15.3828 9.90234 15.2115 8.98371 14.7134 8.45435C14.2463 7.925 13.4211 7.6603 12.2378 7.6603H11.9575V1.0276C11.9575 0.747346 11.8641 0.506 11.6773 0.303609C11.4904 0.101219 11.2569 0 10.9766 0H1.12102C0.840764 0 0.583864 0.101219 0.350318 0.303609C0.116773 0.506 0 0.747346 0 1.0276V22.0467H11.9575V9.10828H12.2378C12.9851 9.10828 13.4522 9.2017 13.6391 9.38853C13.8571 9.63763 13.9193 10.1826 13.8259 11.0234C13.7325 11.7707 13.5301 12.8295 13.2187 14.1996C12.8138 15.9745 12.6425 17.2512 12.7049 18.0297C12.7672 19.4933 13.1565 20.6299 13.8726 21.4395C14.5888 22.2491 15.5541 22.6539 16.7686 22.6539C18.0764 22.6539 19.0962 22.2257 19.828 21.3694C20.5598 20.5131 20.9257 19.322 20.9257 17.7962C20.9257 16.3637 20.5676 14.7445 19.8514 12.9384L19.7113 12.5648C19.4932 12.0042 19.3686 11.1168 19.3376 9.90234C19.9604 9.87118 20.3807 9.85563 20.5987 9.85563C21.1281 9.85563 21.455 9.55982 21.5796 8.96815C21.6108 8.78132 21.6185 8.64899 21.603 8.57113C21.5874 8.49326 21.5718 8.32203 21.5563 8.05732C21.5407 7.79262 21.5329 7.56688 21.5329 7.38004V7.1465C21.5329 6.15005 21.4628 5.42606 21.3227 4.97452C21.1826 4.52298 20.9568 4.15711 20.6454 3.87686C20.7389 3.78344 20.9023 3.63551 21.1359 3.43312C21.3694 3.23073 21.5329 3.0828 21.6263 2.98938ZM10.5563 8.1741H1.44798V1.91507H10.5563V8.1741ZM19.2442 8.45435C19.2753 7.45791 19.3998 6.53928 19.6178 5.69851C19.6178 5.63597 19.6334 5.527 19.6645 5.37155C19.6957 5.21559 19.7268 5.10662 19.758 5.04459C20.0071 5.26258 20.1316 5.96321 20.1316 7.1465V7.38004C20.1316 7.50462 20.1472 7.69145 20.1783 7.94055C20.2095 8.18965 20.2251 8.36093 20.2251 8.45435H19.2442Z" fill="#D80A49"/>
</svg>
