<svg width="109" height="56" viewBox="0 0 109 56" fill="none" xmlns="http://www.w3.org/2000/svg">
<g filter="url(#filter0_d)">
<path d="M99.6686 11.7965C99.494 11.6609 88.4037 3.01544 88.4037 3.01544C86.4384 1.48264 83.9616 0.631104 81.4697 0.631104H49.8125C46.9395 0.631104 44.5019 1.78379 42.2612 3.48255L30.6532 12.2824C29.737 12.977 28.6582 13.4523 27.5335 13.6569C27.4955 13.6637 27.4575 13.672 27.4197 13.6812L13.9912 16.9578C10.8347 17.5497 8.10496 19.7524 6.85724 22.7187L5.12811 26.8263C4.02637 29.4377 4.32223 32.4339 5.9193 34.8408C7.51813 37.2504 10.165 38.689 12.9998 38.689H17.2289C17.8947 43.5783 22.0947 47.3593 27.1638 47.3593C32.2328 47.3593 36.4329 43.5783 37.0987 38.689H47.9331C49.0152 38.689 49.8924 37.8118 49.8924 36.7296C49.8924 35.6475 49.0152 34.7703 47.9331 34.7703H36.861C35.7134 30.4372 31.647 27.3002 27.1632 27.3002C22.6823 27.3002 18.6128 30.4415 17.4654 34.7703H12.9998C11.4815 34.7703 10.0555 33.9867 9.18456 32.6743C8.30266 31.3449 8.14003 29.7686 8.73939 28.3481L9.14165 27.3925H12.2172C13.2994 27.3925 14.1766 26.5153 14.1766 25.4332C14.1766 24.351 13.2994 23.4738 12.2172 23.4738H10.8655C11.7162 22.0899 13.1405 21.0932 14.7495 20.8028C14.7885 20.7958 14.8273 20.7875 14.8659 20.7781L28.2949 17.5015C29.9797 17.1853 31.5929 16.4732 32.9695 15.4418C34.2594 17.2235 36.3584 18.363 38.6556 18.363H62.1008C64.6377 18.363 66.7017 16.2991 66.7017 13.7619V4.5502H72.657V13.2433C72.657 15.7802 74.7209 17.8442 77.2579 17.8442H91.6072C93.9941 17.8442 96.2669 17.0134 98.0739 15.5251C100.001 17.053 100.867 17.94 100.867 19.3455V32.4422C100.867 33.7259 99.821 34.7703 98.5347 34.7703H95.9689C94.8219 30.4285 90.7635 27.3002 86.2727 27.3002C81.7807 27.3002 77.7217 30.4274 76.5745 34.7703H65.1705C64.0883 34.7703 63.2111 35.6475 63.2111 36.7296C63.2111 37.8118 64.0883 38.689 65.1705 38.689H76.337C77.0028 43.5783 81.2029 47.3593 86.2719 47.3593C91.3409 47.3593 95.541 43.5783 96.2068 38.689H98.5349C101.982 38.689 104.786 35.8867 104.786 32.4422V19.3455C104.786 15.7708 102.415 13.9292 99.6686 11.7965ZM27.1638 43.4406C23.7943 43.4406 21.0529 40.6993 21.0529 37.3298C21.0529 34.1262 23.6573 31.387 26.8577 31.2268C30.2903 31.0563 33.2746 33.8927 33.2746 37.3298C33.2746 40.6993 30.5333 43.4406 27.1638 43.4406ZM62.783 13.7617C62.783 14.1379 62.477 14.4441 62.1008 14.4441H38.6554C37.6079 14.4441 36.6535 13.9083 36.0912 13.0775L45.3659 6.04636C46.6332 5.08432 48.2207 4.55098 49.8113 4.55098H62.7828V13.7617H62.783ZM77.2579 13.9253C76.8817 13.9253 76.5757 13.6193 76.5757 13.2431V4.55098H81.4693C83.0936 4.55098 84.7142 5.10548 85.9945 6.10671L94.8597 13.0173C93.8916 13.6057 92.7711 13.9255 91.6074 13.9255H77.2579V13.9253ZM86.2717 43.4406C82.9022 43.4406 80.1609 40.6993 80.1609 37.3298C80.1609 34.0155 82.953 31.2189 86.2717 31.2189C89.5903 31.2189 92.3825 34.0175 92.3825 37.3298C92.3825 40.6993 89.6412 43.4406 86.2717 43.4406Z" fill="#D80A49"/>
<path d="M66.0135 25.4325C66.0135 24.3503 65.1363 23.4731 64.0542 23.4731H60.0902C59.0081 23.4731 58.1309 24.3503 58.1309 25.4325C58.1309 26.5146 59.0081 27.3919 60.0902 27.3919H64.0542C65.1363 27.3919 66.0135 26.5146 66.0135 25.4325Z" fill="#D80A49"/>
<path d="M58.5514 35.9803C58.1464 34.9925 56.9769 34.5126 55.9925 34.9204C55.0064 35.3287 54.5243 36.4931 54.9326 37.4792C55.3411 38.4655 56.5059 38.9461 57.4914 38.5391C58.4763 38.1324 58.9614 36.9647 58.5514 35.9803Z" fill="#D80A49"/>
</g>
<defs>
<filter id="filter0_d" x="0.470703" y="0.631104" width="108.316" height="54.7282" filterUnits="userSpaceOnUse" color-interpolation-filters="sRGB">
<feFlood flood-opacity="0" result="BackgroundImageFix"/>
<feColorMatrix in="SourceAlpha" type="matrix" values="0 0 0 0 0 0 0 0 0 0 0 0 0 0 0 0 0 0 127 0" result="hardAlpha"/>
<feOffset dy="4"/>
<feGaussianBlur stdDeviation="2"/>
<feColorMatrix type="matrix" values="0 0 0 0 0.847059 0 0 0 0 0.0392157 0 0 0 0 0.286275 0 0 0 0.5 0"/>
<feBlend mode="hard-light" in2="BackgroundImageFix" result="effect1_dropShadow"/>
<feBlend mode="normal" in="SourceGraphic" in2="effect1_dropShadow" result="shape"/>
</filter>
</defs>
</svg>
