<svg width="104" height="59" viewBox="0 0 104 59" fill="none" xmlns="http://www.w3.org/2000/svg">
<g filter="url(#filter0_d)">
<path d="M6.46473 40.9372H11.336C12.2042 46.9824 17.8085 51.1792 23.853 50.311C28.7114 49.6127 32.5285 45.7956 33.2261 40.9372H71.4393C72.2979 46.9837 77.8951 51.1888 83.9415 50.3303C89.1449 49.5915 93.1093 45.2917 93.424 40.0452L99.3224 34.1475C99.6179 33.8501 99.7833 33.4479 99.7826 33.0289V18.7942C99.7826 18.4351 99.6603 18.0863 99.4364 17.8057L93.742 10.6883L96.4611 5.26615C96.8511 4.4842 96.5338 3.53492 95.7519 3.14491C95.5826 3.05996 95.3998 3.00654 95.2119 2.98723L86.5834 2.07721L71.1291 0.44702C60.9876 -0.677315 50.7231 0.615638 41.1775 4.22033C35.6801 6.4838 30.5604 9.57106 25.9935 13.3772L22.9694 15.8981L20.8114 17.0746L10.8379 20.9496C10.7741 20.974 10.7124 21.0023 10.6525 21.0352C7.09609 22.9756 4.88281 26.7032 4.88281 30.7545V39.356C4.88281 40.2293 5.59075 40.9372 6.46473 40.9372ZM22.2814 47.2643C17.9134 47.2643 14.373 43.7233 14.373 39.356C14.373 34.988 17.9134 31.4476 22.2814 31.4476C26.6487 31.4476 30.1897 34.988 30.1897 39.356C30.1845 43.7214 26.6468 47.2591 22.2814 47.2643ZM82.3847 47.2643C78.0167 47.2643 74.4757 43.7233 74.4757 39.356C74.4757 34.988 78.0167 31.4476 82.3847 31.4476C86.752 31.4476 90.293 34.988 90.293 39.356C90.2872 43.7214 86.7501 47.2591 82.3847 47.2643ZM96.6194 25.1206H91.528L90.7371 21.9574H96.6194V25.1206ZM87.2463 5.32793L92.6015 5.89235L90.4584 10.1786C90.183 10.7308 90.2531 11.3924 90.6393 11.8744L96.1747 18.7942H88.7111C87.8371 18.7942 87.1298 19.5028 87.1298 20.3761C87.1298 20.5048 87.1453 20.6336 87.1768 20.7584L88.7581 27.0848C88.9338 27.7895 89.5664 28.2838 90.2924 28.2838H96.6188V32.3738L92.9497 36.0422C92.9497 36.0261 92.9356 36.0106 92.9311 35.9945C92.7747 35.5164 92.5861 35.0498 92.366 34.598C92.3184 34.5001 92.2746 34.4004 92.2238 34.3019C91.9959 33.8611 91.7391 33.4357 91.4553 33.0289C91.398 32.9465 91.335 32.8706 91.2764 32.7901C91.0016 32.4162 90.703 32.061 90.3825 31.7257C90.34 31.68 90.3001 31.6291 90.2544 31.5847C89.9011 31.2308 89.5246 30.9006 89.1269 30.5962C89.0348 30.5267 88.9447 30.4585 88.8533 30.3922C88.4466 30.0955 88.0205 29.8265 87.5784 29.5871C87.5198 29.5555 87.4568 29.5304 87.3963 29.5002C86.9754 29.2865 86.5409 29.0999 86.0962 28.9422C86.0074 28.91 85.9225 28.874 85.8336 28.8437C85.3445 28.6854 84.8451 28.5605 84.3386 28.4704C84.2311 28.4518 84.1224 28.4376 84.0226 28.4215C83.4807 28.3346 82.933 28.2883 82.3841 28.2838C82.0185 28.2838 81.6562 28.3044 81.3003 28.3391C81.1818 28.3501 81.066 28.3726 80.9495 28.3887C80.712 28.4183 80.4746 28.4498 80.2454 28.4962C80.1077 28.5232 79.9751 28.5593 79.8387 28.5908C79.6334 28.6403 79.4275 28.6893 79.2254 28.7491C79.0844 28.7903 78.9486 28.8392 78.8109 28.8868C78.6191 28.9531 78.428 29.0194 78.2413 29.0954C78.1055 29.1507 77.971 29.2112 77.8365 29.2723C77.6563 29.3534 77.4793 29.4307 77.3036 29.5291C77.1723 29.5986 77.0423 29.6681 76.9143 29.7422C76.7437 29.8387 76.5777 29.9417 76.4129 30.0479C76.2881 30.127 76.1664 30.2062 76.0461 30.2911C75.8878 30.405 75.7301 30.5235 75.5718 30.6457C75.4578 30.7339 75.3439 30.8208 75.2345 30.9141C75.0762 31.0454 74.9327 31.1851 74.7853 31.3241C74.6843 31.4174 74.5832 31.5088 74.4867 31.6073C74.3284 31.7649 74.1926 31.9232 74.0484 32.0816C73.968 32.1749 73.8901 32.2637 73.8064 32.3583C73.6384 32.5643 73.4821 32.7773 73.3321 32.9909C73.289 33.0547 73.2401 33.1113 73.1976 33.1744C73.0077 33.4563 72.8307 33.7465 72.6673 34.0464C72.6203 34.1314 72.5823 34.2215 72.5379 34.309C72.4253 34.5272 72.3146 34.7466 72.2213 34.9732C72.1711 35.0935 72.128 35.2164 72.079 35.34C72.0018 35.5395 71.9207 35.7384 71.8577 35.9443C71.8132 36.0801 71.7772 36.2211 71.7392 36.3601C71.6839 36.5583 71.6298 36.754 71.5809 36.9548C71.5474 37.1034 71.5224 37.2521 71.4953 37.404C71.4734 37.5243 71.4432 37.6415 71.4258 37.7631H54.3587L55.1497 34.5999H66.5681V31.4476H55.9406L59.2493 18.2105L79.3 17.2123C79.8265 17.1859 80.3053 16.8989 80.5769 16.4471L87.2463 5.32793ZM62.984 3.27169C63.354 3.27169 63.7222 3.24788 64.0909 3.24788C66.3312 3.24595 68.5696 3.36115 70.797 3.59413L83.7781 4.96431L78.2993 14.0935L60.0512 14.9984L62.984 3.27169ZM28.0176 15.808C32.3373 12.2078 37.1809 9.2866 42.381 7.14669C47.9158 4.99134 53.7582 3.72928 59.6895 3.40749L56.7502 15.1676L27.0149 16.6511L28.0176 15.808ZM8.04601 30.7545C8.04279 27.8938 9.58674 25.2545 12.0825 23.8553L21.807 20.0769L55.9406 18.3752L52.679 31.4476H34.9342V34.6108H51.888L51.097 37.774H33.2403C33.2229 37.6524 33.1933 37.5353 33.1707 37.4156C33.1444 37.2572 33.1186 37.115 33.0858 36.9663C33.0414 36.7655 32.9873 36.5693 32.9275 36.3717C32.8895 36.232 32.8535 36.0917 32.8091 35.9553C32.7428 35.75 32.6649 35.5505 32.5877 35.351C32.5381 35.228 32.4956 35.1045 32.4448 34.9841C32.347 34.7582 32.2363 34.5381 32.1288 34.3199C32.0844 34.2331 32.0464 34.143 31.9988 34.0574C31.8366 33.7594 31.6603 33.4685 31.4691 33.186C31.4266 33.1229 31.3771 33.0656 31.3346 33.0025C31.1763 32.7856 31.0186 32.572 30.8603 32.3699C30.7824 32.2746 30.702 32.1865 30.6183 32.0932C30.4741 31.9348 30.3319 31.7656 30.18 31.6182C30.0835 31.5204 29.9825 31.4283 29.8814 31.3357C29.734 31.196 29.5873 31.057 29.4322 30.9257C29.3228 30.8324 29.2089 30.7455 29.095 30.6567C28.9366 30.535 28.7783 30.4166 28.6206 30.3027C28.5003 30.2184 28.3786 30.1444 28.2538 30.0588C28.0955 29.9532 27.923 29.8503 27.7518 29.7537C27.6237 29.6797 27.4944 29.6096 27.3631 29.5401C27.1874 29.45 27.0104 29.3644 26.8302 29.2839C26.6957 29.2221 26.5612 29.1623 26.4254 29.1069C26.2387 29.031 26.047 28.9647 25.8558 28.8978C25.7181 28.8508 25.5823 28.8012 25.4413 28.7607C25.2386 28.7002 25.0333 28.6513 24.8274 28.6024C24.6916 28.5708 24.559 28.5342 24.4213 28.5071C24.1902 28.4614 23.9547 28.4299 23.7172 28.3996C23.6001 28.3842 23.4849 28.3617 23.3664 28.3507C23.0086 28.305 22.6463 28.2844 22.2814 28.2844C21.9158 28.2844 21.5535 28.305 21.1976 28.3398C21.0792 28.3507 20.9633 28.3733 20.8468 28.3887C20.6093 28.419 20.3719 28.4505 20.1427 28.4962C20.005 28.5232 19.8724 28.5599 19.736 28.5914C19.5307 28.6403 19.3248 28.6893 19.1227 28.7498C18.9817 28.7909 18.8453 28.8399 18.7082 28.8868C18.5164 28.9538 18.3253 29.0201 18.1386 29.096C18.0022 29.1513 17.8683 29.2112 17.7338 29.273C17.5536 29.3534 17.3766 29.4313 17.2009 29.5291C17.0697 29.5986 16.9396 29.6681 16.8116 29.7428C16.641 29.8393 16.475 29.9423 16.3102 30.0479C16.1854 30.127 16.0637 30.2062 15.9434 30.2918C15.7851 30.4057 15.6267 30.5241 15.4691 30.6457C15.3552 30.7346 15.2412 30.8214 15.1318 30.9148C14.9735 31.046 14.83 31.1851 14.6826 31.3241C14.6369 31.3653 14.5893 31.4052 14.5468 31.4476H8.04601V30.7545ZM8.04601 34.6108H12.2898C12.2299 34.7357 12.1681 34.8573 12.1128 34.9841C12.0574 35.1103 12.0195 35.2274 11.9706 35.351C11.8927 35.5505 11.8122 35.7493 11.7492 35.9553C11.7048 36.0911 11.6681 36.232 11.6301 36.371C11.5748 36.5686 11.5213 36.7649 11.4718 36.9657C11.439 37.1144 11.4139 37.263 11.3868 37.4149C11.3643 37.5353 11.3347 37.6524 11.3173 37.774H8.04601V34.6108Z" fill="#D80A49"/>
<path d="M42.8428 20.375H50.7511V23.5388H42.8428V20.375Z" fill="#D80A49"/>
<path d="M68.1494 20.375H77.6396V23.5388H68.1494V20.375Z" fill="#D80A49"/>
</g>
<defs>
<filter id="filter0_d" x="0.882812" y="0.0534668" width="102.9" height="58.388" filterUnits="userSpaceOnUse" color-interpolation-filters="sRGB">
<feFlood flood-opacity="0" result="BackgroundImageFix"/>
<feColorMatrix in="SourceAlpha" type="matrix" values="0 0 0 0 0 0 0 0 0 0 0 0 0 0 0 0 0 0 127 0" result="hardAlpha"/>
<feOffset dy="4"/>
<feGaussianBlur stdDeviation="2"/>
<feColorMatrix type="matrix" values="0 0 0 0 0.847059 0 0 0 0 0.0392157 0 0 0 0 0.286275 0 0 0 0.3 0"/>
<feBlend mode="normal" in2="BackgroundImageFix" result="effect1_dropShadow"/>
<feBlend mode="normal" in="SourceGraphic" in2="effect1_dropShadow" result="shape"/>
</filter>
</defs>
</svg>
