<svg width="41" height="25" viewBox="0 0 41 25" fill="none" xmlns="http://www.w3.org/2000/svg">
<g filter="url(#filter0_d)">
<path d="M32.2546 4.78015C32.2277 4.74655 32.1991 4.71375 32.1674 4.68284C32.1355 4.65207 32.1016 4.6244 32.0671 4.59835C29.0874 1.75688 25.0027 0.000539797 20.5018 0.000134894L20.5 0L20.4982 0.000134894C15.9973 0.000539797 11.9126 1.75688 8.93308 4.59835C8.89839 4.6244 8.86454 4.65193 8.83278 4.68284C8.80089 4.71375 8.77247 4.74655 8.74559 4.78015C5.81263 7.66752 4 11.6261 4 15.9877C4 16.5468 4.46761 17 5.0447 17H35.9553C36.5324 17 37 16.5468 37 15.9877C37 11.6261 35.1874 7.66752 32.2546 4.78015ZM24.7075 14.9755H24.0028C23.8015 14.3208 23.4101 13.7458 22.8907 13.3098L23.1991 12.7038C23.9336 13.2718 24.474 14.0653 24.7075 14.9755ZM20.9843 12.478C20.8258 12.4577 20.6644 12.4462 20.5 12.4462C18.8445 12.4462 17.4468 13.513 16.9972 14.9756H16.2926C16.7615 13.1467 18.4697 11.787 20.5001 11.787C20.7732 11.787 21.04 11.8128 21.2993 11.8598L20.9843 12.478ZM26.1312 14.9755C25.8565 13.5377 25.0085 12.2931 23.8258 11.4728L26.3241 6.56497C26.5793 6.06356 26.3668 5.45661 25.8493 5.20935C25.3321 4.96195 24.7055 5.16792 24.4502 5.66946L21.9336 10.6133C21.4752 10.4985 20.9949 10.4373 20.5 10.4373C17.6981 10.4373 15.3613 12.3969 14.8688 14.9756H6.12687C6.35629 11.8855 7.62887 9.07132 9.60336 6.86109L10.3161 7.55172C10.5202 7.74931 10.7876 7.84824 11.0549 7.84824C11.3222 7.84824 11.5897 7.74944 11.7937 7.55172C12.2017 7.1564 12.2017 6.51543 11.7937 6.12025L11.0808 5.42948C13.3618 3.51645 16.2663 2.28365 19.4554 2.06123V3.21399C19.4554 3.77302 19.923 4.22625 20.5001 4.22625C21.0772 4.22625 21.5448 3.77302 21.5448 3.21399V2.06123C24.734 2.28365 27.6384 3.51645 29.9194 5.42948L29.2065 6.12025C28.7985 6.51557 28.7985 7.15653 29.2065 7.55172C29.4106 7.74931 29.678 7.84824 29.9453 7.84824C30.2127 7.84824 30.4801 7.74944 30.6842 7.55172L31.3969 6.86109C33.3714 9.07132 34.644 11.8855 34.8734 14.9756H26.1312V14.9755Z" fill="#D80A49"/>
</g>
<defs>
<filter id="filter0_d" x="0" y="0" width="41" height="25" filterUnits="userSpaceOnUse" color-interpolation-filters="sRGB">
<feFlood flood-opacity="0" result="BackgroundImageFix"/>
<feColorMatrix in="SourceAlpha" type="matrix" values="0 0 0 0 0 0 0 0 0 0 0 0 0 0 0 0 0 0 127 0" result="hardAlpha"/>
<feOffset dy="4"/>
<feGaussianBlur stdDeviation="2"/>
<feColorMatrix type="matrix" values="0 0 0 0 0.847059 0 0 0 0 0.0392157 0 0 0 0 0.286275 0 0 0 0.5 0"/>
<feBlend mode="hard-light" in2="BackgroundImageFix" result="effect1_dropShadow"/>
<feBlend mode="normal" in="SourceGraphic" in2="effect1_dropShadow" result="shape"/>
</filter>
</defs>
</svg>
