<svg width="154" height="56" viewBox="0 0 154 56" fill="none" xmlns="http://www.w3.org/2000/svg">
<g filter="url(#filter0_d)">
<path d="M82.5483 18.4887C81.6265 18.4887 80.7047 18.476 79.7829 18.493C78.477 18.5142 77.8113 17.8559 77.7302 16.5902C77.4997 13.0011 77.2693 9.41211 77.0559 5.81883C76.9791 4.49365 77.6235 3.89053 78.9806 3.933C80.6791 3.98822 82.3818 3.97123 84.0846 3.95424C85.3136 3.9415 85.8769 4.55312 85.9964 5.72964C86.2738 8.39698 86.564 11.0601 86.8926 13.7189C87.4901 18.6289 88.1174 18.5567 82.5483 18.4887Z" stroke="#D80A49" stroke-width="2.5" stroke-linecap="round" stroke-linejoin="round"/>
<path d="M12.1766 27.8116C10.4397 28.6823 8.69856 27.6205 8.72416 25.4628C8.73696 25.1867 8.74976 24.694 8.78817 24.2056C8.86499 23.2414 9.01008 22.4047 10.3416 22.4429C11.4725 22.4726 12.0272 22.9441 12.1595 24.0357C12.2662 24.9404 12.4412 25.8366 12.5607 26.7412C12.6119 27.1447 12.693 27.5525 12.1766 27.8116Z" stroke="#D80A49" stroke-width="2.5" stroke-linecap="round" stroke-linejoin="round"/>
<path d="M70.5403 16.2418C67.3482 16.2503 64.1603 16.246 60.9682 16.246C60.9682 16.2205 60.9682 16.1993 60.9682 16.1738C57.7078 16.1738 54.4431 16.2163 51.1827 16.1441C50.389 16.1271 49.1727 16.7515 48.8825 15.3881C48.6478 14.2965 48.6436 13.2516 49.7275 12.3469C52.6081 9.94718 55.3777 7.41575 58.1815 4.92679C58.779 4.39587 59.3722 4.01786 60.2427 4.02635C63.9299 4.05608 67.6171 4.06882 71.3042 3.99237C72.5546 3.96689 72.8533 4.47232 72.8747 5.60637C72.9216 8.21425 73.1051 10.8221 73.199 13.43C73.2886 16.0761 73.1307 16.2333 70.5403 16.2418Z" stroke="#D80A49" stroke-width="2.5" stroke-linecap="round" stroke-linejoin="round"/>
<path d="M147.573 29.7866C147.083 32.7513 146.344 33.4266 143.408 33.4946C138.791 33.6007 134.169 33.6177 129.547 33.7537C128.387 33.7876 127.845 33.4903 127.405 32.335C125.31 26.8219 120.078 23.5005 114.628 24.0654C108.722 24.677 104.36 28.729 103.323 34.7603C103.084 36.1492 102.645 36.5782 101.202 36.5782C80.7266 36.5697 60.2509 36.6164 39.7752 36.7056C38.3371 36.7098 37.9018 36.3445 37.7439 34.875C37.108 29.0051 32.3967 24.6346 26.5373 24.2608C20.742 23.887 15.5441 27.5695 14.0334 33.1123C13.1628 36.3148 13.1543 36.387 9.84271 35.9368C7.55104 35.6225 7.47848 33.3374 6.68472 31.8084C6.21102 30.8909 5.54528 29.0433 6.44573 28.6865C8.59231 27.8328 7.86257 26.2486 7.9906 24.8851C8.31066 21.3981 8.87397 20.7057 12.2667 19.7841C20.3323 17.5967 28.5687 16.5815 36.9075 16.3819C38.4267 16.3437 39.6088 15.9105 40.7739 14.9845C45.1566 11.4932 49.629 8.10805 54.0075 4.61247C56.2181 2.84556 58.689 2.01732 61.4842 2.01732C69.0207 2.00883 76.5572 1.99184 84.0937 2.00458C84.9387 2.00458 85.7879 2.15749 86.6286 2.27641C88.2588 2.50577 89.1379 3.48691 89.3428 5.08392C89.6586 7.5389 89.9744 9.99388 90.2688 12.4489C91.0199 18.7944 90.5163 25.174 90.7297 31.5323C90.7596 32.4327 90.2005 34.0977 91.1821 34.1019C92.3215 34.1062 91.6942 32.4922 91.707 31.6257C91.7753 27.5228 91.707 23.4198 91.7113 19.3126C91.7155 15.9572 91.4467 16.4414 94.4937 16.4371C102.811 16.4159 111.129 16.4286 119.45 16.4286C119.45 16.4159 119.45 16.3989 119.45 16.3862C128.054 16.3862 136.657 16.4117 145.256 16.3607C146.763 16.3522 147.761 16.6495 147.834 18.3527C147.996 22.1711 148.201 25.9895 147.573 29.7866Z" stroke="#D80A49" stroke-width="2.5" stroke-linecap="round" stroke-linejoin="round"/>
<path d="M147.185 20.6932C147.164 22.7404 147.143 24.7876 147.121 26.8348C147.117 27.5144 146.835 27.867 146.097 27.8585C145.274 27.85 145.214 27.319 145.21 26.7244C145.201 25.807 145.21 24.8853 145.205 23.9679C145.205 22.906 145.205 21.8484 145.205 20.7866C145.205 20.158 145.35 19.695 146.14 19.6865C146.87 19.6865 147.194 19.9966 147.185 20.6932Z" stroke="#D80A49" stroke-width="2.5" stroke-linecap="round" stroke-linejoin="round"/>
<path d="M31.4789 36.7309C31.5728 39.9504 29.0379 42.6135 25.8372 42.6645C22.6963 42.7154 19.9693 40.0226 19.9864 36.8838C19.9992 33.83 22.6067 31.2221 25.6836 31.1753C28.8074 31.1329 31.3893 33.6048 31.4789 36.7309Z" stroke="#D80A49" stroke-width="2.5" stroke-linecap="round" stroke-linejoin="round"/>
<path d="M35.5761 36.7989C35.6017 42.1463 31.2488 46.5338 25.8717 46.5763C20.3239 46.6188 15.9496 42.3332 15.9496 36.8413C15.9496 31.3537 20.3153 27.0129 25.8247 27.0257C31.1335 27.0384 35.5505 31.4684 35.5761 36.7989Z" stroke="#D80A49" stroke-width="2.5" stroke-linecap="round" stroke-linejoin="round"/>
<path d="M125.502 36.782C125.57 42.121 121.282 46.4957 115.862 46.6104C110.374 46.7294 105.927 42.4395 105.842 36.9434C105.76 31.6639 110.126 27.1872 115.482 27.064C120.88 26.9409 125.434 31.3581 125.502 36.782Z" stroke="#D80A49" stroke-width="2.5" stroke-linecap="round" stroke-linejoin="round"/>
<path d="M121.435 36.6802C121.447 39.853 118.793 42.4482 115.588 42.4057C112.468 42.3632 109.929 39.8148 109.912 36.7185C109.899 33.5754 112.609 30.9081 115.763 30.9675C118.861 31.0227 121.422 33.6009 121.435 36.6802Z" stroke="#D80A49" stroke-width="2.5" stroke-linecap="round" stroke-linejoin="round"/>
</g>
<defs>
<filter id="filter0_d" x="0.75" y="0.75" width="152.5" height="55.1129" filterUnits="userSpaceOnUse" color-interpolation-filters="sRGB">
<feFlood flood-opacity="0" result="BackgroundImageFix"/>
<feColorMatrix in="SourceAlpha" type="matrix" values="0 0 0 0 0 0 0 0 0 0 0 0 0 0 0 0 0 0 127 0" result="hardAlpha"/>
<feOffset dy="4"/>
<feGaussianBlur stdDeviation="2"/>
<feComposite in2="hardAlpha" operator="out"/>
<feColorMatrix type="matrix" values="0 0 0 0 0.847059 0 0 0 0 0.0392157 0 0 0 0 0.286275 0 0 0 0.4 0"/>
<feBlend mode="normal" in2="BackgroundImageFix" result="effect1_dropShadow"/>
<feBlend mode="normal" in="SourceGraphic" in2="effect1_dropShadow" result="shape"/>
</filter>
</defs>
</svg>
