<svg width="142" height="59" viewBox="0 0 142 59" fill="none" xmlns="http://www.w3.org/2000/svg">
<g filter="url(#filter0_d)">
<path d="M137.609 17.2229C136.346 13.0507 132.952 12.3087 129.265 12.044C123.3 11.6159 117.675 10.1422 112.338 7.30623C108.241 5.12933 103.973 3.18595 99.6006 1.65512C96.9359 0.721056 93.934 0.510889 91.0695 0.425267C85.2368 0.251426 79.3962 0.409701 73.5609 0.378565C67.4791 0.344835 61.8981 1.94313 56.784 5.23831C52.0644 8.27662 47.3292 11.2916 42.5655 14.2598C41.9116 14.6672 41.0632 14.9085 40.29 14.9474C31.9119 15.3755 23.5935 16.1876 15.545 18.746C14.0271 19.2286 12.53 19.7916 11.0692 20.4221C7.89601 21.7946 5.86961 24.1843 5.01338 27.5495C4.96149 27.7493 4.84732 27.9309 4.75911 28.1229C4.75911 31.5816 4.75911 35.0428 4.75911 38.5015C5.30656 39.612 5.7321 40.8107 6.43524 41.8122C7.37709 43.151 8.85344 43.7245 10.4595 43.8905C11.6323 44.0125 12.6027 43.3145 12.7843 42.2922C12.9893 41.1298 12.3821 40.1646 11.0822 39.996C9.54361 39.7962 8.80154 38.8881 8.74706 37.5207C8.64326 34.8586 8.71593 32.1887 8.71593 29.3684C9.99248 29.3684 11.1886 29.3839 12.3873 29.3658C14.0142 29.3424 14.8678 28.6419 14.8782 27.3653C14.886 26.0706 14.0479 25.3804 12.4159 25.3467C11.9566 25.3363 11.4974 25.3441 10.9291 25.0353C11.5778 24.6747 12.2031 24.2569 12.8829 23.9612C17.6674 21.8881 22.7243 20.8424 27.8487 20.0666C39.2833 18.336 50.7982 19.1196 62.2795 19.0002C70.5356 18.9146 78.7943 18.9898 87.053 18.9898C87.3125 18.9898 87.5745 18.995 87.8288 18.9587C89.0145 18.7953 89.8215 17.9624 89.8111 16.9349C89.8007 15.8581 88.9134 14.9889 87.655 14.963C85.6753 14.9189 83.693 14.95 81.6121 14.95C81.6121 11.3954 81.6121 7.96267 81.6121 4.421C85.0837 4.421 88.5371 4.3224 91.9802 4.45732C94.0352 4.54035 96.0771 4.96847 98.1139 5.30577C98.4642 5.36285 98.9779 5.69756 99.0506 5.99335C99.7719 8.90711 100.415 11.839 101.121 14.9448C99.5306 14.9448 98.1113 14.9344 96.6921 14.9474C95.0912 14.963 94.2038 15.6869 94.2038 16.9479C94.2038 18.2089 95.0756 18.9276 96.6921 18.9665C100.301 19.0521 103.947 19.0962 107.006 16.813C108.723 15.5286 110.215 13.9329 111.764 12.4306C112.255 11.9532 112.61 11.7456 113.298 12.1141C117.88 14.5634 122.893 15.3807 127.976 15.9178C129.177 16.0449 130.373 16.211 131.566 16.4056C133.035 16.6443 133.65 17.3604 133.699 18.8497C133.723 19.5762 133.704 20.3027 133.704 21.0811C132.049 21.4029 129.561 20.5181 129.633 23.2736C129.701 25.8319 132.031 24.9886 133.637 25.2792C133.637 27.3783 133.775 29.4929 133.595 31.579C133.442 33.3563 132.267 34.555 130.544 35.0714C128.11 35.8005 125.656 36.4595 123.129 37.173C122.719 33.3252 121.183 30.1026 118.03 27.7882C115.685 26.0654 113.036 25.2455 110.137 25.396C106.45 25.5854 103.41 27.1551 101.064 30.0066C98.7392 32.8348 98.0698 36.1481 98.4642 39.8066C79.5649 39.8066 60.785 39.8066 42.018 39.8066C41.8831 38.1694 41.9272 36.514 41.5821 34.9442C40.2874 29.0518 34.5429 24.9212 28.8165 25.3752C22.3066 25.8916 17.4235 31.1794 17.2393 37.2145C17.0421 43.7219 21.4478 49.0512 27.7423 49.9516C32.7396 50.6677 36.7146 48.8333 39.6906 44.8272C40.194 44.15 40.6662 43.9113 41.4835 43.9139C60.5489 43.932 79.6168 43.9294 98.6821 43.8957C99.6084 43.8931 100.127 44.1915 100.675 44.9388C103.384 48.6283 107.104 50.4601 111.653 50.0761C116.57 49.661 120.106 47.0482 122.088 42.492C122.418 41.7318 122.846 41.3426 123.617 41.1428C125.617 40.6213 127.584 39.9493 129.6 39.5108C133.577 38.6364 136.457 36.5996 137.609 32.5312C137.609 27.4276 137.609 22.3265 137.609 17.2229ZM77.4892 14.8281C68.024 14.8281 58.7119 14.8281 49.3997 14.8281C53.5745 11.9766 57.7518 9.22625 62.1212 6.82363C66.8564 4.21862 72.1079 4.21083 77.3776 4.45473C77.4243 4.68305 77.484 4.84652 77.484 5.00998C77.4918 8.24548 77.4892 11.481 77.4892 14.8281ZM110.7 29.3684C115.353 29.371 119.112 33.0813 119.149 37.7023C119.182 42.3285 115.301 46.1816 110.649 46.1401C105.991 46.0986 102.302 42.3753 102.307 37.7179C102.312 33.0631 106.025 29.3684 110.7 29.3684ZM29.6157 29.3839C34.3094 29.3891 37.9756 33.0527 37.9756 37.7361C37.9756 42.4064 34.2886 46.1167 29.6235 46.1401C24.9531 46.1634 21.0897 42.313 21.1416 37.6842C21.1987 33.045 24.9375 29.3813 29.6157 29.3839ZM105.21 13.401C105.083 13.3543 104.959 13.3102 104.831 13.2635C104.401 11.3409 103.967 9.42085 103.48 7.23877C105.381 8.191 106.985 8.99014 108.407 9.70107C107.327 10.9465 106.269 12.1738 105.21 13.401Z" fill="#D80A49"/>
<path d="M70.2836 35.5903C77.2424 35.5903 84.2013 35.5955 91.1626 35.5825C91.6712 35.5825 92.325 35.637 92.6597 35.362C93.2072 34.9105 93.913 34.1892 93.8818 33.6158C93.8481 32.9723 93.1605 32.264 92.5897 31.7814C92.2602 31.5038 91.5985 31.5712 91.0874 31.5712C77.1257 31.5609 63.164 31.5634 49.2023 31.566C48.8157 31.566 48.4213 31.5712 48.0425 31.6465C46.9735 31.8592 46.3274 32.5416 46.3456 33.621C46.3638 34.703 47.0617 35.349 48.1125 35.5488C48.4888 35.6215 48.8883 35.5877 49.2749 35.5877C56.2778 35.5929 63.2807 35.5903 70.2836 35.5903Z" fill="#D80A49"/>
</g>
<defs>
<filter id="filter0_d" x="0.758789" y="0.342285" width="140.85" height="57.784" filterUnits="userSpaceOnUse" color-interpolation-filters="sRGB">
<feFlood flood-opacity="0" result="BackgroundImageFix"/>
<feColorMatrix in="SourceAlpha" type="matrix" values="0 0 0 0 0 0 0 0 0 0 0 0 0 0 0 0 0 0 127 0" result="hardAlpha"/>
<feOffset dy="4"/>
<feGaussianBlur stdDeviation="2"/>
<feColorMatrix type="matrix" values="0 0 0 0 0.847059 0 0 0 0 0.0392157 0 0 0 0 0.286275 0 0 0 0.3 0"/>
<feBlend mode="normal" in2="BackgroundImageFix" result="effect1_dropShadow"/>
<feBlend mode="normal" in="SourceGraphic" in2="effect1_dropShadow" result="shape"/>
</filter>
</defs>
</svg>
