<svg width="133" height="51" viewBox="0 0 133 51" fill="none" xmlns="http://www.w3.org/2000/svg">
<g filter="url(#filter0_d)">
<g clip-path="url(#clip0)">
<path d="M125.754 29.898C126.829 29.898 127.818 29.898 128.898 29.898C128.898 28.511 128.898 27.1991 128.898 25.7887C128.19 25.755 127.475 25.7187 126.655 25.6773C126.707 25.2987 126.72 24.9695 126.8 24.6584C127.089 23.5591 126.798 22.6802 126.035 21.8169C117.078 11.6591 105.97 5.04023 92.8814 1.61802C90.7702 1.06579 88.6747 0.780608 86.4932 0.801349C80.0401 0.863571 73.5843 0.801349 67.1285 0.871349C66.3449 0.879127 65.413 1.21616 64.8117 1.71394C60.5555 5.25801 56.3853 8.9006 52.1422 12.4576C51.5981 12.9139 50.7937 13.2484 50.0883 13.2924C41.2298 13.8473 32.3609 14.2336 23.5102 14.8817C16.7628 15.3769 10.6481 17.801 5.24134 21.8713C4.71291 22.2706 4.32764 23.1469 4.27558 23.8313C4.14282 25.6358 4.15844 27.4635 4.25996 29.2732C4.30942 30.1469 4.68427 31.0024 4.92896 31.928C4.91074 31.9306 4.59837 31.9824 4.25475 32.0369C4.25475 33.3487 4.25475 34.6372 4.25475 36.1098C4.74674 36.1098 5.2049 36.1098 5.66045 36.1098C9.25539 36.1072 12.8529 36.115 16.4479 36.0891C17.1481 36.0839 17.5933 36.2187 17.9915 36.9135C22.154 44.1935 32.0042 44.178 36.2656 36.9421C36.5051 36.535 37.1637 36.1358 37.627 36.1358C54.1752 36.0943 70.7234 36.0943 87.2716 36.1358C87.7375 36.1358 88.3961 36.535 88.6356 36.9421C92.8787 44.1832 102.726 44.2013 106.91 36.9187C107.308 36.2265 107.748 36.0891 108.451 36.0917C113.043 36.1176 117.635 36.1124 122.227 36.1124C123.978 36.1124 124.499 35.7002 124.892 33.9684C125.194 32.6669 125.447 31.3576 125.754 29.898ZM16.6067 32.125C15.7711 31.9021 15.0109 31.7958 14.3341 31.5002C13.069 30.948 11.9028 30.1391 10.6064 29.701C8.74777 29.0735 8.04493 27.9484 8.37292 26.0506C8.48486 25.3973 8.28962 24.7647 9.05495 24.2721C13.7562 21.2387 18.874 19.3773 24.4551 19.0091C33.4776 18.4128 42.5105 17.9824 51.5356 17.4147C52.366 17.3628 53.3188 16.9947 53.954 16.4658C58.0747 13.0384 62.1408 9.54097 66.1861 6.02283C67.0165 5.30209 67.8365 4.95986 68.9637 4.97023C74.3756 5.02468 79.7875 4.98838 85.1969 4.9832C85.6602 4.9832 86.1236 4.9832 86.6781 4.9832C86.587 5.41875 86.5375 5.71172 86.462 5.99431C85.2021 10.7362 83.8979 15.4676 82.7031 20.225C82.4271 21.3217 81.956 21.6069 80.8652 21.6043C63.1144 21.5706 45.3662 21.5784 27.6154 21.5861C26.8396 21.5861 26.0457 21.5758 25.2907 21.7236C20.2276 22.7295 17.1846 26.2891 16.6067 32.125ZM116.573 29.8824C118.228 29.8824 119.777 29.8824 121.334 29.8824C121.11 31.941 121.11 31.941 119.155 31.941C117.681 31.9435 116.211 31.9513 114.737 31.9513C112.585 31.9539 110.432 31.9513 108.297 31.9513C107.649 26.1984 104.635 22.5687 99.5064 21.7391C97.2338 21.371 94.8597 21.6043 92.5299 21.5836C90.6322 21.568 88.7345 21.581 86.7015 21.581C87.0868 20.1239 87.433 18.8069 87.7948 17.4276C88.3571 17.4276 88.8283 17.4276 89.2994 17.4276C94.7556 17.4328 100.212 17.4147 105.671 17.4536C107.037 17.4639 107.878 16.9376 108.261 15.6154C108.503 14.7728 108.839 13.9562 109.169 13.028C114.115 16.0743 118.426 19.6443 122.162 23.8858C122.487 24.2565 122.352 25.0291 122.45 25.7602C120.321 25.7602 118.475 25.7602 116.573 25.7602C116.573 27.1473 116.573 28.428 116.573 29.8824ZM79.5637 31.8632C72.4259 31.8632 65.3974 31.8632 58.4001 31.8632C58.4001 29.7684 58.4001 27.7669 58.4001 25.7732C66.0299 25.7732 73.5556 25.7732 81.1828 25.7732C80.6336 27.8291 80.1051 29.8176 79.5637 31.8632ZM37.9082 31.9539C37.1585 29.7269 36.4869 27.7358 35.8465 25.8328C41.8598 25.8328 47.9797 25.8328 54.0659 25.8328C54.0659 27.9095 54.0659 29.8798 54.0659 31.9124C53.7457 31.928 53.4932 31.9513 53.2433 31.9513C48.0526 31.9539 42.8646 31.9539 37.9082 31.9539ZM97.718 38.1684C94.3964 38.1398 91.5017 35.1869 91.5772 31.9098C91.6553 28.5343 94.4979 25.7291 97.8221 25.7447C101.175 25.7602 104.018 28.5939 104.031 31.9384C104.044 35.2958 101.105 38.1969 97.718 38.1684ZM20.8732 32.0369C20.8368 28.7054 23.6351 25.825 26.9906 25.7421C30.3643 25.6591 33.3136 28.5421 33.3293 31.9332C33.3423 35.2439 30.51 38.0984 27.1442 38.1632C23.8408 38.2306 20.9097 35.3658 20.8732 32.0369ZM105.34 10.8554C104.65 13.3002 104.65 13.2899 102.346 13.2847C98.8816 13.2769 95.4194 13.2821 91.9546 13.2847C90.9759 13.2847 89.9997 13.2847 88.8907 13.2847C89.617 10.6013 90.2938 8.09171 90.9785 5.56135C96.0754 6.77727 100.811 8.45208 105.34 10.8554ZM83.9317 31.9124C84.4524 29.9369 84.9131 28.1065 85.4364 26.2943C85.504 26.0584 85.8919 25.7732 86.147 25.7576C87.1649 25.6954 88.1905 25.7317 89.0625 25.7317C88.3779 27.8161 87.7193 29.8228 87.0321 31.915C86.1965 31.9124 85.1656 31.9124 83.9317 31.9124Z" fill="#D80A49"/>
<path d="M60.4416 13.283C60.4416 14.7478 60.4416 16.0286 60.4416 17.4286C61.1418 17.4286 61.7796 17.4286 62.4173 17.4286C67.8293 17.4311 73.2386 17.4156 78.6505 17.4545C80.0172 17.4649 80.8346 16.9489 81.2381 15.6267C81.8238 13.6978 82.5006 11.7949 83.1748 9.77782C81.8082 9.32671 80.5534 8.91449 79.1894 8.46338C78.7859 9.66116 78.359 10.7397 78.0648 11.8519C77.7837 12.9149 77.2839 13.3245 76.0969 13.3037C71.3357 13.2234 66.5746 13.2778 61.8108 13.2804C61.3839 13.283 60.9596 13.283 60.4416 13.283Z" fill="#D80A49"/>
<path d="M25.0178 32.0116C25.0464 33.2198 25.9966 34.0935 27.22 34.0364C28.3706 33.9846 29.2036 33.0772 29.1802 31.9053C29.1568 30.6946 28.2066 29.8235 26.9805 29.8857C25.8221 29.9427 24.9891 30.845 25.0178 32.0116Z" fill="#D80A49"/>
</g>
</g>
<defs>
<filter id="filter0_d" x="0.181641" y="0.802246" width="132.717" height="49.5722" filterUnits="userSpaceOnUse" color-interpolation-filters="sRGB">
<feFlood flood-opacity="0" result="BackgroundImageFix"/>
<feColorMatrix in="SourceAlpha" type="matrix" values="0 0 0 0 0 0 0 0 0 0 0 0 0 0 0 0 0 0 127 0" result="hardAlpha"/>
<feOffset dy="4"/>
<feGaussianBlur stdDeviation="2"/>
<feColorMatrix type="matrix" values="0 0 0 0 0.847059 0 0 0 0 0.0392157 0 0 0 0 0.286275 0 0 0 0.3 0"/>
<feBlend mode="normal" in2="BackgroundImageFix" result="effect1_dropShadow"/>
<feBlend mode="normal" in="SourceGraphic" in2="effect1_dropShadow" result="shape"/>
</filter>
<clipPath id="clip0">
<rect width="124.717" height="41.5722" fill="white" transform="matrix(-1 0 0 1 128.898 0.802246)"/>
</clipPath>
</defs>
</svg>
