<svg width="144" height="54" viewBox="0 0 144 54" fill="none" xmlns="http://www.w3.org/2000/svg">
<g filter="url(#filter0_d)">
<path d="M30.0092 26.8787C24.8291 26.8787 20.6143 31.0935 20.6143 36.2736C20.6143 41.4537 24.8291 45.6686 30.0092 45.6686C35.1893 45.6686 39.4042 41.4537 39.4042 36.2736C39.4042 31.0935 35.1893 26.8787 30.0092 26.8787ZM30.0092 43.6755C25.9279 43.6755 22.6073 40.3549 22.6073 36.2736C22.6073 32.1923 25.9279 28.8717 30.0092 28.8717C34.0905 28.8717 37.4111 32.1923 37.4111 36.2736C37.4111 40.3549 34.0905 43.6755 30.0092 43.6755Z" fill="#D80A49" stroke="#D80A49" stroke-width="0.5"/>
<path d="M30.009 30.6113C26.8863 30.6113 24.3467 33.151 24.3467 36.2736C24.3467 39.3963 26.8863 41.936 30.009 41.936C33.1317 41.936 35.6713 39.3963 35.6713 36.2736C35.6713 33.151 33.1317 30.6113 30.009 30.6113ZM30.009 39.9429C27.9866 39.9429 26.3397 38.296 26.3397 36.2736C26.3397 34.2513 27.9866 32.6044 30.009 32.6044C32.0314 32.6044 33.6783 34.2513 33.6783 36.2736C33.6783 38.296 32.0314 39.9429 30.009 39.9429Z" fill="#D80A49" stroke="#D80A49" stroke-width="0.5"/>
<path d="M102.795 26.8787C97.6152 26.8787 93.4004 31.0935 93.4004 36.2736C93.4004 41.4537 97.6152 45.6686 102.795 45.6686C107.975 45.6686 112.19 41.4537 112.19 36.2736C112.19 31.0935 107.975 26.8787 102.795 26.8787ZM102.795 43.6755C98.714 43.6755 95.3934 40.3549 95.3934 36.2736C95.3934 32.1923 98.714 28.8717 102.795 28.8717C106.877 28.8717 110.197 32.1923 110.197 36.2736C110.197 40.3549 106.877 43.6755 102.795 43.6755Z" fill="#D80A49" stroke="#D80A49" stroke-width="0.5"/>
<path d="M102.795 30.6113C99.6724 30.6113 97.1328 33.151 97.1328 36.2736C97.1328 39.3963 99.6724 41.936 102.795 41.936C105.918 41.936 108.457 39.3963 108.457 36.2736C108.457 33.151 105.918 30.6113 102.795 30.6113ZM102.795 39.9429C100.773 39.9429 99.1259 38.296 99.1259 36.2736C99.1259 34.2513 100.773 32.6044 102.795 32.6044C104.818 32.6044 106.464 34.2513 106.464 36.2736C106.464 38.296 104.818 39.9429 102.795 39.9429Z" fill="#D80A49" stroke="#D80A49" stroke-width="0.5"/>
<path d="M130.542 35.4387L130.542 35.4385L132.761 33.5373H127.057C125.478 33.5373 124.194 32.2533 124.194 30.6744C124.194 29.0956 125.478 27.8116 127.057 27.8116H134.459V27.0052H132.655C132.104 27.0052 131.658 26.5588 131.658 26.0086V21.3428C131.658 20.7927 132.104 20.3463 132.655 20.3463H134.22C134 19.1934 133.653 18.0055 133.274 17.2036C133.274 17.2035 133.274 17.2035 133.274 17.2034L127.433 4.87099L127.433 4.87094C127.167 4.30918 126.649 3.77412 126.023 3.37842C125.398 2.98273 124.692 2.74305 124.069 2.74305H63.7875C63.0801 2.74305 62.1705 2.92175 61.2845 3.21351C60.3986 3.50527 59.5605 3.90216 58.9911 4.32301L42.3316 16.6377L42.3315 16.6378C41.5755 17.1963 40.5447 17.6868 39.4787 18.0378C38.4127 18.3889 37.2923 18.6067 36.3526 18.6067H14.3301C13.7308 18.6067 13.0802 18.8491 12.5254 19.2491C11.9706 19.6491 11.5349 20.19 11.3452 20.759L11.1724 21.2795H12.2801C12.7369 21.2795 13.1353 21.5906 13.2467 22.0345L13.2468 22.0347L14.1799 25.7673L14.1801 25.7681C14.2535 26.0654 14.1884 26.3806 13.9982 26.6229C13.8089 26.8639 13.5184 27.0052 13.2118 27.0052H9.26382L8.99563 27.8116H15.0781C16.657 27.8116 17.9409 29.0956 17.9409 30.6744C17.9409 32.2533 16.657 33.5373 15.0781 33.5373H11.0915L11.3032 33.9606L130.542 35.4387ZM130.542 35.4387C130.014 35.8916 129.219 36.3199 128.367 36.6352C127.515 36.9505 126.633 37.1432 125.937 37.1432H115.859C115.381 37.1432 114.989 36.7519 114.989 36.2734C114.989 29.5494 109.519 24.079 102.795 24.079C96.071 24.079 90.6005 29.5494 90.6005 36.2734C90.6005 36.7519 90.2093 37.1432 89.7308 37.1432H43.0728C42.5943 37.1432 42.2031 36.7519 42.2031 36.2734C42.2031 29.5494 36.7326 24.079 30.0086 24.079C23.6213 24.079 18.3788 29.0191 17.8689 35.2768M130.542 35.4387L17.8689 35.2768M17.8689 35.2768H14.3316C13.6289 35.2768 12.9387 35.0953 12.3846 34.832C11.8202 34.5638 11.439 34.2313 11.3033 33.9608L17.8689 35.2768ZM139.25 30.6744C139.25 29.1169 138.002 27.8461 136.452 27.8123V22.4626C136.452 20.6876 135.838 17.9577 135.078 16.3522L135.078 16.3521L129.237 4.01945C128.798 3.09219 128.012 2.27725 127.091 1.69466C126.17 1.11206 125.097 0.75 124.071 0.75H63.789C62.8493 0.75 61.7288 0.967868 60.6629 1.31889C59.5969 1.66992 58.5661 2.16047 57.81 2.71898L57.81 2.71903L41.1505 15.0337C40.5811 15.4546 39.7429 15.8515 38.857 16.1432C37.9711 16.435 37.0615 16.6137 36.3541 16.6137H14.3316C12.2487 16.6137 10.1152 18.1502 9.45551 20.1275L9.45549 20.1276L6.85935 27.916C5.64611 28.2471 4.75 29.3559 4.75 30.6744C4.75 32.2533 6.03398 33.5373 7.61284 33.5373H8.86316L9.51973 34.8531L9.51987 34.8534C9.87218 35.5572 10.5867 36.1592 11.4401 36.5833C12.2976 37.0095 13.3225 37.2699 14.3301 37.2699H18.8092C19.3594 37.2699 19.8058 36.8235 19.8058 36.2734C19.8058 30.6498 24.3835 26.072 30.0071 26.072C35.6308 26.072 40.2085 30.6498 40.2085 36.2734C40.2085 37.8522 41.4925 39.1362 43.0714 39.1362H89.7293C91.3081 39.1362 92.5921 37.8522 92.5921 36.2734C92.5921 30.6498 97.1698 26.072 102.793 26.072C108.417 26.072 112.995 30.6498 112.995 36.2734C112.995 37.8522 114.279 39.1362 115.858 39.1362H125.936C126.889 39.1362 128.006 38.8944 129.058 38.5054C130.109 38.1163 131.115 37.5724 131.838 36.9529L135.824 33.5373H136.387C137.966 33.5373 139.25 32.2533 139.25 30.6744ZM134.459 22.4626V25.0121H133.653V22.3394H134.456C134.458 22.382 134.459 22.4229 134.459 22.4626ZM10.5074 23.2725H11.4997L11.9345 25.0121H9.92754L10.5074 23.2725ZM6.74305 30.6744C6.74305 30.1959 7.13428 29.8046 7.61284 29.8046H15.0781C15.5567 29.8046 15.9479 30.1959 15.9479 30.6744C15.9479 31.153 15.5567 31.5442 15.0781 31.5442H7.61284C7.13428 31.5442 6.74305 31.153 6.74305 30.6744ZM136.389 31.5442H127.057C126.579 31.5442 126.187 31.153 126.187 30.6744C126.187 30.1959 126.579 29.8046 127.057 29.8046H136.389C136.867 29.8046 137.258 30.1959 137.258 30.6744C137.258 31.153 136.867 31.5442 136.389 31.5442Z" fill="#D80A49" stroke="#D80A49" stroke-width="0.5"/>
<path d="M73.6803 19.6001H69.9477C69.3975 19.6001 68.9512 20.0465 68.9512 20.5966C68.9512 21.1468 69.3975 21.5932 69.9477 21.5932H73.6803C74.2305 21.5932 74.6769 21.1468 74.6769 20.5966C74.6769 20.0465 74.2305 19.6001 73.6803 19.6001Z" fill="#D80A49" stroke="#D80A49" stroke-width="0.5"/>
<path d="M114.909 17.9045C114.909 17.9045 114.909 17.9045 114.909 17.9044L111.177 5.77569C111.16 5.72451 111.158 5.67912 111.157 5.65684C111.157 5.64765 111.157 5.64392 111.157 5.64121C111.157 5.63866 111.157 5.63701 111.156 5.63256C111.156 5.63226 111.156 5.63199 111.156 5.63175C111.156 5.63085 111.156 5.62944 111.155 5.62738L111.152 5.61675L111.148 5.60073C111.142 5.57808 111.131 5.53369 111.131 5.48068C111.131 5.45167 111.135 5.42801 111.139 5.41272C111.14 5.41091 111.14 5.40917 111.14 5.40752C111.147 5.33985 111.163 5.27893 111.174 5.24096C111.175 5.23644 111.176 5.23225 111.177 5.22841C111.178 5.22571 111.179 5.2226 111.179 5.21912C111.187 5.18493 111.203 5.11487 111.234 5.05251C111.267 4.98388 111.312 4.92784 111.34 4.89378L114.909 17.9045ZM114.909 17.9045L114.909 17.9047L115.148 17.8312L114.909 17.9045ZM111.347 4.88391C111.344 4.88732 111.342 4.89042 111.34 4.89317L111.981 4.50807C111.976 4.5083 111.974 4.50836 111.971 4.50844C111.968 4.50852 111.964 4.50863 111.955 4.50898C111.932 4.50989 111.884 4.51206 111.832 4.5289L111.832 4.52861L111.82 4.53292C111.801 4.54003 111.786 4.54798 111.775 4.55425C111.771 4.5565 111.767 4.55871 111.764 4.56069C111.698 4.58872 111.644 4.62324 111.601 4.65165C111.592 4.65722 111.588 4.65975 111.582 4.6632C111.576 4.6669 111.567 4.67166 111.55 4.68235C111.526 4.69698 111.493 4.71882 111.459 4.74924L111.459 4.74918L111.454 4.75357C111.407 4.79861 111.368 4.85352 111.347 4.88391ZM111.982 4.5079C111.982 4.50795 111.981 4.508 111.981 4.50805L130.827 17.766C130.827 17.7655 130.827 17.7651 130.827 17.7646L130.828 17.7613C130.83 17.7551 130.834 17.742 130.836 17.7352C130.843 17.7097 130.854 17.6655 130.854 17.6117C130.854 17.5938 130.852 17.5776 130.849 17.5638C130.846 17.5233 130.838 17.4889 130.832 17.4654C130.828 17.4466 130.825 17.4357 130.822 17.4275C130.82 17.4179 130.818 17.4121 130.816 17.4016L130.816 17.4016L130.815 17.3986C130.813 17.3864 130.811 17.3798 130.81 17.3705C130.808 17.362 130.807 17.3513 130.803 17.332C130.798 17.308 130.791 17.2756 130.779 17.2403C130.777 17.2339 130.775 17.2262 130.772 17.2177L130.768 17.2045L130.762 17.1919L125.789 6.41824C125.534 5.86437 125.074 5.38285 124.539 5.04036C124.004 4.69787 123.374 4.48267 122.765 4.48267H112.127C112.073 4.48267 112.029 4.49467 112.007 4.50086L111.991 4.50521L111.982 4.5079ZM130.835 17.5136C130.835 17.5145 130.836 17.5159 130.836 17.5176L130.835 17.5151L130.835 17.5136ZM116.594 16.6137L113.475 6.47572H122.764C122.968 6.47572 123.225 6.56278 123.465 6.71619C123.704 6.86955 123.892 7.06754 123.978 7.25338C123.978 7.2534 123.978 7.25343 123.978 7.25346L128.298 16.6137H116.594Z" fill="#D80A49" stroke="#D80A49" stroke-width="0.5"/>
<path d="M94.3563 5.70203L94.3563 5.70203L94.3564 5.70263L97.1559 17.8337L97.156 17.8343C97.2614 18.2855 97.6632 18.6068 98.1266 18.6068H112.122L112.125 18.6069L112.131 18.6072C112.136 18.6073 112.145 18.6076 112.156 18.6073C112.159 18.6072 112.163 18.607 112.167 18.6067C112.711 18.5995 113.15 18.1559 113.15 17.6102C113.15 17.4241 113.1 17.2494 113.01 17.0994L109.346 5.18651C109.346 5.1865 109.346 5.18649 109.346 5.18648C109.218 4.76938 108.831 4.48267 108.393 4.48267H95.3286C95.0265 4.48267 94.7378 4.61966 94.548 4.85739C94.3581 5.09528 94.2888 5.40627 94.3563 5.70203ZM110.775 16.6137H98.9197L96.5805 6.47572H107.656L110.775 16.6137Z" fill="#D80A49" stroke="#D80A49" stroke-width="0.5"/>
<path d="M92.5671 5.25573L92.567 5.25513C92.4617 4.80394 92.0599 4.48267 91.5964 4.48267H77.5991C77.0489 4.48267 76.6025 4.92904 76.6025 5.47919V17.6102C76.6025 18.1604 77.0489 18.6068 77.5991 18.6068H94.3959C94.6981 18.6068 94.9868 18.4698 95.1766 18.2321C95.3665 17.9942 95.4357 17.6832 95.3683 17.3874L95.3681 17.3868L92.5671 5.25573ZM78.5956 16.6137V6.47572H90.8048L93.144 16.6137H78.5956Z" fill="#D80A49" stroke="#D80A49" stroke-width="0.5"/>
<path d="M60.8777 5.59407L60.8776 5.59414L46.1994 16.8189L46.1994 16.8189L46.1977 16.8202C46.1765 16.8367 46.161 16.8534 46.1506 16.8658C46.1468 16.8704 46.1433 16.8749 46.1403 16.8788C46.0879 16.9278 46.0482 16.98 46.0199 17.0182C46.0178 17.021 46.0155 17.024 46.013 17.0272C45.9888 17.0588 45.95 17.1094 45.9203 17.1667C45.8877 17.2295 45.8701 17.298 45.8606 17.3349C45.8594 17.3396 45.8583 17.3437 45.8573 17.3473L45.856 17.3522C45.8448 17.3931 45.8281 17.4542 45.8214 17.523C45.8198 17.5287 45.8178 17.5359 45.8161 17.5437C45.8123 17.5604 45.8086 17.5832 45.8086 17.6102C45.8086 17.6626 45.8209 17.7056 45.8257 17.7224L45.8261 17.7235L45.8278 17.7297L45.8289 17.7336C45.8355 17.7882 45.8456 17.855 45.8714 17.9288C45.8949 17.9987 45.9256 18.0572 45.9563 18.1088C45.9571 18.1107 45.9583 18.1137 45.9601 18.1182L45.9607 18.1197C45.9666 18.1347 45.9813 18.1718 46.0081 18.2098L46.0081 18.2099L46.0124 18.2156C46.0302 18.2394 46.0486 18.2562 46.0619 18.267C46.0649 18.2695 46.0678 18.2718 46.0704 18.2737C46.1403 18.3511 46.2183 18.4063 46.2884 18.4501C46.2889 18.4505 46.2897 18.4511 46.2908 18.4519L46.2977 18.4573L46.3088 18.4659C46.3253 18.4783 46.356 18.5008 46.3978 18.5188C46.5147 18.5706 46.652 18.6098 46.8051 18.6098H73.8667C74.4169 18.6098 74.8632 18.1634 74.8632 17.6132V5.48218C74.8632 4.92969 74.4175 4.48267 73.8667 4.48267H64.1619C63.6379 4.48267 63.0215 4.60644 62.4405 4.80305C61.8595 4.99967 61.2943 5.27577 60.8777 5.59407ZM62.0891 7.1783L62.0894 7.17808C62.3226 6.99916 62.686 6.82149 63.0793 6.68834C63.4726 6.5552 63.8689 6.47572 64.1619 6.47572H72.8702V16.6137H49.7503L62.0891 7.1783Z" fill="#D80A49" stroke="#D80A49" stroke-width="0.5"/>
</g>
<defs>
<filter id="filter0_d" x="0.5" y="0.5" width="143" height="53.4186" filterUnits="userSpaceOnUse" color-interpolation-filters="sRGB">
<feFlood flood-opacity="0" result="BackgroundImageFix"/>
<feColorMatrix in="SourceAlpha" type="matrix" values="0 0 0 0 0 0 0 0 0 0 0 0 0 0 0 0 0 0 127 0" result="hardAlpha"/>
<feOffset dy="4"/>
<feGaussianBlur stdDeviation="2"/>
<feComposite in2="hardAlpha" operator="out"/>
<feColorMatrix type="matrix" values="0 0 0 0 0.847059 0 0 0 0 0.0392157 0 0 0 0 0.286275 0 0 0 0.3 0"/>
<feBlend mode="normal" in2="BackgroundImageFix" result="effect1_dropShadow"/>
<feBlend mode="normal" in="SourceGraphic" in2="effect1_dropShadow" result="shape"/>
</filter>
</defs>
</svg>
