<svg width="96" height="79" viewBox="0 0 96 79" fill="none" xmlns="http://www.w3.org/2000/svg">
<g filter="url(#filter0_d)">
<path d="M7.2507 53.9337H7.98805V33.4993C7.98805 31.6641 9.4812 30.171 11.3164 30.171H21.8152C21.8498 30.171 21.8819 30.1486 21.8946 30.1167L30.3895 8.6325C30.7063 7.83165 31.3954 7.2107 32.2508 6.89681V4.30036C32.2508 2.18268 33.9736 0.459961 36.0912 0.459961H78.45C80.5677 0.459961 82.2904 2.18268 82.2904 4.30036V6.92788C83.492 7.43054 84.3386 8.61765 84.3386 9.99951V10.9383C84.3386 11.6452 83.7654 12.2184 83.0585 12.2184C82.3515 12.2184 81.7783 11.6452 81.7783 10.9383V9.99951C81.7783 9.57604 81.4337 9.23143 81.0102 9.23143H33.531C33.1046 9.23143 32.825 9.43591 32.7704 9.57417L24.2749 31.0596C23.8721 32.0751 22.9066 32.7313 21.815 32.7313H11.3162C10.8928 32.7313 10.5482 33.0759 10.5482 33.4993V35.1038H15.8923C17.3511 35.1038 18.5379 36.2905 18.5379 37.7494V40.9924C18.5379 42.4512 17.3511 43.638 15.8923 43.638H10.5482V53.9337H13.5037C15.2252 49.4471 19.576 46.2524 24.6612 46.2524C29.7464 46.2524 34.097 49.4471 35.8187 53.9337H40.7851C41.492 53.9337 42.0652 54.5068 42.0652 55.2138C42.0652 55.9208 41.492 56.4939 40.7851 56.4939H36.4853C36.5654 57.0516 36.6091 57.6208 36.6091 58.2003C36.6091 58.7801 36.5654 59.3497 36.4852 59.9076H55.8408C55.7606 59.3497 55.7169 58.7801 55.7169 58.2003C55.7169 57.6208 55.7606 57.0516 55.8406 56.4939H46.7588C46.0519 56.4939 45.4787 55.9208 45.4787 55.2138C45.4787 54.5068 46.0519 53.9337 46.7588 53.9337H56.5073C58.2288 49.4471 62.5796 46.2524 67.6648 46.2524C72.75 46.2524 77.1005 49.4471 78.8222 53.9337H81.7783V16.9122C81.7783 16.2053 82.3515 15.6321 83.0585 15.6321C83.7654 15.6321 84.3386 16.2053 84.3386 16.9122V20.273H89.2577C90.7166 20.273 91.9033 21.4598 91.9033 22.9186V40.6578C91.9033 42.1167 90.7166 43.3034 89.2577 43.3034H84.3386V53.9337H85.0742C86.5331 53.9337 87.7198 55.1204 87.7198 56.5793V59.8223C87.7198 61.2811 86.5331 62.4679 85.0742 62.4679H78.8219C77.1 66.954 72.7496 70.1482 67.6648 70.1482C62.5799 70.1482 58.2297 66.954 56.5076 62.4679H35.8181C34.0963 66.954 29.7459 70.1482 24.661 70.1482C19.5762 70.1482 15.2259 66.954 13.5039 62.4679H7.25036C5.79152 62.4679 4.60475 61.2811 4.60475 59.8223V56.5793C4.60509 55.1206 5.79186 53.9337 7.2507 53.9337ZM34.8111 4.30036V6.67117H42.4919V3.02023H36.0912C35.3855 3.02023 34.8111 3.59458 34.8111 4.30036ZM45.0522 6.67117H69.489V3.02023H45.0522V6.67117ZM78.45 3.02023H72.0493V6.67117H79.7301V4.30036C79.7301 3.59458 79.1559 3.02023 78.45 3.02023ZM15.8925 41.0777C15.9396 41.0777 15.9778 41.0395 15.9778 40.9924V37.7494C15.9778 37.7023 15.9396 37.664 15.8925 37.664H10.5483V41.0777H15.8925ZM89.2577 40.7432C89.3048 40.7432 89.3431 40.705 89.3431 40.6578V22.9186C89.3431 22.8715 89.3048 22.8333 89.2577 22.8333H84.3386V40.7432H89.2577ZM85.0742 59.9076C85.1213 59.9076 85.1596 59.8694 85.1596 59.8223V56.5793C85.1596 56.5322 85.1213 56.4939 85.0742 56.4939H79.4889C79.569 57.0516 79.6127 57.6208 79.6127 58.2003C79.6127 58.7801 79.569 59.3497 79.4888 59.9076H85.0742ZM67.6649 67.5881C72.8413 67.5881 77.0526 63.3768 77.0526 58.2004C77.0526 53.0241 72.8413 48.8128 67.6649 48.8128C62.4886 48.8128 58.2773 53.0241 58.2773 58.2004C58.2773 63.3768 62.4886 67.5881 67.6649 67.5881ZM24.6614 67.5881C29.8377 67.5881 34.049 63.3768 34.049 58.2004C34.049 53.0241 29.8377 48.8128 24.6614 48.8128C19.485 48.8128 15.2737 53.0241 15.2737 58.2004C15.2737 63.3768 19.485 67.5881 24.6614 67.5881ZM7.16536 59.8223C7.16536 59.8685 7.20444 59.9076 7.2507 59.9076H12.8374C12.7571 59.3497 12.7135 58.7801 12.7135 58.2003C12.7135 57.6208 12.7571 57.0516 12.8372 56.4939H7.2507C7.20444 56.4939 7.16536 56.533 7.16536 56.5793V59.8223Z" fill="#D80A49"/>
<path d="M67.6646 53.5071C70.2528 53.5071 72.3584 55.6126 72.3584 58.2009C72.3584 60.7892 70.2528 62.8947 67.6646 62.8947C65.0763 62.8947 62.9708 60.7892 62.9708 58.2009C62.9708 55.6126 65.0763 53.5071 67.6646 53.5071ZM67.6646 60.3345C68.8411 60.3345 69.7981 59.3774 69.7981 58.2009C69.7981 57.0244 68.8411 56.0673 67.6646 56.0673C66.4881 56.0673 65.531 57.0244 65.531 58.2009C65.531 59.3774 66.4881 60.3345 67.6646 60.3345Z" fill="#D80A49"/>
<path d="M24.6607 53.5071C27.2489 53.5071 29.3545 55.6126 29.3545 58.2009C29.3545 60.7892 27.2489 62.8947 24.6607 62.8947C22.0724 62.8947 19.9669 60.7892 19.9669 58.2009C19.9669 55.6126 22.0724 53.5071 24.6607 53.5071ZM24.6607 60.3345C25.8372 60.3345 26.7942 59.3774 26.7942 58.2009C26.7942 57.0244 25.8372 56.0673 24.6607 56.0673C23.4841 56.0673 22.5271 57.0244 22.5271 58.2009C22.5271 59.3774 23.4841 60.3345 24.6607 60.3345Z" fill="#D80A49"/>
<path d="M76.4025 35.0024C77.1095 35.0024 77.6826 35.5756 77.6826 36.2826C77.6826 36.9896 77.1095 37.5627 76.4025 37.5627H71.8457C71.1387 37.5627 70.5656 36.9896 70.5656 36.2826C70.5656 35.5756 71.1387 35.0024 71.8457 35.0024H76.4025Z" fill="#D80A49"/>
<path d="M51.84 37.5627H47.2832C46.5763 37.5627 46.0031 36.9896 46.0031 36.2826C46.0031 35.5756 46.5763 35.0024 47.2832 35.0024H51.84C52.547 35.0024 53.1201 35.5756 53.1201 36.2826C53.1201 36.9896 52.547 37.5627 51.84 37.5627Z" fill="#D80A49"/>
<path d="M56.5349 30.3024V15.2909C56.5349 13.832 57.7216 12.6453 59.1805 12.6453H75.7196C77.1785 12.6453 78.3652 13.832 78.3652 15.2909V30.3925C78.3652 31.1019 78.0882 31.7681 77.5854 32.2683C77.0858 32.7652 76.4239 33.0381 75.72 33.0381H75.7053L59.1661 32.948C57.7152 32.9398 56.5349 31.753 56.5349 30.3024ZM75.7191 30.4779C75.7288 30.4779 75.7546 30.478 75.7799 30.4529C75.805 30.4278 75.805 30.4012 75.805 30.3925V15.2909C75.805 15.2438 75.7667 15.2055 75.7196 15.2055H59.1805C59.1334 15.2055 59.0951 15.2438 59.0951 15.2909V30.3024C59.0951 30.3492 59.1334 30.3876 59.1801 30.3877L75.7191 30.4779Z" fill="#D80A49"/>
<path d="M50.475 32.8998H50.46L31.1366 32.7945C30.2627 32.7897 29.4487 32.3547 28.9592 31.6308C28.4697 30.9067 28.3693 29.9893 28.6906 29.1765L34.564 14.3178C34.9658 13.3013 35.9315 12.6445 37.0244 12.6445H50.4745C51.9333 12.6445 53.1201 13.8313 53.1201 15.2901V30.2542C53.1201 30.9636 52.8431 31.6298 52.3401 32.13C51.8405 32.6269 51.1788 32.8998 50.475 32.8998ZM50.5597 15.2903C50.5597 15.2432 50.5214 15.205 50.4743 15.205H37.0242C36.9889 15.205 36.9578 15.2261 36.9449 15.2589L31.0714 30.1177C31.0656 30.1323 31.0549 30.1596 31.0801 30.1969C31.1052 30.2341 31.1346 30.2342 31.1505 30.2344L50.474 30.3397C50.4836 30.3385 50.5095 30.3397 50.5344 30.315C50.5595 30.2899 50.5595 30.2633 50.5595 30.2545V15.2903H50.5597Z" fill="#D80A49"/>
</g>
<defs>
<filter id="filter0_d" x="0.604492" y="0.459961" width="95.2986" height="77.6882" filterUnits="userSpaceOnUse" color-interpolation-filters="sRGB">
<feFlood flood-opacity="0" result="BackgroundImageFix"/>
<feColorMatrix in="SourceAlpha" type="matrix" values="0 0 0 0 0 0 0 0 0 0 0 0 0 0 0 0 0 0 127 0" result="hardAlpha"/>
<feOffset dy="4"/>
<feGaussianBlur stdDeviation="2"/>
<feColorMatrix type="matrix" values="0 0 0 0 0.847059 0 0 0 0 0.0392157 0 0 0 0 0.286275 0 0 0 0.3 0"/>
<feBlend mode="normal" in2="BackgroundImageFix" result="effect1_dropShadow"/>
<feBlend mode="normal" in="SourceGraphic" in2="effect1_dropShadow" result="shape"/>
</filter>
</defs>
</svg>
