<svg width="23" height="23" viewBox="0 0 23 23" fill="none" xmlns="http://www.w3.org/2000/svg">
<g filter="url(#filter0_d_2428_2103)">
<path d="M14.4713 11.2559C15.2248 11.2559 15.9783 11.2559 16.7318 11.2559C16.8287 11.2559 16.9319 11.2497 17.0257 11.2247C17.2258 11.1747 17.3477 11.0091 17.3477 10.7842C17.3508 10.228 17.3477 9.67191 17.3477 9.11579C17.3477 8.51904 17.3508 7.9223 17.3446 7.32243C17.3446 7.19746 17.3852 7.14122 17.504 7.1006C18.4639 6.79442 19.0329 5.97585 18.9985 4.97294C18.9641 3.97628 18.0825 3.0921 17.0913 3.01087C15.9939 2.92026 14.9778 3.68572 14.809 4.85422C14.6777 5.76964 15.3061 6.78505 16.2065 7.07873C16.4754 7.16621 16.4473 7.12247 16.4473 7.40678C16.4473 8.32221 16.4441 9.23451 16.4504 10.1499C16.4504 10.2968 16.4129 10.3468 16.2597 10.3468C14.8871 10.3405 13.5146 10.3405 12.142 10.3468C11.9795 10.3468 11.9451 10.2937 11.9451 10.1406C11.9513 9.20639 11.9513 8.2691 11.9451 7.33493C11.9451 7.19433 11.9951 7.13809 12.1233 7.09435C13.0362 6.80692 13.6178 5.98834 13.599 5.02918C13.5771 3.98253 12.7173 3.09523 11.6731 3.00775C10.4412 2.90777 9.31877 3.9138 9.40319 5.26038C9.45321 6.0602 10.0535 6.84128 10.8289 7.07561C11.0071 7.12872 11.0571 7.20995 11.0571 7.39116C11.0477 8.30971 11.0509 9.23139 11.0571 10.1499C11.0571 10.2999 11.0134 10.3436 10.8633 10.3405C9.49073 10.3343 8.11818 10.3343 6.74563 10.3405C6.59556 10.3405 6.55179 10.2999 6.55179 10.1499C6.55804 9.20327 6.55804 8.25972 6.55179 7.31306C6.55179 7.18496 6.59556 7.13184 6.71437 7.09748C7.65233 6.81004 8.26825 5.91649 8.19947 4.95107C8.13381 3.98566 7.37719 3.17021 6.41109 3.02337C5.47001 2.87965 4.52579 3.41078 4.16311 4.28872C3.79418 5.18539 4.06932 6.19767 4.83844 6.77255C5.03542 6.91939 5.24802 7.03812 5.48876 7.1006C5.59507 7.12872 5.63884 7.18808 5.63884 7.30056C5.63571 9.43447 5.63571 11.5715 5.63884 13.7054C5.63884 13.821 5.59194 13.8679 5.48564 13.8991C4.53204 14.1897 3.92862 15.0957 4.00679 16.0986C4.08182 17.0359 4.83219 17.8326 5.79516 17.9701C6.60494 18.0857 7.27714 17.8076 7.76801 17.1609C8.25887 16.5142 8.34329 15.7956 8.00875 15.0457C7.75238 14.474 7.32091 14.0897 6.72062 13.9054C6.59868 13.8679 6.54553 13.8179 6.54553 13.6804C6.55179 12.9337 6.55179 12.1839 6.54553 11.4372C6.54553 11.3028 6.58618 11.2559 6.72375 11.2559C8.10567 11.2591 9.49073 11.2591 10.8727 11.2559C11.0102 11.2559 11.0509 11.2997 11.0509 11.4372C11.0446 12.1901 11.0446 12.9431 11.0509 13.696C11.0509 13.8179 11.004 13.8679 10.8914 13.9022C9.94408 14.1834 9.33128 15.0832 9.40006 16.0768C9.46884 17.0234 10.2255 17.8326 11.1791 17.9763C12.6767 18.1982 13.921 16.8235 13.5208 15.3675C13.3239 14.6458 12.8518 14.1459 12.1264 13.9147C11.9888 13.871 11.9388 13.8116 11.9419 13.6648C11.9482 12.9275 11.9482 12.1901 11.9419 11.4528C11.9419 11.2997 11.9951 11.2591 12.1389 11.2591C12.9205 11.2591 13.6959 11.2559 14.4713 11.2559Z" fill="#D80A49"/>
</g>
<defs>
<filter id="filter0_d_2428_2103" x="0" y="0" width="23" height="23" filterUnits="userSpaceOnUse" color-interpolation-filters="sRGB">
<feFlood flood-opacity="0" result="BackgroundImageFix"/>
<feColorMatrix in="SourceAlpha" type="matrix" values="0 0 0 0 0 0 0 0 0 0 0 0 0 0 0 0 0 0 127 0" result="hardAlpha"/>
<feOffset dy="1"/>
<feGaussianBlur stdDeviation="2"/>
<feComposite in2="hardAlpha" operator="out"/>
<feColorMatrix type="matrix" values="0 0 0 0 0.533333 0 0 0 0 0.0117647 0 0 0 0 0.0117647 0 0 0 0.5 0"/>
<feBlend mode="normal" in2="BackgroundImageFix" result="effect1_dropShadow_2428_2103"/>
<feBlend mode="normal" in="SourceGraphic" in2="effect1_dropShadow_2428_2103" result="shape"/>
</filter>
</defs>
</svg>
