<svg width="133" height="76" viewBox="0 0 133 76" fill="none" xmlns="http://www.w3.org/2000/svg">
<g filter="url(#filter0_d)">
<path d="M9.4163 56.0319H23.9689C24.4414 56.0319 24.8946 55.8442 25.2287 55.51C25.5629 55.1759 25.7506 54.7227 25.7506 54.2502C25.7506 53.7777 25.5629 53.3245 25.2287 52.9904C24.8946 52.6562 24.4414 52.4685 23.9689 52.4685H9.41096C8.97212 52.4681 8.55141 52.2935 8.2411 51.9832C7.9308 51.6729 7.75626 51.2522 7.75579 50.8134V45.2172C7.75957 41.7524 9.13763 38.4305 11.5876 35.9805C14.0376 33.5305 17.3595 32.1525 20.8243 32.1487H26.8445C27.2043 32.1487 27.5557 32.0398 27.8524 31.8363C28.1491 31.6327 28.3773 31.3441 28.5068 31.0084L37.7411 7.05401C38.058 6.28061 38.5984 5.61931 39.2931 5.15466C39.9879 4.69002 40.8054 4.44317 41.6412 4.44566H59.8694C60.5679 4.4466 61.2376 4.72453 61.7316 5.2185C62.2256 5.71247 62.5035 6.38216 62.5044 7.08074V30.367C62.5044 30.8396 62.6922 31.2927 63.0263 31.6269C63.3604 31.961 63.8136 32.1487 64.2861 32.1487H123.457C123.892 32.1505 124.308 32.3225 124.618 32.6279C124.927 32.9333 125.105 33.3478 125.112 33.7825L125.345 50.7902C125.348 51.0094 125.308 51.2271 125.226 51.4305C125.144 51.6338 125.022 51.819 124.868 51.9751C124.714 52.1312 124.531 52.2552 124.329 52.3399C124.127 52.4246 123.909 52.4683 123.69 52.4685H116.633C116.161 52.4685 115.707 52.6562 115.373 52.9904C115.039 53.3245 114.851 53.7777 114.851 54.2502C114.851 54.7227 115.039 55.1759 115.373 55.51C115.707 55.8442 116.161 56.0319 116.633 56.0319H123.69C124.382 56.0317 125.066 55.8942 125.704 55.6274C126.341 55.3607 126.92 54.9699 127.405 54.4778C127.891 53.9857 128.274 53.402 128.532 52.7607C128.79 52.1195 128.918 51.4333 128.909 50.7421L128.675 33.7326C128.651 32.3627 128.091 31.0568 127.116 30.0947C126.14 29.1325 124.827 28.5908 123.457 28.5854H66.0678V7.0843C66.0668 5.44035 65.4136 3.86394 64.2515 2.70115C63.0893 1.53837 61.5133 0.884227 59.8694 0.882339H41.6412C40.092 0.879283 38.5773 1.33983 37.2921 2.20473C36.0068 3.06963 35.0097 4.29932 34.429 5.73558L25.6223 28.5818H20.8296C16.4186 28.5856 12.1894 30.3394 9.07018 33.4583C5.95098 36.5771 4.19672 40.8062 4.19247 45.2172V50.8134C4.19389 52.1979 4.74488 53.5252 5.72439 54.5037C6.70389 55.4822 8.03178 56.0319 9.4163 56.0319Z" fill="#D80A49"/>
<path d="M46.2209 56.0318H94.3863C94.8588 56.0318 95.312 55.8441 95.6461 55.51C95.9803 55.1759 96.168 54.7227 96.168 54.2502C96.168 53.7776 95.9803 53.3245 95.6461 52.9903C95.312 52.6562 94.8588 52.4685 94.3863 52.4685H46.2209C45.7484 52.4685 45.2952 52.6562 44.9611 52.9903C44.6269 53.3245 44.4392 53.7776 44.4392 54.2502C44.4392 54.7227 44.6269 55.1759 44.9611 55.51C45.2952 55.8441 45.7484 56.0318 46.2209 56.0318Z" fill="#D80A49"/>
<path d="M26.8421 32.1542H52.6548C53.9825 32.1523 55.2553 31.6241 56.1941 30.6853C57.1329 29.7465 57.6612 28.4737 57.6631 27.146V12.0624C57.6612 10.7348 57.1329 9.46198 56.1941 8.52316C55.2553 7.58434 53.9825 7.05608 52.6548 7.0542H35.0877C34.7274 7.05446 34.3757 7.16391 34.079 7.36811C33.7822 7.57231 33.5543 7.86167 33.4254 8.19803L25.1727 29.7347C25.0693 30.0045 25.033 30.2953 25.067 30.5822C25.101 30.8691 25.2042 31.1434 25.3678 31.3815C25.5314 31.6196 25.7504 31.8143 26.006 31.9489C26.2616 32.0836 26.5461 32.154 26.835 32.1542H26.8421ZM52.6548 10.6175C52.8453 10.6149 53.0344 10.6505 53.2109 10.7221C53.3874 10.7938 53.5477 10.9001 53.6824 11.0349C53.8171 11.1696 53.9235 11.3299 53.9951 11.5064C54.0668 11.6829 54.1024 11.872 54.0998 12.0624V27.146C54.1024 27.3365 54.0668 27.5255 53.9951 27.702C53.9235 27.8785 53.8171 28.0389 53.6824 28.1736C53.5477 28.3083 53.3874 28.4146 53.2109 28.4863C53.0344 28.558 52.8453 28.5935 52.6548 28.5909H29.4344L36.3206 10.6175H52.6548Z" fill="#D80A49"/>
<path d="M35.104 67.1598C37.656 67.1598 40.1506 66.4031 42.2724 64.9853C44.3943 63.5675 46.0481 61.5524 47.0247 59.1947C48.0012 56.837 48.2568 54.2427 47.7589 51.7398C47.2611 49.2369 46.0322 46.9379 44.2277 45.1334C42.4232 43.3289 40.1241 42.1 37.6212 41.6022C35.1184 41.1043 32.524 41.3598 30.1664 42.3364C27.8087 43.313 25.7935 44.9668 24.3758 47.0886C22.958 49.2105 22.2012 51.7051 22.2012 54.257C22.2055 57.6778 23.5662 60.9572 25.9851 63.376C28.4039 65.7948 31.6833 67.1556 35.104 67.1598ZM35.104 44.9176C36.9512 44.9176 38.7569 45.4653 40.2928 46.4916C41.8286 47.5178 43.0257 48.9764 43.7326 50.683C44.4395 52.3895 44.6244 54.2674 44.2641 56.0791C43.9037 57.8908 43.0142 59.5549 41.708 60.861C40.4019 62.1672 38.7378 63.0567 36.9261 63.417C35.1144 63.7774 33.2365 63.5925 31.53 62.8856C29.8234 62.1787 28.3648 60.9816 27.3386 59.4458C26.3123 57.9099 25.7646 56.1042 25.7646 54.257C25.7669 51.7805 26.7515 49.4059 28.5024 47.6544C30.2533 45.9028 32.6275 44.9173 35.104 44.914V44.9176Z" fill="#D80A49"/>
<path d="M35.1035 59.9769C36.2353 59.9769 37.3417 59.6413 38.2828 59.0124C39.2239 58.3836 39.9574 57.4899 40.3906 56.4442C40.8237 55.3985 40.937 54.2478 40.7162 53.1377C40.4954 52.0277 39.9504 51.008 39.15 50.2076C38.3497 49.4073 37.33 48.8623 36.2199 48.6415C35.1098 48.4206 33.9592 48.534 32.9135 48.9671C31.8678 49.4002 30.974 50.1337 30.3452 51.0748C29.7164 52.0159 29.3808 53.1223 29.3808 54.2542C29.3827 55.7714 29.9862 57.2259 31.059 58.2987C32.1318 59.3715 33.5863 59.975 35.1035 59.9769ZM35.1035 52.0948C35.5306 52.0948 35.9481 52.2215 36.3032 52.4587C36.6583 52.696 36.935 53.0333 37.0985 53.4278C37.2619 53.8224 37.3047 54.2566 37.2214 54.6755C37.138 55.0943 36.9324 55.4791 36.6304 55.7811C36.3284 56.0831 35.9436 56.2887 35.5247 56.3721C35.1059 56.4554 34.6717 56.4126 34.2771 56.2492C33.8826 56.0858 33.5453 55.809 33.308 55.4539C33.0708 55.0988 32.9441 54.6813 32.9441 54.2542C32.9451 53.6818 33.1729 53.1331 33.5776 52.7283C33.9824 52.3236 34.5311 52.0958 35.1035 52.0948Z" fill="#D80A49"/>
<path d="M5.97357 46.9702H11.7853C12.7407 46.9692 13.6566 46.5894 14.3323 45.9141C15.008 45.2388 15.3882 44.323 15.3896 43.3677V40.28C15.3898 39.5842 15.1879 38.9032 14.8083 38.32C14.4288 37.7368 13.888 37.2763 13.2516 36.9947L9.30528 35.213C8.87643 35.0284 8.39227 35.0196 7.95695 35.1883C7.52164 35.3571 7.16996 35.69 6.97758 36.1154C6.78519 36.5408 6.76748 37.0247 6.92824 37.463C7.089 37.9013 7.41538 38.2591 7.83719 38.4592L11.796 40.2515L11.8192 43.3712L5.97357 43.4069C5.50105 43.4069 5.04788 43.5946 4.71375 43.9287C4.37962 44.2628 4.19192 44.716 4.19192 45.1885C4.19192 45.6611 4.37962 46.1142 4.71375 46.4483C5.04788 46.7825 5.50105 46.9702 5.97357 46.9702Z" fill="#D80A49"/>
<path d="M64.2799 56.0352C64.7524 56.0352 65.2056 55.8475 65.5397 55.5134C65.8738 55.1793 66.0615 54.7261 66.0615 54.2536V30.3793C66.0615 29.9068 65.8738 29.4536 65.5397 29.1195C65.2056 28.7854 64.7524 28.5977 64.2799 28.5977C63.8073 28.5977 63.3542 28.7854 63.02 29.1195C62.6859 29.4536 62.4982 29.9068 62.4982 30.3793V54.2536C62.4982 54.7261 62.6859 55.1793 63.02 55.5134C63.3542 55.8475 63.8073 56.0352 64.2799 56.0352Z" fill="#D80A49"/>
<path d="M105.505 67.1598C108.057 67.1598 110.552 66.4031 112.674 64.9853C114.796 63.5675 116.449 61.5524 117.426 59.1947C118.403 56.837 118.658 54.2427 118.16 51.7398C117.662 49.2369 116.434 46.9379 114.629 45.1334C112.825 43.3289 110.526 42.1 108.023 41.6022C105.52 41.1043 102.925 41.3598 100.568 42.3364C98.2101 43.313 96.1949 44.9668 94.7771 47.0886C93.3594 49.2105 92.6026 51.7051 92.6026 54.257C92.6069 57.6778 93.9676 60.9572 96.3865 63.376C98.8053 65.7948 102.085 67.1556 105.505 67.1598ZM105.505 44.9176C107.353 44.9176 109.158 45.4653 110.694 46.4916C112.23 47.5178 113.427 48.9764 114.134 50.683C114.841 52.3895 115.026 54.2674 114.665 56.0791C114.305 57.8908 113.416 59.5549 112.109 60.861C110.803 62.1672 109.139 63.0567 107.327 63.417C105.516 63.7774 103.638 63.5925 101.931 62.8856C100.225 62.1787 98.7662 60.9816 97.7399 59.4458C96.7137 57.9099 96.166 56.1042 96.166 54.257C96.1683 51.7805 97.1529 49.4059 98.9038 47.6544C100.655 45.9028 103.029 44.9173 105.505 44.914V44.9176Z" fill="#D80A49"/>
<path d="M105.505 59.9769C106.637 59.9769 107.743 59.6413 108.684 59.0124C109.625 58.3836 110.359 57.4899 110.792 56.4442C111.225 55.3985 111.338 54.2478 111.118 53.1377C110.897 52.0277 110.352 51.008 109.551 50.2076C108.751 49.4073 107.731 48.8623 106.621 48.6415C105.511 48.4206 104.361 48.534 103.315 48.9671C102.269 49.4002 101.375 50.1337 100.747 51.0748C100.118 52.0159 99.7821 53.1223 99.7821 54.2542C99.784 55.7714 100.388 57.2259 101.46 58.2987C102.533 59.3715 103.988 59.975 105.505 59.9769ZM105.505 52.0948C105.932 52.0948 106.349 52.2215 106.705 52.4587C107.06 52.696 107.336 53.0333 107.5 53.4278C107.663 53.8224 107.706 54.2566 107.623 54.6755C107.539 55.0943 107.334 55.4791 107.032 55.7811C106.73 56.0831 106.345 56.2887 105.926 56.3721C105.507 56.4554 105.073 56.4126 104.678 56.2492C104.284 56.0858 103.947 55.809 103.709 55.4539C103.472 55.0988 103.345 54.6813 103.345 54.2542C103.346 53.6816 103.574 53.1327 103.978 52.7278C104.383 52.3229 104.932 52.0953 105.505 52.0948Z" fill="#D80A49"/>
</g>
<defs>
<filter id="filter0_d" x="0.192383" y="0.882324" width="132.717" height="74.2775" filterUnits="userSpaceOnUse" color-interpolation-filters="sRGB">
<feFlood flood-opacity="0" result="BackgroundImageFix"/>
<feColorMatrix in="SourceAlpha" type="matrix" values="0 0 0 0 0 0 0 0 0 0 0 0 0 0 0 0 0 0 127 0" result="hardAlpha"/>
<feOffset dy="4"/>
<feGaussianBlur stdDeviation="2"/>
<feColorMatrix type="matrix" values="0 0 0 0 0.847059 0 0 0 0 0.0392157 0 0 0 0 0.286275 0 0 0 0.3 0"/>
<feBlend mode="normal" in2="BackgroundImageFix" result="effect1_dropShadow"/>
<feBlend mode="normal" in="SourceGraphic" in2="effect1_dropShadow" result="shape"/>
</filter>
</defs>
</svg>
