<svg width="137" height="65" viewBox="0 0 137 65" fill="none" xmlns="http://www.w3.org/2000/svg">
<g filter="url(#filter0_d)">
<path d="M40.8662 28.1948H45.1148V36.8489H40.8662V28.1948Z" fill="#D80A49"/>
<path d="M59.9824 21.7039H81.2219V26.0309H59.9824V21.7039Z" fill="#D80A49"/>
<path d="M93.9658 21.7039H115.205V26.0309H93.9658V21.7039Z" fill="#D80A49"/>
<path d="M130.072 30.3581V19.5401C130.072 19.5146 130.06 19.4882 130.058 19.46C130.054 19.2293 130.014 19.0013 129.939 18.783L123.567 1.42031C123.256 0.57515 122.463 0.0152338 121.577 0.0161143H37.3856C34.8888 0.0240376 32.5199 1.14563 30.9038 3.08421L18.1174 20.1546L12.4057 24.5169C10.2719 26.1552 9.0144 28.718 9.00749 31.4401V36.8491H6.88406C5.71043 36.8491 4.75977 37.8175 4.75977 39.0131V47.6671C4.75977 48.8618 5.71043 49.8302 6.88406 49.8302H14.1817C16.4952 55.2841 22.7108 57.7949 28.0648 55.4373C30.533 54.3509 32.5018 52.3454 33.5691 49.8302H97.0153C99.3142 55.2788 105.514 57.7967 110.863 55.4549C113.488 54.3051 115.543 52.1191 116.556 49.3979L128.45 43.3401H130.072C131.246 43.3401 132.197 42.3708 132.197 41.1761V32.5221C132.197 31.3274 131.246 30.3581 130.072 30.3581ZM120.105 4.34314L124.888 17.377H120.925L116.142 4.34314H120.105ZM34.1888 5.82128C34.996 4.88193 36.1609 4.34314 37.3856 4.34314H42.991V19.5401H23.9182L34.1888 5.82128ZM14.135 41.2633C13.8584 41.9077 13.645 42.5786 13.4972 43.2661C13.4972 43.2908 13.4972 43.3137 13.4851 43.3401C13.3373 44.0514 13.2613 44.776 13.2595 45.5032H9.00749V41.1761H14.1627C14.1497 41.2043 14.1454 41.2351 14.135 41.2633ZM30.0154 47.1239C29.0777 50.5794 25.5671 52.606 22.1759 51.6499C19.4535 50.8831 17.5513 48.3811 17.5038 45.504C17.5513 41.9394 20.3765 39.0624 23.875 39.0131C27.3388 38.9567 30.1917 41.7704 30.247 45.2989C30.2565 45.9152 30.1787 46.5305 30.0154 47.1239ZM51.4865 45.504H34.4947C34.4878 39.5316 29.7371 34.6931 23.875 34.686C23.2743 34.6887 22.6754 34.745 22.0843 34.8542C21.8933 34.8894 21.7109 34.9519 21.5216 34.9977C21.1267 35.0866 20.736 35.1984 20.3532 35.3331C20.1415 35.4123 19.9288 35.5162 19.7162 35.6095C19.3766 35.7574 19.0439 35.9221 18.7198 36.1034C18.508 36.2284 18.2954 36.3711 18.0828 36.5119C17.9109 36.629 17.7259 36.7285 17.5582 36.8491H13.2552V31.4401C13.2587 30.079 13.8878 28.7981 14.9543 27.9785L20.3342 23.868H45.1144C46.2872 23.868 47.2387 22.8987 47.2387 21.7041V4.34314H51.4865V45.504ZM85.47 45.504H55.7342V4.34314H85.47V45.504ZM112.85 47.1239C111.916 50.5222 108.454 52.5056 105.119 51.554C101.783 50.6023 99.8362 47.0764 100.77 43.679C101.705 40.2808 105.166 38.2973 108.501 39.249C111.246 40.0316 113.127 42.6015 113.081 45.504C113.072 46.0516 112.993 46.5966 112.85 47.1239ZM119.629 42.0327C119.671 42.1076 119.717 42.1798 119.767 42.2493C119.857 42.4245 119.97 42.5856 120.103 42.73L120.115 42.7511L117.253 44.2099C117.234 44.0497 117.181 43.9026 117.155 43.7442C117.104 43.4352 117.038 43.1367 116.962 42.8383C116.87 42.472 116.76 42.1111 116.63 41.7563C116.526 41.4728 116.418 41.1981 116.289 40.9252C116.13 40.5854 115.952 40.2535 115.76 39.9322C115.608 39.6795 115.458 39.433 115.288 39.1927C115.066 38.8916 114.828 38.6028 114.577 38.3272C114.387 38.1107 114.203 37.8941 113.997 37.6969C113.718 37.4346 113.425 37.188 113.119 36.9574C112.907 36.7866 112.694 36.6088 112.455 36.4556C112.116 36.2408 111.766 36.0471 111.406 35.8736C111.17 35.7548 110.947 35.6183 110.701 35.5162C110.284 35.3534 109.859 35.2178 109.426 35.1095C109.213 35.0514 109.001 34.9651 108.789 34.9211C108.109 34.7802 107.417 34.7072 106.724 34.7054C100.862 34.7124 96.1113 39.551 96.1044 45.5234H89.7177V4.34314H111.607L117.462 20.2999C117.773 21.145 118.567 21.7041 119.453 21.7041H125.825V30.3581H121.577C120.403 30.3581 119.453 31.3274 119.453 32.5221V41.1761C119.453 41.4711 119.513 41.7633 119.629 42.0327ZM127.949 39.0131H123.701V34.686H127.949V39.0131Z" fill="#D80A49"/>
</g>
<defs>
<filter id="filter0_d" x="0.759766" y="0.0161133" width="135.437" height="64.3142" filterUnits="userSpaceOnUse" color-interpolation-filters="sRGB">
<feFlood flood-opacity="0" result="BackgroundImageFix"/>
<feColorMatrix in="SourceAlpha" type="matrix" values="0 0 0 0 0 0 0 0 0 0 0 0 0 0 0 0 0 0 127 0" result="hardAlpha"/>
<feOffset dy="4"/>
<feGaussianBlur stdDeviation="2"/>
<feColorMatrix type="matrix" values="0 0 0 0 0.847059 0 0 0 0 0.0392157 0 0 0 0 0.286275 0 0 0 0.3 0"/>
<feBlend mode="normal" in2="BackgroundImageFix" result="effect1_dropShadow"/>
<feBlend mode="normal" in="SourceGraphic" in2="effect1_dropShadow" result="shape"/>
</filter>
</defs>
</svg>
