<svg width="190" height="170" viewBox="0 0 190 170" fill="none" xmlns="http://www.w3.org/2000/svg">
<path d="M188.333 65.0114C188.265 65.0115 188.199 64.9907 188.143 64.9519L95.9566 0.960872C95.676 0.767043 95.3427 0.663456 95.0013 0.664036C94.66 0.664617 94.327 0.769334 94.0471 0.964117L2.52483 64.9512C2.45244 65.0019 2.36285 65.0217 2.27576 65.0065C2.18867 64.9913 2.11121 64.9422 2.06043 64.87C2.00966 64.7979 1.98972 64.7086 2.005 64.6217C2.02029 64.5349 2.06955 64.4577 2.14194 64.4071L93.6643 0.420005C94.0561 0.147351 94.5224 0.000785959 95.0003 3.15217e-06C95.4781 -0.000779655 95.9448 0.144256 96.3376 0.415625L188.524 64.4065C188.582 64.4469 188.626 64.5048 188.649 64.5718C188.672 64.6388 188.673 64.7113 188.651 64.7788C188.63 64.8463 188.588 64.9052 188.53 64.9471C188.473 64.9889 188.404 65.0115 188.333 65.0114L188.333 65.0114Z" fill="#1B191B"/>
<path d="M7.75464 67.2797L95.092 2.76392L183.092 71.8703L99.592 121.208L54.2586 110.909L7.75464 67.2797Z" fill="#E6E6E6"/>
<path d="M58.0852 151.682H14.9384C14.6735 151.683 14.4111 151.631 14.1662 151.53C13.9214 151.429 13.6989 151.281 13.5114 151.095C13.3239 150.908 13.1752 150.686 13.0738 150.443C12.9723 150.199 12.9201 149.937 12.9201 149.673C12.9201 149.409 12.9723 149.147 13.0738 148.904C13.1752 148.66 13.3239 148.438 13.5114 148.251C13.6989 148.065 13.9214 147.917 14.1662 147.816C14.4111 147.715 14.6735 147.663 14.9384 147.664H58.0852C58.3502 147.663 58.6126 147.715 58.8574 147.816C59.1023 147.917 59.3248 148.065 59.5123 148.251C59.6997 148.438 59.8484 148.66 59.9499 148.904C60.0514 149.147 60.1036 149.409 60.1036 149.673C60.1036 149.937 60.0514 150.199 59.9499 150.443C59.8484 150.686 59.6997 150.908 59.5123 151.095C59.3248 151.281 59.1023 151.429 58.8574 151.53C58.6126 151.631 58.3502 151.683 58.0852 151.682Z" fill="#D80A49"/>
<path d="M30.4185 143.044H14.9384C14.6735 143.044 14.4111 142.993 14.1662 142.892C13.9214 142.791 13.6989 142.643 13.5114 142.456C13.3239 142.27 13.1752 142.048 13.0738 141.804C12.9723 141.56 12.9201 141.299 12.9201 141.035C12.9201 140.771 12.9723 140.509 13.0738 140.265C13.1752 140.021 13.3239 139.8 13.5114 139.613C13.6989 139.427 13.9214 139.279 14.1662 139.178C14.4111 139.077 14.6735 139.025 14.9384 139.026H30.4185C30.6835 139.025 30.9459 139.077 31.1908 139.178C31.4356 139.279 31.6581 139.427 31.8456 139.613C32.0331 139.8 32.1818 140.021 32.2832 140.265C32.3847 140.509 32.4369 140.771 32.4369 141.035C32.4369 141.299 32.3847 141.56 32.2832 141.804C32.1818 142.048 32.0331 142.27 31.8456 142.456C31.6581 142.643 31.4356 142.791 31.1908 142.892C30.9459 142.993 30.6835 143.044 30.4185 143.044Z" fill="#D80A49"/>
<path d="M96.32 103.214C95.9921 103.215 95.6672 103.151 95.3636 103.028L41.5001 80.7511V11.022C41.5008 10.4055 41.7468 9.81432 42.1843 9.37832C42.6217 8.94233 43.2148 8.69707 43.8334 8.69635H147.167C147.785 8.69707 148.378 8.94233 148.816 9.37832C149.253 9.81432 149.499 10.4055 149.5 11.022V80.7997L149.399 80.8429L97.3054 103.017C96.9934 103.147 96.6584 103.214 96.32 103.214Z" fill="white"/>
<path d="M96.32 103.38C95.9703 103.381 95.6239 103.313 95.3002 103.181L41.3334 80.862V11.022C41.3341 10.3614 41.5978 9.72802 42.0664 9.26088C42.5351 8.79373 43.1706 8.53096 43.8334 8.53021H147.167C147.83 8.53096 148.465 8.79373 148.934 9.26088C149.402 9.72802 149.666 10.3614 149.667 11.022V80.9094L97.3708 103.169C97.0382 103.309 96.6809 103.381 96.32 103.38ZM42 80.4182L95.5544 102.567C96.0539 102.769 96.6133 102.766 97.1104 102.558L149 80.4707V11.022C148.999 10.5376 148.806 10.0731 148.462 9.73055C148.119 9.38798 147.653 9.19527 147.167 9.1947H43.8334C43.3473 9.19527 42.8814 9.38798 42.5377 9.73055C42.194 10.0731 42.0006 10.5376 42.0001 11.022L42 80.4182Z" fill="#1B191B"/>
<path d="M187.667 64.3469H187.6L149.333 80.6334L96.9767 102.917C96.7721 103.003 96.5526 103.047 96.3307 103.049C96.1087 103.05 95.8887 103.007 95.6833 102.924L41.6667 80.5869L2.45996 64.3735L2.40006 64.3469H2.33333C1.71471 64.3476 1.12161 64.5929 0.684174 65.0289C0.246737 65.4649 0.000686417 66.056 0 66.6726V167.674C0.000687297 168.291 0.246738 168.882 0.684174 169.318C1.12161 169.754 1.71471 169.999 2.33333 170H187.667C188.285 169.999 188.878 169.754 189.316 169.318C189.753 168.882 189.999 168.291 190 167.674V66.6726C189.999 66.056 189.753 65.4649 189.316 65.0289C188.878 64.5929 188.285 64.3476 187.667 64.3469ZM189.333 167.674C189.333 168.115 189.158 168.537 188.845 168.849C188.532 169.16 188.109 169.335 187.667 169.335H2.33333C1.89136 169.335 1.46754 169.16 1.15502 168.849C0.842497 168.537 0.666843 168.115 0.666667 167.674V66.6726C0.667271 66.243 0.834454 65.8303 1.13326 65.5207C1.43207 65.2111 1.83937 65.0286 2.27002 65.0114L41.6667 81.3046L95.4268 103.538C96.0087 103.774 96.6608 103.771 97.2401 103.528L149.333 81.3544L187.733 65.0114C188.163 65.0299 188.57 65.2129 188.867 65.5223C189.165 65.8317 189.332 66.2437 189.333 66.6726V167.674Z" fill="#1B191B"/>
<path d="M95.7816 83.4416C93.7931 83.4453 91.8574 82.8044 90.2663 81.6156L90.1677 81.5418L69.3974 65.6913C68.4354 64.9567 67.6281 64.0404 67.0215 62.9949C66.4148 61.9493 66.0207 60.7948 65.8617 59.5974C65.7027 58.4 65.7819 57.1831 66.0947 56.0162C66.4075 54.8493 66.9478 53.7552 67.6848 52.7964C68.4219 51.8377 69.3411 51.033 70.3902 50.4283C71.4392 49.8237 72.5974 49.4309 73.7988 49.2724C75.0001 49.1139 76.221 49.1928 77.3917 49.5046C78.5625 49.8163 79.6601 50.3549 80.6221 51.0895L94.0755 61.3717L125.868 20.0452C126.605 19.0866 127.525 18.2823 128.574 17.678C129.624 17.0737 130.782 16.6813 131.983 16.5232C133.185 16.3651 134.406 16.4445 135.576 16.7567C136.747 17.0689 137.844 17.6079 138.806 18.3429L138.608 18.6104L138.811 18.3468C140.751 19.8328 142.02 22.025 142.34 24.4425C142.66 26.8601 142.005 29.3055 140.519 31.2423L103.123 79.8522C102.258 80.9723 101.146 81.8788 99.8728 82.5013C98.5997 83.1238 97.1997 83.4455 95.7816 83.4416Z" fill="#D80A49"/>
</svg>
