<svg width="275" height="214" viewBox="0 0 275 214" fill="none" xmlns="http://www.w3.org/2000/svg">
<g clip-path="url(#clip0)">
<path d="M203.742 122.257L149.13 53.886C146.65 56.158 143.595 57.7035 140.298 58.3539C130.016 60.3825 119.976 53.3485 117.871 42.6431C116.383 35.0756 119.263 27.7033 124.709 23.3127L106.088 0L3.8147e-06 90.8357L97.6547 213.093L203.742 122.257Z" fill="#5C5C5D" fill-opacity="0.28"/>
<path d="M23.2873 213.716H275" stroke="#878789" stroke-width="2" stroke-miterlimit="10"/>
<path d="M175.584 20.3535C177.894 20.3535 179.766 18.4775 179.766 16.1632C179.766 13.8489 177.894 11.9729 175.584 11.9729C173.274 11.9729 171.401 13.8489 171.401 16.1632C171.401 18.4775 173.274 20.3535 175.584 20.3535Z" stroke="#5C5C5D" stroke-width="2" stroke-miterlimit="10"/>
<path d="M230.858 142.183C233.168 142.183 235.041 140.307 235.041 137.992C235.041 135.678 233.168 133.802 230.858 133.802C228.548 133.802 226.676 135.678 226.676 137.992C226.676 140.307 228.548 142.183 230.858 142.183Z" stroke="#5C5C5D" stroke-width="2" stroke-miterlimit="10"/>
<path d="M48.3854 30.8609C50.6954 30.8609 52.568 28.9848 52.568 26.6706C52.568 24.3563 50.6954 22.4802 48.3854 22.4802C46.0754 22.4802 44.2028 24.3563 44.2028 26.6706C44.2028 28.9848 46.0754 30.8609 48.3854 30.8609Z" stroke="#5C5C5D" stroke-width="2" stroke-miterlimit="10"/>
<path d="M135.884 55.1055C144.387 55.1055 151.28 48.1997 151.28 39.6809C151.28 31.1621 144.387 24.2563 135.884 24.2563C127.381 24.2563 120.488 31.1621 120.488 39.6809C120.488 48.1997 127.381 55.1055 135.884 55.1055Z" fill="#5C5C5D" fill-opacity="0.4"/>
<path d="M44.4704 31.062H112.675C115.967 31.062 119.16 32.1839 121.73 34.2431C124.301 36.3024 126.096 39.1766 126.819 42.3932L161.282 195.536C161.658 197.207 161.664 198.939 161.301 200.613C160.938 202.286 160.214 203.859 159.18 205.222C158.146 206.586 156.826 207.706 155.314 208.504C153.802 209.302 152.134 209.76 150.427 209.844L80.3121 213.305C76.5576 213.49 72.8641 212.301 69.9208 209.958C66.9775 207.616 64.9854 204.281 64.3163 200.575L44.767 92.3008L43.3126 92.7172L39.5721 72.1952L41.0691 71.8202L35.6122 41.5971C35.3785 40.3026 35.4327 38.9723 35.771 37.7012C36.1093 36.4301 36.7233 35.2494 37.5692 34.2433C38.4152 33.2371 39.4723 32.4304 40.6652 31.8805C41.8581 31.3306 43.1574 31.0512 44.4704 31.062Z" fill="#1B191B"/>
<path d="M103.696 34.3634H111.658C113.944 34.3634 116.162 35.1468 117.943 36.5836C119.723 38.0203 120.96 40.024 121.447 42.262L154.527 194.156C154.717 195.03 154.717 195.936 154.526 196.81C154.335 197.685 153.959 198.507 153.421 199.223C152.884 199.938 152.199 200.528 151.413 200.954C150.627 201.379 149.758 201.63 148.867 201.689L78.9786 206.277C77.0069 206.407 75.0567 205.805 73.5001 204.585C71.9435 203.366 70.8895 201.615 70.5392 199.667L42.3123 42.67C42.1297 41.6538 42.1718 40.6099 42.4358 39.6119C42.6998 38.6138 43.1792 37.6859 43.8402 36.8938C44.5012 36.1016 45.3277 35.4645 46.2613 35.0272C47.195 34.59 48.213 34.3634 49.2436 34.3634H56.7964C57.5274 34.3634 58.238 34.6049 58.8182 35.0503C59.3984 35.4958 59.8159 36.1205 60.0059 36.8277C60.1737 37.452 60.5422 38.0035 61.0544 38.3967C61.5667 38.79 62.194 39.0032 62.8394 39.0032H98.6952C99.9589 39.0032 101.176 38.5253 102.103 37.6651C103.03 36.8049 103.599 35.6257 103.696 34.3634L103.696 34.3634Z" fill="#D80A49"/>
<path d="M125.962 73.6228H53.6437V73.9797H125.962V73.6228Z" fill="#2F2E41"/>
<path d="M128.812 85.2222H55.7812V85.5791H128.812V85.2222Z" fill="#2F2E41"/>
<path d="M58.2106 73.0577L59.8538 70.8628L59.5689 70.6487L58.1488 72.5457L52.6763 68.0598L52.4509 68.3364L58.2106 73.0577Z" fill="#2F2E41"/>
<path d="M67.6512 124.809L69.2944 122.614L69.0095 122.4L67.5891 124.297L62.1166 119.811L61.8913 120.087L67.6512 124.809Z" fill="#2F2E41"/>
<path d="M136.823 124.839L61.1211 126.445L61.1287 126.801L136.831 125.195L136.823 124.839Z" fill="#2F2E41"/>
<path d="M139.139 135.367L62.0114 137.152L62.0196 137.509L139.147 135.724L139.139 135.367Z" fill="#2F2E41"/>
<path opacity="0.1" d="M91.8511 165.793C91.8511 170.289 93.6339 174.601 96.8073 177.781C99.9808 180.96 104.285 182.746 108.773 182.746C113.261 182.746 117.565 180.96 120.738 177.781C123.912 174.601 125.694 170.289 125.694 165.793C125.694 165.581 125.691 165.37 125.682 165.16C125.516 160.722 123.619 156.526 120.398 153.474C117.176 150.423 112.889 148.76 108.456 148.843C104.024 148.926 99.8011 150.749 96.6958 153.918C93.5906 157.088 91.851 161.352 91.8511 165.793H91.8511Z" fill="black"/>
<path opacity="0.1" d="M93.4542 172.396C93.4542 172.608 93.4578 172.819 93.4667 173.029C95.1082 176.513 97.8847 179.332 101.339 181.024C104.794 182.716 108.72 183.178 112.472 182.336C116.224 181.493 119.577 179.396 121.981 176.389C124.384 173.382 125.694 169.645 125.694 165.793C125.694 165.581 125.691 165.37 125.682 165.16C124.041 161.676 121.264 158.857 117.81 157.165C114.355 155.474 110.429 155.011 106.677 155.853C102.925 156.696 99.5712 158.793 97.1678 161.8C94.7644 164.807 93.4547 168.544 93.4542 172.396H93.4542Z" fill="black"/>
<path d="M196.425 77.1631C202.186 77.1631 206.856 72.4842 206.856 66.7126C206.856 60.9409 202.186 56.262 196.425 56.262C190.664 56.262 185.993 60.9409 185.993 66.7126C185.993 72.4842 190.664 77.1631 196.425 77.1631Z" fill="#1B191B"/>
<path d="M207.678 197.671L209.663 206.191H204.844L202.859 196.535L207.678 197.671Z" fill="#9F616A"/>
<path d="M184.435 197.671V205.623L179.616 206.191V197.671H184.435Z" fill="#9F616A"/>
<path d="M209.096 107.364C209.096 107.364 208.529 119.575 207.962 120.427C207.395 121.279 202.292 133.491 202.292 133.491L199.741 125.539C199.741 125.539 203.71 119.007 203.143 115.316C202.576 111.624 202.933 107.081 202.933 107.081L209.096 107.364Z" fill="#9F616A"/>
<path d="M192.938 77.8297C197.322 77.8297 200.875 74.2697 200.875 69.8782C200.875 65.4867 197.322 61.9266 192.938 61.9266C188.555 61.9266 185.001 65.4867 185.001 69.8782C185.001 74.2697 188.555 77.8297 192.938 77.8297Z" fill="#9F616A"/>
<path d="M199.458 70.7302C199.458 70.7302 199.174 82.0895 201.159 83.7934C203.143 85.4973 189.82 84.0774 189.82 84.0774C189.82 84.0774 192.655 76.1259 190.387 74.422C188.119 72.718 199.458 70.7302 199.458 70.7302Z" fill="#9F616A"/>
<path d="M188.97 83.5094C188.97 83.5094 190.671 80.3856 192.938 80.6696C195.206 80.9535 202.576 81.5215 202.859 82.0895C203.143 82.6574 203.993 84.6453 204.56 85.2133C205.127 85.7813 209.379 86.6332 209.662 90.041C209.946 93.4488 199.458 114.18 199.458 114.18C199.458 114.18 200.875 119.007 200.592 120.143C200.308 121.279 202.009 124.687 201.726 126.107C201.442 127.527 205.977 136.046 203.71 147.122V165.013C203.71 165.013 211.363 195.967 209.096 198.239C206.828 200.511 199.174 199.091 197.757 198.239C196.34 197.387 190.387 154.505 190.387 154.505L187.553 140.022L187.269 171.828C187.269 171.828 187.836 198.523 185.852 199.375C183.868 200.227 176.214 200.511 175.647 198.807C175.205 197.478 173.039 162.119 172.107 146.62C171.784 141.27 172.204 135.901 173.355 130.667C174.534 125.306 176.247 119.008 178.198 116.452C181.883 111.624 184.151 96.2887 184.151 96.2887L179.332 87.4852C179.332 87.4852 182.167 84.6453 183.868 84.6453C185.568 84.6453 188.97 83.5094 188.97 83.5094Z" fill="#5C5C5D"/>
<path d="M207.962 88.0532L209.457 89.0725C209.457 89.0725 210.513 107.364 209.662 108.5C208.812 109.636 202.9 109.082 202.454 108.081C202.009 107.08 207.962 88.0532 207.962 88.0532Z" fill="#878789"/>
<path d="M182.684 104.684C183.513 110.451 184.241 115.585 179.998 120.229C175.734 124.929 170.925 129.102 165.674 132.659C165.153 134.04 157.514 144.181 157.126 140.136C156.737 136.091 159.376 132.92 163.127 129.499C166.877 126.078 172.125 118.656 175.085 114.584C178.046 110.512 176.827 107.972 176.724 104.57C176.621 101.169 181.52 104.725 182.684 104.684Z" fill="#9F616A"/>
<path d="M179.616 201.022C179.616 201.022 179.332 204.203 178.482 205.055C177.631 205.906 175.364 207.042 175.647 210.166C175.931 213.29 177.773 213.432 177.773 213.432L177.631 212.722L178.482 213.006L178.624 213.432H186.56C186.56 213.432 186.702 210.45 186.419 209.03C186.135 207.61 186.135 200.795 185.285 201.079C184.434 201.363 182.167 201.647 181.6 202.783C181.033 203.919 179.332 203.521 179.616 201.022Z" fill="#8A062E"/>
<path d="M208.529 201.022C208.529 201.022 208.812 204.203 209.662 205.055C210.513 205.906 212.78 207.042 212.497 210.166C212.214 213.29 210.371 213.432 210.371 213.432L210.513 212.722L209.662 213.006L209.521 213.432H201.584C201.584 213.432 201.442 210.45 201.726 209.03C202.009 207.61 202.009 200.795 202.859 201.079C203.71 201.363 205.977 201.647 206.544 202.783C207.111 203.919 208.812 203.521 208.529 201.022Z" fill="#8A062E"/>
<path d="M183.301 86.6332L179.332 87.4852C179.332 87.4852 179.332 93.7328 178.198 96.2887C177.065 98.8446 175.08 104.808 175.931 105.092C176.781 105.376 184.718 109.352 185.285 107.08C185.852 104.808 187.269 86.6332 183.301 86.6332Z" fill="#878789"/>
<path d="M207.725 63.4032C213.486 63.4032 218.157 58.7243 218.157 52.9526C218.157 47.181 213.486 42.5021 207.725 42.5021C201.964 42.5021 197.294 47.181 197.294 52.9526C197.294 58.7243 201.964 63.4032 207.725 63.4032Z" fill="#5C5C5D"/>
<path d="M216.723 61.6064C215.373 62.584 213.809 63.2235 212.161 63.4713C210.514 63.7191 208.831 63.5681 207.254 63.0308C205.677 62.4935 204.251 61.5857 203.096 60.3832C201.941 59.1806 201.09 57.7185 200.614 56.119C200.794 57.5524 201.269 58.9329 202.008 60.1733C202.747 61.4136 203.735 62.487 204.91 63.3255C206.084 64.1641 207.419 64.7496 208.831 65.0451C210.242 65.3407 211.7 65.3398 213.111 65.0426C214.522 64.7454 215.856 64.1583 217.03 63.3183C218.203 62.4784 219.19 61.4039 219.927 60.1626C220.665 58.9213 221.138 57.5403 221.316 56.1066C221.495 54.673 221.374 53.2179 220.963 51.8333C221.197 53.6935 220.926 55.5826 220.18 57.3021C219.434 59.0217 218.24 60.5084 216.723 61.6064Z" fill="#5C5C5D"/>
<path d="M199.206 76.118C203.431 76.118 206.856 72.6869 206.856 68.4543C206.856 64.2217 203.431 60.7906 199.206 60.7906C194.982 60.7906 191.557 64.2217 191.557 68.4543C191.557 72.6869 194.982 76.118 199.206 76.118Z" fill="#5C5C5D"/>
<path d="M196.5 71C202.299 71 207 67.6421 207 63.5C207 59.3579 202.299 56 196.5 56C190.701 56 186 59.3579 186 63.5C186 67.6421 190.701 71 196.5 71Z" fill="#5C5C5D"/>
<path d="M190.965 73.3049C191.676 73.3049 192.252 72.2837 192.252 71.024C192.252 69.7643 191.676 68.743 190.965 68.743C190.255 68.743 189.678 69.7643 189.678 71.024C189.678 72.2837 190.255 73.3049 190.965 73.3049Z" fill="#A0616A"/>
</g>
<defs>
<clipPath id="clip0">
<rect width="275" height="214" fill="white"/>
</clipPath>
</defs>
</svg>
