<svg width="276" height="203" viewBox="0 0 276 203" fill="none" xmlns="http://www.w3.org/2000/svg">
<g clip-path="url(#clip0)">
<path d="M26.8572 143.754C37.525 157.956 50.1131 163.24 74.6006 173.137C124.701 193.383 181.711 197.88 223.617 179.712C254.259 166.435 268.354 146.637 274.722 103.883C279.975 68.5788 269.018 20.1636 241.844 9.3774C212.816 -2.14385 188.471 38.4862 148.073 26.211C126.437 19.6397 126.533 5.89599 104.332 1.25024C78.9212 -4.05775 50.3101 7.98891 32.5741 27.5354C2.78555 60.3701 4.27096 113.693 26.8572 143.754Z" fill="#F2F2F2"/>
<path d="M82.2247 46.9771H38.0124V138.233H82.2247V46.9771Z" fill="#D3D3D3"/>
<path d="M127.896 68.372H94.0438V138.233H127.896V68.372Z" fill="#D3D3D3"/>
<path d="M169.92 55.5642H121.622V138.233H169.92V55.5642Z" fill="#D3D3D3"/>
<path d="M249.589 78.7057H198.373V138.233H249.589V78.7057Z" fill="#D3D3D3"/>
<path d="M267.931 135H19V147.662H267.931V135Z" fill="#5C5C5D"/>
<path d="M131.904 120.603C131.904 120.002 131.793 120.095 131.191 120.095H119.191C118.588 120.095 118.101 120.292 118.101 120.893L119.191 127.351C119.191 127.95 119.68 128.369 120.282 128.369H131.191C131.793 128.369 131.904 127.735 131.904 127.134V120.603Z" fill="black"/>
<path d="M215.18 104.284C215.18 104.284 234.763 104.837 241.268 105.371C249.001 106.005 263.739 109.621 263.739 115.662C263.739 124.411 257.173 130.668 251.99 130.668C220.131 130.668 131.277 130.396 131.277 130.396C131.277 130.396 127.569 131.183 124.385 126.259C121.202 121.335 113.88 111.174 119.37 107.44C119.37 107.44 139.507 93.5438 160.444 93.5438C160.444 93.5438 172.923 93.1072 178.438 93.0548C187.088 92.9617 193.487 93.0679 215.18 104.284Z" fill="#D80A49"/>
<path d="M261.041 113.97C260.803 114.686 257.2 114.141 252.992 112.753C248.784 111.364 245.565 109.661 245.803 108.945C246.041 108.229 249.644 108.774 253.85 110.161C258.057 111.548 261.277 113.253 261.041 113.97Z" fill="#C2C2C2"/>
<path d="M121.661 110.228C121.663 109.601 121.519 108.982 121.241 108.42C120.962 107.859 120.557 107.369 120.056 106.991C119.618 107.282 119.376 107.44 119.376 107.44C117.187 108.928 117.041 111.44 117.845 114.233C119.957 114.192 121.661 112.421 121.661 110.228Z" fill="#C2C2C2"/>
<path d="M163.342 124.469C163.342 127.15 162.545 129.77 161.053 132C159.56 134.229 157.437 135.966 154.954 136.992C152.472 138.019 149.739 138.287 147.103 137.765C144.467 137.242 142.046 135.951 140.145 134.056C138.244 132.16 136.95 129.745 136.425 127.116C135.9 124.487 136.169 121.762 137.198 119.285C138.226 116.808 139.967 114.691 142.202 113.201C144.436 111.711 147.064 110.916 149.751 110.916C151.536 110.916 153.303 111.266 154.952 111.947C156.601 112.628 158.099 113.626 159.361 114.885C160.623 116.143 161.624 117.638 162.307 119.282C162.99 120.926 163.342 122.689 163.342 124.469Z" fill="black"/>
<path d="M158.887 124.469C158.887 126.271 158.352 128.033 157.348 129.531C156.345 131.029 154.918 132.197 153.25 132.887C151.581 133.577 149.744 133.758 147.972 133.407C146.2 133.055 144.572 132.188 143.295 130.914C142.017 129.64 141.147 128.017 140.794 126.249C140.441 124.482 140.622 122.65 141.313 120.985C142.004 119.32 143.175 117.897 144.677 116.896C146.179 115.894 147.945 115.36 149.751 115.359C152.174 115.359 154.497 116.319 156.21 118.027C157.923 119.736 158.886 122.053 158.887 124.469Z" fill="#F2F2F2"/>
<path d="M151.968 124.47C151.968 124.907 151.838 125.334 151.594 125.698C151.351 126.061 151.005 126.344 150.6 126.512C150.196 126.679 149.75 126.722 149.321 126.637C148.891 126.552 148.496 126.342 148.187 126.033C147.877 125.724 147.666 125.33 147.58 124.901C147.495 124.473 147.539 124.029 147.706 123.625C147.874 123.221 148.158 122.876 148.522 122.633C148.886 122.391 149.315 122.261 149.753 122.261C150.34 122.261 150.904 122.494 151.319 122.908C151.734 123.322 151.968 123.884 151.968 124.47Z" fill="#5C5C5D"/>
<path d="M248.422 124.469C248.422 127.15 247.626 129.77 246.133 132C244.64 134.229 242.518 135.966 240.035 136.992C237.552 138.019 234.819 138.287 232.183 137.765C229.547 137.242 227.126 135.951 225.225 134.056C223.324 132.16 222.03 129.745 221.505 127.116C220.981 124.487 221.249 121.762 222.278 119.285C223.306 116.808 225.048 114.691 227.282 113.201C229.517 111.711 232.144 110.916 234.832 110.916C236.616 110.916 238.383 111.266 240.032 111.947C241.681 112.628 243.179 113.626 244.441 114.885C245.703 116.143 246.704 117.638 247.387 119.282C248.07 120.926 248.422 122.689 248.422 124.469Z" fill="black"/>
<path d="M243.967 124.469C243.967 126.271 243.431 128.032 242.427 129.53C241.423 131.028 239.997 132.196 238.328 132.885C236.659 133.575 234.822 133.755 233.051 133.403C231.279 133.052 229.651 132.184 228.374 130.91C227.097 129.636 226.227 128.012 225.874 126.245C225.522 124.478 225.703 122.646 226.394 120.981C227.085 119.317 228.255 117.894 229.757 116.892C231.259 115.891 233.025 115.357 234.832 115.356C237.254 115.356 239.578 116.316 241.291 118.025C243.005 119.734 243.967 122.052 243.967 124.469Z" fill="#F2F2F2"/>
<path d="M237.05 124.47C237.05 124.908 236.92 125.335 236.677 125.699C236.433 126.063 236.087 126.346 235.682 126.514C235.277 126.681 234.832 126.725 234.402 126.64C233.972 126.555 233.576 126.345 233.266 126.036C232.956 125.726 232.745 125.333 232.659 124.904C232.574 124.475 232.617 124.03 232.785 123.626C232.953 123.222 233.237 122.877 233.602 122.634C233.966 122.391 234.395 122.261 234.833 122.261C235.421 122.261 235.984 122.494 236.4 122.908C236.815 123.322 237.049 123.884 237.05 124.47Z" fill="#5C5C5D"/>
<path d="M223.618 127.393H160.199V130.799H223.618V127.393Z" fill="black"/>
<path d="M144.919 99.3641C144.335 99.664 142.876 101.869 146.872 103.41C150.869 104.952 155.37 106.957 166.006 106.957H201.001C201.001 106.957 208.987 106.759 215.181 104.532C207.404 100.511 201.596 97.7981 196.942 96.1302C152.834 94.2294 147.134 98.2216 144.919 99.3641Z" fill="#C2C2C2"/>
<path d="M160.199 94.7911H158.248V107.929H160.199V94.7911Z" fill="#5C5C5D"/>
<path d="M184.316 93.5271L183.319 95.4627L208.53 108.375L209.526 106.439L184.316 93.5271Z" fill="#5C5C5D"/>
<path d="M172.642 112.309C172.642 112.91 172.155 113.283 171.551 113.283H166.098C165.496 113.283 165.007 112.91 165.007 112.309C165.007 111.709 165.496 111.337 166.098 111.337H171.551C172.155 111.337 172.642 111.709 172.642 112.309Z" fill="#57041D"/>
<path d="M189.764 42.1742H155.766V76.0858H189.764V42.1742Z" fill="white"/>
<path d="M106.455 113.443C106.253 113.443 106.053 113.478 105.863 113.546V118.931C106.053 118.999 106.253 119.035 106.455 119.036C107.837 119.036 109.588 117.783 109.588 116.238C109.588 114.694 107.837 113.443 106.455 113.443Z" fill="#FFE3CA"/>
<path d="M106.665 106.51C106.383 106.508 106.105 106.583 105.863 106.729V112.696C106.105 112.84 106.383 112.915 106.665 112.913C108.047 112.913 109.797 111.479 109.797 109.711C109.797 107.943 108.047 106.51 106.665 106.51Z" fill="#FFE3CA"/>
<path d="M108.692 87.9666C107.734 87.8073 106.75 87.9329 105.863 88.3276V94.6515C108.301 94.7199 109.902 92.2791 110.532 90.1542C111.043 88.4309 108.692 87.9666 108.692 87.9666Z" fill="#FFE3CA"/>
<path d="M109.378 99.7978C108.19 98.5447 106.327 99.4587 105.863 99.7163V106.384L106.884 105.932C110.366 104.388 111.899 102.458 109.378 99.7978Z" fill="#FFE3CA"/>
<path d="M81.6191 111.482C81.6585 111.604 81.7081 111.747 81.749 111.868L81.7578 111.89C81.6965 111.718 81.6527 111.583 81.6191 111.482Z" fill="#F7BE89"/>
<path d="M81.6191 111.482C81.5315 111.227 81.4819 111.08 81.6191 111.482V111.482Z" fill="#F7BE89"/>
<path d="M81.8243 112.091C81.8171 112.065 81.7968 112.005 81.7592 111.897C81.7881 111.985 81.8142 112.059 81.8243 112.091Z" fill="#F7BE89"/>
<path d="M81.7598 111.897C81.7598 111.897 81.757 111.895 81.7598 111.897V111.897Z" fill="#F7BE89"/>
<path d="M81.758 111.89L81.749 111.868L81.758 111.892V111.89Z" fill="#F7BE89"/>
<path d="M69.1229 90.582C69.4555 90.0901 70.4142 87.3059 70.4142 87.3059C70.4142 87.3059 69.4132 86.338 68.7099 85.996C67.9424 86.7848 67.4901 88.9228 67.2202 90.6111L67.9877 90.7989C67.9877 90.7989 68.7887 91.0725 69.1229 90.582Z" fill="#FCD2B1"/>
<path d="M83.6634 130.71C81.8847 131.052 80.103 129.65 79.7061 127.595L75.7548 107.192C74.2037 108.418 72.8189 109.677 72.8189 109.677L70.8549 99.5214C70.8549 99.5214 72.5548 95.5728 72.9109 92.4814L72.1915 88.7642C71.6691 87.5228 70.8608 86.3569 69.7299 85.7908C69.3374 85.5943 69.0003 85.6962 68.7085 85.9975C69.4118 86.338 70.4128 87.3074 70.4128 87.3074C70.4128 87.3074 69.4541 90.0916 69.1215 90.5835C68.7888 91.0755 67.9862 90.8019 67.9862 90.8019L67.2202 90.6141C67.0422 91.7173 67.1005 91.5048 67.0422 91.7173C66.225 94.8014 63.3797 94.9688 63.7751 98.0834C64.2698 101.996 61.404 109.29 63.0455 112.435C64.5645 115.362 64.5353 118.866 65.119 122.07C65.2766 122.944 64.852 124.323 64.9891 124.944C63.781 126.972 56.259 133.954 56.259 133.954L69.2834 147.801C69.2834 147.801 77.8691 138.211 82.5033 136.345C89.5467 133.509 90.9314 130.97 92.4591 129.02L83.6634 130.71Z" fill="#FFE3CA"/>
<path d="M102.055 72.8301H78.1318C76.0558 72.8301 74.373 74.5087 74.373 76.5793V130.135C74.373 132.206 76.0558 133.884 78.1318 133.884H102.055C104.13 133.884 105.813 132.206 105.813 130.135V76.5793C105.813 74.5087 104.13 72.8301 102.055 72.8301Z" fill="#1B191B"/>
<path d="M100.962 74.3699H79.2247C77.2907 74.3699 75.7228 75.9338 75.7228 77.8629V128.853C75.7228 130.782 77.2907 132.346 79.2247 132.346H100.962C102.896 132.346 104.464 130.782 104.464 128.853V77.8629C104.464 75.9338 102.896 74.3699 100.962 74.3699Z" fill="white"/>
<path d="M83.8896 73.2784H96.2924V74.0672C96.2924 74.3847 96.2297 74.6991 96.1079 74.9924C95.9861 75.2857 95.8076 75.5522 95.5825 75.7767C95.3575 76.0011 95.0903 76.1792 94.7962 76.3007C94.5022 76.4222 94.187 76.4847 93.8687 76.4847H86.3132C85.6705 76.4847 85.054 76.23 84.5995 75.7767C84.1449 75.3233 83.8896 74.7084 83.8896 74.0672V73.2784Z" fill="#1B191B"/>
<path d="M106.505 151.964L102.273 142.519C100.96 139.578 99.7198 136.632 98.5438 133.659L98.5306 133.635C98.5306 133.635 100.553 146.187 100.827 147.596C101.509 151.089 105.144 153.751 107.484 156.099C107.93 156.548 114.526 162.737 114.526 162.737C114.088 162.275 113.63 161.744 113.108 161.101C110.774 158.226 108.041 155.39 106.505 151.964Z" fill="#FCD2B1"/>
<path d="M137.522 154.746C134.51 151.447 137.133 144.122 135.246 140.156C133.874 137.277 131.515 129.455 127.997 128.678C126.357 128.316 125.309 129.276 123.832 127.792C122.178 126.125 121.069 127.937 119.402 127.47C117.806 127.019 117.183 124.582 115.19 126.133C113.989 126.697 113.213 127.748 111.74 126.846C110.465 126.064 109.474 124.808 107.874 125.972C106.877 126.378 106.34 127.396 105.078 126.835C103.938 126.33 103.305 124.337 102.781 123.313L96.3915 110.861C95.786 109.682 95.0987 107.64 93.9562 107.031C90.1172 104.985 90.6002 111.632 91.2349 113.435L95.4533 125.379C96.4387 128.175 97.4703 130.935 98.5482 133.659C99.7242 136.632 100.959 139.578 102.278 142.519L106.509 151.964C108.046 155.39 110.78 158.222 113.108 161.099C113.63 161.743 114.088 162.274 114.526 162.735C115.88 164.162 117.024 164.918 119.159 166.228C121.711 167.796 126.244 173.553 126.244 173.553L143.046 163.594C143.046 163.594 138.722 156.058 137.522 154.746Z" fill="#FFE3CA"/>
<path d="M91.4757 107.864C91.4757 107.864 92.1309 110.286 92.9991 110.417C93.8673 110.548 95.8299 109.66 95.824 109.645C95.3002 108.677 94.8683 107.404 93.9563 106.994C93.7936 106.92 93.6264 106.858 93.4558 106.806C92.7072 106.951 91.8186 107.25 91.4757 107.864Z" fill="#FCD2B1"/>
<path d="M55.3602 130.79L72.5855 148.18L35.5318 192.958L0 182.976L55.3602 130.79Z" fill="#8A062E"/>
<path d="M121.251 173.536L145.221 159.357L174.443 199.361L139.423 203L121.251 173.536Z" fill="#8A062E"/>
</g>
<defs>
<clipPath id="clip0">
<rect width="276" height="203" fill="white"/>
</clipPath>
</defs>
</svg>
