<svg width="56" height="47" viewBox="0 0 56 47" fill="none" xmlns="http://www.w3.org/2000/svg">
<path d="M0.113747 32.5711C0.190174 34.1996 0.979922 35.5882 2.25372 36.6108C2.83966 37.0904 3.03073 37.608 3.01799 38.3149C2.99252 40.3348 3.01799 42.3546 3.01799 44.3618C3.01799 45.4727 3.61667 46.0534 4.69939 46.0913C6.07509 46.1292 7.43804 46.1418 8.81371 46.0913C10.0748 46.0407 10.5716 45.4853 10.597 44.1977C10.6226 42.7585 10.6608 41.3069 10.5843 39.8803C10.5334 38.8072 10.89 38.4538 11.9982 38.4664C17.31 38.517 22.6344 38.4917 27.9461 38.4917C33.3088 38.4917 38.6714 38.517 44.0213 38.4664C45.1296 38.4538 45.4862 38.8199 45.4352 39.893C45.3588 41.3321 45.397 42.7712 45.4225 44.2103C45.448 45.5484 45.9575 46.0661 47.3204 46.1039C48.607 46.1418 49.8935 46.1418 51.18 46.1039C52.4538 46.0661 52.9633 45.5358 52.9889 44.2482C53.0143 42.3546 53.027 40.4611 52.9889 38.5674C52.9633 37.6837 53.1672 37.0021 53.9059 36.4214C55.0651 35.525 55.7784 34.2374 55.8549 32.8109C56.1096 28.443 56.1861 24.0752 54.7212 19.8588C54.1734 18.2935 53.4856 16.7533 52.0972 15.7434C51.2819 15.1501 50.938 14.4432 50.7342 13.5216C49.9444 9.99955 48.7089 6.64158 46.5561 3.68761C44.811 1.27642 42.5947 -0.0491392 39.3974 0.00139355C31.4999 0.140251 23.6152 0.0644946 15.7176 0.0266166C13.9981 0.0266166 12.5587 0.569477 11.2849 1.66777C10.113 2.67765 9.1959 3.88957 8.41887 5.21504C6.90305 7.84085 5.88402 10.6686 5.20891 13.6099C5.08153 14.1528 5.107 14.8092 4.57201 15.1627C2.04991 16.8417 1.22195 19.4801 0.610525 22.2069C-0.141011 25.6532 -0.0518461 29.1248 0.113747 32.5711Z" fill="#D80A49"/>
<path d="M10.9754 14.4022C12.4826 14.4022 13.9899 14.4022 15.5086 14.4022C15.0139 13.5457 14.7263 12.5368 14.7263 11.4457C14.7263 8.44242 16.9124 6.00221 19.6047 6.00221C22.297 6.00221 24.4831 8.44242 24.4831 11.4457C24.4831 12.5368 24.1954 13.5575 23.7007 14.4022C25.0814 14.4022 26.4736 14.4022 27.8542 14.4022C29.2004 14.4022 30.5581 14.4022 31.9042 14.4022C31.4095 13.5457 31.1219 12.5368 31.1219 11.4457C31.1219 8.44242 33.3079 6.00221 36.0002 6.00221C38.6925 6.00221 40.8787 8.44242 40.8787 11.4457C40.8787 12.5368 40.591 13.5575 40.0848 14.4139C41.6725 14.4139 43.2488 14.4139 44.8366 14.4256C45.7225 14.4256 46.0792 14.2262 45.8146 13.2524C45.0897 10.5072 44.1348 7.86753 42.478 5.53295C41.4654 4.1251 40.2344 3.37425 38.3934 3.39775C31.3864 3.47988 24.368 3.49159 17.3611 3.39775C15.4397 3.37425 14.1625 4.17201 13.1155 5.662C11.5392 7.90274 10.6302 10.4486 9.91687 13.0765C9.57169 14.3553 9.61773 14.4022 10.9754 14.4022Z" fill="white"/>
<path d="M17.1578 25.7037C17.4508 26.0446 17.7948 26.3602 18.1514 26.6253C21.0557 28.8092 24.3165 29.9832 28.9786 29.9832C31.9083 29.9706 35.3731 28.6956 38.4047 26.2086C39.0289 25.6911 39.4874 25.0599 38.8888 24.3024C38.2646 23.5072 37.5003 23.7849 36.7997 24.2899C36.6341 24.4161 36.4813 24.5549 36.3156 24.6812C31.4243 28.4936 24.5713 28.481 19.6927 24.6559C19.2723 24.3277 18.8902 23.9237 18.317 23.8733C17.833 23.8228 17.3998 23.8985 17.1196 24.3403C16.814 24.7948 16.7884 25.2871 17.1578 25.7037Z" fill="white"/>
</svg>
