<svg width="204" height="49" viewBox="0 0 204 49" fill="none" xmlns="http://www.w3.org/2000/svg">
<g clip-path="url(#clip0)">
<path d="M0.0890494 35.0513C0.148883 36.3387 0.767156 37.4365 1.76438 38.2449C2.2231 38.6241 2.37268 39.0332 2.36271 39.5921C2.34276 41.1889 2.36271 42.7857 2.36271 44.3724C2.36271 45.2507 2.8314 45.7097 3.67904 45.7397C4.75603 45.7696 5.82305 45.7796 6.90003 45.7397C7.88732 45.6997 8.27621 45.2606 8.29614 44.2427C8.31613 43.105 8.34605 41.9574 8.28621 40.8296C8.24629 39.9813 8.5255 39.7019 9.39311 39.7119C13.5515 39.7518 17.7198 39.7318 21.8783 39.7318C26.0766 39.7318 30.2748 39.7518 34.4631 39.7119C35.3308 39.7019 35.61 39.9913 35.5701 40.8396C35.5102 41.9773 35.5401 43.115 35.5601 44.2527C35.58 45.3105 35.9789 45.7197 37.0459 45.7497C38.0531 45.7796 39.0604 45.7796 40.0675 45.7497C41.0647 45.7197 41.4636 45.3006 41.4836 44.2826C41.5035 42.7857 41.5135 41.2887 41.4836 39.7917C41.4636 39.0931 41.6232 38.5542 42.2015 38.0951C43.109 37.3865 43.6675 36.3686 43.7273 35.2409C43.9268 31.7879 43.9866 28.3349 42.8398 25.0016C42.411 23.7641 41.8725 22.5465 40.7855 21.7482C40.1473 21.2792 39.8781 20.7203 39.7185 19.9917C39.1002 17.2074 38.1329 14.5527 36.4476 12.2175C35.0814 10.3113 33.3462 9.2634 30.8432 9.30335C24.6605 9.41312 18.4877 9.35323 12.3049 9.32329C10.9587 9.32329 9.83185 9.75245 8.83463 10.6207C7.91724 11.4191 7.19923 12.3771 6.59091 13.425C5.40422 15.5008 4.60645 17.7363 4.07792 20.0616C3.9782 20.4907 3.99814 21.0097 3.57931 21.2891C1.60482 22.6164 0.956631 24.7022 0.477965 26.8579C-0.110394 29.5823 -0.040589 32.3268 0.0890494 35.0513Z" fill="#D80A49"/>
<path d="M8.59263 20.6878C9.77257 20.6878 10.9526 20.6878 12.1416 20.6878C11.7542 20.0107 11.529 19.2131 11.529 18.3506C11.529 15.9763 13.2404 14.0472 15.3482 14.0472C17.456 14.0472 19.1674 15.9763 19.1674 18.3506C19.1674 19.2131 18.9422 20.02 18.5549 20.6878C19.6358 20.6878 20.7257 20.6878 21.8066 20.6878C22.8605 20.6878 23.9234 20.6878 24.9772 20.6878C24.5899 20.0107 24.3647 19.2131 24.3647 18.3506C24.3647 15.9763 26.0761 14.0472 28.1839 14.0472C30.2916 14.0472 32.0031 15.9763 32.0031 18.3506C32.0031 19.2131 31.7779 20.02 31.3815 20.6971C32.6246 20.6971 33.8586 20.6971 35.1017 20.7063C35.7952 20.7063 36.0745 20.5486 35.8673 19.7789C35.2998 17.6086 34.5522 15.5219 33.2551 13.6762C32.4625 12.5633 31.4986 11.9697 30.0574 11.9882C24.5719 12.0531 19.0773 12.0625 13.5918 11.9882C12.0875 11.9697 11.0877 12.6004 10.268 13.7782C9.03395 15.5497 8.3224 17.5622 7.76392 19.6398C7.49368 20.6507 7.52972 20.6878 8.59263 20.6878Z" fill="white"/>
<path d="M13.4323 29.6222C13.6616 29.8917 13.9309 30.1412 14.2101 30.3508C16.4838 32.0773 19.0366 33.0054 22.6865 33.0054C24.9801 32.9954 27.6925 31.9874 30.0659 30.0214C30.5545 29.6123 30.9135 29.1133 30.4449 28.5145C29.9562 27.8858 29.3579 28.1053 28.8094 28.5045C28.6798 28.6043 28.5601 28.7141 28.4304 28.8139C24.6011 31.8278 19.2361 31.8178 15.4168 28.7939C15.0877 28.5344 14.7885 28.2151 14.3397 28.1752C13.9608 28.1353 13.6218 28.1951 13.4024 28.5444C13.1631 28.9037 13.1431 29.2929 13.4323 29.6222Z" fill="white"/>
<path d="M63.2582 14.6522H70.55L76.5802 26.371L82.4697 14.6522H89.762V38.7916H82.4697V25.9149L78.0177 34.3356H75.038L70.55 25.9149V38.7916H63.2582V14.6522ZM102.868 39.0723C100.904 39.0723 99.1514 38.6864 97.6092 37.9145C96.0901 37.1426 94.898 36.0783 94.0331 34.7216C93.1919 33.3415 92.771 31.7627 92.771 29.985C92.771 28.2072 93.2035 26.64 94.0684 25.2834C94.9327 23.9033 96.1247 22.839 97.6439 22.0905C99.1868 21.342 100.94 20.9678 102.903 20.9678C104.889 20.9678 106.642 21.3537 108.161 22.1256C109.704 22.8741 110.896 23.9267 111.738 25.2834C112.579 26.64 113 28.2072 113 29.985C113 31.7861 112.567 33.3767 111.702 34.7567C110.861 36.1134 109.669 37.1776 108.126 37.9496C106.607 38.6981 104.855 39.0723 102.868 39.0723ZM102.938 33.8094C103.896 33.8094 104.679 33.4585 105.286 32.7567C105.917 32.0317 106.233 31.1077 106.233 29.985C106.233 28.8622 105.917 27.9499 105.286 27.2482C104.679 26.5231 103.896 26.1605 102.938 26.1605C101.98 26.1605 101.185 26.5231 100.554 27.2482C99.9463 27.9499 99.6424 28.8622 99.6424 29.985C99.6424 31.1077 99.9463 32.0317 100.554 32.7567C101.185 33.4585 101.98 33.8094 102.938 33.8094ZM123.168 39.0723C121.111 39.0723 119.51 38.4876 118.365 37.318C117.22 36.1251 116.647 34.4877 116.647 32.4059V25.5641H114.403V21.2134H117.173L120.433 14.582H123.974V21.2134H128.041V25.5641H123.974V31.5288C123.974 32.1136 124.161 32.5697 124.535 32.8971C124.909 33.2246 125.435 33.3883 126.113 33.3883C126.744 33.3883 127.316 33.248 127.83 32.9673L128.111 37.8794C127.526 38.2302 126.767 38.5226 125.832 38.7565C124.921 38.9671 124.033 39.0723 123.168 39.0723ZM139.603 39.0723C137.64 39.0723 135.887 38.6864 134.344 37.9145C132.825 37.1426 131.633 36.0783 130.769 34.7216C129.927 33.3415 129.507 31.7627 129.507 29.985C129.507 28.2072 129.939 26.64 130.803 25.2834C131.668 23.9033 132.86 22.839 134.38 22.0905C135.922 21.342 137.675 20.9678 139.638 20.9678C141.625 20.9678 143.378 21.3537 144.897 22.1256C146.439 22.8741 147.631 23.9267 148.472 25.2834C149.314 26.64 149.735 28.2072 149.735 29.985C149.735 31.7861 149.302 33.3767 148.438 34.7567C147.596 36.1134 146.405 37.1776 144.862 37.9496C143.343 38.6981 141.59 39.0723 139.603 39.0723ZM139.673 33.8094C140.631 33.8094 141.414 33.4585 142.022 32.7567C142.653 32.0317 142.969 31.1077 142.969 29.985C142.969 28.8622 142.653 27.9499 142.022 27.2482C141.414 26.5231 140.631 26.1605 139.673 26.1605C138.715 26.1605 137.92 26.5231 137.289 27.2482C136.681 27.9499 136.378 28.8622 136.378 29.985C136.378 31.1077 136.681 32.0317 137.289 32.7567C137.92 33.4585 138.715 33.8094 139.673 33.8094ZM152.363 21.459H159.76V25.0377C160.297 23.6577 161.022 22.6402 161.933 21.9853C162.868 21.3069 163.955 20.9678 165.194 20.9678L166.21 26.6868C163.99 26.6868 162.354 26.9324 161.302 27.4236C160.274 27.8915 159.76 28.64 159.76 29.6692V38.7916H152.363V21.459ZM174.658 39.0723C172.671 39.0723 171.129 38.4525 170.031 37.2128C168.955 35.9496 168.418 34.2304 168.418 32.055V15.6697L175.815 14.582V31.5288C175.815 32.1837 175.967 32.6632 176.27 32.9673C176.598 33.248 177.158 33.3883 177.953 33.3883C178.537 33.3883 179.11 33.248 179.671 32.9673L179.916 37.8794C178.35 38.6747 176.598 39.0723 174.658 39.0723ZM191.062 46.8264C189.777 46.8264 188.55 46.6978 187.381 46.4405L187.942 41.2477C188.854 41.388 189.695 41.4582 190.467 41.4582C191.846 41.4582 192.897 41.0372 193.622 40.1951C194.346 39.3764 194.72 37.8209 194.744 35.5286C193.528 37.8677 191.576 39.0373 188.889 39.0373C186.622 39.0373 184.846 38.242 183.56 36.6514C182.298 35.0374 181.667 32.8153 181.667 29.985V21.2134H189.029V31.0726C189.029 31.8679 189.251 32.5345 189.695 33.0725C190.139 33.5872 190.747 33.8445 191.518 33.8445C192.313 33.8445 192.955 33.5053 193.446 32.827C193.96 32.1486 194.217 31.2597 194.217 30.1604V21.2134H201.615V34.3356C201.615 38.4057 200.703 41.505 198.88 43.6336C197.057 45.7622 194.451 46.8264 191.062 46.8264Z" fill="white"/>
</g>
<defs>
<clipPath id="clip0">
<rect width="204" height="49" fill="white"/>
</clipPath>
</defs>
</svg>
