<svg width="180" height="126" viewBox="0 0 180 126" fill="none" xmlns="http://www.w3.org/2000/svg">
<path d="M30.61 115.17V90.52L20.69 115.17H17.42L7.49 90.52V115.17H0V79.97H10.5L19.05 101.24L27.6 79.97H38.16V115.17H30.61Z" fill="#D80A49"/>
<path d="M43.3201 102.4C43.3201 95.17 48.3901 89.05 56.7801 89.05C65.2201 89.05 70.2901 95.17 70.2901 102.4C70.2901 109.68 65.2201 115.8 56.7801 115.8C48.3901 115.8 43.3201 109.68 43.3201 102.4ZM63.3201 102.4C63.3201 98.44 60.9501 95.01 56.7801 95.01C52.6101 95.01 50.2901 98.44 50.2901 102.4C50.2901 106.41 52.6101 109.84 56.7801 109.84C60.9501 109.84 63.3201 106.41 63.3201 102.4Z" fill="#D80A49"/>
<path d="M76.5701 108.84V95.54H72.3501V89.68H76.5701V82.71H83.3301V89.68H88.5001V95.54H83.3301V107.04C83.3301 108.62 84.1701 109.84 85.6501 109.84C86.6501 109.84 87.6001 109.47 87.9701 109.1L89.3901 114.17C88.3901 115.07 86.5901 115.81 83.8001 115.81C79.1001 115.8 76.5701 113.37 76.5701 108.84Z" fill="#D80A49"/>
<path d="M91.45 102.4C91.45 95.17 96.52 89.05 104.91 89.05C113.35 89.05 118.42 95.17 118.42 102.4C118.42 109.68 113.35 115.8 104.91 115.8C96.52 115.8 91.45 109.68 91.45 102.4ZM111.45 102.4C111.45 98.44 109.08 95.01 104.91 95.01C100.74 95.01 98.42 98.44 98.42 102.4C98.42 106.41 100.74 109.84 104.91 109.84C109.08 109.84 111.45 106.41 111.45 102.4Z" fill="#D80A49"/>
<path d="M123.37 115.17V89.68H130.07V93.16C131.86 90.89 135.03 89.04 138.2 89.04V95.58C137.72 95.47 137.09 95.42 136.35 95.42C134.13 95.42 131.18 96.69 130.07 98.32V115.15H123.37V115.17Z" fill="#D80A49"/>
<path d="M142.37 115.17V79.97H149.07V115.17H142.37Z" fill="#D80A49"/>
<path d="M155.83 119.13C156.41 119.39 157.31 119.55 157.94 119.55C159.68 119.55 160.84 119.08 161.48 117.7L162.43 115.54L152.09 89.68H159.27L165.92 107.41L172.57 89.68H179.8L167.82 119.34C165.92 124.14 162.54 125.41 158.16 125.51C157.37 125.51 155.68 125.35 154.84 125.14L155.83 119.13Z" fill="#D80A49"/>
<path d="M105.8 62.28H75.53C66.69 62.28 59.52 55.11 59.52 46.27V16.01C59.52 7.17 66.69 0 75.53 0H105.79C114.63 0 121.8 7.17 121.8 16.01V46.27C121.81 55.11 114.64 62.28 105.8 62.28Z" fill="#D80A49"/>
<path d="M67.8199 38.77C67.8899 40.11 68.5299 41.26 69.5699 42.11C70.0499 42.5 70.1999 42.93 70.1999 43.52C70.1799 45.19 70.1999 46.85 70.1999 48.52C70.1999 49.43 70.6899 49.92 71.5799 49.95C72.6999 49.98 73.8199 49.99 74.9399 49.95C75.9699 49.91 76.3799 49.45 76.3999 48.39C76.4199 47.2 76.4499 46.01 76.3899 44.82C76.3399 43.93 76.6399 43.64 77.5499 43.65C81.8999 43.69 86.2499 43.67 90.5999 43.67C94.9799 43.67 99.3699 43.69 103.75 43.65C104.66 43.64 104.95 43.95 104.9 44.83C104.84 46.02 104.87 47.21 104.89 48.4C104.91 49.51 105.33 49.94 106.44 49.96C107.49 49.99 108.55 49.99 109.6 49.96C110.64 49.93 111.06 49.49 111.08 48.43C111.1 46.87 111.12 45.3 111.08 43.74C111.06 43.01 111.22 42.45 111.83 41.97C112.78 41.23 113.36 40.17 113.43 38.99C113.64 35.39 113.7 31.78 112.5 28.3C112.05 27 111.49 25.74 110.35 24.9C109.69 24.41 109.4 23.82 109.23 23.07C108.58 20.16 107.57 17.39 105.81 14.95C104.38 12.96 102.57 11.86 99.9499 11.91C93.4899 12.03 87.0299 11.96 80.5799 11.94C79.1799 11.93 77.9899 12.39 76.9499 13.3C75.9899 14.14 75.2399 15.13 74.6099 16.23C73.3699 18.4 72.5399 20.73 71.9899 23.16C71.8899 23.61 71.9099 24.15 71.4599 24.45C69.3899 25.84 68.7199 28.02 68.2199 30.26C67.6099 33.05 67.6799 35.91 67.8199 38.77Z" stroke="white" stroke-width="1.5021" stroke-linecap="round" stroke-linejoin="round"/>
<path d="M75.3798 23.97C76.7498 23.97 78.1198 23.97 79.4798 23.97C79.0298 23.21 78.7698 22.31 78.7698 21.34C78.7698 18.67 80.7498 16.5 83.1898 16.5C85.6298 16.5 87.6098 18.67 87.6098 21.34C87.6098 22.31 87.3498 23.21 86.8998 23.97C88.1498 23.97 89.4098 23.97 90.6598 23.97C91.8798 23.97 93.0998 23.97 94.3298 23.97C93.8798 23.21 93.6198 22.31 93.6198 21.34C93.6198 18.67 95.5998 16.5 98.0398 16.5C100.48 16.5 102.46 18.67 102.46 21.34C102.46 22.31 102.2 23.21 101.75 23.97C103.18 23.97 104.62 23.97 106.05 23.98C106.85 23.98 107.17 23.81 106.94 22.94C106.28 20.5 105.42 18.15 103.92 16.09C103.01 14.83 101.88 14.17 100.23 14.19C93.8798 14.26 87.5298 14.27 81.1798 14.19C79.4398 14.17 78.2798 14.88 77.3398 16.2C75.9098 18.19 75.0898 20.45 74.4398 22.78C74.0998 23.93 74.1498 23.97 75.3798 23.97Z" fill="white"/>
<path d="M81.7599 33.1C81.9999 33.38 82.2799 33.64 82.5799 33.86C84.9599 35.66 87.6199 36.63 91.4399 36.63C93.8399 36.62 96.6699 35.56 99.1499 33.51C99.6599 33.09 100.04 32.56 99.5399 31.94C99.0199 31.29 98.3999 31.52 97.8299 31.93C97.6899 32.03 97.5699 32.15 97.4299 32.25C93.4299 35.39 87.8199 35.38 83.8299 32.23C83.4899 31.96 83.1699 31.63 82.6999 31.58C82.3099 31.54 81.9499 31.6 81.7199 31.97C81.4799 32.35 81.4599 32.75 81.7599 33.1Z" fill="white"/>
</svg>
