<svg width="320" height="110" viewBox="0 0 320 110" fill="none" xmlns="http://www.w3.org/2000/svg">
<path d="M75.4668 91H74.4824L72.7539 85.2637C72.6719 85.0098 72.5801 84.6895 72.4785 84.3027C72.377 83.916 72.3242 83.6836 72.3203 83.6055C72.2344 84.1211 72.0977 84.6855 71.9102 85.2988L70.2344 91H69.25L66.9707 82.4336H68.0254L69.3789 87.7246C69.5664 88.4668 69.7031 89.1387 69.7891 89.7402C69.8945 89.0254 70.0508 88.3262 70.2578 87.6426L71.793 82.4336H72.8477L74.459 87.6895C74.6465 88.2949 74.8047 88.9785 74.9336 89.7402C75.0078 89.1855 75.1484 88.5098 75.3555 87.7129L76.7031 82.4336H77.7578L75.4668 91ZM83.3477 91V86.8457C83.3477 86.3223 83.2285 85.9316 82.9902 85.6738C82.752 85.416 82.3789 85.2871 81.8711 85.2871C81.1953 85.2871 80.7012 85.4707 80.3887 85.8379C80.0801 86.2051 79.9258 86.8066 79.9258 87.6426V91H78.9531V81.8828H79.9258V84.6426C79.9258 84.9746 79.9102 85.25 79.8789 85.4688H79.9375C80.1289 85.1602 80.4004 84.918 80.752 84.7422C81.1074 84.5625 81.5117 84.4727 81.9648 84.4727C82.75 84.4727 83.3379 84.6602 83.7285 85.0352C84.123 85.4062 84.3203 85.998 84.3203 86.8105V91H83.3477ZM90.2734 91L90.0801 90.0859H90.0332C89.7129 90.4883 89.3926 90.7617 89.0723 90.9062C88.7559 91.0469 88.3594 91.1172 87.8828 91.1172C87.2461 91.1172 86.7461 90.9531 86.3828 90.625C86.0234 90.2969 85.8438 89.8301 85.8438 89.2246C85.8438 87.9277 86.8809 87.248 88.9551 87.1855L90.0449 87.1504V86.752C90.0449 86.248 89.9355 85.877 89.7168 85.6387C89.502 85.3965 89.1562 85.2754 88.6797 85.2754C88.1445 85.2754 87.5391 85.4395 86.8633 85.7676L86.5645 85.0234C86.8809 84.8516 87.2266 84.7168 87.6016 84.6191C87.9805 84.5215 88.3594 84.4727 88.7383 84.4727C89.5039 84.4727 90.0703 84.6426 90.4375 84.9824C90.8086 85.3223 90.9941 85.8672 90.9941 86.6172V91H90.2734ZM88.0762 90.3145C88.6816 90.3145 89.1562 90.1484 89.5 89.8164C89.8477 89.4844 90.0215 89.0195 90.0215 88.4219V87.8418L89.0488 87.8828C88.2754 87.9102 87.7168 88.0312 87.373 88.2461C87.0332 88.457 86.8633 88.7871 86.8633 89.2363C86.8633 89.5879 86.9688 89.8555 87.1797 90.0391C87.3945 90.2227 87.6934 90.3145 88.0762 90.3145ZM95.0781 90.3145C95.25 90.3145 95.416 90.3027 95.5762 90.2793C95.7363 90.252 95.8633 90.2246 95.957 90.1973V90.9414C95.8516 90.9922 95.6953 91.0332 95.4883 91.0645C95.2852 91.0996 95.1016 91.1172 94.9375 91.1172C93.6953 91.1172 93.0742 90.4629 93.0742 89.1543V85.334H92.1543V84.8652L93.0742 84.4609L93.4844 83.0898H94.0469V84.5781H95.9102V85.334H94.0469V89.1133C94.0469 89.5 94.1387 89.7969 94.3223 90.0039C94.5059 90.2109 94.7578 90.3145 95.0781 90.3145ZM102.93 91.1172C102 91.1172 101.279 90.832 100.768 90.2617C100.26 89.6875 100.006 88.877 100.006 87.8301C100.006 86.7559 100.264 85.9258 100.779 85.3398C101.299 84.7539 102.037 84.4609 102.994 84.4609C103.303 84.4609 103.611 84.4941 103.92 84.5605C104.229 84.627 104.471 84.7051 104.646 84.7949L104.348 85.6211C104.133 85.5352 103.898 85.4648 103.645 85.4102C103.391 85.3516 103.166 85.3223 102.971 85.3223C101.666 85.3223 101.014 86.1543 101.014 87.8184C101.014 88.6074 101.172 89.2129 101.488 89.6348C101.809 90.0566 102.281 90.2676 102.906 90.2676C103.441 90.2676 103.99 90.1523 104.553 89.9219V90.7832C104.123 91.0059 103.582 91.1172 102.93 91.1172ZM110.031 91L109.838 90.0859H109.791C109.471 90.4883 109.15 90.7617 108.83 90.9062C108.514 91.0469 108.117 91.1172 107.641 91.1172C107.004 91.1172 106.504 90.9531 106.141 90.625C105.781 90.2969 105.602 89.8301 105.602 89.2246C105.602 87.9277 106.639 87.248 108.713 87.1855L109.803 87.1504V86.752C109.803 86.248 109.693 85.877 109.475 85.6387C109.26 85.3965 108.914 85.2754 108.438 85.2754C107.902 85.2754 107.297 85.4395 106.621 85.7676L106.322 85.0234C106.639 84.8516 106.984 84.7168 107.359 84.6191C107.738 84.5215 108.117 84.4727 108.496 84.4727C109.262 84.4727 109.828 84.6426 110.195 84.9824C110.566 85.3223 110.752 85.8672 110.752 86.6172V91H110.031ZM107.834 90.3145C108.439 90.3145 108.914 90.1484 109.258 89.8164C109.605 89.4844 109.779 89.0195 109.779 88.4219V87.8418L108.807 87.8828C108.033 87.9102 107.475 88.0312 107.131 88.2461C106.791 88.457 106.621 88.7871 106.621 89.2363C106.621 89.5879 106.727 89.8555 106.938 90.0391C107.152 90.2227 107.451 90.3145 107.834 90.3145ZM115.691 84.4609C115.977 84.4609 116.232 84.4844 116.459 84.5312L116.324 85.4336C116.059 85.375 115.824 85.3457 115.621 85.3457C115.102 85.3457 114.656 85.5566 114.285 85.9785C113.918 86.4004 113.734 86.9258 113.734 87.5547V91H112.762V84.5781H113.564L113.676 85.7676H113.723C113.961 85.3496 114.248 85.0273 114.584 84.8008C114.92 84.5742 115.289 84.4609 115.691 84.4609ZM121.75 91H120.777V84.5781H121.75V91ZM120.695 82.8379C120.695 82.6152 120.75 82.4531 120.859 82.3516C120.969 82.2461 121.105 82.1934 121.27 82.1934C121.426 82.1934 121.561 82.2461 121.674 82.3516C121.787 82.457 121.844 82.6191 121.844 82.8379C121.844 83.0566 121.787 83.2207 121.674 83.3301C121.561 83.4355 121.426 83.4883 121.27 83.4883C121.105 83.4883 120.969 83.4355 120.859 83.3301C120.75 83.2207 120.695 83.0566 120.695 82.8379ZM127.955 89.248C127.955 89.8457 127.732 90.3066 127.287 90.6309C126.842 90.9551 126.217 91.1172 125.412 91.1172C124.561 91.1172 123.896 90.9824 123.42 90.7129V89.8105C123.729 89.9668 124.059 90.0898 124.41 90.1797C124.766 90.2695 125.107 90.3145 125.436 90.3145C125.943 90.3145 126.334 90.2344 126.607 90.0742C126.881 89.9102 127.018 89.6621 127.018 89.3301C127.018 89.0801 126.908 88.8672 126.689 88.6914C126.475 88.5117 126.053 88.3008 125.424 88.0586C124.826 87.8359 124.4 87.6426 124.146 87.4785C123.896 87.3105 123.709 87.1211 123.584 86.9102C123.463 86.6992 123.402 86.4473 123.402 86.1543C123.402 85.6309 123.615 85.2188 124.041 84.918C124.467 84.6133 125.051 84.4609 125.793 84.4609C126.484 84.4609 127.16 84.6016 127.82 84.8828L127.475 85.6738C126.83 85.4082 126.246 85.2754 125.723 85.2754C125.262 85.2754 124.914 85.3477 124.68 85.4922C124.445 85.6367 124.328 85.8359 124.328 86.0898C124.328 86.2617 124.371 86.4082 124.457 86.5293C124.547 86.6504 124.689 86.7656 124.885 86.875C125.08 86.9844 125.455 87.1426 126.01 87.3496C126.771 87.627 127.285 87.9062 127.551 88.1875C127.82 88.4688 127.955 88.8223 127.955 89.248ZM134.734 90.3145C134.906 90.3145 135.072 90.3027 135.232 90.2793C135.393 90.252 135.52 90.2246 135.613 90.1973V90.9414C135.508 90.9922 135.352 91.0332 135.145 91.0645C134.941 91.0996 134.758 91.1172 134.594 91.1172C133.352 91.1172 132.73 90.4629 132.73 89.1543V85.334H131.811V84.8652L132.73 84.4609L133.141 83.0898H133.703V84.5781H135.566V85.334H133.703V89.1133C133.703 89.5 133.795 89.7969 133.979 90.0039C134.162 90.2109 134.414 90.3145 134.734 90.3145ZM141.297 91V86.8457C141.297 86.3223 141.178 85.9316 140.939 85.6738C140.701 85.416 140.328 85.2871 139.82 85.2871C139.145 85.2871 138.65 85.4707 138.338 85.8379C138.029 86.2051 137.875 86.8066 137.875 87.6426V91H136.902V81.8828H137.875V84.6426C137.875 84.9746 137.859 85.25 137.828 85.4688H137.887C138.078 85.1602 138.35 84.918 138.701 84.7422C139.057 84.5625 139.461 84.4727 139.914 84.4727C140.699 84.4727 141.287 84.6602 141.678 85.0352C142.072 85.4062 142.27 85.998 142.27 86.8105V91H141.297ZM148.223 91L148.029 90.0859H147.982C147.662 90.4883 147.342 90.7617 147.021 90.9062C146.705 91.0469 146.309 91.1172 145.832 91.1172C145.195 91.1172 144.695 90.9531 144.332 90.625C143.973 90.2969 143.793 89.8301 143.793 89.2246C143.793 87.9277 144.83 87.248 146.904 87.1855L147.994 87.1504V86.752C147.994 86.248 147.885 85.877 147.666 85.6387C147.451 85.3965 147.105 85.2754 146.629 85.2754C146.094 85.2754 145.488 85.4395 144.812 85.7676L144.514 85.0234C144.83 84.8516 145.176 84.7168 145.551 84.6191C145.93 84.5215 146.309 84.4727 146.688 84.4727C147.453 84.4727 148.02 84.6426 148.387 84.9824C148.758 85.3223 148.943 85.8672 148.943 86.6172V91H148.223ZM146.025 90.3145C146.631 90.3145 147.105 90.1484 147.449 89.8164C147.797 89.4844 147.971 89.0195 147.971 88.4219V87.8418L146.998 87.8828C146.225 87.9102 145.666 88.0312 145.322 88.2461C144.982 88.457 144.812 88.7871 144.812 89.2363C144.812 89.5879 144.918 89.8555 145.129 90.0391C145.344 90.2227 145.643 90.3145 146.025 90.3145ZM153.027 90.3145C153.199 90.3145 153.365 90.3027 153.525 90.2793C153.686 90.252 153.812 90.2246 153.906 90.1973V90.9414C153.801 90.9922 153.645 91.0332 153.438 91.0645C153.234 91.0996 153.051 91.1172 152.887 91.1172C151.645 91.1172 151.023 90.4629 151.023 89.1543V85.334H150.104V84.8652L151.023 84.4609L151.434 83.0898H151.996V84.5781H153.859V85.334H151.996V89.1133C151.996 89.5 152.088 89.7969 152.271 90.0039C152.455 90.2109 152.707 90.3145 153.027 90.3145ZM155.857 88.6387V88.3223C155.857 87.8652 155.928 87.4902 156.068 87.1973C156.209 86.9004 156.471 86.5879 156.854 86.2598C157.385 85.8105 157.719 85.4727 157.855 85.2461C157.996 85.0195 158.066 84.7461 158.066 84.4258C158.066 84.0273 157.938 83.7207 157.68 83.5059C157.426 83.2871 157.059 83.1777 156.578 83.1777C156.27 83.1777 155.969 83.2148 155.676 83.2891C155.383 83.3594 155.047 83.4902 154.668 83.6816L154.322 82.8906C155.061 82.5039 155.832 82.3105 156.637 82.3105C157.383 82.3105 157.963 82.4941 158.377 82.8613C158.791 83.2285 158.998 83.7461 158.998 84.4141C158.998 84.6992 158.959 84.9512 158.881 85.1699C158.807 85.3848 158.695 85.5898 158.547 85.7852C158.398 85.9766 158.078 86.2871 157.586 86.7168C157.191 87.0527 156.93 87.332 156.801 87.5547C156.676 87.7773 156.613 88.0742 156.613 88.4453V88.6387H155.857ZM155.57 90.3789C155.57 89.8477 155.805 89.582 156.273 89.582C156.5 89.582 156.674 89.6504 156.795 89.7871C156.92 89.9238 156.982 90.1211 156.982 90.3789C156.982 90.6289 156.92 90.8242 156.795 90.9648C156.67 91.1016 156.496 91.1699 156.273 91.1699C156.07 91.1699 155.902 91.1094 155.77 90.9883C155.637 90.8633 155.57 90.6602 155.57 90.3789ZM170.119 91H169.123V86.9688H164.611V91H163.615V82.4336H164.611V86.0781H169.123V82.4336H170.119V91ZM177.871 87.7832C177.871 88.8301 177.607 89.6484 177.08 90.2383C176.553 90.8242 175.824 91.1172 174.895 91.1172C174.32 91.1172 173.811 90.9824 173.365 90.7129C172.92 90.4434 172.576 90.0566 172.334 89.5527C172.092 89.0488 171.971 88.459 171.971 87.7832C171.971 86.7363 172.232 85.9219 172.756 85.3398C173.279 84.7539 174.006 84.4609 174.936 84.4609C175.834 84.4609 176.547 84.7598 177.074 85.3574C177.605 85.9551 177.871 86.7637 177.871 87.7832ZM172.979 87.7832C172.979 88.6035 173.143 89.2285 173.471 89.6582C173.799 90.0879 174.281 90.3027 174.918 90.3027C175.555 90.3027 176.037 90.0898 176.365 89.6641C176.697 89.2344 176.863 88.6074 176.863 87.7832C176.863 86.9668 176.697 86.3477 176.365 85.9258C176.037 85.5 175.551 85.2871 174.906 85.2871C174.27 85.2871 173.789 85.4961 173.465 85.9141C173.141 86.332 172.979 86.9551 172.979 87.7832ZM184.826 91L183.648 87.2324C183.574 87.002 183.436 86.4785 183.232 85.6621H183.186C183.029 86.3457 182.893 86.873 182.775 87.2441L181.562 91H180.438L178.686 84.5781H179.705C180.119 86.1914 180.434 87.4199 180.648 88.2637C180.867 89.1074 180.992 89.6758 181.023 89.9688H181.07C181.113 89.7461 181.182 89.459 181.275 89.1074C181.373 88.752 181.457 88.4707 181.527 88.2637L182.705 84.5781H183.76L184.908 88.2637C185.127 88.9355 185.275 89.5 185.354 89.957H185.4C185.416 89.8164 185.457 89.5996 185.523 89.3066C185.594 89.0137 186.002 87.4375 186.748 84.5781H187.756L185.98 91H184.826ZM200.225 91V86.8223C200.225 86.3105 200.115 85.9277 199.896 85.6738C199.678 85.416 199.338 85.2871 198.877 85.2871C198.271 85.2871 197.824 85.4609 197.535 85.8086C197.246 86.1562 197.102 86.6914 197.102 87.4141V91H196.129V86.8223C196.129 86.3105 196.02 85.9277 195.801 85.6738C195.582 85.416 195.24 85.2871 194.775 85.2871C194.166 85.2871 193.719 85.4707 193.434 85.8379C193.152 86.2012 193.012 86.7988 193.012 87.6309V91H192.039V84.5781H192.83L192.988 85.457H193.035C193.219 85.1445 193.477 84.9004 193.809 84.7246C194.145 84.5488 194.52 84.4609 194.934 84.4609C195.938 84.4609 196.594 84.8242 196.902 85.5508H196.949C197.141 85.2148 197.418 84.9492 197.781 84.7539C198.145 84.5586 198.559 84.4609 199.023 84.4609C199.75 84.4609 200.293 84.6484 200.652 85.0234C201.016 85.3945 201.197 85.9902 201.197 86.8105V91H200.225ZM204.121 84.5781V88.7441C204.121 89.2676 204.24 89.6582 204.479 89.916C204.717 90.1738 205.09 90.3027 205.598 90.3027C206.27 90.3027 206.76 90.1191 207.068 89.752C207.381 89.3848 207.537 88.7852 207.537 87.9531V84.5781H208.51V91H207.707L207.566 90.1387H207.514C207.314 90.4551 207.037 90.6973 206.682 90.8652C206.33 91.0332 205.928 91.1172 205.475 91.1172C204.693 91.1172 204.107 90.9316 203.717 90.5605C203.33 90.1895 203.137 89.5957 203.137 88.7793V84.5781H204.121ZM213.145 91.1172C212.215 91.1172 211.494 90.832 210.982 90.2617C210.475 89.6875 210.221 88.877 210.221 87.8301C210.221 86.7559 210.479 85.9258 210.994 85.3398C211.514 84.7539 212.252 84.4609 213.209 84.4609C213.518 84.4609 213.826 84.4941 214.135 84.5605C214.443 84.627 214.686 84.7051 214.861 84.7949L214.562 85.6211C214.348 85.5352 214.113 85.4648 213.859 85.4102C213.605 85.3516 213.381 85.3223 213.186 85.3223C211.881 85.3223 211.229 86.1543 211.229 87.8184C211.229 88.6074 211.387 89.2129 211.703 89.6348C212.023 90.0566 212.496 90.2676 213.121 90.2676C213.656 90.2676 214.205 90.1523 214.768 89.9219V90.7832C214.338 91.0059 213.797 91.1172 213.145 91.1172ZM220.691 91V86.8457C220.691 86.3223 220.572 85.9316 220.334 85.6738C220.096 85.416 219.723 85.2871 219.215 85.2871C218.539 85.2871 218.045 85.4707 217.732 85.8379C217.424 86.2051 217.27 86.8066 217.27 87.6426V91H216.297V81.8828H217.27V84.6426C217.27 84.9746 217.254 85.25 217.223 85.4688H217.281C217.473 85.1602 217.744 84.918 218.096 84.7422C218.451 84.5625 218.855 84.4727 219.309 84.4727C220.094 84.4727 220.682 84.6602 221.072 85.0352C221.467 85.4062 221.664 85.998 221.664 86.8105V91H220.691ZM227.758 91H226.785V84.5781H227.758V91ZM226.703 82.8379C226.703 82.6152 226.758 82.4531 226.867 82.3516C226.977 82.2461 227.113 82.1934 227.277 82.1934C227.434 82.1934 227.568 82.2461 227.682 82.3516C227.795 82.457 227.852 82.6191 227.852 82.8379C227.852 83.0566 227.795 83.2207 227.682 83.3301C227.568 83.4355 227.434 83.4883 227.277 83.4883C227.113 83.4883 226.977 83.4355 226.867 83.3301C226.758 83.2207 226.703 83.0566 226.703 82.8379ZM233.963 89.248C233.963 89.8457 233.74 90.3066 233.295 90.6309C232.85 90.9551 232.225 91.1172 231.42 91.1172C230.568 91.1172 229.904 90.9824 229.428 90.7129V89.8105C229.736 89.9668 230.066 90.0898 230.418 90.1797C230.773 90.2695 231.115 90.3145 231.443 90.3145C231.951 90.3145 232.342 90.2344 232.615 90.0742C232.889 89.9102 233.025 89.6621 233.025 89.3301C233.025 89.0801 232.916 88.8672 232.697 88.6914C232.482 88.5117 232.061 88.3008 231.432 88.0586C230.834 87.8359 230.408 87.6426 230.154 87.4785C229.904 87.3105 229.717 87.1211 229.592 86.9102C229.471 86.6992 229.41 86.4473 229.41 86.1543C229.41 85.6309 229.623 85.2188 230.049 84.918C230.475 84.6133 231.059 84.4609 231.801 84.4609C232.492 84.4609 233.168 84.6016 233.828 84.8828L233.482 85.6738C232.838 85.4082 232.254 85.2754 231.73 85.2754C231.27 85.2754 230.922 85.3477 230.688 85.4922C230.453 85.6367 230.336 85.8359 230.336 86.0898C230.336 86.2617 230.379 86.4082 230.465 86.5293C230.555 86.6504 230.697 86.7656 230.893 86.875C231.088 86.9844 231.463 87.1426 232.018 87.3496C232.779 87.627 233.293 87.9062 233.559 88.1875C233.828 88.4688 233.963 88.8223 233.963 89.248ZM239.641 91H238.668V84.5781H239.641V91ZM238.586 82.8379C238.586 82.6152 238.641 82.4531 238.75 82.3516C238.859 82.2461 238.996 82.1934 239.16 82.1934C239.316 82.1934 239.451 82.2461 239.564 82.3516C239.678 82.457 239.734 82.6191 239.734 82.8379C239.734 83.0566 239.678 83.2207 239.564 83.3301C239.451 83.4355 239.316 83.4883 239.16 83.4883C238.996 83.4883 238.859 83.4355 238.75 83.3301C238.641 83.2207 238.586 83.0566 238.586 82.8379ZM243.777 90.3145C243.949 90.3145 244.115 90.3027 244.275 90.2793C244.436 90.252 244.562 90.2246 244.656 90.1973V90.9414C244.551 90.9922 244.395 91.0332 244.188 91.0645C243.984 91.0996 243.801 91.1172 243.637 91.1172C242.395 91.1172 241.773 90.4629 241.773 89.1543V85.334H240.854V84.8652L241.773 84.4609L242.184 83.0898H242.746V84.5781H244.609V85.334H242.746V89.1133C242.746 89.5 242.838 89.7969 243.021 90.0039C243.205 90.2109 243.457 90.3145 243.777 90.3145ZM246.607 88.6387V88.3223C246.607 87.8652 246.678 87.4902 246.818 87.1973C246.959 86.9004 247.221 86.5879 247.604 86.2598C248.135 85.8105 248.469 85.4727 248.605 85.2461C248.746 85.0195 248.816 84.7461 248.816 84.4258C248.816 84.0273 248.688 83.7207 248.43 83.5059C248.176 83.2871 247.809 83.1777 247.328 83.1777C247.02 83.1777 246.719 83.2148 246.426 83.2891C246.133 83.3594 245.797 83.4902 245.418 83.6816L245.072 82.8906C245.811 82.5039 246.582 82.3105 247.387 82.3105C248.133 82.3105 248.713 82.4941 249.127 82.8613C249.541 83.2285 249.748 83.7461 249.748 84.4141C249.748 84.6992 249.709 84.9512 249.631 85.1699C249.557 85.3848 249.445 85.5898 249.297 85.7852C249.148 85.9766 248.828 86.2871 248.336 86.7168C247.941 87.0527 247.68 87.332 247.551 87.5547C247.426 87.7773 247.363 88.0742 247.363 88.4453V88.6387H246.607ZM246.32 90.3789C246.32 89.8477 246.555 89.582 247.023 89.582C247.25 89.582 247.424 89.6504 247.545 89.7871C247.67 89.9238 247.732 90.1211 247.732 90.3789C247.732 90.6289 247.67 90.8242 247.545 90.9648C247.42 91.1016 247.246 91.1699 247.023 91.1699C246.82 91.1699 246.652 91.1094 246.52 90.9883C246.387 90.8633 246.32 90.6602 246.32 90.3789ZM105.35 104.721C105.35 105.475 105.076 106.062 104.529 106.484C103.982 106.906 103.24 107.117 102.303 107.117C101.287 107.117 100.506 106.986 99.959 106.725V105.764C100.311 105.912 100.693 106.029 101.107 106.115C101.521 106.201 101.932 106.244 102.338 106.244C103.002 106.244 103.502 106.119 103.838 105.869C104.174 105.615 104.342 105.264 104.342 104.814C104.342 104.518 104.281 104.275 104.16 104.088C104.043 103.896 103.844 103.721 103.562 103.561C103.285 103.4 102.861 103.219 102.291 103.016C101.494 102.73 100.924 102.393 100.58 102.002C100.24 101.611 100.07 101.102 100.07 100.473C100.07 99.8125 100.318 99.2871 100.814 98.8965C101.311 98.5059 101.967 98.3105 102.783 98.3105C103.635 98.3105 104.418 98.4668 105.133 98.7793L104.822 99.6465C104.115 99.3496 103.428 99.2012 102.76 99.2012C102.232 99.2012 101.82 99.3145 101.523 99.541C101.227 99.7676 101.078 100.082 101.078 100.484C101.078 100.781 101.133 101.025 101.242 101.217C101.352 101.404 101.535 101.578 101.793 101.738C102.055 101.895 102.453 102.068 102.988 102.26C103.887 102.58 104.504 102.924 104.84 103.291C105.18 103.658 105.35 104.135 105.35 104.721ZM109.521 107.117C108.592 107.117 107.871 106.832 107.359 106.262C106.852 105.688 106.598 104.877 106.598 103.83C106.598 102.756 106.855 101.926 107.371 101.34C107.891 100.754 108.629 100.461 109.586 100.461C109.895 100.461 110.203 100.494 110.512 100.561C110.82 100.627 111.062 100.705 111.238 100.795L110.939 101.621C110.725 101.535 110.49 101.465 110.236 101.41C109.982 101.352 109.758 101.322 109.562 101.322C108.258 101.322 107.605 102.154 107.605 103.818C107.605 104.607 107.764 105.213 108.08 105.635C108.4 106.057 108.873 106.268 109.498 106.268C110.033 106.268 110.582 106.152 111.145 105.922V106.783C110.715 107.006 110.174 107.117 109.521 107.117ZM116.623 107L116.43 106.086H116.383C116.062 106.488 115.742 106.762 115.422 106.906C115.105 107.047 114.709 107.117 114.232 107.117C113.596 107.117 113.096 106.953 112.732 106.625C112.373 106.297 112.193 105.83 112.193 105.225C112.193 103.928 113.23 103.248 115.305 103.186L116.395 103.15V102.752C116.395 102.248 116.285 101.877 116.066 101.639C115.852 101.396 115.506 101.275 115.029 101.275C114.494 101.275 113.889 101.439 113.213 101.768L112.914 101.023C113.23 100.852 113.576 100.717 113.951 100.619C114.33 100.521 114.709 100.473 115.088 100.473C115.854 100.473 116.42 100.643 116.787 100.982C117.158 101.322 117.344 101.867 117.344 102.617V107H116.623ZM114.426 106.314C115.031 106.314 115.506 106.148 115.85 105.816C116.197 105.484 116.371 105.02 116.371 104.422V103.842L115.398 103.883C114.625 103.91 114.066 104.031 113.723 104.246C113.383 104.457 113.213 104.787 113.213 105.236C113.213 105.588 113.318 105.855 113.529 106.039C113.744 106.223 114.043 106.314 114.426 106.314ZM123.748 107V102.846C123.748 102.322 123.629 101.932 123.391 101.674C123.152 101.416 122.779 101.287 122.271 101.287C121.6 101.287 121.107 101.469 120.795 101.832C120.482 102.195 120.326 102.795 120.326 103.631V107H119.354V100.578H120.145L120.303 101.457H120.35C120.549 101.141 120.828 100.896 121.188 100.725C121.547 100.549 121.947 100.461 122.389 100.461C123.162 100.461 123.744 100.648 124.135 101.023C124.525 101.395 124.721 101.99 124.721 102.811V107H123.748ZM133.791 107L133.598 106.086H133.551C133.23 106.488 132.91 106.762 132.59 106.906C132.273 107.047 131.877 107.117 131.4 107.117C130.764 107.117 130.264 106.953 129.9 106.625C129.541 106.297 129.361 105.83 129.361 105.225C129.361 103.928 130.398 103.248 132.473 103.186L133.562 103.15V102.752C133.562 102.248 133.453 101.877 133.234 101.639C133.02 101.396 132.674 101.275 132.197 101.275C131.662 101.275 131.057 101.439 130.381 101.768L130.082 101.023C130.398 100.852 130.744 100.717 131.119 100.619C131.498 100.521 131.877 100.473 132.256 100.473C133.021 100.473 133.588 100.643 133.955 100.982C134.326 101.322 134.512 101.867 134.512 102.617V107H133.791ZM131.594 106.314C132.199 106.314 132.674 106.148 133.018 105.816C133.365 105.484 133.539 105.02 133.539 104.422V103.842L132.566 103.883C131.793 103.91 131.234 104.031 130.891 104.246C130.551 104.457 130.381 104.787 130.381 105.236C130.381 105.588 130.486 105.855 130.697 106.039C130.912 106.223 131.211 106.314 131.594 106.314ZM142.205 107.117C141.275 107.117 140.555 106.832 140.043 106.262C139.535 105.688 139.281 104.877 139.281 103.83C139.281 102.756 139.539 101.926 140.055 101.34C140.574 100.754 141.312 100.461 142.27 100.461C142.578 100.461 142.887 100.494 143.195 100.561C143.504 100.627 143.746 100.705 143.922 100.795L143.623 101.621C143.408 101.535 143.174 101.465 142.92 101.41C142.666 101.352 142.441 101.322 142.246 101.322C140.941 101.322 140.289 102.154 140.289 103.818C140.289 104.607 140.447 105.213 140.764 105.635C141.084 106.057 141.557 106.268 142.182 106.268C142.717 106.268 143.266 106.152 143.828 105.922V106.783C143.398 107.006 142.857 107.117 142.205 107.117ZM149.307 107L149.113 106.086H149.066C148.746 106.488 148.426 106.762 148.105 106.906C147.789 107.047 147.393 107.117 146.916 107.117C146.279 107.117 145.779 106.953 145.416 106.625C145.057 106.297 144.877 105.83 144.877 105.225C144.877 103.928 145.914 103.248 147.988 103.186L149.078 103.15V102.752C149.078 102.248 148.969 101.877 148.75 101.639C148.535 101.396 148.189 101.275 147.713 101.275C147.178 101.275 146.572 101.439 145.896 101.768L145.598 101.023C145.914 100.852 146.26 100.717 146.635 100.619C147.014 100.521 147.393 100.473 147.771 100.473C148.537 100.473 149.104 100.643 149.471 100.982C149.842 101.322 150.027 101.867 150.027 102.617V107H149.307ZM147.109 106.314C147.715 106.314 148.189 106.148 148.533 105.816C148.881 105.484 149.055 105.02 149.055 104.422V103.842L148.082 103.883C147.309 103.91 146.75 104.031 146.406 104.246C146.066 104.457 145.896 104.787 145.896 105.236C145.896 105.588 146.002 105.855 146.213 106.039C146.428 106.223 146.727 106.314 147.109 106.314ZM154.967 100.461C155.252 100.461 155.508 100.484 155.734 100.531L155.6 101.434C155.334 101.375 155.1 101.346 154.896 101.346C154.377 101.346 153.932 101.557 153.561 101.979C153.193 102.4 153.01 102.926 153.01 103.555V107H152.037V100.578H152.84L152.951 101.768H152.998C153.236 101.35 153.523 101.027 153.859 100.801C154.195 100.574 154.564 100.461 154.967 100.461ZM162.127 106.314C162.299 106.314 162.465 106.303 162.625 106.279C162.785 106.252 162.912 106.225 163.006 106.197V106.941C162.9 106.992 162.744 107.033 162.537 107.064C162.334 107.1 162.15 107.117 161.986 107.117C160.744 107.117 160.123 106.463 160.123 105.154V101.334H159.203V100.865L160.123 100.461L160.533 99.0898H161.096V100.578H162.959V101.334H161.096V105.113C161.096 105.5 161.188 105.797 161.371 106.004C161.555 106.211 161.807 106.314 162.127 106.314ZM169.838 103.783C169.838 104.83 169.574 105.648 169.047 106.238C168.52 106.824 167.791 107.117 166.861 107.117C166.287 107.117 165.777 106.982 165.332 106.713C164.887 106.443 164.543 106.057 164.301 105.553C164.059 105.049 163.938 104.459 163.938 103.783C163.938 102.736 164.199 101.922 164.723 101.34C165.246 100.754 165.973 100.461 166.902 100.461C167.801 100.461 168.514 100.76 169.041 101.357C169.572 101.955 169.838 102.764 169.838 103.783ZM164.945 103.783C164.945 104.604 165.109 105.229 165.438 105.658C165.766 106.088 166.248 106.303 166.885 106.303C167.521 106.303 168.004 106.09 168.332 105.664C168.664 105.234 168.83 104.607 168.83 103.783C168.83 102.967 168.664 102.348 168.332 101.926C168.004 101.5 167.518 101.287 166.873 101.287C166.236 101.287 165.756 101.496 165.432 101.914C165.107 102.332 164.945 102.955 164.945 103.783ZM177.561 101.334H175.926V107H174.953V101.334H173.805V100.895L174.953 100.543V100.186C174.953 98.6074 175.643 97.8184 177.021 97.8184C177.361 97.8184 177.76 97.8867 178.217 98.0234L177.965 98.8027C177.59 98.6816 177.27 98.6211 177.004 98.6211C176.637 98.6211 176.365 98.7441 176.189 98.9902C176.014 99.2324 175.926 99.623 175.926 100.162V100.578H177.561V101.334ZM179.705 107H178.732V100.578H179.705V107ZM178.65 98.8379C178.65 98.6152 178.705 98.4531 178.814 98.3516C178.924 98.2461 179.061 98.1934 179.225 98.1934C179.381 98.1934 179.516 98.2461 179.629 98.3516C179.742 98.457 179.799 98.6191 179.799 98.8379C179.799 99.0566 179.742 99.2207 179.629 99.3301C179.516 99.4355 179.381 99.4883 179.225 99.4883C179.061 99.4883 178.924 99.4355 178.814 99.3301C178.705 99.2207 178.65 99.0566 178.65 98.8379ZM186.162 107V102.846C186.162 102.322 186.043 101.932 185.805 101.674C185.566 101.416 185.193 101.287 184.686 101.287C184.014 101.287 183.521 101.469 183.209 101.832C182.896 102.195 182.74 102.795 182.74 103.631V107H181.768V100.578H182.559L182.717 101.457H182.764C182.963 101.141 183.242 100.896 183.602 100.725C183.961 100.549 184.361 100.461 184.803 100.461C185.576 100.461 186.158 100.648 186.549 101.023C186.939 101.395 187.135 101.99 187.135 102.811V107H186.162ZM193.51 106.139H193.457C193.008 106.791 192.336 107.117 191.441 107.117C190.602 107.117 189.947 106.83 189.479 106.256C189.014 105.682 188.781 104.865 188.781 103.807C188.781 102.748 189.016 101.926 189.484 101.34C189.953 100.754 190.605 100.461 191.441 100.461C192.312 100.461 192.98 100.777 193.445 101.41H193.521L193.48 100.947L193.457 100.496V97.8828H194.43V107H193.639L193.51 106.139ZM191.564 106.303C192.229 106.303 192.709 106.123 193.006 105.764C193.307 105.4 193.457 104.816 193.457 104.012V103.807C193.457 102.896 193.305 102.248 193 101.861C192.699 101.471 192.217 101.275 191.553 101.275C190.982 101.275 190.545 101.498 190.24 101.943C189.939 102.385 189.789 103.01 189.789 103.818C189.789 104.639 189.939 105.258 190.24 105.676C190.541 106.094 190.982 106.303 191.564 106.303ZM205.158 103.783C205.158 104.83 204.895 105.648 204.367 106.238C203.84 106.824 203.111 107.117 202.182 107.117C201.607 107.117 201.098 106.982 200.652 106.713C200.207 106.443 199.863 106.057 199.621 105.553C199.379 105.049 199.258 104.459 199.258 103.783C199.258 102.736 199.52 101.922 200.043 101.34C200.566 100.754 201.293 100.461 202.223 100.461C203.121 100.461 203.834 100.76 204.361 101.357C204.893 101.955 205.158 102.764 205.158 103.783ZM200.266 103.783C200.266 104.604 200.43 105.229 200.758 105.658C201.086 106.088 201.568 106.303 202.205 106.303C202.842 106.303 203.324 106.09 203.652 105.664C203.984 105.234 204.15 104.607 204.15 103.783C204.15 102.967 203.984 102.348 203.652 101.926C203.324 101.5 202.838 101.287 202.193 101.287C201.557 101.287 201.076 101.496 200.752 101.914C200.428 102.332 200.266 102.955 200.266 103.783ZM207.783 100.578V104.744C207.783 105.268 207.902 105.658 208.141 105.916C208.379 106.174 208.752 106.303 209.26 106.303C209.932 106.303 210.422 106.119 210.73 105.752C211.043 105.385 211.199 104.785 211.199 103.953V100.578H212.172V107H211.369L211.229 106.139H211.176C210.977 106.455 210.699 106.697 210.344 106.865C209.992 107.033 209.59 107.117 209.137 107.117C208.355 107.117 207.77 106.932 207.379 106.561C206.992 106.189 206.799 105.596 206.799 104.779V100.578H207.783ZM216.314 106.314C216.486 106.314 216.652 106.303 216.812 106.279C216.973 106.252 217.1 106.225 217.193 106.197V106.941C217.088 106.992 216.932 107.033 216.725 107.064C216.521 107.1 216.338 107.117 216.174 107.117C214.932 107.117 214.311 106.463 214.311 105.154V101.334H213.391V100.865L214.311 100.461L214.721 99.0898H215.283V100.578H217.146V101.334H215.283V105.113C215.283 105.5 215.375 105.797 215.559 106.004C215.742 106.211 215.994 106.314 216.314 106.314ZM219.361 104.639H218.746L218.447 98.4336H219.66L219.361 104.639ZM218.342 106.379C218.342 105.848 218.576 105.582 219.045 105.582C219.271 105.582 219.445 105.65 219.566 105.787C219.691 105.924 219.754 106.121 219.754 106.379C219.754 106.629 219.691 106.824 219.566 106.965C219.441 107.102 219.268 107.17 219.045 107.17C218.842 107.17 218.674 107.109 218.541 106.988C218.408 106.863 218.342 106.66 218.342 106.379Z" fill="#E1E1E6"/>
<path d="M120.516 60L117.766 51.0391H117.695C117.794 52.862 117.844 54.0781 117.844 54.6875V60H115.68V48.5781H118.977L121.68 57.3125H121.727L124.594 48.5781H127.891V60H125.633V54.5938C125.633 54.3385 125.635 54.0443 125.641 53.7109C125.651 53.3776 125.688 52.4922 125.75 51.0547H125.68L122.734 60H120.516ZM132.484 55.6172C132.484 56.4818 132.625 57.1354 132.906 57.5781C133.193 58.0208 133.656 58.2422 134.297 58.2422C134.932 58.2422 135.388 58.0234 135.664 57.5859C135.945 57.1432 136.086 56.487 136.086 55.6172C136.086 54.7526 135.945 54.1042 135.664 53.6719C135.383 53.2396 134.922 53.0234 134.281 53.0234C133.646 53.0234 133.188 53.2396 132.906 53.6719C132.625 54.099 132.484 54.7474 132.484 55.6172ZM138.523 55.6172C138.523 57.0391 138.148 58.151 137.398 58.9531C136.648 59.7552 135.604 60.1562 134.266 60.1562C133.427 60.1562 132.688 59.974 132.047 59.6094C131.406 59.2396 130.914 58.7109 130.57 58.0234C130.227 57.3359 130.055 56.5339 130.055 55.6172C130.055 54.1901 130.427 53.0807 131.172 52.2891C131.917 51.4974 132.964 51.1016 134.312 51.1016C135.151 51.1016 135.891 51.2839 136.531 51.6484C137.172 52.013 137.664 52.5365 138.008 53.2188C138.352 53.901 138.523 54.7005 138.523 55.6172ZM144.172 58.2578C144.589 58.2578 145.089 58.1667 145.672 57.9844V59.7578C145.078 60.0234 144.349 60.1562 143.484 60.1562C142.531 60.1562 141.836 59.9167 141.398 59.4375C140.966 58.9531 140.75 58.2292 140.75 57.2656V53.0547H139.609V52.0469L140.922 51.25L141.609 49.4062H143.133V51.2656H145.578V53.0547H143.133V57.2656C143.133 57.6042 143.227 57.8542 143.414 58.0156C143.607 58.1771 143.859 58.2578 144.172 58.2578ZM149.344 55.6172C149.344 56.4818 149.484 57.1354 149.766 57.5781C150.052 58.0208 150.516 58.2422 151.156 58.2422C151.792 58.2422 152.247 58.0234 152.523 57.5859C152.805 57.1432 152.945 56.487 152.945 55.6172C152.945 54.7526 152.805 54.1042 152.523 53.6719C152.242 53.2396 151.781 53.0234 151.141 53.0234C150.505 53.0234 150.047 53.2396 149.766 53.6719C149.484 54.099 149.344 54.7474 149.344 55.6172ZM155.383 55.6172C155.383 57.0391 155.008 58.151 154.258 58.9531C153.508 59.7552 152.464 60.1562 151.125 60.1562C150.286 60.1562 149.547 59.974 148.906 59.6094C148.266 59.2396 147.773 58.7109 147.43 58.0234C147.086 57.3359 146.914 56.5339 146.914 55.6172C146.914 54.1901 147.286 53.0807 148.031 52.2891C148.776 51.4974 149.823 51.1016 151.172 51.1016C152.01 51.1016 152.75 51.2839 153.391 51.6484C154.031 52.013 154.523 52.5365 154.867 53.2188C155.211 53.901 155.383 54.7005 155.383 55.6172ZM162.227 51.1016C162.549 51.1016 162.818 51.125 163.031 51.1719L162.852 53.4062C162.659 53.3542 162.424 53.3281 162.148 53.3281C161.388 53.3281 160.794 53.5234 160.367 53.9141C159.945 54.3047 159.734 54.8516 159.734 55.5547V60H157.352V51.2656H159.156L159.508 52.7344H159.625C159.896 52.2448 160.26 51.8516 160.719 51.5547C161.182 51.2526 161.685 51.1016 162.227 51.1016ZM175.703 56.8281C175.703 57.8594 175.331 58.6719 174.586 59.2656C173.846 59.8594 172.815 60.1562 171.492 60.1562C170.273 60.1562 169.195 59.9271 168.258 59.4688V57.2188C169.029 57.5625 169.68 57.8047 170.211 57.9453C170.747 58.0859 171.237 58.1562 171.68 58.1562C172.211 58.1562 172.617 58.0547 172.898 57.8516C173.185 57.6484 173.328 57.3464 173.328 56.9453C173.328 56.7214 173.266 56.5234 173.141 56.3516C173.016 56.1745 172.831 56.0052 172.586 55.8438C172.346 55.6823 171.854 55.4245 171.109 55.0703C170.411 54.7422 169.888 54.4271 169.539 54.125C169.19 53.8229 168.911 53.4714 168.703 53.0703C168.495 52.6693 168.391 52.2005 168.391 51.6641C168.391 50.6536 168.732 49.8594 169.414 49.2812C170.102 48.7031 171.049 48.4141 172.258 48.4141C172.852 48.4141 173.417 48.4844 173.953 48.625C174.495 48.7656 175.06 48.9635 175.648 49.2188L174.867 51.1016C174.258 50.8516 173.753 50.6771 173.352 50.5781C172.956 50.4792 172.565 50.4297 172.18 50.4297C171.721 50.4297 171.37 50.5365 171.125 50.75C170.88 50.9635 170.758 51.2422 170.758 51.5859C170.758 51.7995 170.807 51.987 170.906 52.1484C171.005 52.3047 171.161 52.4583 171.375 52.6094C171.594 52.7552 172.107 53.0208 172.914 53.4062C173.982 53.9167 174.714 54.4297 175.109 54.9453C175.505 55.4557 175.703 56.0833 175.703 56.8281ZM181.133 60.1562C178.414 60.1562 177.055 58.6641 177.055 55.6797C177.055 54.1953 177.424 53.0625 178.164 52.2812C178.904 51.4948 179.964 51.1016 181.344 51.1016C182.354 51.1016 183.26 51.2995 184.062 51.6953L183.359 53.5391C182.984 53.388 182.635 53.2656 182.312 53.1719C181.99 53.0729 181.667 53.0234 181.344 53.0234C180.104 53.0234 179.484 53.9036 179.484 55.6641C179.484 57.3724 180.104 58.2266 181.344 58.2266C181.802 58.2266 182.227 58.1667 182.617 58.0469C183.008 57.9219 183.398 57.7292 183.789 57.4688V59.5078C183.404 59.7526 183.013 59.9219 182.617 60.0156C182.227 60.1094 181.732 60.1562 181.133 60.1562ZM191.367 60L190.906 58.8125H190.844C190.443 59.3177 190.029 59.6693 189.602 59.8672C189.18 60.0599 188.628 60.1562 187.945 60.1562C187.107 60.1562 186.445 59.9167 185.961 59.4375C185.482 58.9583 185.242 58.276 185.242 57.3906C185.242 56.4635 185.565 55.7812 186.211 55.3438C186.862 54.901 187.841 54.6562 189.148 54.6094L190.664 54.5625V54.1797C190.664 53.2943 190.211 52.8516 189.305 52.8516C188.607 52.8516 187.786 53.0625 186.844 53.4844L186.055 51.875C187.06 51.349 188.174 51.0859 189.398 51.0859C190.57 51.0859 191.469 51.3411 192.094 51.8516C192.719 52.362 193.031 53.138 193.031 54.1797V60H191.367ZM190.664 55.9531L189.742 55.9844C189.049 56.0052 188.534 56.1302 188.195 56.3594C187.857 56.5885 187.688 56.9375 187.688 57.4062C187.688 58.0781 188.073 58.4141 188.844 58.4141C189.396 58.4141 189.836 58.2552 190.164 57.9375C190.497 57.6198 190.664 57.1979 190.664 56.6719V55.9531ZM203.555 60H201.172V54.8984C201.172 54.2682 201.06 53.7969 200.836 53.4844C200.612 53.1667 200.255 53.0078 199.766 53.0078C199.099 53.0078 198.617 53.2318 198.32 53.6797C198.023 54.1224 197.875 54.8594 197.875 55.8906V60H195.492V51.2656H197.312L197.633 52.3828H197.766C198.031 51.9609 198.396 51.6432 198.859 51.4297C199.328 51.2109 199.859 51.1016 200.453 51.1016C201.469 51.1016 202.24 51.3776 202.766 51.9297C203.292 52.4766 203.555 53.2682 203.555 54.3047V60Z" fill="#E1E1E6"/>
<g clip-path="url(#clip0)">
<path d="M170.905 1.24524H166.849C166.38 1.24524 166 1.62539 166 2.0943C166 2.5632 166.38 2.94335 166.849 2.94335H170.905C171.696 2.94335 172.34 3.58682 172.34 4.37775V8.43392C172.34 8.90282 172.72 9.28298 173.189 9.28298C173.658 9.28298 174.038 8.90282 174.038 8.43392V4.37775C174.038 2.65048 172.632 1.24524 170.905 1.24524V1.24524Z" fill="white"/>
<path d="M145.906 9.28298C146.375 9.28298 146.755 8.90282 146.755 8.43392V4.37775C146.755 3.58682 147.398 2.94335 148.189 2.94335H152.245C152.714 2.94335 153.094 2.5632 153.094 2.0943C153.094 1.62539 152.714 1.24524 152.245 1.24524H148.189C146.462 1.24524 145.057 2.65048 145.057 4.37775V8.43392C145.057 8.90282 145.437 9.28298 145.906 9.28298Z" fill="white"/>
<path d="M152.189 27.283H148.132C147.342 27.283 146.698 26.6395 146.698 25.8486V21.7924C146.698 21.3235 146.318 20.9434 145.849 20.9434C145.38 20.9434 145 21.3235 145 21.7924V25.8486C145 27.5759 146.405 28.9811 148.132 28.9811H152.189C152.658 28.9811 153.038 28.6009 153.038 28.132C153.038 27.6631 152.658 27.283 152.189 27.283Z" fill="white"/>
<path d="M173.132 20.9434C172.663 20.9434 172.283 21.3235 172.283 21.7924V25.8486C172.283 26.6395 171.64 27.283 170.849 27.283H166.792C166.324 27.283 165.943 27.6631 165.943 28.132C165.943 28.6009 166.324 28.9811 166.792 28.9811H170.849C172.576 28.9811 173.981 27.5759 173.981 25.8486V21.7924C173.981 21.3235 173.601 20.9434 173.132 20.9434Z" fill="white"/>
<path d="M145.057 14.4905C145.057 14.9594 145.437 15.3396 145.906 15.3396H173.076C173.544 15.3396 173.925 14.9594 173.925 14.4905C173.925 14.0216 173.544 13.6415 173.076 13.6415H145.906C145.437 13.6415 145.057 14.0216 145.057 14.4905Z" fill="white"/>
<path d="M167.44 13.1171L166.064 8.53137C165.844 7.79593 165.18 7.30188 164.412 7.30188H154.626C153.858 7.30188 153.194 7.79593 152.973 8.53137L151.598 13.1171C150.865 13.3157 150.321 13.9802 150.321 14.7754V19.9493C150.321 20.5832 150.837 21.0991 151.471 21.0991V21.674C151.471 22.625 152.244 23.3986 153.195 23.3986H154.345C155.296 23.3986 156.07 22.625 156.07 21.674V21.0991H162.968V21.674C162.968 22.625 163.742 23.3986 164.693 23.3986H165.843C166.794 23.3986 167.567 22.625 167.567 21.674V21.0991C168.201 21.0991 168.717 20.5832 168.717 19.9493V14.7754C168.717 13.9802 168.173 13.3157 167.44 13.1171ZM154.075 8.8615C154.148 8.61616 154.37 8.45167 154.626 8.45167H164.412C164.668 8.45167 164.889 8.61616 164.963 8.8615L166.22 13.0507H152.818L154.075 8.8615ZM154.92 21.674C154.92 21.9913 154.662 22.2489 154.345 22.2489H153.195C152.878 22.2489 152.62 21.9913 152.62 21.674V21.0992H154.92V21.674ZM166.418 21.674C166.418 21.9913 166.16 22.2489 165.843 22.2489H164.693C164.376 22.2489 164.118 21.9913 164.118 21.674V21.0992H166.418V21.674ZM151.471 19.9494V14.7754C151.471 14.4582 151.728 14.2006 152.045 14.2006H166.992C167.31 14.2006 167.567 14.4582 167.567 14.7754V19.9494H151.471Z" fill="white"/>
<path d="M154.412 15.6196C153.461 15.6196 152.688 16.3932 152.688 17.3443C152.688 18.2953 153.461 19.0689 154.412 19.0689C155.363 19.0689 156.137 18.2953 156.137 17.3443C156.137 16.3932 155.363 15.6196 154.412 15.6196ZM154.412 17.9192C154.095 17.9192 153.837 17.6615 153.837 17.3443C153.837 17.0271 154.095 16.7694 154.412 16.7694C154.73 16.7694 154.987 17.0271 154.987 17.3443C154.987 17.6615 154.73 17.9192 154.412 17.9192Z" fill="white"/>
<path d="M165.063 15.6196C164.112 15.6196 163.339 16.3932 163.339 17.3443C163.339 18.2953 164.112 19.0689 165.063 19.0689C166.014 19.0689 166.788 18.2953 166.788 17.3443C166.788 16.3932 166.014 15.6196 165.063 15.6196ZM165.063 17.9192C164.746 17.9192 164.488 17.6615 164.488 17.3443C164.488 17.0271 164.746 16.7694 165.063 16.7694C165.38 16.7694 165.638 17.0271 165.638 17.3443C165.638 17.6615 165.38 17.9192 165.063 17.9192Z" fill="white"/>
</g>
<defs>
<clipPath id="clip0">
<rect width="28.9811" height="28.9811" fill="white" transform="translate(145)"/>
</clipPath>
</defs>
</svg>
