<svg width="305" height="108" viewBox="0 0 305 108" fill="none" xmlns="http://www.w3.org/2000/svg">
<path d="M71.0254 89H70.041L68.3125 83.2637C68.2305 83.0098 68.1387 82.6895 68.0371 82.3027C67.9355 81.916 67.8828 81.6836 67.8789 81.6055C67.793 82.1211 67.6562 82.6855 67.4688 83.2988L65.793 89H64.8086L62.5293 80.4336H63.584L64.9375 85.7246C65.125 86.4668 65.2617 87.1387 65.3477 87.7402C65.4531 87.0254 65.6094 86.3262 65.8164 85.6426L67.3516 80.4336H68.4062L70.0176 85.6895C70.2051 86.2949 70.3633 86.9785 70.4922 87.7402C70.5664 87.1855 70.707 86.5098 70.9141 85.7129L72.2617 80.4336H73.3164L71.0254 89ZM78.9062 89V84.8457C78.9062 84.3223 78.7871 83.9316 78.5488 83.6738C78.3105 83.416 77.9375 83.2871 77.4297 83.2871C76.7539 83.2871 76.2598 83.4707 75.9473 83.8379C75.6387 84.2051 75.4844 84.8066 75.4844 85.6426V89H74.5117V79.8828H75.4844V82.6426C75.4844 82.9746 75.4688 83.25 75.4375 83.4688H75.4961C75.6875 83.1602 75.959 82.918 76.3105 82.7422C76.666 82.5625 77.0703 82.4727 77.5234 82.4727C78.3086 82.4727 78.8965 82.6602 79.2871 83.0352C79.6816 83.4062 79.8789 83.998 79.8789 84.8105V89H78.9062ZM85.832 89L85.6387 88.0859H85.5918C85.2715 88.4883 84.9512 88.7617 84.6309 88.9062C84.3145 89.0469 83.918 89.1172 83.4414 89.1172C82.8047 89.1172 82.3047 88.9531 81.9414 88.625C81.582 88.2969 81.4023 87.8301 81.4023 87.2246C81.4023 85.9277 82.4395 85.248 84.5137 85.1855L85.6035 85.1504V84.752C85.6035 84.248 85.4941 83.877 85.2754 83.6387C85.0605 83.3965 84.7148 83.2754 84.2383 83.2754C83.7031 83.2754 83.0977 83.4395 82.4219 83.7676L82.123 83.0234C82.4395 82.8516 82.7852 82.7168 83.1602 82.6191C83.5391 82.5215 83.918 82.4727 84.2969 82.4727C85.0625 82.4727 85.6289 82.6426 85.9961 82.9824C86.3672 83.3223 86.5527 83.8672 86.5527 84.6172V89H85.832ZM83.6348 88.3145C84.2402 88.3145 84.7148 88.1484 85.0586 87.8164C85.4062 87.4844 85.5801 87.0195 85.5801 86.4219V85.8418L84.6074 85.8828C83.834 85.9102 83.2754 86.0312 82.9316 86.2461C82.5918 86.457 82.4219 86.7871 82.4219 87.2363C82.4219 87.5879 82.5273 87.8555 82.7383 88.0391C82.9531 88.2227 83.252 88.3145 83.6348 88.3145ZM90.6367 88.3145C90.8086 88.3145 90.9746 88.3027 91.1348 88.2793C91.2949 88.252 91.4219 88.2246 91.5156 88.1973V88.9414C91.4102 88.9922 91.2539 89.0332 91.0469 89.0645C90.8438 89.0996 90.6602 89.1172 90.4961 89.1172C89.2539 89.1172 88.6328 88.4629 88.6328 87.1543V83.334H87.7129V82.8652L88.6328 82.4609L89.043 81.0898H89.6055V82.5781H91.4688V83.334H89.6055V87.1133C89.6055 87.5 89.6973 87.7969 89.8809 88.0039C90.0645 88.2109 90.3164 88.3145 90.6367 88.3145ZM98.4883 89.1172C97.5586 89.1172 96.8379 88.832 96.3262 88.2617C95.8184 87.6875 95.5645 86.877 95.5645 85.8301C95.5645 84.7559 95.8223 83.9258 96.3379 83.3398C96.8574 82.7539 97.5957 82.4609 98.5527 82.4609C98.8613 82.4609 99.1699 82.4941 99.4785 82.5605C99.7871 82.627 100.029 82.7051 100.205 82.7949L99.9062 83.6211C99.6914 83.5352 99.457 83.4648 99.2031 83.4102C98.9492 83.3516 98.7246 83.3223 98.5293 83.3223C97.2246 83.3223 96.5723 84.1543 96.5723 85.8184C96.5723 86.6074 96.7305 87.2129 97.0469 87.6348C97.3672 88.0566 97.8398 88.2676 98.4648 88.2676C99 88.2676 99.5488 88.1523 100.111 87.9219V88.7832C99.6816 89.0059 99.1406 89.1172 98.4883 89.1172ZM105.59 89L105.396 88.0859H105.35C105.029 88.4883 104.709 88.7617 104.389 88.9062C104.072 89.0469 103.676 89.1172 103.199 89.1172C102.562 89.1172 102.062 88.9531 101.699 88.625C101.34 88.2969 101.16 87.8301 101.16 87.2246C101.16 85.9277 102.197 85.248 104.271 85.1855L105.361 85.1504V84.752C105.361 84.248 105.252 83.877 105.033 83.6387C104.818 83.3965 104.473 83.2754 103.996 83.2754C103.461 83.2754 102.855 83.4395 102.18 83.7676L101.881 83.0234C102.197 82.8516 102.543 82.7168 102.918 82.6191C103.297 82.5215 103.676 82.4727 104.055 82.4727C104.82 82.4727 105.387 82.6426 105.754 82.9824C106.125 83.3223 106.311 83.8672 106.311 84.6172V89H105.59ZM103.393 88.3145C103.998 88.3145 104.473 88.1484 104.816 87.8164C105.164 87.4844 105.338 87.0195 105.338 86.4219V85.8418L104.365 85.8828C103.592 85.9102 103.033 86.0312 102.689 86.2461C102.35 86.457 102.18 86.7871 102.18 87.2363C102.18 87.5879 102.285 87.8555 102.496 88.0391C102.711 88.2227 103.01 88.3145 103.393 88.3145ZM111.25 82.4609C111.535 82.4609 111.791 82.4844 112.018 82.5312L111.883 83.4336C111.617 83.375 111.383 83.3457 111.18 83.3457C110.66 83.3457 110.215 83.5566 109.844 83.9785C109.477 84.4004 109.293 84.9258 109.293 85.5547V89H108.32V82.5781H109.123L109.234 83.7676H109.281C109.52 83.3496 109.807 83.0273 110.143 82.8008C110.479 82.5742 110.848 82.4609 111.25 82.4609ZM117.309 89H116.336V82.5781H117.309V89ZM116.254 80.8379C116.254 80.6152 116.309 80.4531 116.418 80.3516C116.527 80.2461 116.664 80.1934 116.828 80.1934C116.984 80.1934 117.119 80.2461 117.232 80.3516C117.346 80.457 117.402 80.6191 117.402 80.8379C117.402 81.0566 117.346 81.2207 117.232 81.3301C117.119 81.4355 116.984 81.4883 116.828 81.4883C116.664 81.4883 116.527 81.4355 116.418 81.3301C116.309 81.2207 116.254 81.0566 116.254 80.8379ZM123.514 87.248C123.514 87.8457 123.291 88.3066 122.846 88.6309C122.4 88.9551 121.775 89.1172 120.971 89.1172C120.119 89.1172 119.455 88.9824 118.979 88.7129V87.8105C119.287 87.9668 119.617 88.0898 119.969 88.1797C120.324 88.2695 120.666 88.3145 120.994 88.3145C121.502 88.3145 121.893 88.2344 122.166 88.0742C122.439 87.9102 122.576 87.6621 122.576 87.3301C122.576 87.0801 122.467 86.8672 122.248 86.6914C122.033 86.5117 121.611 86.3008 120.982 86.0586C120.385 85.8359 119.959 85.6426 119.705 85.4785C119.455 85.3105 119.268 85.1211 119.143 84.9102C119.021 84.6992 118.961 84.4473 118.961 84.1543C118.961 83.6309 119.174 83.2188 119.6 82.918C120.025 82.6133 120.609 82.4609 121.352 82.4609C122.043 82.4609 122.719 82.6016 123.379 82.8828L123.033 83.6738C122.389 83.4082 121.805 83.2754 121.281 83.2754C120.82 83.2754 120.473 83.3477 120.238 83.4922C120.004 83.6367 119.887 83.8359 119.887 84.0898C119.887 84.2617 119.93 84.4082 120.016 84.5293C120.105 84.6504 120.248 84.7656 120.443 84.875C120.639 84.9844 121.014 85.1426 121.568 85.3496C122.33 85.627 122.844 85.9062 123.109 86.1875C123.379 86.4688 123.514 86.8223 123.514 87.248ZM130.293 88.3145C130.465 88.3145 130.631 88.3027 130.791 88.2793C130.951 88.252 131.078 88.2246 131.172 88.1973V88.9414C131.066 88.9922 130.91 89.0332 130.703 89.0645C130.5 89.0996 130.316 89.1172 130.152 89.1172C128.91 89.1172 128.289 88.4629 128.289 87.1543V83.334H127.369V82.8652L128.289 82.4609L128.699 81.0898H129.262V82.5781H131.125V83.334H129.262V87.1133C129.262 87.5 129.354 87.7969 129.537 88.0039C129.721 88.2109 129.973 88.3145 130.293 88.3145ZM136.855 89V84.8457C136.855 84.3223 136.736 83.9316 136.498 83.6738C136.26 83.416 135.887 83.2871 135.379 83.2871C134.703 83.2871 134.209 83.4707 133.896 83.8379C133.588 84.2051 133.434 84.8066 133.434 85.6426V89H132.461V79.8828H133.434V82.6426C133.434 82.9746 133.418 83.25 133.387 83.4688H133.445C133.637 83.1602 133.908 82.918 134.26 82.7422C134.615 82.5625 135.02 82.4727 135.473 82.4727C136.258 82.4727 136.846 82.6602 137.236 83.0352C137.631 83.4062 137.828 83.998 137.828 84.8105V89H136.855ZM143.781 89L143.588 88.0859H143.541C143.221 88.4883 142.9 88.7617 142.58 88.9062C142.264 89.0469 141.867 89.1172 141.391 89.1172C140.754 89.1172 140.254 88.9531 139.891 88.625C139.531 88.2969 139.352 87.8301 139.352 87.2246C139.352 85.9277 140.389 85.248 142.463 85.1855L143.553 85.1504V84.752C143.553 84.248 143.443 83.877 143.225 83.6387C143.01 83.3965 142.664 83.2754 142.188 83.2754C141.652 83.2754 141.047 83.4395 140.371 83.7676L140.072 83.0234C140.389 82.8516 140.734 82.7168 141.109 82.6191C141.488 82.5215 141.867 82.4727 142.246 82.4727C143.012 82.4727 143.578 82.6426 143.945 82.9824C144.316 83.3223 144.502 83.8672 144.502 84.6172V89H143.781ZM141.584 88.3145C142.189 88.3145 142.664 88.1484 143.008 87.8164C143.355 87.4844 143.529 87.0195 143.529 86.4219V85.8418L142.557 85.8828C141.783 85.9102 141.225 86.0312 140.881 86.2461C140.541 86.457 140.371 86.7871 140.371 87.2363C140.371 87.5879 140.477 87.8555 140.688 88.0391C140.902 88.2227 141.201 88.3145 141.584 88.3145ZM148.586 88.3145C148.758 88.3145 148.924 88.3027 149.084 88.2793C149.244 88.252 149.371 88.2246 149.465 88.1973V88.9414C149.359 88.9922 149.203 89.0332 148.996 89.0645C148.793 89.0996 148.609 89.1172 148.445 89.1172C147.203 89.1172 146.582 88.4629 146.582 87.1543V83.334H145.662V82.8652L146.582 82.4609L146.992 81.0898H147.555V82.5781H149.418V83.334H147.555V87.1133C147.555 87.5 147.646 87.7969 147.83 88.0039C148.014 88.2109 148.266 88.3145 148.586 88.3145ZM151.416 86.6387V86.3223C151.416 85.8652 151.486 85.4902 151.627 85.1973C151.768 84.9004 152.029 84.5879 152.412 84.2598C152.943 83.8105 153.277 83.4727 153.414 83.2461C153.555 83.0195 153.625 82.7461 153.625 82.4258C153.625 82.0273 153.496 81.7207 153.238 81.5059C152.984 81.2871 152.617 81.1777 152.137 81.1777C151.828 81.1777 151.527 81.2148 151.234 81.2891C150.941 81.3594 150.605 81.4902 150.227 81.6816L149.881 80.8906C150.619 80.5039 151.391 80.3105 152.195 80.3105C152.941 80.3105 153.521 80.4941 153.936 80.8613C154.35 81.2285 154.557 81.7461 154.557 82.4141C154.557 82.6992 154.518 82.9512 154.439 83.1699C154.365 83.3848 154.254 83.5898 154.105 83.7852C153.957 83.9766 153.637 84.2871 153.145 84.7168C152.75 85.0527 152.488 85.332 152.359 85.5547C152.234 85.7773 152.172 86.0742 152.172 86.4453V86.6387H151.416ZM151.129 88.3789C151.129 87.8477 151.363 87.582 151.832 87.582C152.059 87.582 152.232 87.6504 152.354 87.7871C152.479 87.9238 152.541 88.1211 152.541 88.3789C152.541 88.6289 152.479 88.8242 152.354 88.9648C152.229 89.1016 152.055 89.1699 151.832 89.1699C151.629 89.1699 151.461 89.1094 151.328 88.9883C151.195 88.8633 151.129 88.6602 151.129 88.3789ZM165.678 89H164.682V84.9688H160.17V89H159.174V80.4336H160.17V84.0781H164.682V80.4336H165.678V89ZM173.43 85.7832C173.43 86.8301 173.166 87.6484 172.639 88.2383C172.111 88.8242 171.383 89.1172 170.453 89.1172C169.879 89.1172 169.369 88.9824 168.924 88.7129C168.479 88.4434 168.135 88.0566 167.893 87.5527C167.65 87.0488 167.529 86.459 167.529 85.7832C167.529 84.7363 167.791 83.9219 168.314 83.3398C168.838 82.7539 169.564 82.4609 170.494 82.4609C171.393 82.4609 172.105 82.7598 172.633 83.3574C173.164 83.9551 173.43 84.7637 173.43 85.7832ZM168.537 85.7832C168.537 86.6035 168.701 87.2285 169.029 87.6582C169.357 88.0879 169.84 88.3027 170.477 88.3027C171.113 88.3027 171.596 88.0898 171.924 87.6641C172.256 87.2344 172.422 86.6074 172.422 85.7832C172.422 84.9668 172.256 84.3477 171.924 83.9258C171.596 83.5 171.109 83.2871 170.465 83.2871C169.828 83.2871 169.348 83.4961 169.023 83.9141C168.699 84.332 168.537 84.9551 168.537 85.7832ZM180.385 89L179.207 85.2324C179.133 85.002 178.994 84.4785 178.791 83.6621H178.744C178.588 84.3457 178.451 84.873 178.334 85.2441L177.121 89H175.996L174.244 82.5781H175.264C175.678 84.1914 175.992 85.4199 176.207 86.2637C176.426 87.1074 176.551 87.6758 176.582 87.9688H176.629C176.672 87.7461 176.74 87.459 176.834 87.1074C176.932 86.752 177.016 86.4707 177.086 86.2637L178.264 82.5781H179.318L180.467 86.2637C180.686 86.9355 180.834 87.5 180.912 87.957H180.959C180.975 87.8164 181.016 87.5996 181.082 87.3066C181.152 87.0137 181.561 85.4375 182.307 82.5781H183.314L181.539 89H180.385ZM195.783 89V84.8223C195.783 84.3105 195.674 83.9277 195.455 83.6738C195.236 83.416 194.896 83.2871 194.436 83.2871C193.83 83.2871 193.383 83.4609 193.094 83.8086C192.805 84.1562 192.66 84.6914 192.66 85.4141V89H191.688V84.8223C191.688 84.3105 191.578 83.9277 191.359 83.6738C191.141 83.416 190.799 83.2871 190.334 83.2871C189.725 83.2871 189.277 83.4707 188.992 83.8379C188.711 84.2012 188.57 84.7988 188.57 85.6309V89H187.598V82.5781H188.389L188.547 83.457H188.594C188.777 83.1445 189.035 82.9004 189.367 82.7246C189.703 82.5488 190.078 82.4609 190.492 82.4609C191.496 82.4609 192.152 82.8242 192.461 83.5508H192.508C192.699 83.2148 192.977 82.9492 193.34 82.7539C193.703 82.5586 194.117 82.4609 194.582 82.4609C195.309 82.4609 195.852 82.6484 196.211 83.0234C196.574 83.3945 196.756 83.9902 196.756 84.8105V89H195.783ZM199.68 82.5781V86.7441C199.68 87.2676 199.799 87.6582 200.037 87.916C200.275 88.1738 200.648 88.3027 201.156 88.3027C201.828 88.3027 202.318 88.1191 202.627 87.752C202.939 87.3848 203.096 86.7852 203.096 85.9531V82.5781H204.068V89H203.266L203.125 88.1387H203.072C202.873 88.4551 202.596 88.6973 202.24 88.8652C201.889 89.0332 201.486 89.1172 201.033 89.1172C200.252 89.1172 199.666 88.9316 199.275 88.5605C198.889 88.1895 198.695 87.5957 198.695 86.7793V82.5781H199.68ZM208.703 89.1172C207.773 89.1172 207.053 88.832 206.541 88.2617C206.033 87.6875 205.779 86.877 205.779 85.8301C205.779 84.7559 206.037 83.9258 206.553 83.3398C207.072 82.7539 207.811 82.4609 208.768 82.4609C209.076 82.4609 209.385 82.4941 209.693 82.5605C210.002 82.627 210.244 82.7051 210.42 82.7949L210.121 83.6211C209.906 83.5352 209.672 83.4648 209.418 83.4102C209.164 83.3516 208.939 83.3223 208.744 83.3223C207.439 83.3223 206.787 84.1543 206.787 85.8184C206.787 86.6074 206.945 87.2129 207.262 87.6348C207.582 88.0566 208.055 88.2676 208.68 88.2676C209.215 88.2676 209.764 88.1523 210.326 87.9219V88.7832C209.896 89.0059 209.355 89.1172 208.703 89.1172ZM216.25 89V84.8457C216.25 84.3223 216.131 83.9316 215.893 83.6738C215.654 83.416 215.281 83.2871 214.773 83.2871C214.098 83.2871 213.604 83.4707 213.291 83.8379C212.982 84.2051 212.828 84.8066 212.828 85.6426V89H211.855V79.8828H212.828V82.6426C212.828 82.9746 212.812 83.25 212.781 83.4688H212.84C213.031 83.1602 213.303 82.918 213.654 82.7422C214.01 82.5625 214.414 82.4727 214.867 82.4727C215.652 82.4727 216.24 82.6602 216.631 83.0352C217.025 83.4062 217.223 83.998 217.223 84.8105V89H216.25ZM223.316 89H222.344V82.5781H223.316V89ZM222.262 80.8379C222.262 80.6152 222.316 80.4531 222.426 80.3516C222.535 80.2461 222.672 80.1934 222.836 80.1934C222.992 80.1934 223.127 80.2461 223.24 80.3516C223.354 80.457 223.41 80.6191 223.41 80.8379C223.41 81.0566 223.354 81.2207 223.24 81.3301C223.127 81.4355 222.992 81.4883 222.836 81.4883C222.672 81.4883 222.535 81.4355 222.426 81.3301C222.316 81.2207 222.262 81.0566 222.262 80.8379ZM229.521 87.248C229.521 87.8457 229.299 88.3066 228.854 88.6309C228.408 88.9551 227.783 89.1172 226.979 89.1172C226.127 89.1172 225.463 88.9824 224.986 88.7129V87.8105C225.295 87.9668 225.625 88.0898 225.977 88.1797C226.332 88.2695 226.674 88.3145 227.002 88.3145C227.51 88.3145 227.9 88.2344 228.174 88.0742C228.447 87.9102 228.584 87.6621 228.584 87.3301C228.584 87.0801 228.475 86.8672 228.256 86.6914C228.041 86.5117 227.619 86.3008 226.99 86.0586C226.393 85.8359 225.967 85.6426 225.713 85.4785C225.463 85.3105 225.275 85.1211 225.15 84.9102C225.029 84.6992 224.969 84.4473 224.969 84.1543C224.969 83.6309 225.182 83.2188 225.607 82.918C226.033 82.6133 226.617 82.4609 227.359 82.4609C228.051 82.4609 228.727 82.6016 229.387 82.8828L229.041 83.6738C228.396 83.4082 227.812 83.2754 227.289 83.2754C226.828 83.2754 226.48 83.3477 226.246 83.4922C226.012 83.6367 225.895 83.8359 225.895 84.0898C225.895 84.2617 225.938 84.4082 226.023 84.5293C226.113 84.6504 226.256 84.7656 226.451 84.875C226.646 84.9844 227.021 85.1426 227.576 85.3496C228.338 85.627 228.852 85.9062 229.117 86.1875C229.387 86.4688 229.521 86.8223 229.521 87.248ZM235.199 89H234.227V82.5781H235.199V89ZM234.145 80.8379C234.145 80.6152 234.199 80.4531 234.309 80.3516C234.418 80.2461 234.555 80.1934 234.719 80.1934C234.875 80.1934 235.01 80.2461 235.123 80.3516C235.236 80.457 235.293 80.6191 235.293 80.8379C235.293 81.0566 235.236 81.2207 235.123 81.3301C235.01 81.4355 234.875 81.4883 234.719 81.4883C234.555 81.4883 234.418 81.4355 234.309 81.3301C234.199 81.2207 234.145 81.0566 234.145 80.8379ZM239.336 88.3145C239.508 88.3145 239.674 88.3027 239.834 88.2793C239.994 88.252 240.121 88.2246 240.215 88.1973V88.9414C240.109 88.9922 239.953 89.0332 239.746 89.0645C239.543 89.0996 239.359 89.1172 239.195 89.1172C237.953 89.1172 237.332 88.4629 237.332 87.1543V83.334H236.412V82.8652L237.332 82.4609L237.742 81.0898H238.305V82.5781H240.168V83.334H238.305V87.1133C238.305 87.5 238.396 87.7969 238.58 88.0039C238.764 88.2109 239.016 88.3145 239.336 88.3145ZM242.166 86.6387V86.3223C242.166 85.8652 242.236 85.4902 242.377 85.1973C242.518 84.9004 242.779 84.5879 243.162 84.2598C243.693 83.8105 244.027 83.4727 244.164 83.2461C244.305 83.0195 244.375 82.7461 244.375 82.4258C244.375 82.0273 244.246 81.7207 243.988 81.5059C243.734 81.2871 243.367 81.1777 242.887 81.1777C242.578 81.1777 242.277 81.2148 241.984 81.2891C241.691 81.3594 241.355 81.4902 240.977 81.6816L240.631 80.8906C241.369 80.5039 242.141 80.3105 242.945 80.3105C243.691 80.3105 244.271 80.4941 244.686 80.8613C245.1 81.2285 245.307 81.7461 245.307 82.4141C245.307 82.6992 245.268 82.9512 245.189 83.1699C245.115 83.3848 245.004 83.5898 244.855 83.7852C244.707 83.9766 244.387 84.2871 243.895 84.7168C243.5 85.0527 243.238 85.332 243.109 85.5547C242.984 85.7773 242.922 86.0742 242.922 86.4453V86.6387H242.166ZM241.879 88.3789C241.879 87.8477 242.113 87.582 242.582 87.582C242.809 87.582 242.982 87.6504 243.104 87.7871C243.229 87.9238 243.291 88.1211 243.291 88.3789C243.291 88.6289 243.229 88.8242 243.104 88.9648C242.979 89.1016 242.805 89.1699 242.582 89.1699C242.379 89.1699 242.211 89.1094 242.078 88.9883C241.945 88.8633 241.879 88.6602 241.879 88.3789ZM100.908 102.721C100.908 103.475 100.635 104.062 100.088 104.484C99.541 104.906 98.7988 105.117 97.8613 105.117C96.8457 105.117 96.0645 104.986 95.5176 104.725V103.764C95.8691 103.912 96.252 104.029 96.666 104.115C97.0801 104.201 97.4902 104.244 97.8965 104.244C98.5605 104.244 99.0605 104.119 99.3965 103.869C99.7324 103.615 99.9004 103.264 99.9004 102.814C99.9004 102.518 99.8398 102.275 99.7188 102.088C99.6016 101.896 99.4023 101.721 99.1211 101.561C98.8438 101.4 98.4199 101.219 97.8496 101.016C97.0527 100.73 96.4824 100.393 96.1387 100.002C95.7988 99.6113 95.6289 99.1016 95.6289 98.4727C95.6289 97.8125 95.877 97.2871 96.373 96.8965C96.8691 96.5059 97.5254 96.3105 98.3418 96.3105C99.1934 96.3105 99.9766 96.4668 100.691 96.7793L100.381 97.6465C99.6738 97.3496 98.9863 97.2012 98.3184 97.2012C97.791 97.2012 97.3789 97.3145 97.082 97.541C96.7852 97.7676 96.6367 98.082 96.6367 98.4844C96.6367 98.7812 96.6914 99.0254 96.8008 99.2168C96.9102 99.4043 97.0938 99.5781 97.3516 99.7383C97.6133 99.8945 98.0117 100.068 98.5469 100.26C99.4453 100.58 100.062 100.924 100.398 101.291C100.738 101.658 100.908 102.135 100.908 102.721ZM105.08 105.117C104.15 105.117 103.43 104.832 102.918 104.262C102.41 103.688 102.156 102.877 102.156 101.83C102.156 100.756 102.414 99.9258 102.93 99.3398C103.449 98.7539 104.188 98.4609 105.145 98.4609C105.453 98.4609 105.762 98.4941 106.07 98.5605C106.379 98.627 106.621 98.7051 106.797 98.7949L106.498 99.6211C106.283 99.5352 106.049 99.4648 105.795 99.4102C105.541 99.3516 105.316 99.3223 105.121 99.3223C103.816 99.3223 103.164 100.154 103.164 101.818C103.164 102.607 103.322 103.213 103.639 103.635C103.959 104.057 104.432 104.268 105.057 104.268C105.592 104.268 106.141 104.152 106.703 103.922V104.783C106.273 105.006 105.732 105.117 105.08 105.117ZM112.182 105L111.988 104.086H111.941C111.621 104.488 111.301 104.762 110.98 104.906C110.664 105.047 110.268 105.117 109.791 105.117C109.154 105.117 108.654 104.953 108.291 104.625C107.932 104.297 107.752 103.83 107.752 103.225C107.752 101.928 108.789 101.248 110.863 101.186L111.953 101.15V100.752C111.953 100.248 111.844 99.877 111.625 99.6387C111.41 99.3965 111.064 99.2754 110.588 99.2754C110.053 99.2754 109.447 99.4395 108.771 99.7676L108.473 99.0234C108.789 98.8516 109.135 98.7168 109.51 98.6191C109.889 98.5215 110.268 98.4727 110.646 98.4727C111.412 98.4727 111.979 98.6426 112.346 98.9824C112.717 99.3223 112.902 99.8672 112.902 100.617V105H112.182ZM109.984 104.314C110.59 104.314 111.064 104.148 111.408 103.816C111.756 103.484 111.93 103.02 111.93 102.422V101.842L110.957 101.883C110.184 101.91 109.625 102.031 109.281 102.246C108.941 102.457 108.771 102.787 108.771 103.236C108.771 103.588 108.877 103.855 109.088 104.039C109.303 104.223 109.602 104.314 109.984 104.314ZM119.307 105V100.846C119.307 100.322 119.188 99.9316 118.949 99.6738C118.711 99.416 118.338 99.2871 117.83 99.2871C117.158 99.2871 116.666 99.4688 116.354 99.832C116.041 100.195 115.885 100.795 115.885 101.631V105H114.912V98.5781H115.703L115.861 99.457H115.908C116.107 99.1406 116.387 98.8965 116.746 98.7246C117.105 98.5488 117.506 98.4609 117.947 98.4609C118.721 98.4609 119.303 98.6484 119.693 99.0234C120.084 99.3945 120.279 99.9902 120.279 100.811V105H119.307ZM129.35 105L129.156 104.086H129.109C128.789 104.488 128.469 104.762 128.148 104.906C127.832 105.047 127.436 105.117 126.959 105.117C126.322 105.117 125.822 104.953 125.459 104.625C125.1 104.297 124.92 103.83 124.92 103.225C124.92 101.928 125.957 101.248 128.031 101.186L129.121 101.15V100.752C129.121 100.248 129.012 99.877 128.793 99.6387C128.578 99.3965 128.232 99.2754 127.756 99.2754C127.221 99.2754 126.615 99.4395 125.939 99.7676L125.641 99.0234C125.957 98.8516 126.303 98.7168 126.678 98.6191C127.057 98.5215 127.436 98.4727 127.814 98.4727C128.58 98.4727 129.146 98.6426 129.514 98.9824C129.885 99.3223 130.07 99.8672 130.07 100.617V105H129.35ZM127.152 104.314C127.758 104.314 128.232 104.148 128.576 103.816C128.924 103.484 129.098 103.02 129.098 102.422V101.842L128.125 101.883C127.352 101.91 126.793 102.031 126.449 102.246C126.109 102.457 125.939 102.787 125.939 103.236C125.939 103.588 126.045 103.855 126.256 104.039C126.471 104.223 126.77 104.314 127.152 104.314ZM137.764 105.117C136.834 105.117 136.113 104.832 135.602 104.262C135.094 103.688 134.84 102.877 134.84 101.83C134.84 100.756 135.098 99.9258 135.613 99.3398C136.133 98.7539 136.871 98.4609 137.828 98.4609C138.137 98.4609 138.445 98.4941 138.754 98.5605C139.062 98.627 139.305 98.7051 139.48 98.7949L139.182 99.6211C138.967 99.5352 138.732 99.4648 138.479 99.4102C138.225 99.3516 138 99.3223 137.805 99.3223C136.5 99.3223 135.848 100.154 135.848 101.818C135.848 102.607 136.006 103.213 136.322 103.635C136.643 104.057 137.115 104.268 137.74 104.268C138.275 104.268 138.824 104.152 139.387 103.922V104.783C138.957 105.006 138.416 105.117 137.764 105.117ZM144.865 105L144.672 104.086H144.625C144.305 104.488 143.984 104.762 143.664 104.906C143.348 105.047 142.951 105.117 142.475 105.117C141.838 105.117 141.338 104.953 140.975 104.625C140.615 104.297 140.436 103.83 140.436 103.225C140.436 101.928 141.473 101.248 143.547 101.186L144.637 101.15V100.752C144.637 100.248 144.527 99.877 144.309 99.6387C144.094 99.3965 143.748 99.2754 143.271 99.2754C142.736 99.2754 142.131 99.4395 141.455 99.7676L141.156 99.0234C141.473 98.8516 141.818 98.7168 142.193 98.6191C142.572 98.5215 142.951 98.4727 143.33 98.4727C144.096 98.4727 144.662 98.6426 145.029 98.9824C145.4 99.3223 145.586 99.8672 145.586 100.617V105H144.865ZM142.668 104.314C143.273 104.314 143.748 104.148 144.092 103.816C144.439 103.484 144.613 103.02 144.613 102.422V101.842L143.641 101.883C142.867 101.91 142.309 102.031 141.965 102.246C141.625 102.457 141.455 102.787 141.455 103.236C141.455 103.588 141.561 103.855 141.771 104.039C141.986 104.223 142.285 104.314 142.668 104.314ZM150.525 98.4609C150.811 98.4609 151.066 98.4844 151.293 98.5312L151.158 99.4336C150.893 99.375 150.658 99.3457 150.455 99.3457C149.936 99.3457 149.49 99.5566 149.119 99.9785C148.752 100.4 148.568 100.926 148.568 101.555V105H147.596V98.5781H148.398L148.51 99.7676H148.557C148.795 99.3496 149.082 99.0273 149.418 98.8008C149.754 98.5742 150.123 98.4609 150.525 98.4609ZM157.686 104.314C157.857 104.314 158.023 104.303 158.184 104.279C158.344 104.252 158.471 104.225 158.564 104.197V104.941C158.459 104.992 158.303 105.033 158.096 105.064C157.893 105.1 157.709 105.117 157.545 105.117C156.303 105.117 155.682 104.463 155.682 103.154V99.334H154.762V98.8652L155.682 98.4609L156.092 97.0898H156.654V98.5781H158.518V99.334H156.654V103.113C156.654 103.5 156.746 103.797 156.93 104.004C157.113 104.211 157.365 104.314 157.686 104.314ZM165.396 101.783C165.396 102.83 165.133 103.648 164.605 104.238C164.078 104.824 163.35 105.117 162.42 105.117C161.846 105.117 161.336 104.982 160.891 104.713C160.445 104.443 160.102 104.057 159.859 103.553C159.617 103.049 159.496 102.459 159.496 101.783C159.496 100.736 159.758 99.9219 160.281 99.3398C160.805 98.7539 161.531 98.4609 162.461 98.4609C163.359 98.4609 164.072 98.7598 164.6 99.3574C165.131 99.9551 165.396 100.764 165.396 101.783ZM160.504 101.783C160.504 102.604 160.668 103.229 160.996 103.658C161.324 104.088 161.807 104.303 162.443 104.303C163.08 104.303 163.562 104.09 163.891 103.664C164.223 103.234 164.389 102.607 164.389 101.783C164.389 100.967 164.223 100.348 163.891 99.9258C163.562 99.5 163.076 99.2871 162.432 99.2871C161.795 99.2871 161.314 99.4961 160.99 99.9141C160.666 100.332 160.504 100.955 160.504 101.783ZM173.119 99.334H171.484V105H170.512V99.334H169.363V98.8945L170.512 98.543V98.1855C170.512 96.6074 171.201 95.8184 172.58 95.8184C172.92 95.8184 173.318 95.8867 173.775 96.0234L173.523 96.8027C173.148 96.6816 172.828 96.6211 172.562 96.6211C172.195 96.6211 171.924 96.7441 171.748 96.9902C171.572 97.2324 171.484 97.623 171.484 98.1621V98.5781H173.119V99.334ZM175.264 105H174.291V98.5781H175.264V105ZM174.209 96.8379C174.209 96.6152 174.264 96.4531 174.373 96.3516C174.482 96.2461 174.619 96.1934 174.783 96.1934C174.939 96.1934 175.074 96.2461 175.188 96.3516C175.301 96.457 175.357 96.6191 175.357 96.8379C175.357 97.0566 175.301 97.2207 175.188 97.3301C175.074 97.4355 174.939 97.4883 174.783 97.4883C174.619 97.4883 174.482 97.4355 174.373 97.3301C174.264 97.2207 174.209 97.0566 174.209 96.8379ZM181.721 105V100.846C181.721 100.322 181.602 99.9316 181.363 99.6738C181.125 99.416 180.752 99.2871 180.244 99.2871C179.572 99.2871 179.08 99.4688 178.768 99.832C178.455 100.195 178.299 100.795 178.299 101.631V105H177.326V98.5781H178.117L178.275 99.457H178.322C178.521 99.1406 178.801 98.8965 179.16 98.7246C179.52 98.5488 179.92 98.4609 180.361 98.4609C181.135 98.4609 181.717 98.6484 182.107 99.0234C182.498 99.3945 182.693 99.9902 182.693 100.811V105H181.721ZM189.068 104.139H189.016C188.566 104.791 187.895 105.117 187 105.117C186.16 105.117 185.506 104.83 185.037 104.256C184.572 103.682 184.34 102.865 184.34 101.807C184.34 100.748 184.574 99.9258 185.043 99.3398C185.512 98.7539 186.164 98.4609 187 98.4609C187.871 98.4609 188.539 98.7773 189.004 99.4102H189.08L189.039 98.9473L189.016 98.4961V95.8828H189.988V105H189.197L189.068 104.139ZM187.123 104.303C187.787 104.303 188.268 104.123 188.564 103.764C188.865 103.4 189.016 102.816 189.016 102.012V101.807C189.016 100.896 188.863 100.248 188.559 99.8613C188.258 99.4707 187.775 99.2754 187.111 99.2754C186.541 99.2754 186.104 99.498 185.799 99.9434C185.498 100.385 185.348 101.01 185.348 101.818C185.348 102.639 185.498 103.258 185.799 103.676C186.1 104.094 186.541 104.303 187.123 104.303ZM200.717 101.783C200.717 102.83 200.453 103.648 199.926 104.238C199.398 104.824 198.67 105.117 197.74 105.117C197.166 105.117 196.656 104.982 196.211 104.713C195.766 104.443 195.422 104.057 195.18 103.553C194.938 103.049 194.816 102.459 194.816 101.783C194.816 100.736 195.078 99.9219 195.602 99.3398C196.125 98.7539 196.852 98.4609 197.781 98.4609C198.68 98.4609 199.393 98.7598 199.92 99.3574C200.451 99.9551 200.717 100.764 200.717 101.783ZM195.824 101.783C195.824 102.604 195.988 103.229 196.316 103.658C196.645 104.088 197.127 104.303 197.764 104.303C198.4 104.303 198.883 104.09 199.211 103.664C199.543 103.234 199.709 102.607 199.709 101.783C199.709 100.967 199.543 100.348 199.211 99.9258C198.883 99.5 198.396 99.2871 197.752 99.2871C197.115 99.2871 196.635 99.4961 196.311 99.9141C195.986 100.332 195.824 100.955 195.824 101.783ZM203.342 98.5781V102.744C203.342 103.268 203.461 103.658 203.699 103.916C203.938 104.174 204.311 104.303 204.818 104.303C205.49 104.303 205.98 104.119 206.289 103.752C206.602 103.385 206.758 102.785 206.758 101.953V98.5781H207.73V105H206.928L206.787 104.139H206.734C206.535 104.455 206.258 104.697 205.902 104.865C205.551 105.033 205.148 105.117 204.695 105.117C203.914 105.117 203.328 104.932 202.938 104.561C202.551 104.189 202.357 103.596 202.357 102.779V98.5781H203.342ZM211.873 104.314C212.045 104.314 212.211 104.303 212.371 104.279C212.531 104.252 212.658 104.225 212.752 104.197V104.941C212.646 104.992 212.49 105.033 212.283 105.064C212.08 105.1 211.896 105.117 211.732 105.117C210.49 105.117 209.869 104.463 209.869 103.154V99.334H208.949V98.8652L209.869 98.4609L210.279 97.0898H210.842V98.5781H212.705V99.334H210.842V103.113C210.842 103.5 210.934 103.797 211.117 104.004C211.301 104.211 211.553 104.314 211.873 104.314ZM214.92 102.639H214.305L214.006 96.4336H215.219L214.92 102.639ZM213.9 104.379C213.9 103.848 214.135 103.582 214.604 103.582C214.83 103.582 215.004 103.65 215.125 103.787C215.25 103.924 215.312 104.121 215.312 104.379C215.312 104.629 215.25 104.824 215.125 104.965C215 105.102 214.826 105.17 214.604 105.17C214.4 105.17 214.232 105.109 214.1 104.988C213.967 104.863 213.9 104.66 213.9 104.379Z" fill="black"/>
<path d="M113.516 59L110.766 50.0391H110.695C110.794 51.862 110.844 53.0781 110.844 53.6875V59H108.68V47.5781H111.977L114.68 56.3125H114.727L117.594 47.5781H120.891V59H118.633V53.5938C118.633 53.3385 118.635 53.0443 118.641 52.7109C118.651 52.3776 118.688 51.4922 118.75 50.0547H118.68L115.734 59H113.516ZM125.484 54.6172C125.484 55.4818 125.625 56.1354 125.906 56.5781C126.193 57.0208 126.656 57.2422 127.297 57.2422C127.932 57.2422 128.388 57.0234 128.664 56.5859C128.945 56.1432 129.086 55.487 129.086 54.6172C129.086 53.7526 128.945 53.1042 128.664 52.6719C128.383 52.2396 127.922 52.0234 127.281 52.0234C126.646 52.0234 126.188 52.2396 125.906 52.6719C125.625 53.099 125.484 53.7474 125.484 54.6172ZM131.523 54.6172C131.523 56.0391 131.148 57.151 130.398 57.9531C129.648 58.7552 128.604 59.1562 127.266 59.1562C126.427 59.1562 125.688 58.974 125.047 58.6094C124.406 58.2396 123.914 57.7109 123.57 57.0234C123.227 56.3359 123.055 55.5339 123.055 54.6172C123.055 53.1901 123.427 52.0807 124.172 51.2891C124.917 50.4974 125.964 50.1016 127.312 50.1016C128.151 50.1016 128.891 50.2839 129.531 50.6484C130.172 51.013 130.664 51.5365 131.008 52.2188C131.352 52.901 131.523 53.7005 131.523 54.6172ZM137.172 57.2578C137.589 57.2578 138.089 57.1667 138.672 56.9844V58.7578C138.078 59.0234 137.349 59.1562 136.484 59.1562C135.531 59.1562 134.836 58.9167 134.398 58.4375C133.966 57.9531 133.75 57.2292 133.75 56.2656V52.0547H132.609V51.0469L133.922 50.25L134.609 48.4062H136.133V50.2656H138.578V52.0547H136.133V56.2656C136.133 56.6042 136.227 56.8542 136.414 57.0156C136.607 57.1771 136.859 57.2578 137.172 57.2578ZM142.344 54.6172C142.344 55.4818 142.484 56.1354 142.766 56.5781C143.052 57.0208 143.516 57.2422 144.156 57.2422C144.792 57.2422 145.247 57.0234 145.523 56.5859C145.805 56.1432 145.945 55.487 145.945 54.6172C145.945 53.7526 145.805 53.1042 145.523 52.6719C145.242 52.2396 144.781 52.0234 144.141 52.0234C143.505 52.0234 143.047 52.2396 142.766 52.6719C142.484 53.099 142.344 53.7474 142.344 54.6172ZM148.383 54.6172C148.383 56.0391 148.008 57.151 147.258 57.9531C146.508 58.7552 145.464 59.1562 144.125 59.1562C143.286 59.1562 142.547 58.974 141.906 58.6094C141.266 58.2396 140.773 57.7109 140.43 57.0234C140.086 56.3359 139.914 55.5339 139.914 54.6172C139.914 53.1901 140.286 52.0807 141.031 51.2891C141.776 50.4974 142.823 50.1016 144.172 50.1016C145.01 50.1016 145.75 50.2839 146.391 50.6484C147.031 51.013 147.523 51.5365 147.867 52.2188C148.211 52.901 148.383 53.7005 148.383 54.6172ZM155.227 50.1016C155.549 50.1016 155.818 50.125 156.031 50.1719L155.852 52.4062C155.659 52.3542 155.424 52.3281 155.148 52.3281C154.388 52.3281 153.794 52.5234 153.367 52.9141C152.945 53.3047 152.734 53.8516 152.734 54.5547V59H150.352V50.2656H152.156L152.508 51.7344H152.625C152.896 51.2448 153.26 50.8516 153.719 50.5547C154.182 50.2526 154.685 50.1016 155.227 50.1016ZM168.703 55.8281C168.703 56.8594 168.331 57.6719 167.586 58.2656C166.846 58.8594 165.815 59.1562 164.492 59.1562C163.273 59.1562 162.195 58.9271 161.258 58.4688V56.2188C162.029 56.5625 162.68 56.8047 163.211 56.9453C163.747 57.0859 164.237 57.1562 164.68 57.1562C165.211 57.1562 165.617 57.0547 165.898 56.8516C166.185 56.6484 166.328 56.3464 166.328 55.9453C166.328 55.7214 166.266 55.5234 166.141 55.3516C166.016 55.1745 165.831 55.0052 165.586 54.8438C165.346 54.6823 164.854 54.4245 164.109 54.0703C163.411 53.7422 162.888 53.4271 162.539 53.125C162.19 52.8229 161.911 52.4714 161.703 52.0703C161.495 51.6693 161.391 51.2005 161.391 50.6641C161.391 49.6536 161.732 48.8594 162.414 48.2812C163.102 47.7031 164.049 47.4141 165.258 47.4141C165.852 47.4141 166.417 47.4844 166.953 47.625C167.495 47.7656 168.06 47.9635 168.648 48.2188L167.867 50.1016C167.258 49.8516 166.753 49.6771 166.352 49.5781C165.956 49.4792 165.565 49.4297 165.18 49.4297C164.721 49.4297 164.37 49.5365 164.125 49.75C163.88 49.9635 163.758 50.2422 163.758 50.5859C163.758 50.7995 163.807 50.987 163.906 51.1484C164.005 51.3047 164.161 51.4583 164.375 51.6094C164.594 51.7552 165.107 52.0208 165.914 52.4062C166.982 52.9167 167.714 53.4297 168.109 53.9453C168.505 54.4557 168.703 55.0833 168.703 55.8281ZM174.133 59.1562C171.414 59.1562 170.055 57.6641 170.055 54.6797C170.055 53.1953 170.424 52.0625 171.164 51.2812C171.904 50.4948 172.964 50.1016 174.344 50.1016C175.354 50.1016 176.26 50.2995 177.062 50.6953L176.359 52.5391C175.984 52.388 175.635 52.2656 175.312 52.1719C174.99 52.0729 174.667 52.0234 174.344 52.0234C173.104 52.0234 172.484 52.9036 172.484 54.6641C172.484 56.3724 173.104 57.2266 174.344 57.2266C174.802 57.2266 175.227 57.1667 175.617 57.0469C176.008 56.9219 176.398 56.7292 176.789 56.4688V58.5078C176.404 58.7526 176.013 58.9219 175.617 59.0156C175.227 59.1094 174.732 59.1562 174.133 59.1562ZM184.367 59L183.906 57.8125H183.844C183.443 58.3177 183.029 58.6693 182.602 58.8672C182.18 59.0599 181.628 59.1562 180.945 59.1562C180.107 59.1562 179.445 58.9167 178.961 58.4375C178.482 57.9583 178.242 57.276 178.242 56.3906C178.242 55.4635 178.565 54.7812 179.211 54.3438C179.862 53.901 180.841 53.6562 182.148 53.6094L183.664 53.5625V53.1797C183.664 52.2943 183.211 51.8516 182.305 51.8516C181.607 51.8516 180.786 52.0625 179.844 52.4844L179.055 50.875C180.06 50.349 181.174 50.0859 182.398 50.0859C183.57 50.0859 184.469 50.3411 185.094 50.8516C185.719 51.362 186.031 52.138 186.031 53.1797V59H184.367ZM183.664 54.9531L182.742 54.9844C182.049 55.0052 181.534 55.1302 181.195 55.3594C180.857 55.5885 180.688 55.9375 180.688 56.4062C180.688 57.0781 181.073 57.4141 181.844 57.4141C182.396 57.4141 182.836 57.2552 183.164 56.9375C183.497 56.6198 183.664 56.1979 183.664 55.6719V54.9531ZM196.555 59H194.172V53.8984C194.172 53.2682 194.06 52.7969 193.836 52.4844C193.612 52.1667 193.255 52.0078 192.766 52.0078C192.099 52.0078 191.617 52.2318 191.32 52.6797C191.023 53.1224 190.875 53.8594 190.875 54.8906V59H188.492V50.2656H190.312L190.633 51.3828H190.766C191.031 50.9609 191.396 50.6432 191.859 50.4297C192.328 50.2109 192.859 50.1016 193.453 50.1016C194.469 50.1016 195.24 50.3776 195.766 50.9297C196.292 51.4766 196.555 52.2682 196.555 53.3047V59Z" fill="black"/>
<g clip-path="url(#clip0)">
<path d="M164.905 1.24512H160.849C160.38 1.24512 160 1.62527 160 2.09417C160 2.56308 160.38 2.94323 160.849 2.94323H164.905C165.696 2.94323 166.34 3.5867 166.34 4.37763V8.4338C166.34 8.9027 166.72 9.28285 167.189 9.28285C167.658 9.28285 168.038 8.9027 168.038 8.4338V4.37763C168.038 2.65036 166.632 1.24512 164.905 1.24512V1.24512Z" fill="black"/>
<path d="M139.906 9.28285C140.375 9.28285 140.755 8.9027 140.755 8.4338V4.37763C140.755 3.5867 141.398 2.94323 142.189 2.94323H146.245C146.714 2.94323 147.094 2.56308 147.094 2.09417C147.094 1.62527 146.714 1.24512 146.245 1.24512H142.189C140.462 1.24512 139.057 2.65036 139.057 4.37763V8.4338C139.057 8.9027 139.437 9.28285 139.906 9.28285Z" fill="black"/>
<path d="M146.189 27.283H142.132C141.342 27.283 140.698 26.6395 140.698 25.8486V21.7924C140.698 21.3235 140.318 20.9434 139.849 20.9434C139.38 20.9434 139 21.3235 139 21.7924V25.8486C139 27.5759 140.405 28.9811 142.132 28.9811H146.189C146.658 28.9811 147.038 28.6009 147.038 28.132C147.038 27.6631 146.658 27.283 146.189 27.283Z" fill="black"/>
<path d="M167.132 20.9434C166.663 20.9434 166.283 21.3235 166.283 21.7924V25.8486C166.283 26.6395 165.64 27.283 164.849 27.283H160.792C160.324 27.283 159.943 27.6631 159.943 28.132C159.943 28.6009 160.324 28.9811 160.792 28.9811H164.849C166.576 28.9811 167.981 27.5759 167.981 25.8486V21.7924C167.981 21.3235 167.601 20.9434 167.132 20.9434Z" fill="black"/>
<path d="M139.057 14.4902C139.057 14.9591 139.437 15.3392 139.906 15.3392H167.076C167.544 15.3392 167.925 14.9591 167.925 14.4902C167.925 14.0213 167.544 13.6411 167.076 13.6411H139.906C139.437 13.6411 139.057 14.0213 139.057 14.4902Z" fill="black"/>
<path d="M161.44 13.117L160.064 8.53125C159.844 7.7958 159.18 7.30176 158.412 7.30176H148.626C147.858 7.30176 147.194 7.7958 146.973 8.53125L145.598 13.117C144.865 13.3156 144.321 13.98 144.321 14.7753V19.9492C144.321 20.583 144.837 21.099 145.471 21.099V21.6739C145.471 22.6249 146.244 23.3985 147.195 23.3985H148.345C149.296 23.3985 150.07 22.6249 150.07 21.6739V21.099H156.968V21.6739C156.968 22.6249 157.742 23.3985 158.693 23.3985H159.843C160.794 23.3985 161.567 22.6249 161.567 21.6739V21.099C162.201 21.099 162.717 20.583 162.717 19.9492V14.7753C162.717 13.98 162.173 13.3156 161.44 13.117ZM148.075 8.86138C148.148 8.61604 148.37 8.45155 148.626 8.45155H158.412C158.668 8.45155 158.889 8.61604 158.963 8.86138L160.22 13.0506H146.818L148.075 8.86138ZM148.92 21.6739C148.92 21.9911 148.662 22.2488 148.345 22.2488H147.195C146.878 22.2488 146.62 21.9911 146.62 21.6739V21.099H148.92V21.6739ZM160.418 21.6739C160.418 21.9911 160.16 22.2488 159.843 22.2488H158.693C158.376 22.2488 158.118 21.9911 158.118 21.6739V21.099H160.418V21.6739ZM145.471 19.9493V14.7753C145.471 14.4581 145.728 14.2004 146.045 14.2004H160.992C161.31 14.2004 161.567 14.4581 161.567 14.7753V19.9493H145.471Z" fill="black"/>
<path d="M148.412 15.6196C147.461 15.6196 146.688 16.3932 146.688 17.3443C146.688 18.2953 147.461 19.0689 148.412 19.0689C149.363 19.0689 150.137 18.2953 150.137 17.3443C150.137 16.3932 149.363 15.6196 148.412 15.6196ZM148.412 17.9192C148.095 17.9192 147.837 17.6615 147.837 17.3443C147.837 17.0271 148.095 16.7694 148.412 16.7694C148.73 16.7694 148.987 17.0271 148.987 17.3443C148.987 17.6615 148.73 17.9192 148.412 17.9192Z" fill="black"/>
<path d="M159.063 15.6196C158.112 15.6196 157.339 16.3932 157.339 17.3443C157.339 18.2953 158.112 19.0689 159.063 19.0689C160.014 19.0689 160.788 18.2953 160.788 17.3443C160.788 16.3932 160.014 15.6196 159.063 15.6196ZM159.063 17.9192C158.746 17.9192 158.488 17.6615 158.488 17.3443C158.488 17.0271 158.746 16.7694 159.063 16.7694C159.38 16.7694 159.638 17.0271 159.638 17.3443C159.638 17.6615 159.38 17.9192 159.063 17.9192Z" fill="black"/>
</g>
<defs>
<clipPath id="clip0">
<rect width="28.9811" height="28.9811" fill="white" transform="translate(139)"/>
</clipPath>
</defs>
</svg>
