<svg width="38" height="38" viewBox="0 0 38 38" fill="none" xmlns="http://www.w3.org/2000/svg">
<g filter="url(#filter0_d)">
<circle cx="19" cy="15" r="15" fill="#D80A49"/>
<path d="M22.1765 8.82355C20.9483 8.82355 19.7694 9.40778 19 10.331C18.2306 9.40778 17.0518 8.82355 15.8235 8.82355C13.6494 8.82355 11.9412 10.569 11.9412 12.7905C11.9412 15.5169 14.3412 17.7384 17.9765 21.114L19 22.0588L20.0235 21.1068C23.6588 17.7384 26.0588 15.5169 26.0588 12.7905C26.0588 10.569 24.3506 8.82355 22.1765 8.82355ZM19.0706 20.0393L19 20.1114L18.9294 20.0393C15.5694 16.9306 13.353 14.875 13.353 12.7905C13.353 11.348 14.4118 10.2661 15.8235 10.2661C16.9106 10.2661 17.9694 10.9801 18.3435 11.9683H19.6635C20.0306 10.9801 21.0894 10.2661 22.1765 10.2661C23.5883 10.2661 24.6471 11.348 24.6471 12.7905C24.6471 14.875 22.4306 16.9306 19.0706 20.0393Z" fill="#F8F8F8"/>
</g>
<path d="M25.0078 9.96879C24.3463 9.32284 23.4323 9 22.2656 9C21.9427 9 21.6131 9.05599 21.2773 9.1679C20.9413 9.2799 20.6287 9.43101 20.3399 9.6211C20.0507 9.81114 19.8022 9.98961 19.5937 10.1562C19.3855 10.3229 19.1875 10.5 19 10.6875C18.8125 10.5 18.6145 10.3229 18.4063 10.1562C18.1979 9.98961 17.9492 9.81125 17.6601 9.6211C17.371 9.43092 17.0585 9.27993 16.7226 9.1679C16.3867 9.05601 16.0572 9 15.7343 9C14.5676 9 13.6536 9.32292 12.9922 9.96879C12.3307 10.6146 12 11.5104 12 12.6562C12 13.0052 12.0613 13.3646 12.1836 13.7343C12.306 14.1041 12.4454 14.4192 12.6016 14.6796C12.7578 14.9399 12.9349 15.1939 13.1329 15.4413C13.3308 15.6887 13.4754 15.8592 13.5665 15.953C13.6576 16.0466 13.7292 16.1144 13.7813 16.156L18.6562 20.8592C18.75 20.953 18.8646 20.9999 19 20.9999C19.1354 20.9999 19.25 20.953 19.3438 20.8594L24.211 16.1718C25.4037 14.9792 26 13.8073 26 12.6562C26 11.5104 25.6692 10.6146 25.0078 9.96879Z" fill="white"/>
<defs>
<filter id="filter0_d" x="0" y="0" width="38" height="38" filterUnits="userSpaceOnUse" color-interpolation-filters="sRGB">
<feFlood flood-opacity="0" result="BackgroundImageFix"/>
<feColorMatrix in="SourceAlpha" type="matrix" values="0 0 0 0 0 0 0 0 0 0 0 0 0 0 0 0 0 0 127 0"/>
<feOffset dy="4"/>
<feGaussianBlur stdDeviation="2"/>
<feColorMatrix type="matrix" values="0 0 0 0 0 0 0 0 0 0 0 0 0 0 0 0 0 0 0.25 0"/>
<feBlend mode="normal" in2="BackgroundImageFix" result="effect1_dropShadow"/>
<feBlend mode="normal" in="SourceGraphic" in2="effect1_dropShadow" result="shape"/>
</filter>
</defs>
</svg>
