<svg width="60" height="32" viewBox="0 0 60 32" fill="none" xmlns="http://www.w3.org/2000/svg">
<g filter="url(#filter0_d)">
<path d="M52.8945 5.73463C52.8048 5.66499 47.1087 1.22462 47.1087 1.22462C46.0993 0.437356 44.8272 0 43.5474 0H27.2879C25.8123 0 24.5604 0.592031 23.4095 1.46453L17.4475 5.9842C16.977 6.34095 16.4229 6.58509 15.8452 6.69015C15.8257 6.69367 15.8062 6.6979 15.7868 6.70263L8.88983 8.38553C7.26862 8.68955 5.86658 9.82087 5.22575 11.3444L4.33765 13.4541C3.77179 14.7953 3.92374 16.3342 4.74401 17.5704C5.56519 18.808 6.92465 19.5468 8.38062 19.5468H10.5527C10.8947 22.0581 13.0519 24 15.6554 24C18.2589 24 20.416 22.0581 20.758 19.5468H26.3227C26.8785 19.5468 27.329 19.0963 27.329 18.5405C27.329 17.9847 26.8785 17.5342 26.3227 17.5342H20.6359C20.0465 15.3086 17.958 13.6975 15.6551 13.6975C13.3537 13.6975 11.2635 15.3109 10.6742 17.5342H8.38062C7.60081 17.5342 6.8684 17.1317 6.42108 16.4577C5.96812 15.7749 5.8846 14.9653 6.19244 14.2357L6.39904 13.7449H7.97869C8.53449 13.7449 8.98503 13.2944 8.98503 12.7386C8.98503 12.1828 8.53449 11.7322 7.97869 11.7322H7.28442C7.72137 11.0214 8.45288 10.5095 9.27928 10.3604C9.29931 10.3567 9.31924 10.3525 9.33906 10.3477L16.2363 8.66479C17.1017 8.50237 17.9302 8.13666 18.6372 7.60693C19.2997 8.52199 20.3778 9.10728 21.5576 9.10728H33.5993C34.9023 9.10728 35.9624 8.0472 35.9624 6.74409V2.01288H39.0211V6.47771C39.0211 7.78072 40.0811 8.8408 41.3841 8.8408H48.7541C49.98 8.8408 51.1474 8.41411 52.0754 7.64969C53.0654 8.43444 53.5101 8.89001 53.5101 9.61186V16.3384C53.5101 16.9978 52.9727 17.5342 52.3121 17.5342H50.9943C50.4052 15.3042 48.3207 13.6975 46.0142 13.6975C43.7071 13.6975 41.6223 15.3036 41.0331 17.5342H35.1759C34.6201 17.5342 34.1696 17.9847 34.1696 18.5405C34.1696 19.0963 34.6201 19.5468 35.1759 19.5468H40.9112C41.2531 22.0581 43.4103 24 46.0138 24C48.6173 24 50.7745 22.0581 51.1165 19.5468H52.3122C54.0825 19.5468 55.5229 18.1076 55.5229 16.3384V9.61186C55.5228 7.77589 54.3048 6.83003 52.8945 5.73463ZM15.6554 21.9873C13.9248 21.9873 12.5168 20.5794 12.5168 18.8487C12.5168 17.2034 13.8544 15.7965 15.4982 15.7142C17.2612 15.6266 18.7939 17.0834 18.7939 18.8487C18.7939 20.5794 17.386 21.9873 15.6554 21.9873ZM33.9497 6.74399C33.9497 6.9372 33.7925 7.0945 33.5993 7.0945H21.5575C21.0195 7.0945 20.5294 6.81926 20.2405 6.39257L25.0041 2.78132C25.6551 2.28721 26.4704 2.01328 27.2873 2.01328H33.9496V6.74399H33.9497ZM41.3841 6.82802C41.1909 6.82802 41.0337 6.67083 41.0337 6.47761V2.01328H43.5472C44.3814 2.01328 45.2138 2.29808 45.8713 2.81232L50.4246 6.36168C49.9274 6.66388 49.3518 6.82812 48.7542 6.82812H41.3841V6.82802ZM46.0137 21.9873C44.2831 21.9873 42.8751 20.5794 42.8751 18.8487C42.8751 17.1465 44.3092 15.7102 46.0137 15.7102C47.7181 15.7102 49.1523 17.1475 49.1523 18.8487C49.1523 20.5794 47.7443 21.9873 46.0137 21.9873Z" fill="#D80A49"/>
<path d="M35.6098 12.7383C35.6098 12.1825 35.1592 11.7319 34.6034 11.7319H32.5675C32.0117 11.7319 31.5612 12.1825 31.5612 12.7383C31.5612 13.2941 32.0117 13.7446 32.5675 13.7446H34.6034C35.1592 13.7446 35.6098 13.2941 35.6098 12.7383Z" fill="#D80A49"/>
<path d="M31.7763 18.1557C31.5682 17.6484 30.9676 17.4019 30.462 17.6113C29.9555 17.821 29.7079 18.4191 29.9176 18.9256C30.1274 19.4321 30.7257 19.679 31.2318 19.47C31.7377 19.2611 31.9869 18.6613 31.7763 18.1557Z" fill="#D80A49"/>
</g>
<defs>
<filter id="filter0_d" x="0" y="0" width="59.5229" height="32" filterUnits="userSpaceOnUse" color-interpolation-filters="sRGB">
<feFlood flood-opacity="0" result="BackgroundImageFix"/>
<feColorMatrix in="SourceAlpha" type="matrix" values="0 0 0 0 0 0 0 0 0 0 0 0 0 0 0 0 0 0 127 0"/>
<feOffset dy="4"/>
<feGaussianBlur stdDeviation="2"/>
<feColorMatrix type="matrix" values="0 0 0 0 0.847059 0 0 0 0 0.0392157 0 0 0 0 0.286275 0 0 0 0.5 0"/>
<feBlend mode="hard-light" in2="BackgroundImageFix" result="effect1_dropShadow"/>
<feBlend mode="normal" in="SourceGraphic" in2="effect1_dropShadow" result="shape"/>
</filter>
</defs>
</svg>
