<svg width="23" height="23" viewBox="0 0 23 23" fill="none" xmlns="http://www.w3.org/2000/svg">
<g clip-path="url(#clip0)">
<path d="M19.8608 0.954712H16.751C16.3915 0.954712 16.1001 1.24616 16.1001 1.60566C16.1001 1.96515 16.3915 2.2566 16.751 2.2566H19.8608C20.4671 2.2566 20.9605 2.74993 20.9605 3.3563V6.46603C20.9605 6.82553 21.2519 7.11698 21.6114 7.11698C21.9709 7.11698 22.2624 6.82553 22.2624 6.46603V3.3563C22.2624 2.03207 21.185 0.954712 19.8608 0.954712V0.954712Z" fill="white"/>
<path d="M0.6944 7.11698C1.05389 7.11698 1.34534 6.82553 1.34534 6.46603V3.3563C1.34534 2.74993 1.83867 2.2566 2.445 2.2566H5.55478C5.91427 2.2566 6.20572 1.96515 6.20572 1.60566C6.20572 1.24616 5.91427 0.954712 5.55478 0.954712H2.445C1.12081 0.954712 0.043457 2.03207 0.043457 3.3563V6.46603C0.043457 6.82553 0.334906 7.11698 0.6944 7.11698Z" fill="white"/>
<path d="M5.51132 20.917H2.40155C1.79522 20.917 1.30189 20.4237 1.30189 19.8173V16.7076C1.30189 16.3481 1.01044 16.0566 0.650943 16.0566C0.291449 16.0566 0 16.3481 0 16.7076V19.8173C0 21.1415 1.07735 22.2189 2.40155 22.2189H5.51132C5.87082 22.2189 6.16226 21.9275 6.16226 21.568C6.16226 21.2085 5.87082 20.917 5.51132 20.917Z" fill="white"/>
<path d="M21.568 16.0566C21.2085 16.0566 20.917 16.3481 20.917 16.7076V19.8173C20.917 20.4237 20.4237 20.917 19.8174 20.917H16.7076C16.3481 20.917 16.0566 21.2085 16.0566 21.568C16.0566 21.9275 16.3481 22.2189 16.7076 22.2189H19.8174C21.1416 22.2189 22.2189 21.1415 22.2189 19.8173V16.7076C22.2189 16.3481 21.9275 16.0566 21.568 16.0566Z" fill="white"/>
<path d="M0.043457 11.1094C0.043457 11.4689 0.334906 11.7604 0.6944 11.7604H21.5246C21.8841 11.7604 22.1755 11.4689 22.1755 11.1094C22.1755 10.7499 21.8841 10.4585 21.5246 10.4585H0.6944C0.334906 10.4585 0.043457 10.7499 0.043457 11.1094Z" fill="white"/>
<path d="M17.2042 10.0565L16.1495 6.54076C15.9803 5.97691 15.4711 5.59814 14.8828 5.59814H7.37975C6.79137 5.59814 6.28218 5.97691 6.11305 6.54076L5.05832 10.0565C4.4962 10.2088 4.07935 10.7182 4.07935 11.3278V15.2945C4.07935 15.7805 4.47489 16.176 4.96083 16.176V16.6168C4.96083 17.3459 5.55393 17.939 6.28306 17.939H7.16454C7.89366 17.939 8.48677 17.3459 8.48677 16.6168V16.176H13.7757V16.6168C13.7757 17.3459 14.3688 17.939 15.0979 17.939H15.9794C16.7085 17.939 17.3016 17.3459 17.3016 16.6168V16.176C17.7876 16.176 18.1831 15.7805 18.1831 15.2945V11.3278C18.1832 10.7182 17.7663 10.2088 17.2042 10.0565ZM6.9575 6.79385C7.01389 6.60576 7.18348 6.47965 7.37973 6.47965H14.8827C15.079 6.47965 15.2486 6.60576 15.3049 6.79385L16.2685 10.0056H5.99394L6.9575 6.79385ZM7.60526 16.6168C7.60526 16.86 7.4077 17.0576 7.16451 17.0576H6.28303C6.03984 17.0576 5.84228 16.86 5.84228 16.6168V16.1761H7.60526V16.6168ZM16.4202 16.6168C16.4202 16.86 16.2226 17.0576 15.9794 17.0576H15.0979C14.8547 17.0576 14.6572 16.86 14.6572 16.6168V16.1761H16.4202V16.6168ZM4.9608 15.2946V11.3279C4.9608 11.0847 5.15836 10.8871 5.40155 10.8871H16.8609C17.1041 10.8871 17.3017 11.0847 17.3017 11.3279V15.2946H4.9608Z" fill="white"/>
<path d="M7.21627 11.9751C6.48715 11.9751 5.89404 12.5682 5.89404 13.2973C5.89404 14.0265 6.48715 14.6196 7.21627 14.6196C7.9454 14.6196 8.5385 14.0265 8.5385 13.2973C8.5385 12.5682 7.9454 11.9751 7.21627 11.9751ZM7.21627 13.7381C6.97309 13.7381 6.77552 13.5405 6.77552 13.2973C6.77552 13.0541 6.97309 12.8566 7.21627 12.8566C7.45946 12.8566 7.65703 13.0541 7.65703 13.2973C7.65703 13.5405 7.45946 13.7381 7.21627 13.7381Z" fill="white"/>
<path d="M15.3818 11.9751C14.6527 11.9751 14.0596 12.5682 14.0596 13.2973C14.0596 14.0265 14.6527 14.6196 15.3818 14.6196C16.1109 14.6196 16.704 14.0265 16.704 13.2973C16.704 12.5682 16.1109 11.9751 15.3818 11.9751ZM15.3818 13.7381C15.1386 13.7381 14.941 13.5405 14.941 13.2973C14.941 13.0541 15.1386 12.8566 15.3818 12.8566C15.625 12.8566 15.8226 13.0541 15.8226 13.2973C15.8226 13.5405 15.625 13.7381 15.3818 13.7381Z" fill="white"/>
</g>
<defs>
<clipPath id="clip0">
<rect width="22.2189" height="22.2189" fill="white"/>
</clipPath>
</defs>
</svg>
