<svg width="204" height="123" viewBox="0 0 204 123" fill="none" xmlns="http://www.w3.org/2000/svg">
<path d="M70.131 37.8353C70.2189 39.727 71.1282 41.3401 72.5947 42.5279C73.2693 43.0851 73.4892 43.6864 73.4746 44.5076C73.4452 46.8538 73.4746 49.2001 73.4746 51.5317C73.4746 52.8222 74.1638 53.4967 75.4103 53.5407C76.9942 53.5847 78.5633 53.5994 80.1471 53.5407C81.599 53.4821 82.1709 52.8368 82.2002 51.3411C82.2296 49.6694 82.2736 47.983 82.1856 46.3259C82.1269 45.0795 82.5375 44.6689 83.8134 44.6835C89.9287 44.7422 96.0586 44.7129 102.174 44.7129C108.348 44.7129 114.522 44.7422 120.681 44.6835C121.957 44.6689 122.368 45.0941 122.309 46.3406C122.221 48.0123 122.265 49.684 122.294 51.3558C122.324 52.9102 122.91 53.5114 124.479 53.5554C125.961 53.5994 127.442 53.5994 128.923 53.5554C130.389 53.5114 130.976 52.8955 131.005 51.3997C131.035 49.2001 131.049 47.0005 131.005 44.8008C130.976 43.7743 131.211 42.9825 132.061 42.3079C133.396 41.2668 134.217 39.771 134.305 38.114C134.598 33.0401 134.686 27.9663 133 23.0685C132.369 21.2501 131.577 19.4611 129.979 18.2879C129.04 17.5987 128.644 16.7775 128.41 15.707C127.5 11.6157 126.078 7.715 123.599 4.28357C121.59 1.4827 119.039 -0.0570404 115.358 0.0016165C106.265 0.162923 97.188 0.0749383 88.0955 0.0309456C86.1158 0.0309456 84.4586 0.661508 82.9921 1.9373C81.643 3.11043 80.5871 4.5182 79.6925 6.05794C77.9474 9.1081 76.7742 12.3929 75.9969 15.8097C75.8503 16.4402 75.8796 17.2028 75.2637 17.6134C72.36 19.5637 71.4068 22.6285 70.7029 25.796C69.8377 29.7993 69.9403 33.832 70.131 37.8353Z" fill="#D80A49"/>
<path d="M82.6362 16.7299C84.3714 16.7299 86.1067 16.7299 87.8552 16.7299C87.2856 15.735 86.9545 14.563 86.9545 13.2956C86.9545 9.80691 89.4713 6.97231 92.5709 6.97231C95.6706 6.97231 98.187 9.80691 98.187 13.2956C98.187 14.563 97.856 15.7486 97.287 16.7299C98.876 16.7299 100.479 16.7299 102.069 16.7299C103.618 16.7299 105.181 16.7299 106.731 16.7299C106.162 15.735 105.83 14.563 105.83 13.2956C105.83 9.80691 108.347 6.97231 111.447 6.97231C114.547 6.97231 117.063 9.80691 117.063 13.2956C117.063 14.563 116.732 15.7486 116.149 16.7435C117.977 16.7435 119.792 16.7435 121.62 16.7571C122.64 16.7571 123.051 16.5254 122.746 15.3943C121.912 12.2054 120.812 9.13914 118.905 6.42719C117.739 4.79184 116.322 3.91965 114.202 3.94691C106.135 4.04231 98.055 4.05593 89.9879 3.94691C87.7758 3.91965 86.3054 4.84635 85.1 6.5771C83.2853 9.18003 82.2388 12.1372 81.4175 15.1899C81.0201 16.6753 81.0731 16.7299 82.6362 16.7299Z" fill="white"/>
<path d="M89.7533 29.858C90.0906 30.2539 90.4866 30.6205 90.8972 30.9285C94.2408 33.4654 97.995 34.8292 103.362 34.8292C106.735 34.8145 110.724 33.3334 114.214 30.4446C114.933 29.8433 115.461 29.1101 114.772 28.2303C114.053 27.3064 113.173 27.629 112.367 28.2156C112.176 28.3622 112 28.5235 111.809 28.6702C106.178 33.0988 98.288 33.0841 92.6716 28.6409C92.1877 28.2596 91.7477 27.7903 91.0878 27.7317C90.5306 27.673 90.0319 27.761 89.7093 28.2743C89.3574 28.8022 89.328 29.3741 89.7533 29.858Z" fill="white"/>
<path d="M0.351196 75.5297H11.0748L19.9423 92.7492L28.6037 75.5297H39.3272V111H28.6037V92.079L22.0561 104.452H17.6739L11.0748 92.079V111H0.351196V75.5297ZM58.6005 111.412C55.7134 111.412 53.1356 110.845 50.8672 109.711C48.6331 108.577 46.8802 107.013 45.6085 105.02C44.3712 102.992 43.7525 100.672 43.7525 98.0595C43.7525 95.4473 44.3884 93.1445 45.6601 91.151C46.9318 89.1232 48.6847 87.5593 50.9188 86.4595C53.1872 85.3596 55.765 84.8097 58.6521 84.8097C61.5736 84.8097 64.1514 85.3768 66.3854 86.511C68.6539 87.6109 70.4068 89.1575 71.6441 91.151C72.8814 93.1445 73.5001 95.4473 73.5001 98.0595C73.5001 100.706 72.8642 103.043 71.5925 105.071C70.3552 107.065 68.6023 108.628 66.3339 109.763C64.0998 110.863 61.522 111.412 58.6005 111.412ZM58.7036 103.679C60.1128 103.679 61.2642 103.164 62.1579 102.132C63.0859 101.067 63.5499 99.7092 63.5499 98.0595C63.5499 96.4097 63.0859 95.0692 62.1579 94.0381C61.2642 92.9726 60.1128 92.4399 58.7036 92.4399C57.2945 92.4399 56.1259 92.9726 55.1979 94.0381C54.3042 95.0692 53.8574 96.4097 53.8574 98.0595C53.8574 99.7092 54.3042 101.067 55.1979 102.132C56.1259 103.164 57.2945 103.679 58.7036 103.679ZM88.4536 111.412C85.429 111.412 83.0747 110.553 81.3905 108.835C79.7064 107.082 78.8643 104.676 78.8643 101.617V91.5635H75.5647V85.1706H79.6376L84.4323 75.4266H89.6394V85.1706H95.6199V91.5635H89.6394V100.328C89.6394 101.187 89.9144 101.857 90.4643 102.339C91.0142 102.82 91.7876 103.06 92.7843 103.06C93.7123 103.06 94.5544 102.854 95.3105 102.442L95.723 109.66C94.8637 110.175 93.7467 110.605 92.3719 110.948C91.0314 111.258 89.7253 111.412 88.4536 111.412ZM112.623 111.412C109.736 111.412 107.158 110.845 104.89 109.711C102.656 108.577 100.903 107.013 99.6311 105.02C98.3941 102.992 97.7751 100.672 97.7751 98.0595C97.7751 95.4473 98.4111 93.1445 99.6831 91.151C100.954 89.1232 102.707 87.5593 104.941 86.4595C107.21 85.3596 109.787 84.8097 112.675 84.8097C115.596 84.8097 118.174 85.3768 120.408 86.511C122.676 87.6109 124.429 89.1575 125.667 91.151C126.904 93.1445 127.523 95.4473 127.523 98.0595C127.523 100.706 126.887 103.043 125.615 105.071C124.378 107.065 122.625 108.628 120.356 109.763C118.122 110.863 115.544 111.412 112.623 111.412ZM112.726 103.679C114.135 103.679 115.287 103.164 116.18 102.132C117.108 101.067 117.572 99.7092 117.572 98.0595C117.572 96.4097 117.108 95.0692 116.18 94.0381C115.287 92.9726 114.135 92.4399 112.726 92.4399C111.317 92.4399 110.148 92.9726 109.22 94.0381C108.327 95.0692 107.88 96.4097 107.88 98.0595C107.88 99.7092 108.327 101.067 109.22 102.132C110.148 103.164 111.317 103.679 112.726 103.679ZM131.387 85.5315H142.265V90.7901C143.056 88.7623 144.121 87.2672 145.461 86.3048C146.836 85.308 148.435 84.8097 150.256 84.8097L151.751 93.2132C148.486 93.2132 146.08 93.5741 144.533 94.2959C143.021 94.9833 142.265 96.0832 142.265 97.5955V111H131.387V85.5315ZM164.174 111.412C161.253 111.412 158.984 110.502 157.369 108.68C155.788 106.824 154.997 104.298 154.997 101.101V77.0248L165.875 75.4266V100.328C165.875 101.29 166.099 101.995 166.546 102.442C167.027 102.854 167.852 103.06 169.02 103.06C169.88 103.06 170.722 102.854 171.547 102.442L171.907 109.66C169.605 110.828 167.027 111.412 164.174 111.412ZM188.299 122.806C186.408 122.806 184.604 122.617 182.885 122.239L183.71 114.609C185.051 114.815 186.288 114.918 187.422 114.918C189.45 114.918 190.997 114.3 192.062 113.062C193.128 111.859 193.677 109.574 193.712 106.205C191.925 109.642 189.055 111.361 185.102 111.361C181.768 111.361 179.156 110.192 177.266 107.855C175.41 105.484 174.482 102.218 174.482 98.0595V85.1706H185.308V99.6577C185.308 100.826 185.635 101.806 186.288 102.596C186.941 103.353 187.835 103.731 188.969 103.731C190.137 103.731 191.083 103.232 191.804 102.236C192.56 101.239 192.939 99.9326 192.939 98.3172V85.1706H203.817V104.452C203.817 110.433 202.476 114.987 199.795 118.115C197.115 121.242 193.282 122.806 188.299 122.806Z" fill="white"/>
</svg>
