<svg width="211" height="60" viewBox="0 0 211 60" fill="none" xmlns="http://www.w3.org/2000/svg">
<path d="M44.41 59.77H15.36C6.88 59.77 0 52.89 0 44.41V15.36C0 6.88 6.88 0 15.36 0H44.4C52.88 0 59.76 6.88 59.76 15.36V44.4C59.77 52.89 52.89 59.77 44.41 59.77Z" fill="#D80A49"/>
<path d="M95.3 42.44V23.47L87.67 42.43H85.15L77.52 23.47V42.43H71.75V15.35H79.83L86.41 31.72L92.99 15.35H101.11V42.44H95.3Z" fill="#D80A49"/>
<path d="M105.08 32.61C105.08 27.05 108.98 22.34 115.44 22.34C121.94 22.34 125.84 27.05 125.84 32.61C125.84 38.21 121.94 42.92 115.44 42.92C108.98 42.93 105.08 38.22 105.08 32.61ZM120.47 32.61C120.47 29.56 118.64 26.92 115.43 26.92C112.22 26.92 110.44 29.56 110.44 32.61C110.44 35.7 112.23 38.34 115.43 38.34C118.65 38.34 120.47 35.7 120.47 32.61Z" fill="#D80A49"/>
<path d="M130.67 37.57V27.33H127.42V22.82H130.67V17.46H135.87V22.82H139.85V27.33H135.87V36.18C135.87 37.4 136.52 38.33 137.66 38.33C138.43 38.33 139.16 38.05 139.45 37.76L140.55 41.66C139.78 42.35 138.4 42.92 136.25 42.92C132.61 42.93 130.67 41.06 130.67 37.57Z" fill="#D80A49"/>
<path d="M142.12 32.61C142.12 27.05 146.02 22.34 152.48 22.34C158.98 22.34 162.88 27.05 162.88 32.61C162.88 38.21 158.98 42.92 152.48 42.92C146.01 42.93 142.12 38.22 142.12 32.61ZM157.51 32.61C157.51 29.56 155.68 26.92 152.47 26.92C149.26 26.92 147.48 29.56 147.48 32.61C147.48 35.7 149.27 38.34 152.47 38.34C155.68 38.34 157.51 35.7 157.51 32.61Z" fill="#D80A49"/>
<path d="M166.68 42.44V22.82H171.84V25.5C173.22 23.75 175.66 22.33 178.09 22.33V27.37C177.72 27.29 177.24 27.25 176.67 27.25C174.96 27.25 172.69 28.22 171.84 29.48V42.43H166.68V42.44Z" fill="#D80A49"/>
<path d="M181.3 42.44V15.35H186.46V42.44H181.3Z" fill="#D80A49"/>
<path d="M191.65 45.48C192.1 45.68 192.79 45.81 193.27 45.81C194.61 45.81 195.5 45.44 195.99 44.39L196.72 42.73L188.76 22.83H194.28L199.4 36.47L204.52 22.83H210.08L200.86 45.65C199.4 49.35 196.8 50.32 193.43 50.4C192.82 50.4 191.52 50.28 190.87 50.12L191.65 45.48Z" fill="#D80A49"/>
<path d="M7.96003 37.2C8.02003 38.49 8.64003 39.59 9.64003 40.4C10.1 40.78 10.25 41.19 10.24 41.75C10.22 43.35 10.24 44.95 10.24 46.54C10.24 47.42 10.71 47.88 11.56 47.91C12.64 47.94 13.71 47.95 14.79 47.91C15.78 47.87 16.17 47.43 16.19 46.41C16.21 45.27 16.24 44.12 16.18 42.99C16.14 42.14 16.42 41.86 17.29 41.87C21.46 41.91 25.64 41.89 29.81 41.89C34.02 41.89 38.23 41.91 42.43 41.87C43.3 41.86 43.58 42.15 43.54 43C43.48 44.14 43.51 45.28 43.53 46.42C43.55 47.48 43.95 47.89 45.02 47.92C46.03 47.95 47.04 47.95 48.05 47.92C49.05 47.89 49.45 47.47 49.47 46.45C49.49 44.95 49.5 43.45 49.47 41.95C49.45 41.25 49.61 40.71 50.19 40.25C51.1 39.54 51.66 38.52 51.72 37.39C51.92 33.93 51.98 30.47 50.83 27.13C50.4 25.89 49.86 24.67 48.77 23.87C48.13 23.4 47.86 22.84 47.7 22.11C47.08 19.32 46.11 16.66 44.42 14.32C43.05 12.41 41.31 11.36 38.8 11.4C32.6 11.51 26.41 11.45 20.21 11.42C18.86 11.42 17.73 11.85 16.73 12.72C15.81 13.52 15.09 14.48 14.48 15.53C13.29 17.61 12.49 19.85 11.96 22.18C11.86 22.61 11.88 23.13 11.46 23.41C9.48003 24.74 8.83003 26.83 8.35003 28.99C7.76003 31.72 7.83003 34.47 7.96003 37.2Z" stroke="white" stroke-width="1.4415" stroke-linecap="round" stroke-linejoin="round"/>
<path d="M15.21 23C16.52 23 17.83 23 19.15 23C18.72 22.27 18.47 21.41 18.47 20.48C18.47 17.92 20.37 15.84 22.71 15.84C25.05 15.84 26.95 17.92 26.95 20.48C26.95 21.41 26.7 22.28 26.27 23C27.47 23 28.68 23 29.88 23C31.05 23 32.23 23 33.4 23C32.97 22.27 32.72 21.41 32.72 20.48C32.72 17.92 34.62 15.84 36.96 15.84C39.3 15.84 41.2 17.92 41.2 20.48C41.2 21.41 40.95 22.28 40.51 23.01C41.89 23.01 43.26 23.01 44.64 23.02C45.41 23.02 45.72 22.85 45.49 22.02C44.86 19.68 44.03 17.43 42.59 15.44C41.71 14.24 40.64 13.6 39.04 13.62C32.95 13.69 26.85 13.7 20.76 13.62C19.09 13.6 17.98 14.28 17.07 15.55C15.7 17.46 14.91 19.63 14.29 21.87C13.99 22.96 14.03 23 15.21 23Z" fill="white"/>
<path d="M21.34 31.76C21.57 32.03 21.84 32.28 22.12 32.49C24.4 34.22 26.96 35.15 30.62 35.15C32.92 35.14 35.64 34.13 38.02 32.16C38.51 31.75 38.87 31.25 38.4 30.65C37.91 30.02 37.31 30.24 36.76 30.64C36.63 30.74 36.51 30.85 36.38 30.95C32.54 33.97 27.16 33.96 23.33 30.93C23 30.67 22.7 30.35 22.25 30.31C21.87 30.27 21.53 30.33 21.31 30.68C21.07 31.04 21.05 31.43 21.34 31.76Z" fill="white"/>
</svg>
