<svg width="210" height="126" viewBox="0 0 210 126" fill="none" xmlns="http://www.w3.org/2000/svg">
<path d="M73.131 37.8353C73.2189 39.727 74.1282 41.3401 75.5947 42.5279C76.2693 43.0851 76.4892 43.6864 76.4746 44.5076C76.4452 46.8538 76.4746 49.2001 76.4746 51.5317C76.4746 52.8222 77.1638 53.4967 78.4103 53.5407C79.9942 53.5847 81.5633 53.5994 83.1471 53.5407C84.599 53.4821 85.1709 52.8368 85.2002 51.3411C85.2296 49.6694 85.2736 47.983 85.1856 46.3259C85.1269 45.0795 85.5375 44.6689 86.8134 44.6835C92.9287 44.7422 99.0586 44.7129 105.174 44.7129C111.348 44.7129 117.522 44.7422 123.681 44.6835C124.957 44.6689 125.368 45.0941 125.309 46.3406C125.221 48.0123 125.265 49.684 125.294 51.3558C125.324 52.9102 125.91 53.5114 127.479 53.5554C128.961 53.5994 130.442 53.5994 131.923 53.5554C133.389 53.5114 133.976 52.8955 134.005 51.3997C134.035 49.2001 134.049 47.0005 134.005 44.8008C133.976 43.7743 134.211 42.9825 135.061 42.3079C136.396 41.2668 137.217 39.771 137.305 38.114C137.598 33.0401 137.686 27.9663 136 23.0685C135.369 21.2501 134.577 19.4611 132.979 18.2879C132.04 17.5987 131.644 16.7775 131.41 15.707C130.5 11.6157 129.078 7.715 126.599 4.28357C124.59 1.4827 122.039 -0.0570404 118.358 0.0016165C109.265 0.162923 100.188 0.0749383 91.0955 0.0309456C89.1158 0.0309456 87.4586 0.661508 85.9921 1.9373C84.643 3.11043 83.5871 4.5182 82.6925 6.05794C80.9474 9.1081 79.7742 12.3929 78.9969 15.8097C78.8503 16.4402 78.8796 17.2028 78.2637 17.6134C75.36 19.5637 74.4068 22.6285 73.7029 25.796C72.8377 29.7993 72.9403 33.832 73.131 37.8353Z" fill="#D80A49"/>
<path d="M85.6362 16.7299C87.3714 16.7299 89.1067 16.7299 90.8552 16.7299C90.2856 15.735 89.9545 14.563 89.9545 13.2956C89.9545 9.80691 92.4713 6.97231 95.5709 6.97231C98.6706 6.97231 101.187 9.80691 101.187 13.2956C101.187 14.563 100.856 15.7486 100.287 16.7299C101.876 16.7299 103.479 16.7299 105.069 16.7299C106.618 16.7299 108.181 16.7299 109.731 16.7299C109.162 15.735 108.83 14.563 108.83 13.2956C108.83 9.80691 111.347 6.97231 114.447 6.97231C117.547 6.97231 120.063 9.80691 120.063 13.2956C120.063 14.563 119.732 15.7486 119.149 16.7435C120.977 16.7435 122.792 16.7435 124.62 16.7571C125.64 16.7571 126.051 16.5254 125.746 15.3943C124.912 12.2054 123.812 9.13914 121.905 6.42719C120.739 4.79184 119.322 3.91965 117.202 3.94691C109.135 4.04231 101.055 4.05593 92.9879 3.94691C90.7758 3.91965 89.3054 4.84635 88.1 6.5771C86.2853 9.18003 85.2388 12.1372 84.4175 15.1899C84.0201 16.6753 84.0731 16.7299 85.6362 16.7299Z" fill="white"/>
<path d="M92.7533 29.858C93.0906 30.2539 93.4866 30.6205 93.8972 30.9285C97.2408 33.4654 100.995 34.8292 106.362 34.8292C109.735 34.8145 113.724 33.3334 117.214 30.4446C117.933 29.8433 118.461 29.1101 117.772 28.2303C117.053 27.3064 116.173 27.629 115.367 28.2156C115.176 28.3622 115 28.5235 114.809 28.6702C109.178 33.0988 101.288 33.0841 95.6716 28.6409C95.1877 28.2596 94.7477 27.7903 94.0878 27.7317C93.5306 27.673 93.0319 27.761 92.7093 28.2743C92.3574 28.8022 92.328 29.3741 92.7533 29.858Z" fill="white"/>
<path d="M3.3512 75.5297H14.0748L22.9423 92.7492L31.6037 75.5297H42.3272V111H31.6037V92.079L25.0561 104.452H20.6739L14.0748 92.079V111H3.3512V75.5297ZM61.6005 111.412C58.7134 111.412 56.1356 110.845 53.8672 109.711C51.6331 108.577 49.8802 107.013 48.6085 105.02C47.3712 102.992 46.7525 100.672 46.7525 98.0595C46.7525 95.4473 47.3884 93.1445 48.6601 91.151C49.9318 89.1232 51.6847 87.5593 53.9188 86.4595C56.1872 85.3596 58.765 84.8097 61.6521 84.8097C64.5736 84.8097 67.1514 85.3768 69.3854 86.511C71.6539 87.6109 73.4068 89.1575 74.6441 91.151C75.8814 93.1445 76.5001 95.4473 76.5001 98.0595C76.5001 100.706 75.8642 103.043 74.5925 105.071C73.3552 107.065 71.6023 108.628 69.3339 109.763C67.0998 110.863 64.522 111.412 61.6005 111.412ZM61.7036 103.679C63.1128 103.679 64.2642 103.164 65.1579 102.132C66.0859 101.067 66.5499 99.7092 66.5499 98.0595C66.5499 96.4097 66.0859 95.0692 65.1579 94.0381C64.2642 92.9726 63.1128 92.4399 61.7036 92.4399C60.2945 92.4399 59.1259 92.9726 58.1979 94.0381C57.3042 95.0692 56.8574 96.4097 56.8574 98.0595C56.8574 99.7092 57.3042 101.067 58.1979 102.132C59.1259 103.164 60.2945 103.679 61.7036 103.679ZM91.4536 111.412C88.429 111.412 86.0747 110.553 84.3905 108.835C82.7064 107.082 81.8643 104.676 81.8643 101.617V91.5635H78.5647V85.1706H82.6376L87.4323 75.4266H92.6394V85.1706H98.6199V91.5635H92.6394V100.328C92.6394 101.187 92.9144 101.857 93.4643 102.339C94.0142 102.82 94.7876 103.06 95.7843 103.06C96.7123 103.06 97.5544 102.854 98.3105 102.442L98.723 109.66C97.8637 110.175 96.7467 110.605 95.3719 110.948C94.0314 111.258 92.7253 111.412 91.4536 111.412ZM115.623 111.412C112.736 111.412 110.158 110.845 107.89 109.711C105.656 108.577 103.903 107.013 102.631 105.02C101.394 102.992 100.775 100.672 100.775 98.0595C100.775 95.4473 101.411 93.1445 102.683 91.151C103.954 89.1232 105.707 87.5593 107.941 86.4595C110.21 85.3596 112.787 84.8097 115.675 84.8097C118.596 84.8097 121.174 85.3768 123.408 86.511C125.676 87.6109 127.429 89.1575 128.667 91.151C129.904 93.1445 130.523 95.4473 130.523 98.0595C130.523 100.706 129.887 103.043 128.615 105.071C127.378 107.065 125.625 108.628 123.356 109.763C121.122 110.863 118.544 111.412 115.623 111.412ZM115.726 103.679C117.135 103.679 118.287 103.164 119.18 102.132C120.108 101.067 120.572 99.7092 120.572 98.0595C120.572 96.4097 120.108 95.0692 119.18 94.0381C118.287 92.9726 117.135 92.4399 115.726 92.4399C114.317 92.4399 113.148 92.9726 112.22 94.0381C111.327 95.0692 110.88 96.4097 110.88 98.0595C110.88 99.7092 111.327 101.067 112.22 102.132C113.148 103.164 114.317 103.679 115.726 103.679ZM134.387 85.5315H145.265V90.7901C146.056 88.7623 147.121 87.2672 148.461 86.3048C149.836 85.308 151.435 84.8097 153.256 84.8097L154.751 93.2132C151.486 93.2132 149.08 93.5741 147.533 94.2959C146.021 94.9833 145.265 96.0832 145.265 97.5955V111H134.387V85.5315ZM167.174 111.412C164.253 111.412 161.984 110.502 160.369 108.68C158.788 106.824 157.997 104.298 157.997 101.101V77.0248L168.875 75.4266V100.328C168.875 101.29 169.099 101.995 169.546 102.442C170.027 102.854 170.852 103.06 172.02 103.06C172.88 103.06 173.722 102.854 174.547 102.442L174.907 109.66C172.605 110.828 170.027 111.412 167.174 111.412ZM191.299 122.806C189.408 122.806 187.604 122.617 185.885 122.239L186.71 114.609C188.051 114.815 189.288 114.918 190.422 114.918C192.45 114.918 193.997 114.3 195.062 113.062C196.128 111.859 196.677 109.574 196.712 106.205C194.925 109.642 192.055 111.361 188.102 111.361C184.768 111.361 182.156 110.192 180.266 107.855C178.41 105.484 177.482 102.218 177.482 98.0595V85.1706H188.308V99.6577C188.308 100.826 188.635 101.806 189.288 102.596C189.941 103.353 190.835 103.731 191.969 103.731C193.137 103.731 194.083 103.232 194.804 102.236C195.56 101.239 195.939 99.9326 195.939 98.3172V85.1706H206.817V104.452C206.817 110.433 205.476 114.987 202.795 118.115C200.115 121.242 196.282 122.806 191.299 122.806Z" fill="#D80A49"/>
</svg>
