<svg width="206" height="49" viewBox="0 0 206 49" fill="none" xmlns="http://www.w3.org/2000/svg">
<g clip-path="url(#clip0)">
<path d="M0.0899224 35.0513C0.150342 36.3387 0.774677 37.4365 1.78167 38.2448C2.24489 38.6241 2.39594 39.0332 2.38587 39.5921C2.36573 41.1889 2.38587 42.7857 2.38587 44.3724C2.38587 45.2507 2.85916 45.7097 3.7151 45.7397C4.80266 45.7696 5.88014 45.7796 6.96768 45.7397C7.96465 45.6997 8.35735 45.2606 8.37747 44.2427C8.39766 43.105 8.42787 41.9573 8.36744 40.8296C8.32714 39.9813 8.60908 39.7019 9.4852 39.7119C13.6844 39.7518 17.8936 39.7318 22.0927 39.7318C26.3322 39.7318 30.5716 39.7518 34.801 39.7119C35.6771 39.7019 35.9591 39.9913 35.9188 40.8396C35.8583 41.9773 35.8886 43.115 35.9087 44.2527C35.9289 45.3105 36.3317 45.7197 37.4091 45.7497C38.4262 45.7796 39.4433 45.7796 40.4603 45.7497C41.4673 45.7197 41.8701 45.3006 41.8903 44.2826C41.9104 42.7857 41.9204 41.2887 41.8903 39.7917C41.8701 39.0931 42.0313 38.5542 42.6153 38.0951C43.5316 37.3865 44.0956 36.3686 44.156 35.2409C44.3574 31.7879 44.4179 28.3349 43.2598 25.0016C42.8268 23.7641 42.283 22.5465 41.1854 21.7482C40.5409 21.2791 40.269 20.7203 40.1079 19.9917C39.4835 17.2074 38.5068 14.5527 36.8049 12.2175C35.4253 10.3113 33.6732 9.2634 31.1456 9.30335C24.9022 9.41312 18.669 9.35323 12.4256 9.32329C11.0662 9.32329 9.92824 9.75245 8.92124 10.6207C7.99486 11.4191 7.26981 12.3771 6.65553 13.425C5.4572 15.5008 4.65161 17.7363 4.1179 20.0616C4.0172 20.4907 4.03734 21.0096 3.6144 21.2891C1.62055 22.6164 0.966009 24.7022 0.48265 26.8579C-0.111476 29.5823 -0.0409869 32.3268 0.0899224 35.0513Z" fill="#D80A49"/>
<path d="M8.67661 20.6878C9.86811 20.6878 11.0597 20.6878 12.2603 20.6878C11.8692 20.0107 11.6418 19.2131 11.6418 18.3505C11.6418 15.9763 13.37 14.0472 15.4984 14.0472C17.6269 14.0472 19.3551 15.9763 19.3551 18.3505C19.3551 19.2131 19.1277 20.02 18.7366 20.6878C19.8281 20.6878 20.9287 20.6878 22.0201 20.6878C23.0843 20.6878 24.1576 20.6878 25.2218 20.6878C24.8307 20.0107 24.6034 19.2131 24.6034 18.3505C24.6034 15.9763 26.3316 14.0472 28.46 14.0472C30.5883 14.0472 32.3166 15.9763 32.3166 18.3505C32.3166 19.2131 32.0892 20.02 31.689 20.697C32.9442 20.697 34.1903 20.697 35.4456 20.7063C36.1459 20.7063 36.4279 20.5487 36.2187 19.7788C35.6456 17.6086 34.8907 15.5218 33.5809 13.6762C32.7805 12.5632 31.8072 11.9696 30.3519 11.9882C24.8125 12.0531 19.2641 12.0624 13.7248 11.9882C12.2058 11.9696 11.1961 12.6003 10.3684 13.7782C9.12232 15.5496 8.40373 17.5622 7.83977 19.6397C7.56689 20.6507 7.60328 20.6878 8.67661 20.6878Z" fill="white"/>
<path d="M13.5641 29.6223C13.7957 29.8917 14.0677 30.1412 14.3496 30.3508C16.6455 32.0773 19.2234 33.0054 22.909 33.0054C25.2251 32.9955 27.9642 31.9875 30.3608 30.0214C30.8543 29.6123 31.2168 29.1133 30.7435 28.5145C30.2501 27.8858 29.6459 28.1053 29.092 28.5045C28.9611 28.6043 28.8403 28.7141 28.7093 28.8139C24.8425 31.8278 19.4248 31.8178 15.568 28.7939C15.2358 28.5345 14.9336 28.2151 14.4805 28.1752C14.0979 28.1353 13.7554 28.1952 13.5339 28.5444C13.2923 28.9037 13.2721 29.2929 13.5641 29.6223Z" fill="white"/>
<path d="M63.8778 14.6522H71.241L77.3304 26.371L83.2776 14.6522H90.6414V38.7916H83.2776V25.9149L78.782 34.3356H75.773L71.241 25.9149V38.7916H63.8778V14.6522ZM103.876 39.0723C101.893 39.0723 100.123 38.6864 98.5655 37.9145C97.0315 37.1426 95.8278 36.0783 94.9544 34.7216C94.1049 33.3415 93.6799 31.7627 93.6799 29.985C93.6799 28.2072 94.1166 26.64 94.9901 25.2834C95.8628 23.9033 97.0665 22.839 98.6006 22.0905C100.159 21.342 101.929 20.9678 103.911 20.9678C105.917 20.9678 107.687 21.3537 109.221 22.1256C110.779 22.8741 111.982 23.9267 112.832 25.2834C113.682 26.64 114.107 28.2072 114.107 29.985C114.107 31.7861 113.67 33.3767 112.797 34.7567C111.947 36.1134 110.744 37.1776 109.186 37.9496C107.652 38.6981 105.882 39.0723 103.876 39.0723ZM103.946 33.8094C104.914 33.8094 105.705 33.4585 106.319 32.7567C106.956 32.0317 107.275 31.1077 107.275 29.985C107.275 28.8622 106.956 27.9499 106.319 27.2482C105.705 26.5231 104.914 26.1605 103.946 26.1605C102.979 26.1605 102.177 26.5231 101.539 27.2482C100.926 27.9499 100.619 28.8622 100.619 29.985C100.619 31.1077 100.926 32.0317 101.539 32.7567C102.177 33.4585 102.979 33.8094 103.946 33.8094ZM124.375 39.0723C122.298 39.0723 120.681 38.4876 119.525 37.318C118.368 36.1251 117.79 34.4877 117.79 32.4059V25.5641H115.524V21.2134H118.321L121.614 14.582H125.189V21.2134H129.296V25.5641H125.189V31.5287C125.189 32.1135 125.378 32.5697 125.755 32.8971C126.133 33.2246 126.664 33.3883 127.349 33.3883C127.986 33.3883 128.564 33.248 129.083 32.9673L129.367 37.8794C128.776 38.2302 128.009 38.5226 127.066 38.7565C126.145 38.9671 125.248 39.0723 124.375 39.0723ZM140.971 39.0723C138.989 39.0723 137.219 38.6864 135.661 37.9145C134.127 37.1426 132.923 36.0783 132.05 34.7216C131.2 33.3415 130.776 31.7627 130.776 29.985C130.776 28.2072 131.212 26.64 132.085 25.2834C132.959 23.9033 134.162 22.839 135.696 22.0905C137.254 21.342 139.024 20.9678 141.006 20.9678C143.013 20.9678 144.783 21.3537 146.317 22.1256C147.874 22.8741 149.078 23.9267 149.928 25.2834C150.778 26.64 151.202 28.2072 151.202 29.985C151.202 31.7861 150.766 33.3767 149.893 34.7567C149.042 36.1134 147.839 37.1776 146.281 37.9496C144.747 38.6981 142.977 39.0723 140.971 39.0723ZM141.042 33.8094C142.01 33.8094 142.8 33.4585 143.414 32.7567C144.051 32.0317 144.37 31.1077 144.37 29.985C144.37 28.8622 144.051 27.9499 143.414 27.2482C142.8 26.5231 142.01 26.1605 141.042 26.1605C140.075 26.1605 139.272 26.5231 138.635 27.2482C138.021 27.9499 137.714 28.8622 137.714 29.985C137.714 31.1077 138.021 32.0317 138.635 32.7567C139.272 33.4585 140.075 33.8094 141.042 33.8094ZM153.856 21.459H161.326V25.0377C161.868 23.6577 162.6 22.6402 163.52 21.9852C164.464 21.3069 165.562 20.9678 166.813 20.9678L167.839 26.6868C165.597 26.6868 163.945 26.9324 162.883 27.4236C161.845 27.8914 161.326 28.64 161.326 29.6692V38.7916H153.856V21.459ZM176.37 39.0723C174.363 39.0723 172.806 38.4524 171.697 37.2127C170.611 35.9496 170.068 34.2304 170.068 32.055V15.6697L177.538 14.582V31.5287C177.538 32.1837 177.692 32.6632 177.998 32.9673C178.329 33.248 178.895 33.3883 179.697 33.3883C180.287 33.3883 180.865 33.248 181.432 32.9673L181.68 37.8794C180.098 38.6746 178.329 39.0723 176.37 39.0723ZM192.935 46.8264C191.637 46.8264 190.398 46.6978 189.218 46.4405L189.784 41.2477C190.705 41.388 191.555 41.4582 192.333 41.4582C193.726 41.4582 194.787 41.0372 195.519 40.1951C196.251 39.3764 196.628 37.8209 196.652 35.5286C195.425 37.8677 193.454 39.0372 190.74 39.0372C188.451 39.0372 186.657 38.2419 185.359 36.6514C184.084 35.0374 183.447 32.8153 183.447 29.985V21.2134H190.882V31.0726C190.882 31.8679 191.106 32.5345 191.555 33.0725C192.003 33.5872 192.616 33.8445 193.396 33.8445C194.198 33.8445 194.847 33.5053 195.342 32.827C195.861 32.1486 196.121 31.2597 196.121 30.1604V21.2134H203.591V34.3356C203.591 38.4057 202.67 41.505 200.829 43.6336C198.989 45.7622 196.357 46.8264 192.935 46.8264Z" fill="#D80A49"/>
</g>
<defs>
<clipPath id="clip0">
<rect width="206" height="49" fill="white"/>
</clipPath>
</defs>
</svg>
