<svg width="24" height="24" viewBox="0 0 24 24" fill="none" xmlns="http://www.w3.org/2000/svg">
<circle cx="12" cy="12" r="10.5" stroke="white" stroke-width="3"/>
<path d="M13.6 15.4911C13.8909 15.782 13.8909 16.2184 13.6 16.5093C13.4545 16.6547 13.3091 16.7275 13.0909 16.7275C12.8727 16.7275 12.7273 16.6547 12.5818 16.5093L8.21818 12.1457C7.92727 11.8547 7.92727 11.4184 8.21818 11.1275L12.5818 6.76384C12.8727 6.47293 13.3091 6.47293 13.6 6.76384C13.8909 7.05475 13.8909 7.49111 13.6 7.78202L9.74545 11.6366L13.6 15.4911Z" fill="black"/>
<mask id="mask0_2593_1535" style="mask-type:alpha" maskUnits="userSpaceOnUse" x="8" y="6" width="6" height="11">
<path d="M13.6 15.4911C13.8909 15.782 13.8909 16.2184 13.6 16.5093C13.4545 16.6547 13.3091 16.7275 13.0909 16.7275C12.8727 16.7275 12.7273 16.6547 12.5818 16.5093L8.21818 12.1457C7.92727 11.8547 7.92727 11.4184 8.21818 11.1275L12.5818 6.76384C12.8727 6.47293 13.3091 6.47293 13.6 6.76384C13.8909 7.05475 13.8909 7.49111 13.6 7.78202L9.74545 11.6366L13.6 15.4911Z" fill="white"/>
</mask>
<g mask="url(#mask0_2593_1535)">
<rect x="2.18164" y="2.90918" width="17.4545" height="17.4545" fill="white"/>
</g>
</svg>
