<svg width="24" height="24" viewBox="0 0 24 24" fill="none" xmlns="http://www.w3.org/2000/svg">
<g clip-path="url(#clip0_2593_1525)">
<path d="M8.14302 6.36291L8.12153 8.88176L9.76434 10.5528L9.69665 18.4877L13.839 18.523L13.9066 10.5882L15.5777 8.94539L15.5992 6.42656L8.14302 6.36291ZM13.0176 17.6875L10.5322 17.6663L10.5907 10.8026L13.0762 10.8238L13.0176 17.6875ZM13.3258 9.99744L10.3552 9.97206L9.53372 9.13649L14.1614 9.17601L13.3258 9.99744ZM14.7543 8.35249L8.95499 8.30301L8.96441 7.19844L14.7637 7.24791L14.7543 8.35249Z" fill="white"/>
<path d="M10.9906 12.4632C10.9887 12.6844 11.0731 12.8932 11.2283 13.051C11.3834 13.2089 11.5908 13.2968 11.8121 13.2987C12.0333 13.3005 12.2421 13.2162 12.3999 13.061C12.5577 12.9059 12.6457 12.6986 12.6476 12.4773C12.6495 12.256 12.5651 12.0472 12.4099 11.8894C12.2547 11.7315 12.0474 11.6436 11.8262 11.6417C11.6049 11.6398 11.3961 11.7243 11.2383 11.8794C11.0804 12.0345 10.9925 12.2419 10.9906 12.4632Z" fill="white"/>
</g>
<path d="M22.5 12C22.5 17.799 17.799 22.5 12 22.5C6.20101 22.5 1.5 17.799 1.5 12C1.5 6.20101 6.20101 1.5 12 1.5C17.799 1.5 22.5 6.20101 22.5 12Z" stroke="white" stroke-width="3"/>
<defs>
<clipPath id="clip0_2593_1525">
<rect width="12.6647" height="12.6647" fill="white" transform="translate(2.87158 11.5452) rotate(-44.5112)"/>
</clipPath>
</defs>
</svg>
