<svg width="22" height="18" viewBox="0 0 22 18" fill="none" xmlns="http://www.w3.org/2000/svg">
<path d="M0.0436517 12.6221C0.0729817 13.2532 0.376057 13.7913 0.86489 14.1876C1.08975 14.3734 1.16308 14.574 1.15819 14.848C1.14841 15.6307 1.15819 16.4134 1.15819 17.1913C1.15819 17.6218 1.38794 17.8468 1.80345 17.8615C2.33139 17.8762 2.85444 17.8811 3.38237 17.8615C3.86633 17.8419 4.05697 17.6267 4.06673 17.1277C4.07653 16.57 4.0912 16.0074 4.06187 15.4546C4.0423 15.0387 4.17917 14.9018 4.60447 14.9067C6.6429 14.9263 8.6862 14.9164 10.7246 14.9164C12.7826 14.9164 14.8406 14.9263 16.8937 14.9067C17.319 14.9018 17.4559 15.0437 17.4363 15.4595C17.407 16.0172 17.4216 16.5749 17.4314 17.1326C17.4412 17.6511 17.6367 17.8517 18.1598 17.8664C18.6535 17.8811 19.1472 17.8811 19.6409 17.8664C20.1298 17.8517 20.3253 17.6462 20.3351 17.1472C20.3449 16.4134 20.3497 15.6796 20.3351 14.9458C20.3253 14.6034 20.4035 14.3392 20.687 14.1142C21.1319 13.7668 21.4056 13.2678 21.435 12.715C21.5327 11.0224 21.5621 9.32972 20.9999 7.69576C20.7897 7.08916 20.5257 6.49231 19.9929 6.10095C19.68 5.87103 19.5481 5.59708 19.4698 5.23995C19.1668 3.87507 18.6926 2.57377 17.8665 1.42904C17.1968 0.494643 16.3462 -0.0190426 15.1192 0.000540033C12.0885 0.0543506 9.0626 0.0249932 6.03183 0.0103146C5.37193 0.0103146 4.81953 0.220686 4.3307 0.6463C3.881 1.03765 3.52903 1.5073 3.23084 2.02096C2.64913 3.03852 2.25806 4.13435 1.99898 5.27418C1.9501 5.48455 1.95987 5.73892 1.75456 5.8759C0.786677 6.52657 0.468937 7.549 0.234296 8.6057C-0.0541147 9.94122 -0.0198966 11.2866 0.0436517 12.6221Z" fill="#D80A49"/>
<path d="M4.21203 5.58134C4.79043 5.58134 5.36887 5.58134 5.9517 5.58134C5.76183 5.24947 5.65143 4.85848 5.65143 4.43567C5.65143 3.27182 6.49037 2.32615 7.5236 2.32615C8.5568 2.32615 9.39573 3.27182 9.39573 4.43567C9.39573 4.85848 9.28537 5.254 9.0955 5.58134C9.62533 5.58134 10.1596 5.58134 10.6895 5.58134C11.2061 5.58134 11.7271 5.58134 12.2437 5.58134C12.0538 5.24947 11.9434 4.85848 11.9434 4.43567C11.9434 3.27182 12.7824 2.32615 13.8156 2.32615C14.8488 2.32615 15.6877 3.27182 15.6877 4.43567C15.6877 4.85848 15.5774 5.254 15.3831 5.58591C15.9924 5.58591 16.5973 5.58591 17.2067 5.59044C17.5466 5.59044 17.6835 5.51315 17.582 5.13581C17.3038 4.07197 16.9373 3.04904 16.3015 2.1443C15.9129 1.59875 15.4405 1.30778 14.734 1.31686C12.045 1.34868 9.3516 1.35325 6.6626 1.31686C5.9252 1.30778 5.4351 1.61694 5.0333 2.19431C4.42837 3.06268 4.07957 4.04922 3.8058 5.06762C3.67333 5.56316 3.691 5.58134 4.21203 5.58134Z" fill="white"/>
<path d="M6.58447 9.96093C6.69691 10.093 6.82891 10.2153 6.96577 10.3181C8.08031 11.1644 9.33171 11.6194 11.1208 11.6194C12.2452 11.6144 13.5748 11.1203 14.7382 10.1566C14.9777 9.95606 15.1537 9.71146 14.924 9.41792C14.6844 9.10974 14.3911 9.21736 14.1223 9.41302C14.0587 9.46196 14.0001 9.51577 13.9365 9.56468C12.0594 11.0421 9.42947 11.0372 7.55727 9.5549C7.39594 9.4277 7.24931 9.27117 7.02931 9.25159C6.84357 9.23204 6.67737 9.26136 6.56981 9.4326C6.45251 9.60871 6.44271 9.7995 6.58447 9.96093Z" fill="white"/>
</svg>
